<svg version="1" xmlns="http://www.w3.org/2000/svg" width="1024" height="1024" viewBox="0 0 768.000000 768.000000"><path d="M465.8.5c-.2.2-3.6.6-7.7.9-4.1.4-8.4.9-9.5 1.1-1.2.2-4.1.7-6.6 1-4.5.5-7.4 1-12 2-1.4.4-3.4.8-4.5.9-8.9 1.5-19.6 4.3-34 8.9-5.5 1.7-10.2 3.2-10.5 3.3-.3 0-1.4.4-2.5.9-1.1.4-6 2.3-11 4.3-9.9 3.8-32.6 14.3-34.7 15.9-.7.5-2.8 1.6-4.5 2.4-1.8.8-3.3 1.7-3.3 2.1 0 .5-.6.8-1.3.8-.7 0-2.2.7-3.3 1.6-1.8 1.4-1.8 1.5.6 1 2.4-.6-.2.8-13.5 7.1-3.3 1.5-6.4 3.4-6.8 4-.4.7-1.3 1.3-1.8 1.3-2.1 0-24.8 16.1-36.4 25.9-2.7 2.3-6.3 5.3-8 6.6-1.6 1.3-4 3.3-5.3 4.4-1.3 1-4.1 3.4-6.4 5.3-2.3 1.8-4.6 3.7-5.2 4.3-.6.5-4.1 3.6-7.8 6.8-11.1 9.6-23.7 22.5-40.3 41.2-4.8 5.5-9.9 11.1-11.1 12.5-6.5 7.1-22 25.9-24.6 30-.8 1.4-2.5 3.6-3.7 5-1.1 1.4-2.5 3-2.9 3.6-.5.5-1.5 2.1-2.2 3.4-.7 1.3-1.7 2.9-2.1 3.4-7 8.8-31.9 47.3-31.9 49.4 0 .6-.4 1.2-.9 1.4-.9.3-24 45.9-28.9 56.8-3.4 7.7-7.4 17.3-7.8 18.9-.2.9-3.2 9.9-6.7 20.1-5.6 16.3-9 27.1-10.2 32-.2.8-1.5 6.2-3 12s-2.9 11.4-3.1 12.5c-2 10.3-2.6 13.3-2.9 15-.2 1.1-.6 3.3-.9 4.9-.6 3.1-1.4 9.1-3.2 21.7-3.1 22.6-3.6 71.6-1 91.1.3 1.8.7 5.5 1 8.3.3 2.7.8 5.9 1 7 .2 1.1.7 4.2 1 7 .4 2.7.9 5.7 1.1 6.5.2.8.6 2.7.9 4.3.3 1.5.7 3.5 1 4.5.3.9.7 2.9 1 4.3 1.7 10.2 12.9 43.1 15.8 46.6.6.7.8 1.3.5 1.3-.7 0 10.5 21.8 12.6 24.5.4.5 3 4.6 5.8 9s7.4 10.9 10.2 14.5c2.8 3.6 5.6 7.1 6.2 7.9 4.3 5.7 27.9 28.1 36 34.2 29.3 21.9 64.2 35.3 100 38.6 14.2 1.2 52.3.5 62.8-1.2 1.2-.2 4.9-.7 8.2-1 3.3-.3 6.9-.8 8-1 1.1-.3 3.6-.7 5.5-.9 2.8-.4 12.6-2.4 25.2-5.1 1-.2 6.2-1.6 11.5-3.1 5.4-1.4 10.3-2.7 10.8-2.9.6-.1 1.7-.5 2.5-.8.8-.3 4.4-1.5 8-2.7 3.6-1.1 7.4-2.4 8.5-2.9 1.1-.5 6.3-2.6 11.5-4.7 8.7-3.4 26.3-12.1 38.2-18.8 2.6-1.4 5.4-2.6 6.2-2.6.9 0 1.6-.4 1.6-.9s1-1.3 2.2-1.7c1.2-.3 5-2.4 8.5-4.5 3.5-2.2 6.8-3.9 7.3-3.9.6 0 1-.5 1-1 0-.6.5-1 1.1-1 .9 0 19.7-12.5 20.9-14 .3-.3 2.1-1.7 4-3s4-2.9 4.7-3.5c.7-.5 1.8-1.5 2.5-2 5.5-4.2 17.6-14.3 18.9-15.7.9-1 1.9-1.8 2.2-1.8.4 0 1.9-1.2 3.5-2.7 1.6-1.6 7.3-6.9 12.7-11.8 18.6-17 36.6-35.7 50.2-52.1 1.8-2.1 3.9-4.6 4.6-5.4.7-.8 3.1-3.7 5.3-6.5 2.1-2.7 4.4-5.5 4.9-6.1.6-.6 1.7-2.2 2.5-3.4.8-1.2 2-2.8 2.6-3.4.6-.6 2.8-3.6 4.9-6.6 8.9-12.6 11-15.5 11.7-15.8.5-.2.8-.7.8-1.2 0-.4 1.4-2.4 3.1-4.3 1.7-2 3.7-4.5 4.3-5.6.6-1.1 4.6-7.7 8.9-14.6 4.2-6.9 7.7-12.8 7.7-13 0-.3 1.2-2.4 2.7-4.8 5.8-9.2 23.9-46.2 23.5-48-.1-.4.3-.7.8-.7.6 0 1-.6 1-1.3 0-.7 1.1-3.7 2.5-6.5 1.4-2.9 2.5-5.5 2.5-5.8 0-.3.7-2 1.5-3.7 2.1-4.7 11.5-28.9 11.5-29.8 0-.4.5-2 1.2-3.6.6-1.5 1.2-3.3 1.4-3.8.1-.6 2.1-6.9 4.3-14 2.3-7.2 4.3-13.9 4.6-15 .3-1.1 1.8-7.4 3.5-14 1.6-6.6 3.1-13.1 3.4-14.5.3-1.4.7-3.6 1-5 1.3-6.2 3.6-21.1 4.1-25.6.3-2.7.7-5.8 1-6.9 1.1-5.3 1.9-24.2 1.9-44.5 0-22.8-.6-32.4-3-48-.3-1.9-.7-4.9-.9-6.5-1.9-14.7-10.8-53.5-13.5-58.4-.4-.9-.8-1.8-.7-2.1.1-.9-3.5-11.4-5.6-16-1-2.5-2.6-6.1-3.4-8-5.5-12.9-19.8-36-29-47-9.7-11.6-34.6-35-37.2-35-.6 0-1.1-.4-1.1-.8 0-1.5-19.4-13.5-32.8-20.3-19.4-9.8-50-19.3-68.7-21.4-2.7-.3-6.6-.8-8.5-1.1-3.8-.6-47.6-1.4-48.2-.9zM327 46.4c0 .2-.7.7-1.6 1-.8.3-1.2.2-.9-.4.6-1 2.5-1.4 2.5-.6zm184.5 98c19.6 4.3 36.3 15.1 46.4 29.9 3.9 5.7 10.2 18.5 12.1 24.4.8 2.6 1.7 4 2.4 3.6.6-.4.5.1-.3 1-.8 1-.9 1.7-.3 1.7.6 0 .9.9.7 2-.2 1.1 0 2 .5 2s.9.8.8 1.7c0 1 .3 6.5.7 12.3 1.4 18.8 1 44.1-1 55.6-.3 1.6-.7 4.5-1 6.4-.3 1.9-.7 4.4-.9 5.5-.2 1.1-.6 3.3-1 5-1 4.5-1.6 7.7-2.2 10.5-.3 1.4-.9 3.9-1.5 5.6-.5 1.7-1.1 4-1.4 5-1.7 8.2-11.4 36.5-18.2 53.4-12.6 31.3-35 72.5-46.2 85-2.3 2.5-9.6 12.1-16.3 21.5-24.2 33.6-44.2 56.3-74.6 84.7-16.7 15.5-46.6 37.8-61.2 45.4-3 1.6-5.7 3.2-6 3.5-.6.9-15.6 8-24 11.5-8.1 3.3-19.5 6.9-26.3 8.4-2.9.5-6.3 1.3-7.7 1.6-6.1 1.4-31.6 1.3-37.7-.1-25.3-6-40-18.3-52.2-44-5.4-11.4-6.4-14.7-7.8-27-1-8.1-1-46.4 0-54.5 1.3-11.8 1.7-14.4 2.7-19.5.5-2.8 1.2-6.1 1.4-7.5.3-1.4.5-2.5.6-2.5.1 0 .3-1.1.5-2.5 1.8-12.5 11.4-41.4 21.4-64.3 1.1-2.6 2.1-4.9 2.1-5.2 0-.3 1.3-3.1 2.9-6.2 1.6-3.2 3.7-7.6 4.7-9.8 2.1-4.6 11.8-22.5 15.9-29.3.6-.9 4.8-8 9.4-15.7 4.6-7.7 9.8-16.1 11.7-18.8 1.9-2.6 3.4-5.2 3.4-5.7 0-.6.5-1 1-1 .6 0 1-.6 1-1.3 0-.8.9-2.2 2-3.2s2-2.2 2-2.7c0-.9 5.2-8.1 12.5-17.4 2.2-2.8 5.4-6.8 7-8.9 1.7-2.1 3.5-4.3 4-5 .6-.6 2.6-3.1 4.4-5.5 1.9-2.5 4.3-5.4 5.3-6.5.9-1.1 3.4-4 5.4-6.5 16-19.7 37.1-41.5 51.7-53.5 2-1.7 5.1-4.3 6.9-5.9 1.8-1.5 5-4 7.1-5.3 2-1.4 3.7-3 3.7-3.4 0-.5.6-.9 1.4-.9.8 0 1.6-.4 1.8-.8.4-1.2 24.4-17.2 25.6-17.2.6 0 1.2-.3 1.4-.8.5-1.1 6.8-4.5 20.8-11.3 13-6.4 14.2-6.9 20-8.9 1.9-.7 4.4-1.6 5.5-2 5.5-2.2 18.1-5.4 25.9-6.5 2.2-.3 4.2-.7 4.4-.9.6-.6 23.4.1 26.7.8z"/></svg>