<svg width="34" height="35" viewBox="0 0 34 35" fill="none" xmlns="http://www.w3.org/2000/svg">
<g clip-path="url(#clip0)">
<path d="M16.8327 34.2985C26.0674 34.2985 33.5536 26.8123 33.5536 17.5777C33.5536 8.34299 26.0674 0.856812 16.8327 0.856812C7.59808 0.856812 0.111908 8.34299 0.111908 17.5777C0.111908 26.8123 7.59808 34.2985 16.8327 34.2985Z" fill="#38569A"/>
<path d="M20.0307 11.3644H21.4926V8.12073H19.2541C16.1018 8.12073 14.5942 9.99383 14.5942 12.6893V15.2476H12.1272V18.3086H14.5942V26.1208H18.2947V18.3086H20.7617L21.447 15.2476H18.249V13.1461C18.3404 12.2781 18.8429 11.3644 20.0307 11.3644Z" fill="white"/>
</g>
<defs>
<clipPath id="clip0">
<rect width="33.4874" height="33.4874" fill="white" transform="translate(0.111908 0.856812)"/>
</clipPath>
</defs>
</svg>
