<?xml version="1.0" encoding="UTF-8"?> <svg xmlns="http://www.w3.org/2000/svg" width="111" height="49" viewBox="0 0 111 49" fill="none"> <path d="M5.22146 48L5.2155 43.8275H4.41678L2.87895 46.4204L1.31727 43.8275H0.518555V48H1.42456V45.5502L2.65245 47.5589H3.08161L4.30949 45.5025L4.31545 48H5.22146Z" fill="#B53CEE"></path> <path d="M7.21761 47.2251V46.2595H9.1548V45.5084H7.21761V44.6024H9.4111V43.8275H6.25795V48H9.48859V47.2251H7.21761Z" fill="#B53CEE"></path> <path d="M12.2299 48.0715C12.9571 48.0715 13.5591 47.8092 13.9525 47.3264L13.3326 46.7542C13.0524 47.082 12.7007 47.2489 12.2835 47.2489C11.5027 47.2489 10.9483 46.7006 10.9483 45.9138C10.9483 45.127 11.5027 44.5786 12.2835 44.5786C12.7007 44.5786 13.0524 44.7455 13.3326 45.0674L13.9525 44.4951C13.5591 44.0183 12.9571 43.756 12.2358 43.756C10.9364 43.756 9.97079 44.6561 9.97079 45.9138C9.97079 47.1714 10.9364 48.0715 12.2299 48.0715Z" fill="#B53CEE"></path> <path d="M17.73 43.8275H14.1119V44.6143H15.4411V48H16.3948V44.6143H17.73V43.8275Z" fill="#B53CEE"></path> <path d="M20.2689 48.0715C21.5803 48.0715 22.5518 47.1595 22.5518 45.9138C22.5518 44.668 21.5803 43.756 20.2689 43.756C18.9516 43.756 17.986 44.674 17.986 45.9138C17.986 47.1536 18.9516 48.0715 20.2689 48.0715ZM20.2689 47.2489C19.5239 47.2489 18.9636 46.7065 18.9636 45.9138C18.9636 45.121 19.5239 44.5786 20.2689 44.5786C21.014 44.5786 21.5743 45.121 21.5743 45.9138C21.5743 46.7065 21.014 47.2489 20.2689 47.2489Z" fill="#B53CEE"></path> <path d="M27.9283 43.8275H24.9838V48H25.9434L25.9374 44.6143H27.9223L27.9283 43.8275Z" fill="#B53CEE"></path> <path d="M31.7184 47.2132V43.8275H28.5116L28.4639 45.1329C28.4222 46.3012 28.2851 47.1953 27.7427 47.2132H27.5758L27.5698 48.8643H28.4639V48H31.4084V48.8643H32.3025V47.2132H31.7184ZM29.3163 45.2223L29.3341 44.6143H30.7647V47.2132H28.899C29.1851 46.8734 29.2805 46.1105 29.3163 45.2223Z" fill="#B53CEE"></path> <path d="M33.9122 47.2251V46.2595H35.8494V45.5084H33.9122V44.6024H36.1057V43.8275H32.9525V48H36.1832V47.2251H33.9122Z" fill="#B53CEE"></path> <path d="M41.5123 43.8275V45.4727H39.6168V43.8275H38.6512V48H39.6168V46.2893H41.5123V48H42.4779V43.8275H41.5123Z" fill="#B53CEE"></path> <path d="M46.7182 48H47.7315L45.8658 43.8275H44.9121L43.0524 48H44.0419L44.4114 47.1059H46.3486L46.7182 48ZM44.7214 46.3727L45.383 44.7753L46.0446 46.3727H44.7214Z" fill="#B53CEE"></path> <path d="M50.4441 43.8275V45.7051C50.1759 45.8243 49.8659 45.8899 49.55 45.8899C48.9718 45.8899 48.6559 45.5978 48.6559 45.0256V43.8275H47.7022V45.1329C47.7022 46.1403 48.3162 46.6946 49.4368 46.6946C49.7467 46.6946 50.0805 46.629 50.4441 46.4979V48H51.3978V43.8275H50.4441Z" fill="#B53CEE"></path> <path d="M52.4351 48H53.347L55.3379 45.2879V48H56.2916V43.8275H55.3856L53.3947 46.5456V43.8275H52.4351V48Z" fill="#B53CEE"></path> <path d="M60.1915 43.8275V45.4727H58.2961V43.8275H57.3304V48H58.2961V46.2893H60.1915V48H61.1571V43.8275H60.1915Z" fill="#B53CEE"></path> <path d="M65.3974 48H66.4107L64.545 43.8275H63.5913L61.7316 48H62.7211L63.0906 47.1059H65.0278L65.3974 48ZM63.4006 46.3727L64.0622 44.7753L64.7239 46.3727H63.4006Z" fill="#B53CEE"></path> <path d="M67.9237 47.2251V46.2595H69.8609V45.5084H67.9237V44.6024H70.1172V43.8275H66.964V48H70.1946V47.2251H67.9237Z" fill="#B53CEE"></path> <path d="M74.1635 43.8275H70.5454V44.6143H71.8746V48H72.8283V44.6143H74.1635V43.8275Z" fill="#B53CEE"></path> <path d="M76.6846 48.0715C77.4118 48.0715 78.0138 47.8092 78.4072 47.3264L77.7873 46.7542C77.5071 47.082 77.1555 47.2489 76.7382 47.2489C75.9574 47.2489 75.403 46.7006 75.403 45.9138C75.403 45.127 75.9574 44.5786 76.7382 44.5786C77.1555 44.5786 77.5071 44.7455 77.7873 45.0674L78.4072 44.4951C78.0138 44.0183 77.4118 43.756 76.6905 43.756C75.3911 43.756 74.4255 44.6561 74.4255 45.9138C74.4255 47.1714 75.3911 48.0715 76.6846 48.0715Z" fill="#B53CEE"></path> <path d="M80.4869 43.8275C79.3842 43.8275 78.6868 44.4117 78.6868 45.3833C78.6868 46.0389 79.0027 46.5158 79.563 46.7423L78.6928 48H79.712L80.4511 46.8913H81.3333V48H82.287V43.8275H80.4869ZM80.5108 44.6143H81.3333V46.1283H80.4869C79.9445 46.1283 79.6644 45.8541 79.6644 45.3713C79.6644 44.8707 79.9624 44.6143 80.5108 44.6143Z" fill="#B53CEE"></path> <path d="M85.0204 48H86.9993C88.0722 48 88.6862 47.5172 88.6862 46.6827C88.6862 45.884 88.1438 45.4548 87.1364 45.4548H85.9801V44.5965H88.3881V43.8275H85.0204V48ZM85.9801 47.2847V46.1641H86.9457C87.4523 46.1641 87.7086 46.3429 87.7086 46.7125C87.7086 47.088 87.4404 47.2847 86.9457 47.2847H85.9801Z" fill="#B53CEE"></path> <path d="M89.421 48H90.333L92.3238 45.2879V48H93.2775V43.8275H92.3715L90.3807 46.5456V43.8275H89.421V48Z" fill="#B53CEE"></path> <path d="M96.6887 45.8243C97.0582 45.6634 97.2907 45.3415 97.2907 44.9362C97.2907 44.1792 96.4562 43.7381 95.4906 43.7381C95.0138 43.7381 94.5131 43.8454 94.0601 44.0779L94.3521 44.8289C94.7098 44.6263 95.1211 44.5309 95.4727 44.5309C95.9436 44.5309 96.3132 44.7097 96.3132 45.0495C96.3132 45.3237 96.0867 45.4965 95.6933 45.4965H94.7455V46.2237H95.7648C96.1999 46.2237 96.486 46.3787 96.486 46.6946C96.486 47.082 96.039 47.2847 95.4906 47.2847C95.0853 47.2847 94.6204 47.1774 94.2389 46.9449L93.9408 47.6364C94.4594 47.9344 95.0495 48.0715 95.6039 48.0715C96.6052 48.0715 97.4636 47.6185 97.4636 46.8317C97.4636 46.3608 97.1715 45.9912 96.6887 45.8243Z" fill="#B53CEE"></path> <path d="M101.089 43.8275V45.4727H99.1936V43.8275H98.228V48H99.1936V46.2893H101.089V48H102.055V43.8275H101.089Z" fill="#B53CEE"></path> <path d="M104.06 47.2251V46.2595H105.997V45.5084H104.06V44.6024H106.253V43.8275H103.1V48H106.331V47.2251H104.06Z" fill="#B53CEE"></path> <path d="M109.072 48.0715C109.799 48.0715 110.401 47.8092 110.795 47.3264L110.175 46.7542C109.895 47.082 109.543 47.2489 109.126 47.2489C108.345 47.2489 107.79 46.7006 107.79 45.9138C107.79 45.127 108.345 44.5786 109.126 44.5786C109.543 44.5786 109.895 44.7455 110.175 45.0674L110.795 44.4951C110.401 44.0183 109.799 43.756 109.078 43.756C107.779 43.756 106.813 44.6561 106.813 45.9138C106.813 47.1714 107.779 48.0715 109.072 48.0715Z" fill="#B53CEE"></path> <path d="M47.98 34.3077H52.614C55.862 34.3077 58.088 32.4177 58.088 29.4077C58.088 26.3977 55.862 24.5077 52.614 24.5077H47.98V34.3077ZM50.752 32.0957V26.7197H52.502C54.168 26.7197 55.288 27.7137 55.288 29.4077C55.288 31.1017 54.168 32.0957 52.502 32.0957H50.752Z" fill="#B53CEE"></path> <path d="M65.3284 34.5037C68.4644 34.5037 70.7744 32.3477 70.7744 29.4077C70.7744 26.4677 68.4644 24.3117 65.3284 24.3117C62.1924 24.3117 59.8824 26.4677 59.8824 29.4077C59.8824 32.3477 62.1924 34.5037 65.3284 34.5037ZM65.3284 32.2077C63.8444 32.2077 62.6824 31.1017 62.6824 29.4077C62.6824 27.7137 63.8444 26.6077 65.3284 26.6077C66.8124 26.6077 67.9744 27.7137 67.9744 29.4077C67.9744 31.1017 66.8124 32.2077 65.3284 32.2077Z" fill="#B53CEE"></path> <path d="M73.0662 34.3077H80.5142V32.1097H75.8382V24.5077H73.0662V34.3077Z" fill="#B53CEE"></path> <path d="M82.4512 34.3077H85.2232V24.5077H82.4512V34.3077Z" fill="#B53CEE"></path> <path d="M94.6433 24.5077V29.7297L90.3173 24.5077H88.0353V34.3077H90.7513V29.0857L95.0773 34.3077H97.3593V24.5077H94.6433Z" fill="#B53CEE"></path> <path d="M107.491 34.3077H110.375L106.035 24.5077H103.305L98.9786 34.3077H101.807L102.577 32.4037H106.721L107.491 34.3077ZM103.389 30.3597L104.649 27.2237L105.909 30.3597H103.389Z" fill="#B53CEE"></path> <path d="M48.028 18H52.8888C56.2958 18 58.6308 16.0174 58.6308 12.8601C58.6308 9.70276 56.2958 7.72024 52.8888 7.72024H48.028V18ZM50.9356 15.6797V10.0405H52.7713C54.5189 10.0405 55.6937 11.0832 55.6937 12.8601C55.6937 14.637 54.5189 15.6797 52.7713 15.6797H50.9356Z" fill="#B53CEE"></path> <path d="M60.1605 18H63.0682V7.72024H60.1605V18Z" fill="#B53CEE"></path> <path d="M72.0243 15.4594C71.5103 15.6944 70.9964 15.7972 70.453 15.7972C68.7201 15.7972 67.5453 14.593 67.5453 12.8601C67.5453 11.0832 68.7201 9.92304 70.4824 9.92304C71.4663 9.92304 72.274 10.2902 72.9789 11.0685L74.8292 9.39437C73.8159 8.17549 72.2593 7.51465 70.3355 7.51465C67.002 7.51465 64.6082 9.73213 64.6082 12.8601C64.6082 15.9881 67.002 18.2056 70.2768 18.2056C71.7747 18.2056 73.4048 17.7503 74.5943 16.8986V12.6398H72.0243V15.4594Z" fill="#B53CEE"></path> <path d="M76.4377 18H79.3454V7.72024H76.4377V18Z" fill="#B53CEE"></path> <path d="M83.6022 18H86.5099V10.0258H89.6526V7.72024H80.4449V10.0258H83.6022V18Z" fill="#B53CEE"></path> <path d="M97.9147 18H100.94L96.3874 7.72024H93.5238L88.986 18H91.9524L92.7601 16.0028H97.107L97.9147 18ZM93.6119 13.8587L94.9335 10.5692L96.2552 13.8587H93.6119Z" fill="#B53CEE"></path> <path d="M101.764 18H109.577V15.6944H104.672V7.72024H101.764V18Z" fill="#B53CEE"></path> <path d="M0 13H12C19.1797 13 25 18.8203 25 26V26C25 33.1797 19.1797 39 12 39H0V13Z" fill="#671090"></path> <path opacity="0.5" d="M13 0H25C32.1797 0 38 5.8203 38 13V13C38 20.1797 32.1797 26 25 26H13V0Z" fill="#B53CEE"></path> </svg> 