<svg width="34" height="35" viewBox="0 0 34 35" fill="none" xmlns="http://www.w3.org/2000/svg">
<g clip-path="url(#clip0)">
<path d="M16.9483 34.2985C26.1829 34.2985 33.6691 26.8123 33.6691 17.5777C33.6691 8.34299 26.1829 0.856812 16.9483 0.856812C7.71361 0.856812 0.227432 8.34299 0.227432 17.5777C0.227432 26.8123 7.71361 34.2985 16.9483 34.2985Z" fill="#006699"/>
<path d="M13.7046 10.268C13.7046 11.2274 13.1107 12.0041 11.9686 12.0041C10.9178 12.0041 10.2325 11.2274 10.2325 10.3594C10.2325 9.4 10.9178 8.53198 11.9686 8.53198C13.0193 8.53198 13.7046 9.30863 13.7046 10.268Z" fill="white"/>
<path d="M13.7046 12.8721H10.2325V24.1564H13.7046V12.8721Z" fill="white"/>
<path d="M22.0651 13.0547C20.2376 13.0547 19.1869 14.1055 18.7757 14.7907H18.6843L18.5016 13.2831H15.395C15.395 14.2425 15.4864 15.3846 15.4864 16.6638V24.1562H18.9584V17.9887C18.9584 17.6232 18.9584 17.3948 19.0498 17.1207C19.3239 16.5268 19.7351 15.7501 20.6945 15.7501C21.928 15.7501 22.4305 16.8009 22.4305 18.1714V24.1562H25.9026V17.7603C25.8569 14.5166 24.2123 13.0547 22.0651 13.0547Z" fill="white"/>
</g>
<defs>
<clipPath id="clip0">
<rect width="33.4874" height="33.4874" fill="white" transform="translate(0.227432 0.856812)"/>
</clipPath>
</defs>
</svg>
