<svg width="361" height="299" viewBox="0 0 361 299" fill="none" xmlns="http://www.w3.org/2000/svg">
<g clip-path="url(#clip0)">
<path d="M306.822 89.5292L211.149 57.2192L211.079 57.1401L160.531 5.33514L120.002 42.3651L119.405 41.7146L160.566 4.1134L211.632 56.4545L306.488 88.4921L345.417 34.9292L346.128 35.4478L306.822 89.5292Z" fill="#F0F0F0"/>
<path d="M9.45744 169.056C9.45744 171.666 7.33918 173.785 4.72872 173.785C2.11826 173.785 0 171.666 0 169.056C0 166.446 2.11826 164.327 4.72872 164.327C7.33918 164.327 9.45744 166.446 9.45744 169.056Z" fill="#F0F0F0"/>
<path d="M165.277 4.7286C165.277 7.33906 163.159 9.45732 160.548 9.45732C157.938 9.45732 155.819 7.33906 155.819 4.7286C155.819 2.11813 157.938 -0.00012207 160.548 -0.00012207C163.159 -0.00012207 165.277 2.11813 165.277 4.7286Z" fill="#F0F0F0"/>
<path d="M350.505 35.1928C350.505 37.8033 348.387 39.9216 345.777 39.9216C343.166 39.9216 341.048 37.8033 341.048 35.1928C341.048 32.5824 343.166 30.4641 345.777 30.4641C348.387 30.4641 350.505 32.5824 350.505 35.1928Z" fill="#F0F0F0"/>
<path d="M350.918 284.725C350.918 287.336 348.8 289.454 346.19 289.454C343.579 289.454 341.461 287.336 341.461 284.725C341.461 282.115 343.579 279.996 346.19 279.996C348.8 279.996 350.918 282.115 350.918 284.725Z" fill="#F0F0F0"/>
<path d="M216.123 56.8413C216.123 59.4517 214.005 61.57 211.395 61.57C208.784 61.57 206.666 59.4517 206.666 56.8413C206.666 54.2308 208.784 52.1125 211.395 52.1125C214.005 52.1125 216.123 54.222 216.123 56.8413Z" fill="#F0F0F0"/>
<path d="M128.765 284.848L128.396 284.778L9.80908 262.382L9.97608 261.521L128.194 283.846L210.982 56.683L211.808 56.9906L128.765 284.848Z" fill="#F0F0F0"/>
<path d="M15.4894 77.7523L14.9067 78.4104L55.3712 114.238L55.9538 113.58L15.4894 77.7523Z" fill="#F0F0F0"/>
<path d="M345.953 285.103L287.327 248.767L288.602 248.416L350.207 189.149L306.251 89.1863L307.059 88.8347L351.253 189.36L351.033 189.571L289.305 248.961L346.419 284.356L345.953 285.103Z" fill="#F0F0F0"/>
<path d="M10.2659 262.189L9.52758 261.714L44.9578 206.982L4.10449 169.082L4.40333 168.757L55.5755 113.366L55.8831 113.542L289.049 248.425L288.61 249.189L55.7425 114.474L5.35259 169.038L46.1004 206.833L10.2659 262.189Z" fill="#F0F0F0"/>
<path d="M172.405 223.858C174.769 224.052 177.107 224.131 179.428 224.096C199.292 223.805 217.468 215.28 230.362 201.577C241.05 190.221 248.108 175.288 249.488 158.535C249.523 158.104 249.559 157.665 249.585 157.234C250.165 148.269 249.058 139.576 246.544 131.472V131.464C238.835 106.677 217.934 87.323 191.416 82.4009C189.043 81.9614 186.626 81.6362 184.165 81.4341C178.232 80.9419 172.405 81.1968 166.78 82.1109C150.124 84.8092 135.217 93.3262 124.432 105.658C114.737 116.75 108.374 130.936 107.073 146.748C106.37 155.221 107.178 163.475 109.27 171.227C116.9 199.511 141.545 221.3 172.405 223.858Z" fill="#447FFB"/>
<path d="M172.405 223.858C174.769 224.052 177.107 224.131 179.428 224.096C199.292 223.805 217.468 215.28 230.362 201.577C241.05 190.221 248.108 175.288 249.488 158.535C249.523 158.104 249.559 157.665 249.585 157.234C250.165 148.269 249.058 139.576 246.544 131.472V131.464C238.835 106.677 217.934 87.323 191.416 82.4009C189.043 81.9614 186.626 81.6362 184.165 81.4341C178.232 80.9419 172.405 81.1968 166.78 82.1109C150.124 84.8092 135.217 93.3262 124.432 105.658C114.737 116.75 108.374 130.936 107.073 146.748C106.37 155.221 107.178 163.475 109.27 171.227C116.9 199.511 141.545 221.3 172.405 223.858Z" fill="#C7E5F6"/>
<path d="M4.72852 78.0853C4.72852 81.9614 6.83798 85.3542 9.97581 87.156C11.514 88.0437 13.2982 88.5535 15.2055 88.5535C17.6402 88.5535 19.8815 87.7273 21.657 86.3298C24.1092 84.4137 25.6738 81.4341 25.6738 78.0853C25.6738 72.3018 20.989 67.6171 15.2055 67.6171C9.41329 67.6171 4.72852 72.3106 4.72852 78.0853Z" fill="#C7E5F6"/>
<path d="M9.32574 77.9271C9.4488 79.184 10.5387 79.3862 10.5387 79.3862C10.5387 79.3862 10.2838 80.0542 10.5826 80.8452C10.8815 81.6451 12.4899 81.6451 12.4899 81.6451C12.4899 81.6451 12.6306 82.0757 13.2195 82.1373C13.2546 82.1812 13.2898 82.2252 13.3249 82.2603C13.3953 82.3658 13.4744 82.4713 13.5535 82.5767C13.7556 84.1676 13.7117 85.8376 12.9382 86.6902C12.9382 86.6902 12.947 86.699 12.9558 86.7078C12.279 86.7781 11.5934 86.8748 10.9254 86.9803C10.6002 87.0242 10.2838 87.0857 9.96737 87.1473C11.5055 88.035 13.2898 88.5448 15.1971 88.5448C17.6318 88.5448 19.8731 87.7186 21.6485 86.321C21.3497 86.321 21.0069 86.3123 20.6378 86.3123C20.0928 86.3123 19.4775 86.3123 18.8008 86.3298C18.8008 86.321 18.792 86.3035 18.7832 86.2947C17.6581 86.1101 17.1044 85.5827 16.8847 84.9059C16.7704 84.5719 16.744 84.2028 16.7616 83.8248C17.0605 83.7721 17.3505 83.6754 17.6318 83.5348C18.414 83.1568 19.0732 82.4713 19.4072 81.5835C19.4512 81.4693 19.4951 81.3462 19.5303 81.2232C19.7676 80.3354 19.8643 79.2104 19.7588 78.1029C20.0489 77.9271 20.3653 77.6283 20.4708 77.0921C20.6817 76.0286 19.7324 75.7737 19.7324 75.7737C19.7324 75.7737 20.7696 75.6067 20.8048 74.3059C20.8487 73.005 19.7324 73.005 19.7324 73.005C19.7324 73.005 20.1104 72.4513 19.3721 71.4317C18.6338 70.4122 17.6054 71.0362 17.6054 71.0362C17.6054 71.0362 16.8231 69.8057 15.5487 70.1045C14.2742 70.4122 13.949 71.1593 13.949 71.1593C13.949 71.1593 13.949 70.4122 12.4987 70.8253C11.0485 71.2472 11.2243 72.9171 11.2243 72.9171C11.2243 72.9171 10.2486 72.4249 9.74764 73.4709C9.24664 74.5168 10.3365 76.345 10.3365 76.345C10.3365 76.345 9.20269 76.6615 9.32574 77.9271Z" fill="white"/>
<path d="M9.89689 271.26C15.0376 271.26 19.2049 267.092 19.2049 261.952C19.2049 256.811 15.0376 252.644 9.89689 252.644C4.75621 252.644 0.588867 256.811 0.588867 261.952C0.588867 267.092 4.75621 271.26 9.89689 271.26Z" fill="#C7E5F6"/>
<path d="M16.832 267.331C15.2236 269.396 12.7186 270.724 9.89715 270.724C8.06016 270.724 6.36379 270.161 4.95748 269.203C5.24753 268.535 5.43211 268.14 5.43211 268.14C6.53079 267.788 7.64705 267.515 8.7721 267.322C9.05336 267.067 9.4401 266.865 9.92352 266.751C10.1608 266.048 10.0202 265.274 9.86199 264.756C9.51041 264.518 9.21157 264.219 8.96547 263.868C8.78968 263.745 8.63147 263.587 8.49084 263.402C8.21837 263.288 6.355 262.426 6.25832 259.359C6.25832 259.236 6.25832 259.104 6.26711 258.981C5.68701 258.919 5.08932 259.104 5.50243 260.282C6.22316 262.312 5.46727 263.376 5.46727 263.376C5.50243 262.725 5.40574 262.031 5.40574 262.031C5.40574 264.132 4.27191 264.263 4.27191 264.263C4.27191 264.263 4.99264 263.507 3.92912 261.169C2.8656 258.832 3.17323 255.667 5.1948 255.535C6.28469 255.465 6.99663 255.975 7.43611 256.476C8.57873 255.456 10.3103 255.272 11.4177 256.01C11.4177 256.01 13.2371 255.571 13.7557 256.045C13.87 256.151 13.7821 256.388 13.5623 256.704C14.0282 257.012 14.4149 257.487 14.5819 258.207C14.8632 259.464 14.5028 260.422 14.0809 261.055C14.327 263.358 13.9315 265.09 12.0945 265.257C12.0945 265.318 12.0857 265.371 12.0857 265.424C12.0857 265.503 12.0769 265.582 12.0769 265.661C12.0681 266.1 12.1209 266.417 12.2 266.645C12.4725 266.698 12.7274 266.768 12.9647 266.856C14.6083 266.856 16.4453 267.032 16.4453 267.032C16.4453 267.032 16.4541 267.032 16.4629 267.041C16.5683 267.111 16.6914 267.208 16.832 267.331Z" fill="white"/>
<path d="M357.994 196.518C362.007 192.505 362.007 186 357.994 181.987C353.982 177.974 347.476 177.974 343.464 181.987C339.451 186 339.451 192.505 343.464 196.518C347.476 200.53 353.982 200.53 357.994 196.518Z" fill="#C7E5F6"/>
<path d="M358.794 194.616C357.062 197.226 354.1 198.94 350.734 198.94C348.502 198.94 346.445 198.184 344.801 196.901C344.696 196.312 344.81 195.741 344.854 195.31C344.977 194.124 346.339 193.174 346.313 192.339C346.287 191.513 344.915 190.441 345.803 189.966C346.691 189.492 346.884 187.646 346.172 186.609C345.584 185.923 345.144 184.851 346.225 183.462C346.902 182.601 347.878 182.196 348.862 182.029C349.548 181.66 350.47 181.484 351.727 181.616C352.931 181.748 353.863 182.091 354.575 182.583C355.278 183.075 355.762 183.708 356.061 184.411C356.061 184.411 357.124 186.45 356.368 188.604C355.885 189.984 358.038 189.905 358.1 191.179C358.161 192.445 357.089 192.524 357.282 193.376C357.361 193.772 358.1 194.141 358.794 194.616Z" fill="white"/>
<path d="M306.268 86.772L227.867 120.764L228.217 121.571L306.618 87.5784L306.268 86.772Z" fill="#447FFB"/>
<path d="M120.078 41.8072L119.331 42.2698L152.85 96.4239L153.598 95.9614L120.078 41.8072Z" fill="#447FFB"/>
<path d="M130.561 185.984L43.5918 204.208L43.7721 205.068L130.741 186.845L130.561 185.984Z" fill="#447FFB"/>
<path opacity="0.8" d="M306.268 86.772L227.867 120.764L228.217 121.571L306.618 87.5784L306.268 86.772Z" fill="white"/>
<path d="M238.447 172.062L237.702 172.528L287.739 252.395L288.484 251.928L238.447 172.062Z" fill="#447FFB"/>
<path opacity="0.8" d="M238.447 172.062L237.702 172.528L287.739 252.395L288.484 251.928L238.447 172.062Z" fill="white"/>
<path opacity="0.8" d="M120.078 41.8072L119.331 42.2698L152.85 96.4239L153.598 95.9614L120.078 41.8072Z" fill="white"/>
<path opacity="0.8" d="M130.561 185.984L43.5918 204.208L43.7721 205.068L130.741 186.845L130.561 185.984Z" fill="white"/>
<path d="M128.344 284.822L43.2002 204.776L55.2417 113.726L55.3296 113.63L119.484 41.6267L119.642 41.6091L235.909 25.5244L306.901 86.9978L306.875 87.2263L288.522 252.521L288.206 252.582L128.344 284.822ZM44.1319 204.442L128.616 283.864L287.723 251.782L305.978 87.3493L235.636 26.4385L119.923 42.4529L56.0767 114.113L44.1319 204.442Z" fill="#447FFB"/>
<path opacity="0.8" d="M128.344 284.822L43.2002 204.776L55.2417 113.726L55.3296 113.63L119.484 41.6267L119.642 41.6091L235.909 25.5244L306.901 86.9978L306.875 87.2263L288.522 252.521L288.206 252.582L128.344 284.822ZM44.1319 204.442L128.616 283.864L287.723 251.782L305.978 87.3493L235.636 26.4385L119.923 42.4529L56.0767 114.113L44.1319 204.442Z" fill="white"/>
<path d="M335.959 89.0107C335.959 95.594 333.779 101.685 330.114 106.581C328.813 108.33 327.31 109.921 325.649 111.309C324.172 112.593 322.546 113.718 320.806 114.667C316.622 116.987 311.788 118.315 306.655 118.315C302.339 118.315 298.226 117.374 294.534 115.687C294.192 115.546 293.849 115.379 293.515 115.203L293.506 115.194C291.441 114.175 289.507 112.9 287.758 111.415C285.139 109.218 282.906 106.554 281.21 103.557C278.749 99.2679 277.342 94.3107 277.342 89.0195C277.342 72.8381 290.465 59.7067 306.655 59.7067C322.845 59.7067 335.959 72.8293 335.959 89.0107Z" fill="#C7E5F6"/>
<path d="M287.766 102.309L290.509 90.9091C290.509 90.9091 292.249 89.5203 292.363 88.5096C292.469 87.4988 291.291 81.5307 290.535 81.1704C289.779 80.81 285.314 82.3657 285.094 83.6402C284.875 84.9147 286.641 89.9335 286.993 90.3378L282.484 103.601L287.766 102.309Z" fill="white"/>
<path d="M289.964 95.7696L288.311 110.756C285.771 108.62 283.6 106.036 281.948 103.126C282.967 99.5315 283.996 96.3058 284.479 94.8555C284.637 94.3369 284.734 94.0469 284.734 94.0469L285.674 94.1611L289.586 94.6533L290.069 94.7149L289.964 95.7696Z" fill="white"/>
<path d="M297.444 105.42L294.895 114.904C294.561 114.764 294.227 114.605 293.91 114.43L293.902 114.421C291.898 113.436 290.017 112.188 288.32 110.756C288.522 110.299 293.743 98.5032 295.703 98.6438L297.444 105.42Z" fill="white"/>
<path opacity="0.3" d="M289.964 95.7696L288.311 110.756C285.771 108.62 283.6 106.036 281.948 103.126C282.967 99.5315 283.996 96.3058 284.479 94.8555C284.637 94.3369 284.734 94.0469 284.734 94.0469L285.674 94.1611L289.586 94.6533L290.069 94.7149L289.964 95.7696Z" fill="white"/>
<path opacity="0.3" d="M297.444 105.42L294.895 114.904C294.561 114.764 294.227 114.605 293.91 114.43L293.902 114.421C291.898 113.436 290.017 112.188 288.32 110.756C288.522 110.299 293.743 98.5032 295.703 98.6438L297.444 105.42Z" fill="white"/>
<path d="M291.194 93.8008L290.289 95.8224L284.057 94.7852L284.198 93.6338L291.194 93.8008Z" fill="white"/>
<path d="M323.961 79.228C323.232 82.0143 327.214 89.705 325.596 103.698C323.979 117.691 308.641 116.838 301.742 112.171C294.842 107.504 296.037 82.1901 298.411 77.1977C300.792 72.214 323.961 79.228 323.961 79.228Z" fill="white"/>
<path d="M328.022 101.852C327.873 102.256 327.741 102.661 327.6 103.065C327.451 103.461 327.319 103.856 327.196 104.243C326.941 105.016 326.695 105.763 326.449 106.493C325.956 107.952 325.517 109.35 325.095 110.65C323.654 111.898 322.08 112.988 320.393 113.911C316.323 116.161 311.638 117.453 306.655 117.453C302.462 117.453 298.472 116.539 294.886 114.904C294.552 114.764 294.218 114.606 293.901 114.43C293.91 114.149 293.91 113.859 293.91 113.595C293.91 113.314 293.91 113.05 293.919 112.777C293.928 111.969 293.963 111.222 293.98 110.519C293.998 110.044 294.024 109.587 294.033 109.156C294.042 108.928 294.051 108.725 294.068 108.515C294.112 107.732 294.147 107.02 294.2 106.361C294.209 106.15 294.235 105.93 294.244 105.728C294.288 105.104 294.341 104.551 294.385 104.032C294.71 100.78 295.132 99.4966 295.413 98.978C295.466 98.8725 295.519 98.8022 295.563 98.7495C295.65 98.6528 295.694 98.644 295.694 98.644C295.694 98.644 296.125 98.6001 296.846 98.5473C298.744 98.3891 302.682 98.1078 306.242 98.1254C306.303 98.1254 306.382 98.1254 306.444 98.1342C306.919 98.143 307.384 98.1694 307.859 98.1957C309.696 98.2924 311.524 98.4506 313.344 98.6792C314.02 98.767 314.697 98.8637 315.374 98.9604C316.103 99.0659 316.833 99.1889 317.563 99.312C317.659 99.3296 317.765 99.3472 317.861 99.3647C320.551 99.8218 323.214 100.428 325.842 101.184C326.572 101.386 327.301 101.606 328.022 101.835V101.852Z" fill="white"/>
<path opacity="0.3" d="M328.013 101.852C328.013 101.861 328.013 101.861 328.004 101.87C327.864 102.265 327.723 102.661 327.609 103.056C327.459 103.452 327.328 103.847 327.205 104.234C326.95 105.007 326.704 105.755 326.457 106.484C325.965 107.943 325.526 109.341 325.104 110.641C323.662 111.89 322.089 112.979 320.402 113.902C316.332 116.152 311.647 117.444 306.664 117.444C302.471 117.444 298.481 116.53 294.895 114.896C294.561 114.755 294.227 114.597 293.91 114.421L293.901 114.412C293.901 114.131 293.91 113.858 293.919 113.586C293.919 113.305 293.919 113.041 293.928 112.769C293.937 111.96 293.972 111.213 293.989 110.51C294.007 110.035 294.033 109.578 294.042 109.147C294.051 108.919 294.06 108.717 294.077 108.506C294.112 107.723 294.156 107.011 294.209 106.352C294.218 106.141 294.244 105.922 294.253 105.719C294.297 105.095 294.35 104.542 294.394 104.023C294.719 100.771 295.141 99.4877 295.422 98.9691C295.475 98.8636 295.527 98.7933 295.571 98.7406C295.659 98.6439 295.703 98.6351 295.703 98.6351C295.703 98.6351 296.134 98.5911 296.855 98.5384C298.753 98.3802 302.691 98.0989 306.251 98.1165C306.312 98.1165 306.391 98.1165 306.453 98.1253C306.927 98.1341 307.393 98.1605 307.868 98.1868C309.705 98.2835 311.533 98.4417 313.352 98.6702C314.029 98.7581 314.706 98.8548 315.383 98.9515C316.112 99.057 316.842 99.18 317.571 99.3031C317.668 99.3207 317.773 99.3382 317.87 99.3558C320.56 99.8129 323.223 100.419 325.851 101.175C326.563 101.404 327.292 101.615 328.013 101.852Z" fill="white"/>
<path d="M311.56 97.3693C317.835 97.8616 318.609 99.7601 317.941 100.753C317.273 101.746 308.764 110.061 306.207 115.625C306.198 115.634 296.987 96.2267 311.56 97.3693Z" fill="white"/>
<path d="M308.316 103.698C314.53 102.907 316.394 100.252 316.394 100.252C312.447 96.5343 315.726 90.0917 315.726 90.0917L308.246 91.4892C308.439 92.7285 308.527 93.7657 308.536 94.6358C308.589 99.1712 306.541 99.2151 306.541 99.2151C305.231 101.667 308.316 103.698 308.316 103.698Z" fill="white"/>
<path opacity="0.2" d="M308.254 91.4804C308.448 92.7197 308.536 93.7569 308.544 94.627C313.598 94.627 315.734 90.0829 315.734 90.0829L308.254 91.4804Z" fill="white"/>
<path d="M312.386 70.5704C305.881 70.21 303.605 73.5764 302.761 80.2563C301.706 88.5975 303.236 94.6447 311.463 93.2999C322.634 91.4717 323.179 71.1593 312.386 70.5704Z" fill="white"/>
<path d="M306.98 80.1157C306.98 80.1157 305.987 81.7681 304.941 82.7086C304.941 82.7086 305.451 83.6227 306.611 83.5348L306.98 80.1157Z" fill="white"/>
<path d="M310.988 79.808C310.944 80.3442 311.199 80.7925 311.56 80.8276C311.911 80.854 312.236 80.4497 312.28 79.9135C312.324 79.3773 312.069 78.9291 311.709 78.8939C311.349 78.8588 311.032 79.2719 310.988 79.808Z" fill="white"/>
<path d="M311.85 78.929L310.725 78.384C310.733 78.384 311.234 79.4036 311.85 78.929Z" fill="white"/>
<path d="M304.37 79.1752C304.326 79.7114 304.581 80.1596 304.941 80.1948C305.293 80.2212 305.618 79.8168 305.662 79.2807C305.706 78.7445 305.451 78.2963 305.09 78.2611C304.73 78.2347 304.405 78.6391 304.37 79.1752Z" fill="white"/>
<path d="M305.231 78.2962L304.106 77.7512C304.106 77.7512 304.607 78.7708 305.231 78.2962Z" fill="white"/>
<path d="M314.065 76.7581C313.968 76.7581 313.88 76.7141 313.818 76.635C313.01 75.5188 311.331 75.6154 311.322 75.6242C311.146 75.633 311.015 75.51 310.997 75.343C310.988 75.176 311.111 75.0353 311.278 75.0178C311.357 75.009 313.3 74.8859 314.311 76.2746C314.407 76.4065 314.381 76.5999 314.24 76.6965C314.188 76.7405 314.126 76.7581 314.065 76.7581Z" fill="white"/>
<path d="M303.965 75.4836C303.86 75.4836 303.763 75.4309 303.702 75.3342C303.614 75.1936 303.667 75.009 303.807 74.9211C305.416 73.9719 306.646 74.4904 306.699 74.508C306.848 74.5783 306.919 74.7541 306.857 74.9035C306.787 75.053 306.62 75.1233 306.462 75.0617C306.418 75.0442 305.442 74.6486 304.115 75.4397C304.071 75.4661 304.018 75.4836 303.965 75.4836Z" fill="white"/>
<path d="M307.419 86.1541C307.753 86.9627 308.052 88.4569 308.052 88.4569C308.193 88.4569 308.334 88.4481 308.474 88.4393C310.373 88.3515 311.234 87.6835 311.603 86.9715C311.805 86.576 311.858 86.1717 311.849 85.8377C311.849 85.4509 311.761 85.1785 311.761 85.1785C310.777 85.8289 309.01 86.0486 308.061 86.1189C307.674 86.1453 307.419 86.1541 307.419 86.1541Z" fill="white"/>
<path d="M308.07 86.11L308.272 86.7868C310.065 86.6989 311.313 86.4001 311.849 85.8288C311.849 85.442 311.761 85.1696 311.761 85.1696C310.786 85.8112 309.019 86.0309 308.07 86.11Z" fill="white"/>
<path d="M308.474 88.4305C310.373 88.3426 311.234 87.6746 311.603 86.9626C310.953 87.0154 310.179 87.156 309.511 87.4812C308.993 87.7185 308.676 88.0789 308.474 88.4305Z" fill="white"/>
<path d="M318.89 81.9174C318.89 81.9174 316.139 76.4065 316.833 72.3106C316.833 72.3106 304.238 66.3425 302.884 79.3861C302.884 79.3861 302.26 67.7049 313.449 68.0565C324.62 68.4081 323.698 84.7564 317.659 89.3094C317.659 89.3094 320.586 85.3629 318.89 81.9174Z" fill="white"/>
<path d="M317.756 83.2271C317.853 82.1812 319.03 80.4673 320.973 80.7925C322.977 81.1265 323.706 85.3102 318.644 86.031C317.905 86.1364 317.545 85.4069 317.756 83.2271Z" fill="white"/>
<path d="M315.093 71.6603C315.093 71.6603 314.064 79.685 318.881 86.9627C322.537 92.4825 318.336 97.3254 318.336 97.3254C318.336 97.3254 324.823 93.1944 325.051 86.9627C325.051 86.9627 330.413 72.0646 319.285 68.0478C319.285 68.0478 319.241 64.6902 311.981 65.3319C304.721 65.9735 298.876 72.1876 297.769 80.1245C296.661 88.0526 300.792 96.8948 300.792 96.8948C300.792 96.8948 296.406 68.7949 315.093 71.6603Z" fill="white"/>
<path d="M315.515 71.792C315.005 73.5938 314.899 75.6154 314.978 77.5579C315.084 79.5179 315.4 81.4692 315.91 83.3765C316.411 85.2838 317.141 87.1296 318.081 88.8699C319.048 90.5838 320.217 92.2363 321.755 93.4931C320.164 92.289 318.925 90.6805 317.888 88.9842C316.868 87.2702 316.06 85.4156 315.48 83.4995C314.891 81.5834 314.495 79.6146 314.311 77.6018C314.161 75.589 314.17 73.5763 314.671 71.5283L315.515 71.792Z" fill="white"/>
<path d="M329.428 106.071C328.162 107.767 326.703 109.314 325.095 110.659C323.653 111.907 322.08 112.997 320.393 113.92C320.489 113.542 320.621 113.173 320.744 112.795C321.86 109.639 323.829 106.765 325.429 104.761C326.747 103.109 327.82 102.037 327.995 101.878C328.004 101.87 328.013 101.861 328.013 101.861C328.699 102.406 329.138 103.944 329.428 106.071Z" fill="white"/>
<path opacity="0.3" d="M329.428 106.071C328.162 107.767 326.703 109.314 325.095 110.659C323.653 111.907 322.08 112.997 320.393 113.92C320.489 113.542 320.621 113.173 320.744 112.795C321.86 109.639 323.829 106.765 325.429 104.761C326.747 103.109 327.82 102.037 327.995 101.878C328.004 101.87 328.013 101.861 328.013 101.861C328.699 102.406 329.138 103.944 329.428 106.071Z" fill="white"/>
<path d="M234.889 43.7449C243.724 43.7449 250.886 36.5829 250.886 27.7481C250.886 18.9133 243.724 11.7513 234.889 11.7513C226.054 11.7513 218.892 18.9133 218.892 27.7481C218.892 36.5829 226.054 43.7449 234.889 43.7449Z" fill="#C7E5F6"/>
<path d="M245.937 38.0055C243.186 40.9675 239.258 42.8221 234.889 42.8221C230.204 42.8221 226.029 40.695 223.27 37.355C223.349 37.3199 223.428 37.2935 223.507 37.2759C223.7 37.0035 223.929 36.7486 224.228 36.5201C224.228 36.4761 224.228 36.4409 224.236 36.397L224.5 36.3531C224.94 36.0982 225.476 35.9224 226.152 35.9224C226.311 35.9224 226.469 35.9312 226.645 35.9487L227.585 35.7729C227.585 35.7729 227.576 35.8696 227.568 36.0278C228.763 36.1245 230.574 36.23 232.648 36.3706C233.122 36.0103 233.413 35.562 233.58 35.0522C233.755 34.5161 233.791 33.9272 233.755 33.3119C233.026 33.2767 232.305 33.0834 231.646 32.7582C230.486 32.1605 229.528 31.1233 229.044 29.7961C228.974 29.6203 228.921 29.4358 228.877 29.2512C228.482 27.6251 228.394 25.5069 228.798 23.5556C228.798 23.5468 228.798 23.5468 228.798 23.5468C228.745 23.5468 228.693 23.5556 228.64 23.5468C228.561 23.5293 228.508 23.4677 228.508 23.3798C228.508 23.3623 228.517 23.3535 228.517 23.3359C228.534 23.2392 228.622 23.1777 228.719 23.1865C228.737 23.1865 228.745 23.1777 228.763 23.1777C228.64 21.9032 228.833 20.6287 229.018 19.7674C228.49 18.8445 228.49 17.0514 228.991 16.3219C229.554 15.5133 229.114 15.9528 230.6 15.8209C232.077 15.6979 231.18 14.3794 232.129 14.3707C233.07 14.3531 232.876 14.9508 234.037 15.3814C235.188 15.8209 234.766 14.5025 236.076 14.3794C237.385 14.2564 237.57 15.2584 238.519 15.5045C239.46 15.7506 239.644 15.5045 240.339 15.5045C241.024 15.5045 241.086 17.5085 241.376 17.8776C241.666 18.2556 242.149 17.6931 242.773 18.7214C242.852 18.8533 242.888 19.0203 242.888 19.2136C242.888 20.5408 241.226 23.0634 241.226 23.0634C241.156 23.6435 241.042 24.2676 240.892 24.9356C241.393 25.4102 241.525 26.2012 241.191 26.922C240.866 27.5812 240.356 28.1173 239.732 28.4777C239.407 29.1633 239.082 29.717 238.783 30.1389C238.361 32.4417 238.168 35.1577 238.95 36.8716C241.596 37.1793 244.144 37.5308 245.937 38.0055Z" fill="white"/>
<path d="M139.792 294.257C146.039 288.01 146.039 277.882 139.792 271.635C133.545 265.388 123.417 265.388 117.17 271.635C110.923 277.882 110.923 288.01 117.17 294.258C123.417 300.505 133.545 300.505 139.792 294.257Z" fill="#C7E5F6"/>
<path opacity="0.8" d="M138.46 293.972C135.762 296.538 132.106 298.103 128.098 298.103C124.925 298.103 121.989 297.127 119.563 295.457C120.653 295.308 121.813 295.167 122.982 295.044C123.887 293.066 123.659 289.929 123.175 287.265C122.841 286.782 122.464 286.149 122.086 285.349C121.356 284.927 120.776 284.312 120.398 283.556C120.002 282.721 120.161 281.816 120.732 281.253C120.424 279.891 120.257 278.66 120.24 277.623L120.169 277.659C120.169 277.659 118.957 272.974 123.492 271.26C128.027 269.546 132.607 272.613 132.607 272.613C132.607 272.613 133.591 270.785 134.76 271.26C135.753 271.664 135.226 272.965 135.041 273.36C135.164 273.158 135.481 272.736 136.07 272.464C136.869 272.104 137.977 273.123 135.489 275.611C135.235 275.865 134.936 276.076 134.602 276.243C134.751 277.228 134.83 278.45 134.672 279.636C135.138 281.886 135.032 284.338 134.575 286.211C134.523 286.43 134.461 286.641 134.382 286.843C133.828 288.39 132.721 289.586 131.376 290.263C130.62 290.658 129.785 290.869 128.941 290.913C128.897 291.616 128.95 292.302 129.143 292.917C129.346 293.506 129.688 294.033 130.225 294.446C132.615 294.279 134.716 294.165 136.096 294.051C136.078 293.849 136.07 293.752 136.07 293.752L137.159 293.954C137.652 293.893 138.082 293.91 138.46 293.972Z" fill="white"/>
<path d="M71.2238 117.607C73.2541 109.009 67.9298 100.393 59.3318 98.3628C50.7338 96.3326 42.1179 101.657 40.0877 110.255C38.0575 118.853 43.3817 127.469 51.9797 129.499C60.5777 131.529 69.1936 126.205 71.2238 117.607Z" fill="#C7E5F6"/>
<path d="M66.9141 123.966C64.1455 127.06 60.1287 129.003 55.6636 129.003C52.3412 129.003 49.2737 127.93 46.7863 126.111L52.7631 124.265C52.8774 124.388 52.9829 124.529 53.0971 124.678C53.352 124.634 53.6069 124.581 53.8706 124.529C54.3452 124.441 54.8286 124.379 55.3121 124.3C55.6636 123.72 55.8394 123.078 55.9097 122.454C55.4087 122.481 55.0835 122.49 55.0835 122.49C55.2505 121.892 54.3628 120.653 54.3628 120.653L54.064 122.287C54.064 122.287 53.4575 122.191 53.0532 121.936C52.6577 121.681 52.1303 119.897 52.1303 119.897C52.1303 119.897 51.0931 121.637 50.8734 122.033C50.6449 122.437 50.0472 122.033 50.0472 122.033C50.0472 122.033 49.6517 120.53 50.1439 118.974C50.6449 117.418 49.0891 117.462 49.0891 117.462C49.0891 117.462 49.0891 118.121 48.6936 119.176C48.2893 120.231 48.2893 120.784 48.2893 121.408C48.2893 122.041 48.342 122.481 47.8938 122.481C47.4367 122.481 47.3928 122.085 47.4367 121.408C47.4895 120.732 46.7863 120.072 47.1906 119.528C47.5861 118.974 47.2873 117.462 47.2873 117.462C47.0324 118.517 45.881 118.473 45.6788 119.22C45.4767 119.976 46.2326 121.031 45.881 121.408C45.5294 121.786 44.9229 121.408 44.9229 121.408C44.9229 121.408 45.4239 120.582 45.0724 120.099C44.7208 119.624 44.167 119.378 44.4132 118.394C44.668 117.409 45.1163 117.418 44.9669 116.328C44.8175 115.238 44.3077 115.309 44.9669 114.904C45.6173 114.509 46.4699 112.593 46.4699 111.766C46.4699 110.94 46.1183 109.033 47.5246 108.365C48.9309 107.697 49.2825 107.178 49.0276 105.412C48.7727 103.636 50.1263 103.768 51.8402 104.12C51.8402 104.12 52.6928 102.766 53.4926 103.021C54.2925 103.267 54.899 103.118 55.0747 102.669C55.2417 102.212 57.4655 102.265 57.7907 102.669C58.1247 103.065 59.32 103.373 60.0408 103.065C60.7615 102.766 62.6864 103.97 62.6249 104.77C62.5634 105.579 62.5809 106.027 63.6093 106.484C64.6377 106.941 64.8398 107.178 65.2881 108.98C65.7363 110.773 64.9892 111.503 65.8946 112.197C66.7999 112.883 66.6944 115.669 66.7471 116.522C66.7911 117.374 66.7471 118.323 66.7471 118.323C66.7471 118.323 66.7471 118.323 66.4922 118.394C66.2373 118.464 66.044 117.462 66.0879 116.732C66.1407 116.029 64.5586 115.001 64.4267 114.913C64.4619 114.983 64.7431 115.599 64.9277 116.082C65.1299 116.592 65.1826 117.928 65.1299 118.772C65.0859 119.624 66.0879 120.099 66.0879 120.099L64.9892 120.653C64.9892 120.653 64.1367 118.833 64.4267 117.884C64.7168 116.935 63.8818 116.091 63.8818 116.091V117.884C63.8818 117.884 63.5829 118.526 63.1347 119.378C62.6864 120.231 63.4862 120.486 63.6093 120.934C63.7324 121.382 62.6249 121.408 62.6249 121.408L62.4227 120.327L62.0448 121.408C61.6492 121.699 60.8143 121.909 59.8738 122.068C59.9265 122.894 60.1023 123.43 60.3133 123.782C60.6736 123.764 61.0252 123.738 61.3856 123.729C62.0975 123.72 62.827 123.738 63.539 123.764H63.5566C64.8222 123.817 66.0176 123.896 66.9141 123.966Z" fill="white"/>
<path d="M118.613 67.5468C133.429 67.5468 145.439 55.5366 145.439 40.7214C145.439 25.9061 133.429 13.896 118.613 13.896C103.798 13.896 91.7881 25.9061 91.7881 40.7214C91.7881 55.5366 103.798 67.5468 118.613 67.5468Z" fill="#C7E5F6"/>
<path d="M124.643 40.7214C125.215 39.4557 125.619 40.0007 127.271 41.2751C128.924 42.5496 129.187 43.701 129.187 45.0546C129.187 46.4082 128.924 49.0977 128.924 49.0977L133.213 53.9056L131.271 56.8325L126.287 51.2072C126.287 51.2072 123.826 49.3526 123.422 47.2695C123.017 45.1864 124.643 40.7214 124.643 40.7214Z" fill="white"/>
<path d="M124.081 39.2799L127.597 45.5907C127.755 45.872 127.72 46.2324 127.509 46.4785L124.784 49.6251C124.441 50.0206 123.808 49.9679 123.536 49.5196L120.389 44.3338L124.081 39.2799Z" fill="white"/>
<path opacity="0.4" d="M123.887 39.9568L126.99 45.793L124.037 49.2736L120.855 44.1142L123.887 39.9568Z" fill="white"/>
<path d="M132.747 62.4577C132.774 62.5895 132.791 62.7126 132.809 62.8357C132.738 62.7478 132.668 62.6511 132.598 62.5544C131.675 63.1609 130.717 63.697 129.715 64.1717C129.943 62.3874 130.198 60.7789 130.427 59.4341C130.629 58.2036 130.814 57.1928 130.954 56.4809C131.086 55.7689 131.174 55.3558 131.191 55.2855V55.2767C131.499 55.3295 131.807 55.4262 132.114 55.5756C133.459 56.2348 134.786 57.8081 136.078 59.8912C135.041 60.8405 133.934 61.7018 132.747 62.4577Z" fill="white"/>
<path d="M132.809 62.8357C132.738 62.7478 132.668 62.6511 132.598 62.5544C131.675 63.1609 130.717 63.697 129.715 64.1717C126.348 65.7713 122.578 66.6679 118.614 66.6679C110.712 66.6679 103.619 63.1169 98.8638 57.5356C99.312 57.4302 99.7691 57.3335 100.226 57.2456C100.27 57.2368 100.323 57.228 100.367 57.2192C100.455 57.2016 100.543 57.1841 100.639 57.1665C101.826 56.938 103.039 56.7358 104.252 56.56C104.26 56.5512 104.269 56.5512 104.278 56.5512C104.805 56.4721 105.342 56.4018 105.869 56.3315C106.572 56.2348 107.275 56.1557 107.97 56.0766C108.022 56.0678 108.084 56.059 108.137 56.059C109.745 55.8744 111.354 55.725 112.918 55.6108C113.437 55.5756 113.946 55.5404 114.447 55.5141H114.456C115.115 55.4701 115.766 55.4262 116.407 55.391C117.049 55.3559 117.691 55.3295 118.306 55.3031C118.561 55.2943 118.816 55.2855 119.071 55.2768C119.835 55.2504 120.574 55.2328 121.277 55.2152C123.588 55.1625 125.619 55.1625 127.236 55.1801C127.614 55.1889 127.974 55.1889 128.308 55.1976C128.915 55.2064 129.433 55.224 129.855 55.2416C130.717 55.2592 131.191 55.2855 131.191 55.2855C131.297 55.6723 131.402 56.0766 131.499 56.4897C131.499 56.4897 131.499 56.4897 131.499 56.4985C131.947 58.3003 132.36 60.3043 132.747 62.4577C132.773 62.5896 132.791 62.7126 132.809 62.8357Z" fill="white"/>
<path opacity="0.2" d="M132.809 62.8356C132.738 62.7477 132.668 62.651 132.598 62.5543C131.675 63.1608 130.717 63.697 129.715 64.1716C126.348 65.7713 122.578 66.6678 118.614 66.6678C110.712 66.6678 103.619 63.1169 98.8638 57.5356C98.6529 57.5795 98.4419 57.6235 98.231 57.6674C98.4331 57.6235 98.6441 57.5707 98.855 57.5268C99.3121 57.4301 99.7691 57.3334 100.226 57.2455C100.27 57.2367 100.323 57.2279 100.367 57.2192C100.455 57.2016 100.543 57.184 100.639 57.1664C101.826 56.9379 103.039 56.7357 104.252 56.5599C104.261 56.5512 104.269 56.5512 104.278 56.5512C104.805 56.4721 105.342 56.4017 105.869 56.3314C106.572 56.2347 107.275 56.1556 107.97 56.0765C108.022 56.0677 108.084 56.059 108.137 56.059C109.745 55.8744 111.354 55.725 112.918 55.6107C113.428 55.5755 113.938 55.5404 114.439 55.5052C115.107 55.4613 115.757 55.4261 116.408 55.391C117.049 55.3558 117.691 55.3294 118.306 55.3031C118.561 55.2943 118.816 55.2855 119.071 55.2767C119.827 55.2503 120.565 55.224 121.268 55.2064C123.588 55.1624 125.619 55.1624 127.236 55.1712C127.623 55.18 127.974 55.18 128.308 55.1888C128.906 55.1976 129.416 55.2152 129.838 55.224C130.708 55.2503 131.191 55.2767 131.191 55.2767V55.2855C131.297 55.6722 131.402 56.0765 131.499 56.4896C131.499 56.4896 131.499 56.4896 131.499 56.4984C131.947 58.3003 132.36 60.3043 132.747 62.4577C132.773 62.5895 132.791 62.7126 132.809 62.8356Z" fill="white"/>
<path d="M107.926 56.0414C110.782 58.6343 117.77 57.6763 117.77 57.6763C117.77 57.6763 122.13 56.4809 121.215 55.1185C118.649 54.6966 117.401 53.4925 116.882 51.9631C116.583 51.0666 116.539 50.0646 116.619 49.0274C116.654 48.4825 116.742 47.9288 116.838 47.3926L108.198 40.9939C109.341 45.2128 110.721 52.9827 107.926 56.0414Z" fill="white"/>
<path opacity="0.2" d="M110.202 45.0546C110.545 50.2403 114.808 51.673 116.891 51.9631C116.592 51.0665 116.548 50.0645 116.627 49.0274L110.202 45.0546Z" fill="white"/>
<path d="M125.118 28.6623C125.118 28.6623 126.349 36.731 122.059 39.8336C117.779 42.9363 117.779 27.9152 117.779 27.9152L125.118 28.6623Z" fill="white"/>
<path d="M109.622 46.25C111.696 49.2384 115.089 50.0206 118.034 49.089C119.923 48.4913 121.629 47.1816 122.692 45.3007C122.833 45.0546 122.965 44.7909 123.079 44.5272C125.188 39.5964 125.856 30.9651 120.644 27.7306C116.944 25.4014 112.039 26.5089 109.71 30.218C109.042 31.2728 108.638 32.4681 108.515 33.7162C107.873 39.4821 107.223 42.8397 109.622 46.25Z" fill="white"/>
<path d="M116.917 36.7925C116.803 37.2495 117.014 37.6714 117.322 37.7242C117.629 37.7769 117.937 37.4341 118.016 36.9771C118.095 36.5112 117.91 36.0893 117.612 36.0454C117.313 35.9927 117.005 36.3267 116.917 36.7925Z" fill="white"/>
<path d="M122.182 37.6978C122.068 38.1549 122.288 38.5855 122.586 38.6295C122.885 38.6822 123.202 38.3394 123.281 37.8824C123.36 37.4166 123.175 36.9947 122.876 36.9507C122.578 36.8892 122.261 37.2496 122.182 37.6978Z" fill="white"/>
<path d="M120.468 37.6364C120.776 39.1569 121.303 40.6248 122.015 41.9959C121.286 42.3475 120.442 42.3651 119.704 42.0311L120.468 37.6364Z" fill="white"/>
<path d="M115.572 34.815C115.669 34.8501 115.783 34.8237 115.854 34.7534C116.355 34.2612 117.067 34.0327 117.761 34.1382C117.91 34.1733 118.06 34.0854 118.095 33.936C118.13 33.7866 118.042 33.6372 117.893 33.602C117.014 33.4438 116.117 33.7251 115.476 34.3491C115.361 34.4458 115.353 34.6216 115.449 34.7359C115.449 34.7359 115.449 34.7359 115.458 34.7446C115.493 34.771 115.537 34.7974 115.572 34.815Z" fill="white"/>
<path d="M124.749 36.2651C124.793 36.2915 124.854 36.3091 124.907 36.3003C125.056 36.2563 125.144 36.1069 125.1 35.9575C125.1 35.9575 125.1 35.9575 125.1 35.9487C124.872 35.0873 124.23 34.3842 123.395 34.0765C123.246 34.0326 123.096 34.1117 123.052 34.2611C123.008 34.4105 123.096 34.56 123.237 34.6039C123.896 34.8676 124.388 35.4213 124.564 36.1069C124.608 36.1948 124.67 36.2475 124.749 36.2651Z" fill="white"/>
<path d="M113.92 27.2999V29.8752C113.032 30.218 112.417 31.097 112.681 32.1429C113.243 34.3754 111.626 37.5396 109.824 38.6647C109.824 38.6647 109.886 37.733 109.077 37.856C108.268 37.9791 107.899 42.8221 109.138 45.3095C109.138 45.3095 107.091 42.9539 106.405 37.733C105.772 32.9076 106.097 28.9963 107.284 27.2999H113.92Z" fill="white"/>
<path d="M105.21 37.9791C105.623 39.3854 106.572 40.5632 107.855 41.2663C109.56 42.1804 110.835 40.7566 110.721 38.9284C110.606 37.3023 109.587 34.8149 107.706 34.6743C105.816 34.5161 104.726 36.2476 105.21 37.9791Z" fill="white"/>
<path d="M113.92 29.8752C113.92 29.8752 115.59 31.5364 117.216 30.3234C117.216 30.3234 119.053 31.8528 120.556 30.7717C120.556 30.7717 121.373 32.1604 122.727 32.3274C124.072 32.4944 124.081 31.1057 124.081 31.1057C124.081 31.1057 126.208 32.3274 126.99 31.7561C127.772 31.1848 126.559 28.8995 126.559 28.8995C126.559 28.8995 127.561 28.3634 126.92 26.5264C126.278 24.6894 123.307 25.1201 123.307 25.1201C123.307 25.1201 123.421 23.4061 121.347 21.6219C119.273 19.8376 118.042 22.0526 118.042 22.0526C118.042 22.0526 116.038 19.3366 113.551 19.697C111.063 20.0574 111.353 21.7713 111.353 21.7713C111.353 21.7713 108.497 19.987 107.214 21.7713C105.93 23.5556 107.214 24.4169 107.214 24.4169C107.214 24.4169 104.357 25.375 104.498 27.3262C104.638 29.2775 106.106 28.9874 106.106 28.9874C106.106 28.9874 105.28 29.9191 107.143 30.7014C108.998 31.4836 110.747 29.5588 110.747 29.5588C110.747 29.5588 110.026 30.6662 111.362 31.4133C112.681 32.1428 113.92 29.8752 113.92 29.8752Z" fill="white"/>
<path d="M119.589 43.7714C118.921 44.3339 117.963 45.5205 117.963 45.5205C117.84 45.4501 117.717 45.3886 117.594 45.3095C115.95 44.3515 115.493 43.367 115.502 42.5584C115.502 42.1189 115.651 41.7322 115.801 41.4334C115.977 41.0906 116.179 40.8884 116.179 40.8884C116.75 41.9168 118.218 42.9276 119.027 43.4286C119.361 43.6483 119.589 43.7714 119.589 43.7714Z" fill="white"/>
<path d="M119.027 43.4286L118.534 43.9296C116.987 43.0243 116.012 42.1805 115.801 41.4334C115.977 41.0906 116.179 40.8884 116.179 40.8884C116.759 41.9168 118.227 42.9276 119.027 43.4286Z" fill="white"/>
<path d="M117.594 45.3094C115.95 44.3514 115.493 43.367 115.502 42.5583C116.047 42.9011 116.671 43.3846 117.119 43.9822C117.462 44.4393 117.576 44.8963 117.594 45.3094Z" fill="white"/>
<path d="M117.77 57.6763C117.77 57.6763 107.688 50.8293 104.48 50.4425C101.272 50.0558 101.843 54.0638 101.843 54.0638C101.843 54.0638 99.3647 54.0638 100.323 57.1137C101.272 60.1637 114.966 61.8425 120.029 60.3395C125.091 58.8365 128.097 55.9975 127.254 53.3167C126.419 50.6359 124.081 52.93 124.081 52.93C124.081 52.93 122.718 50.4074 120.758 50.9963C118.798 51.5852 117.77 57.6763 117.77 57.6763Z" fill="white"/>
<path d="M139.164 56.5336C138.241 57.7378 137.212 58.8628 136.079 59.8912C135.041 60.8405 133.934 61.7018 132.747 62.4577C132.774 62.5896 132.791 62.7126 132.809 62.8357C132.739 62.7478 132.668 62.6511 132.598 62.5544C131.93 61.6579 131.156 60.568 130.427 59.4341C129.513 57.9751 128.678 56.4545 128.309 55.1976V55.1888C128.186 54.7933 128.115 54.433 128.098 54.099L127.263 52.9387L127.535 52.6223L129.75 50.0207L130.234 49.4581L131.183 50.6974C131.183 50.6974 132.405 50.258 136.316 53.6243C137.318 54.4857 138.337 55.5756 139.164 56.5336Z" fill="white"/>
<path d="M44.4572 231.233C58.4666 231.233 69.8235 219.876 69.8235 205.866C69.8235 191.857 58.4666 180.5 44.4572 180.5C30.4477 180.5 19.0908 191.857 19.0908 205.866C19.0908 219.876 30.4477 231.233 44.4572 231.233Z" fill="#C7E5F6"/>
<g opacity="0.8">
<path opacity="0.8" d="M59.9701 224.799C59.5658 225.133 59.1439 225.458 58.7044 225.765C57.5178 226.627 56.2434 227.374 54.9074 228.007C51.7344 229.51 48.1922 230.354 44.4567 230.354C39.9653 230.354 35.7552 229.141 32.1427 227.014C31.211 226.477 30.3233 225.871 29.4795 225.212H29.4707C29.4268 225.177 29.3828 225.141 29.3389 225.097C29.3564 225.036 29.3652 224.992 29.3828 224.93V224.922C29.5938 224.131 29.7959 223.304 29.9805 222.443C30.2442 221.283 30.4815 220.079 30.6924 218.822C31.2286 215.57 31.545 212.045 31.4308 208.468C31.0001 195.503 33.3556 190.748 38.6557 188.208C38.893 188.094 39.1391 187.971 39.4028 187.865C40.6509 187.338 41.9166 187.241 43.1383 187.4C43.1383 187.4 43.1383 187.4 43.1471 187.4C47.6824 188.015 51.6201 192.243 51.6201 192.243C51.6201 192.243 52.4991 193.447 53.6944 195.75C55.839 199.889 58.9944 207.58 59.7855 218.11V218.119C59.9525 220.237 60.0228 222.461 59.9701 224.799Z" fill="white"/>
<path opacity="0.8" d="M59.7856 218.119V218.11C58.8364 217.416 57.9486 216.923 57.2279 216.774C57.2279 216.774 52.0597 216.273 47.5683 216.308C47.0761 216.326 46.5751 216.352 46.0829 216.378C43.78 216.502 41.4772 216.739 39.2007 217.082C38.5327 217.178 37.8647 217.284 37.2055 217.407C35.0082 217.767 32.8372 218.242 30.6926 218.822C29.6642 219.094 28.6446 219.393 27.625 219.718C27.2471 220.193 26.9043 221.186 26.5703 222.549C27.4141 223.472 28.3458 224.333 29.339 225.098C29.3829 225.142 29.4269 225.177 29.4708 225.212H29.4796C30.3234 225.871 31.2111 226.478 32.1428 227.014C35.7553 229.141 39.9654 230.354 44.4568 230.354C48.1923 230.354 51.7345 229.51 54.9075 228.007C56.2435 227.374 57.5179 226.627 58.7045 225.766C59.144 225.458 59.5659 225.133 59.9702 224.799C61.2447 223.753 62.4049 222.584 63.442 221.309C62.2467 220.132 60.9634 218.971 59.7856 218.119Z" fill="white"/>
<path opacity="0.2" d="M59.7856 218.119V218.11C58.8364 217.416 57.9486 216.923 57.2279 216.774C57.2279 216.774 52.0597 216.273 47.5683 216.308C47.0761 216.326 46.5751 216.352 46.0829 216.378C43.78 216.502 41.4772 216.739 39.2007 217.082C38.5327 217.178 37.8647 217.284 37.2055 217.407C35.0082 217.767 32.8372 218.242 30.6926 218.822C29.6642 219.094 28.6446 219.393 27.625 219.718C27.2471 220.193 26.9043 221.186 26.5703 222.549C27.4141 223.472 28.3458 224.333 29.339 225.098C29.3829 225.142 29.4269 225.177 29.4708 225.212H29.4796C30.3234 225.871 31.2111 226.478 32.1428 227.014C35.7553 229.141 39.9654 230.354 44.4568 230.354C48.1923 230.354 51.7345 229.51 54.9075 228.007C56.2435 227.374 57.5179 226.627 58.7045 225.766C59.144 225.458 59.5659 225.133 59.9702 224.799C61.2447 223.753 62.4049 222.584 63.442 221.309C62.2467 220.132 60.9634 218.971 59.7856 218.119Z" fill="white"/>
<path opacity="0.8" d="M45.6698 221.406C39.9742 220.676 38.269 218.242 38.269 218.242C40.5982 216.053 40.1764 212.819 39.5787 210.797C39.2535 209.681 38.8755 208.934 38.8755 208.934L45.7313 210.217C45.5555 211.351 45.4764 212.3 45.4676 213.1C45.45 213.979 45.5291 214.673 45.661 215.218C46.1268 217.266 47.2958 217.292 47.2958 217.292C48.4824 219.551 45.6698 221.406 45.6698 221.406Z" fill="white"/>
<path opacity="0.2" d="M45.4588 213.1C45.4412 213.979 45.5203 214.673 45.6521 215.218C42.9274 214.858 40.8707 212.687 39.5699 210.797C39.2446 209.681 38.8667 208.934 38.8667 208.934L45.7225 210.217C45.5467 211.351 45.4676 212.3 45.4588 213.1Z" fill="white"/>
<g opacity="0.8">
<path opacity="0.8" d="M44.3251 191.249C50.2843 191.469 52.0862 194.73 52.2883 200.891C52.552 208.582 50.6447 213.97 43.2528 212.054C33.224 209.452 34.4282 190.88 44.3251 191.249Z" fill="white"/>
<path opacity="0.8" d="M48.4561 200.408C48.4561 200.408 49.2207 201.999 50.0997 202.939C50.0997 202.939 49.5635 203.73 48.5 203.555L48.4561 200.408Z" fill="white"/>
<path opacity="0.8" d="M42.3032 196.787C42.2329 196.787 42.1538 196.76 42.1011 196.708C41.9692 196.593 41.9604 196.4 42.0747 196.268C43.1294 195.064 44.9049 195.354 44.9752 195.363C45.1422 195.389 45.2565 195.547 45.2301 195.723C45.2037 195.89 45.0455 196.004 44.8697 195.978C44.8522 195.978 43.358 195.741 42.5405 196.681C42.4702 196.752 42.3823 196.787 42.3032 196.787Z" fill="white"/>
<path opacity="0.8" d="M51.6116 196.47C51.55 196.47 51.4885 196.453 51.427 196.409C50.2932 195.591 49.3878 195.864 49.3439 195.873C49.1769 195.925 49.0099 195.837 48.9572 195.67C48.9044 195.504 48.9923 195.336 49.1593 195.284C49.2121 195.266 50.3898 194.897 51.7961 195.908C51.9368 196.005 51.9631 196.198 51.8665 196.339C51.8049 196.426 51.7083 196.47 51.6116 196.47Z" fill="white"/>
<g opacity="0.8">
<path opacity="0.8" d="M47.542 205.875C47.1729 206.578 46.7686 207.914 46.7686 207.914C46.6367 207.897 46.5137 207.888 46.3906 207.861C44.6591 207.624 43.9384 206.939 43.6659 206.253C43.5165 205.875 43.5077 205.497 43.5341 205.198C43.5692 204.847 43.6659 204.601 43.6659 204.601C44.5097 205.277 46.1006 205.62 46.9619 205.77C47.3135 205.849 47.542 205.875 47.542 205.875Z" fill="white"/>
<path opacity="0.8" d="M46.9538 205.778L46.7077 206.376C45.0816 206.148 43.9654 205.77 43.5259 205.198C43.561 204.847 43.6577 204.601 43.6577 204.601C44.5015 205.286 46.1012 205.629 46.9538 205.778Z" fill="white"/>
<path opacity="0.8" d="M46.3907 207.87C44.6592 207.633 43.9385 206.947 43.666 206.262C44.2549 206.367 44.9493 206.561 45.5294 206.912C45.9776 207.176 46.2325 207.527 46.3907 207.87Z" fill="white"/>
</g>
<path opacity="0.8" d="M37.4428 201.05C37.4428 201.05 40.4136 196.259 40.1324 192.462C40.1324 192.462 52.1212 188.076 52.253 200.083C52.253 200.083 53.8 189.483 43.5691 188.868C33.3557 188.252 32.8196 203.238 37.9438 207.897C37.9438 207.897 35.6058 204.047 37.4428 201.05Z" fill="white"/>
<path opacity="0.8" d="M38.3659 202.342C38.3659 201.384 37.4342 199.722 35.6412 199.845C33.7866 199.977 32.767 203.739 37.3288 204.82C37.9792 204.978 38.3747 204.346 38.3659 202.342Z" fill="white"/>
<path opacity="0.8" d="M40.985 187.312C44.2108 186.415 52.798 186.301 54.8284 195.187L53.633 195.785C53.633 195.785 50.7677 194.238 47.1904 193.877C47.1904 193.877 46.4784 192.568 45.5204 191.487C45.5204 191.487 45.6434 192.919 45.5204 193.754C45.5204 193.754 39.9127 194.572 37.4077 196.857C33.4701 200.434 33.2327 202.702 33.2327 202.702C33.2327 202.702 30.4904 190.221 40.985 187.312Z" fill="white"/>
<path opacity="0.8" d="M55.6545 195.099C55.5666 195.099 55.4787 195.046 55.4523 194.95C54.4328 191.891 52.6925 189.738 50.2666 188.551C45.8455 186.38 40.6246 188.147 40.5718 188.164C40.4576 188.208 40.3345 188.147 40.2993 188.032C40.2642 187.918 40.3169 187.795 40.4312 187.76C40.4839 187.742 45.8806 185.914 50.4599 188.164C52.9913 189.412 54.8019 191.645 55.8654 194.818C55.9006 194.932 55.8391 195.055 55.7336 195.09C55.7072 195.099 55.6809 195.099 55.6545 195.099Z" fill="white"/>
<path opacity="0.8" d="M43.1914 199.793C43.1914 199.793 44.5889 198.606 45.2481 200.206C45.2481 200.206 44.2198 199.679 43.1914 199.793Z" fill="white"/>
<path opacity="0.8" d="M49.8184 200.672C49.8184 200.672 50.5918 199.054 51.6202 200.197C51.6114 200.206 50.4336 200.232 49.8184 200.672Z" fill="white"/>
</g>
</g>
<path d="M311.405 271.666C323.679 259.391 323.679 239.49 311.405 227.216C299.13 214.941 279.229 214.941 266.955 227.216C254.68 239.49 254.68 259.391 266.955 271.666C279.229 283.94 299.13 283.94 311.405 271.666Z" fill="#C7E5F6"/>
<g opacity="0.7">
<path opacity="0.7" d="M273.932 248.231C273.536 248.987 272.042 250.517 272.042 250.517L269.405 262.989L267.682 271.128C265.555 269.027 263.736 266.61 262.294 263.964C262.505 263.305 262.734 262.62 262.954 261.925C264.817 256.142 266.962 249.444 267.12 248.785C267.401 247.607 266.373 241.833 266.61 240.769C266.856 239.714 272.121 238.466 273.264 238.484C274.406 238.501 274.318 247.484 273.932 248.231Z" fill="white"/>
<path opacity="0.7" d="M278.054 261.969C278.054 261.969 278.054 261.987 278.045 262.013L276.938 273.378L276.551 277.263C276.059 277.034 275.567 276.797 275.083 276.551V276.542C272.35 275.118 269.853 273.281 267.682 271.128C265.555 269.027 263.736 266.61 262.294 263.964C261.89 263.208 261.512 262.426 261.169 261.635L262.954 261.925L269.405 262.989L270.794 263.217L269.168 271.101C269.168 271.101 275.083 262.866 278.054 261.969Z" fill="white"/>
<path opacity="0.3" d="M278.054 261.969C278.054 261.969 278.054 261.987 278.045 262.013L276.938 273.378L276.551 277.263C276.059 277.034 275.567 276.797 275.083 276.551V276.542C272.35 275.118 269.853 273.281 267.682 271.128C265.555 269.027 263.736 266.61 262.294 263.964C261.89 263.208 261.512 262.426 261.169 261.635L262.954 261.925L269.405 262.989L270.794 263.217L269.168 271.101C269.168 271.101 275.083 262.866 278.054 261.969Z" fill="white"/>
<g opacity="0.7">
<path opacity="0.7" d="M316.472 263.156C316.059 263.982 315.602 264.782 315.119 265.564C314.741 266.171 314.345 266.768 313.915 267.348C312.131 269.818 309.977 272.007 307.542 273.844C306.989 274.266 306.417 274.661 305.828 275.048C303.482 276.586 300.906 277.799 298.173 278.643C295.325 279.522 292.31 279.996 289.181 279.996C284.681 279.996 280.401 279.021 276.551 277.263C276.059 277.034 275.566 276.797 275.083 276.551V276.542C276.314 267.762 277.887 262.523 278.045 262.013C278.054 261.987 278.054 261.969 278.054 261.969C281.218 261.064 284.453 260.405 287.722 260C287.775 260 287.819 259.992 287.872 259.992C287.88 259.992 287.88 259.992 287.88 259.992C292.574 259.622 297.303 259.517 302.023 259.693H302.067C305.336 259.781 308.588 260.097 311.814 260.66C312.236 260.835 314.398 261.732 316.472 263.156Z" fill="white"/>
<path opacity="0.3" d="M316.472 263.156C316.059 263.982 315.602 264.782 315.119 265.564C314.741 266.171 314.345 266.768 313.915 267.348C312.131 269.818 309.977 272.007 307.542 273.844C306.989 274.266 306.417 274.661 305.828 275.048C303.482 276.586 300.906 277.799 298.173 278.643C295.325 279.522 292.31 279.996 289.181 279.996C284.681 279.996 280.401 279.021 276.551 277.263C276.059 277.034 275.566 276.797 275.083 276.551V276.542C276.314 267.762 277.887 262.523 278.045 262.013C278.054 261.987 278.054 261.969 278.054 261.969C281.218 261.064 284.453 260.405 287.722 260C287.775 260 287.819 259.992 287.872 259.992C287.88 259.992 287.88 259.992 287.88 259.992C292.574 259.622 297.303 259.517 302.023 259.693H302.067C305.336 259.781 308.588 260.097 311.814 260.66C312.236 260.835 314.398 261.732 316.472 263.156Z" fill="white"/>
<path opacity="0.8" d="M307.542 273.844C306.989 274.266 306.417 274.661 305.828 275.048C303.482 276.586 300.906 277.799 298.173 278.643C295.325 279.522 292.31 279.996 289.181 279.996C284.681 279.996 280.401 279.021 276.551 277.263C276.059 277.034 275.566 276.797 275.083 276.551V276.542C275.127 276.287 275.162 276.032 275.197 275.786C275.707 274.995 276.287 274.187 276.938 273.378C280.084 269.361 284.514 265.309 286.755 263.349C287.379 264.123 288.443 264.782 290.174 265.125C293.057 265.687 296.353 264.342 299.087 262.716C300.317 263.938 302.172 265.881 303.877 267.999C305.16 269.599 306.347 271.295 307.121 272.868C307.279 273.202 307.419 273.527 307.542 273.844Z" fill="white"/>
</g>
<path opacity="0.7" d="M302.067 259.737C302.067 259.737 298.489 264.149 291.66 264.457C285.745 264.72 287.722 260.044 287.722 260.044C289.893 259.482 291.097 258.462 291.704 257.223C292.469 255.632 292.24 253.663 291.757 251.729C291.722 251.598 291.686 251.457 291.651 251.325L300.3 243.626C299.491 248.249 298.771 256.722 302.067 259.737Z" fill="white"/>
<path opacity="0.2" d="M298.876 250.402C298.419 253.373 294.807 256.291 291.704 257.214C292.469 255.623 292.24 253.654 291.757 251.721L298.92 246.236C299.158 247.616 299.149 249.031 298.876 250.402Z" fill="white"/>
<g opacity="0.7">
<path opacity="0.7" d="M293.269 233.614C295.317 235.935 293.462 238.493 286.712 241.534C285.191 237.992 286.272 232.155 288.452 231.18C290.632 230.195 291.476 231.602 293.269 233.614Z" fill="white"/>
<path opacity="0.7" d="M302.761 240.962C300.942 246.957 300.186 250.552 296.371 252.951C290.64 256.555 283.785 251.984 283.776 245.568C283.776 239.802 286.738 230.96 293.268 229.958C297.927 229.22 302.313 232.393 303.051 237.051C303.262 238.361 303.165 239.697 302.761 240.962Z" fill="white"/>
<path opacity="0.7" d="M293.286 240.479C293.172 240.971 292.811 241.314 292.486 241.235C292.161 241.156 292.003 240.699 292.117 240.207C292.231 239.714 292.583 239.372 292.908 239.442C293.225 239.512 293.365 239.978 293.286 240.479Z" fill="white"/>
<path opacity="0.7" d="M287.652 239.152C287.538 239.644 287.178 239.987 286.852 239.908C286.527 239.829 286.36 239.371 286.474 238.87C286.589 238.369 286.949 238.036 287.274 238.115C287.599 238.185 287.766 238.651 287.652 239.152Z" fill="white"/>
<path opacity="0.7" d="M289.436 239.82C288.487 241.191 287.353 242.43 286.061 243.494C286.764 244.522 288.329 244.496 288.329 244.496L289.436 239.82Z" fill="white"/>
<path opacity="0.7" d="M295.237 239.064C295.299 239.09 295.369 239.09 295.431 239.064C295.58 239.002 295.65 238.827 295.589 238.668C295.22 237.772 294.446 237.121 293.506 236.902C293.348 236.867 293.198 236.972 293.163 237.13C293.163 237.139 293.163 237.148 293.163 237.148C293.145 237.306 293.251 237.455 293.409 237.491C294.147 237.666 294.754 238.194 295.035 238.897C295.079 238.985 295.158 239.046 295.237 239.064Z" fill="white"/>
<path opacity="0.7" d="M285.534 236.647C285.648 236.673 285.762 236.629 285.841 236.541C286.307 235.935 287.028 235.592 287.793 235.61C287.96 235.627 288.1 235.504 288.118 235.346C288.135 235.188 288.021 235.038 287.854 235.021C286.887 234.977 285.964 235.407 285.375 236.172C285.27 236.295 285.288 236.48 285.411 236.585C285.455 236.612 285.498 236.629 285.534 236.647Z" fill="white"/>
<path opacity="0.7" d="M301.619 234.995C298.542 235.293 298.164 238.44 301.056 245.252C304.581 243.687 307.754 238.669 306.813 236.471C305.873 234.274 304.308 234.74 301.619 234.995Z" fill="white"/>
<path opacity="0.7" d="M304.51 246.517C303.737 247.888 302.454 248.899 300.933 249.33C298.92 249.875 297.927 248.064 298.498 246.175C299.017 244.469 300.687 242.131 302.7 242.421C304.712 242.711 305.451 244.83 304.51 246.517Z" fill="white"/>
<path opacity="0.7" d="M295.712 232.463C295.712 232.463 295.07 238.765 300.819 240.646C306.567 242.527 308.747 239.231 308.747 239.231C308.747 239.231 307.815 239.134 307.279 238.985C307.279 238.985 309.74 236.471 308.755 233.184C307.771 229.897 302.7 225.44 297.98 225.862C297.98 225.862 294.244 223.243 289.586 224.57C284.927 225.889 284.338 231.206 284.338 231.206C284.338 231.206 284.954 228.042 287.063 227.655C287.063 227.655 283.09 233.474 286.158 236.076C286.175 236.067 288.127 229.853 295.712 232.463Z" fill="white"/>
<g opacity="0.7">
<path opacity="0.7" d="M287.248 246.781C287.766 247.502 288.417 248.926 288.417 248.926C288.557 248.891 288.698 248.855 288.83 248.811C290.702 248.284 291.396 247.414 291.598 246.614C291.704 246.175 291.66 245.753 291.581 245.428C291.493 245.041 291.343 244.786 291.343 244.786C290.517 245.665 288.803 246.289 287.88 246.588C287.494 246.711 287.248 246.781 287.248 246.781Z" fill="white"/>
<path opacity="0.7" d="M287.88 246.588L288.241 247.212C290.007 246.711 291.185 246.113 291.581 245.428C291.493 245.041 291.343 244.786 291.343 244.786C290.517 245.656 288.812 246.289 287.88 246.588Z" fill="white"/>
<path opacity="0.7" d="M288.83 248.803C290.702 248.275 291.396 247.405 291.598 246.605C290.965 246.808 290.227 247.133 289.629 247.607C289.181 247.976 288.953 248.407 288.83 248.803Z" fill="white"/>
</g>
</g>
</g>
<path d="M160.548 155.992L160.533 149.646L157.42 154.874H156.317L153.22 149.782V155.992H150.923V145.416H152.948L156.906 151.988L160.805 145.416H162.814L162.844 155.992H160.548ZM173.543 154.028V155.992H165.354V145.416H173.346V147.38H167.786V149.677H172.697V151.58H167.786V154.028H173.543ZM183.68 154.028V155.992H175.49V145.416H183.483V147.38H177.923V149.677H182.834V151.58H177.923V154.028H183.68ZM187.818 147.41H184.434V145.416H193.65V147.41H190.266V155.992H187.818V147.41ZM205.343 144.66C205.766 144.66 206.113 144.796 206.385 145.068C206.657 145.33 206.793 145.678 206.793 146.111C206.793 146.312 206.768 146.514 206.718 146.715C206.667 146.917 206.562 147.219 206.4 147.622L205.524 149.797H204.028L204.678 147.41C204.426 147.299 204.23 147.133 204.089 146.912C203.948 146.69 203.877 146.423 203.877 146.111C203.877 145.678 204.013 145.33 204.285 145.068C204.567 144.796 204.92 144.66 205.343 144.66ZM213.256 156.174C211.745 156.174 210.566 155.756 209.72 154.92C208.884 154.083 208.466 152.89 208.466 151.339V145.416H210.914V151.248C210.914 153.142 211.7 154.089 213.271 154.089C214.036 154.089 214.621 153.862 215.024 153.409C215.426 152.945 215.628 152.225 215.628 151.248V145.416H218.045V151.339C218.045 152.89 217.622 154.083 216.776 154.92C215.94 155.756 214.767 156.174 213.256 156.174ZM225.042 145.416C225.979 145.416 226.79 145.572 227.475 145.884C228.17 146.196 228.704 146.64 229.077 147.214C229.449 147.788 229.636 148.468 229.636 149.254C229.636 150.029 229.449 150.709 229.077 151.293C228.704 151.867 228.17 152.311 227.475 152.623C226.79 152.925 225.979 153.076 225.042 153.076H222.912V155.992H220.464V145.416H225.042ZM224.906 151.082C225.642 151.082 226.201 150.926 226.584 150.613C226.966 150.291 227.158 149.838 227.158 149.254C227.158 148.659 226.966 148.206 226.584 147.894C226.201 147.571 225.642 147.41 224.906 147.41H222.912V151.082H224.906Z" fill="#514F7E"/>
<path d="M198.442 156.174C197.606 156.174 196.795 156.063 196.01 155.841C195.234 155.61 194.61 155.312 194.136 154.95L194.967 153.106C195.421 153.439 195.959 153.706 196.584 153.907C197.208 154.109 197.833 154.209 198.458 154.209C199.153 154.209 199.666 154.109 199.999 153.907C200.331 153.696 200.497 153.419 200.497 153.076C200.497 152.824 200.397 152.618 200.195 152.457C200.004 152.285 199.752 152.15 199.44 152.049C199.137 151.948 198.724 151.837 198.201 151.716C197.395 151.525 196.735 151.334 196.221 151.142C195.708 150.951 195.264 150.644 194.892 150.221C194.529 149.797 194.348 149.233 194.348 148.528C194.348 147.914 194.514 147.36 194.846 146.866C195.179 146.363 195.677 145.965 196.342 145.673C197.017 145.381 197.838 145.234 198.805 145.234C199.48 145.234 200.14 145.315 200.784 145.476C201.429 145.637 201.993 145.869 202.477 146.171L201.721 148.03C200.744 147.476 199.767 147.199 198.79 147.199C198.105 147.199 197.596 147.309 197.264 147.531C196.942 147.753 196.78 148.045 196.78 148.407C196.78 148.77 196.967 149.042 197.339 149.223C197.722 149.395 198.301 149.566 199.077 149.737C199.883 149.928 200.543 150.12 201.056 150.311C201.57 150.503 202.008 150.805 202.371 151.218C202.744 151.631 202.93 152.19 202.93 152.895C202.93 153.499 202.759 154.053 202.416 154.557C202.084 155.05 201.58 155.443 200.905 155.735C200.23 156.028 199.409 156.174 198.442 156.174Z" fill="#2AB2DA"/>
<path d="M126.041 147.425C126.041 146.247 126.26 145.131 126.656 144.094C124.142 145.764 122.481 148.629 122.481 151.873C122.481 157.032 126.665 161.207 131.815 161.207C135.797 161.207 139.198 158.711 140.534 155.204C139.058 156.188 137.282 156.76 135.366 156.76C130.224 156.76 126.041 152.576 126.041 147.425Z" fill="#514F7E"/>
<path d="M144.718 147.425C144.718 142.266 140.534 138.091 135.384 138.091C131.402 138.091 128.001 140.587 126.665 144.094C128.141 143.11 129.917 142.538 131.833 142.538C136.992 142.538 141.167 146.722 141.167 151.873C141.167 153.05 140.947 154.167 140.552 155.204C143.066 153.525 144.718 150.669 144.718 147.425Z" fill="#2AB2DA"/>
</g>
<defs>
<clipPath id="clip0">
<rect width="361" height="298.947" fill="white"/>
</clipPath>
</defs>
</svg>
