<svg xmlns="http://www.w3.org/2000/svg" xmlns:xlink="http://www.w3.org/1999/xlink" viewBox="0 0 413.21 373.38"><defs><style>.cls-1{fill:none;}.cls-2{fill:#efefef;}.cls-3{fill:#447ffa;}.cls-4{fill:#c5e3f4;}.cls-5{clip-path:url(#clip-path);}.cls-6{fill:#2ab0d8;}.cls-7{fill:#f9f9f9;}.cls-8{opacity:0.3;}.cls-9{fill:#fdbd9f;}.cls-10{fill:#263238;}.cls-11{fill:#e89872;}.cls-12{fill:#683400;}.cls-13{fill:#465a63;}.cls-14,.cls-23,.cls-35{fill:#fff;}.cls-14{opacity:0.8;}.cls-15{clip-path:url(#clip-path-2);}.cls-16,.cls-37{fill:#514f7e;}.cls-17{fill:#dfdfdf;}.cls-18{fill:#eaeaea;}.cls-19{fill:#a86552;}.cls-20{fill:#b58778;}.cls-21{fill:#885041;}.cls-22{opacity:0.6;}.cls-24{clip-path:url(#clip-path-3);}.cls-25{fill:#f7c16e;}.cls-26{clip-path:url(#clip-path-4);}.cls-27{fill:#e5525e;}.cls-28{clip-path:url(#clip-path-5);}.cls-29{fill:#bf9684;}.cls-30{fill:#8c6659;}.cls-31{clip-path:url(#clip-path-6);}.cls-32{fill:#f3bb97;}.cls-33,.cls-34,.cls-35{opacity:0.2;}.cls-36{fill:#b36958;}.cls-37{font-size:19.09px;font-family:Montserrat-Bold, Montserrat;font-weight:700;}.cls-38{letter-spacing:-0.01em;}.cls-39{fill:#bba5d1;}.cls-40{clip-path:url(#clip-path-7);}.cls-41{clip-path:url(#clip-path-8);}.cls-42{fill:#f9c898;}</style><clipPath id="clip-path"><circle class="cls-1" cx="401.53" cy="215.32" r="11.69" transform="translate(-34.65 346.99) rotate(-45)"/></clipPath><clipPath id="clip-path-2"><path class="cls-1" d="M384.72,101.27A33.12,33.12,0,0,1,373,126.64a31.47,31.47,0,0,1-5.51,3.82,33.3,33.3,0,0,1-29.89,1.16c-.39-.17-.78-.36-1.15-.56h0a31.66,31.66,0,0,1-6.53-4.3A33.32,33.32,0,0,1,318,101.27a33.35,33.35,0,0,1,66.69,0Z"/></clipPath><clipPath id="clip-path-3"><circle class="cls-1" cx="269.73" cy="31.57" r="18.2"/></clipPath><clipPath id="clip-path-4"><circle class="cls-1" cx="148.67" cy="321.92" r="18.2" transform="translate(-184.09 199.41) rotate(-45)"/></clipPath><clipPath id="clip-path-5"><circle class="cls-1" cx="53.07" cy="234.22" r="28.86"/></clipPath><clipPath id="clip-path-6"><circle class="cls-1" cx="331.53" cy="283.76" r="35.88" transform="translate(-103.55 317.54) rotate(-45)"/></clipPath><clipPath id="clip-path-7"><path class="cls-1" d="M168,46.33a30.38,30.38,0,0,1-6.09,18.29,29,29,0,0,1-4.65,4.93,29.35,29.35,0,0,1-5,3.5,30.5,30.5,0,0,1-27.36,1c-.36-.15-.72-.32-1.06-.5h0a29.26,29.26,0,0,1-6-3.94,30.53,30.53,0,0,1-10.85-23.32,30.52,30.52,0,1,1,61,0Z"/></clipPath><clipPath id="clip-path-8"><circle class="cls-1" cx="65.73" cy="129.59" r="18.2" transform="translate(-75.5 163.78) rotate(-76.72)"/></clipPath></defs><title>4-last</title><g id="Слой_2" data-name="Слой 2"><g id="Layer_1" data-name="Layer 1"><polygon class="cls-2" points="351.57 101.86 242.72 65.1 242.64 65.02 185.13 6.08 139.02 48.2 138.34 47.46 185.17 4.68 243.27 64.23 351.19 100.68 395.48 39.74 396.29 40.33 351.57 101.86"/><path class="cls-2" d="M13.25,192.34A5.38,5.38,0,1,1,7.87,187,5.38,5.38,0,0,1,13.25,192.34Z"/><path class="cls-2" d="M190.53,5.38A5.38,5.38,0,1,1,185.15,0,5.38,5.38,0,0,1,190.53,5.38Z"/><path class="cls-2" d="M401.27,40a5.38,5.38,0,1,1-5.38-5.38A5.38,5.38,0,0,1,401.27,40Z"/><path class="cls-2" d="M401.74,323.94a5.38,5.38,0,1,1-5.38-5.38A5.38,5.38,0,0,1,401.74,323.94Z"/><path class="cls-2" d="M248.38,64.67A5.38,5.38,0,1,1,243,59.29,5.37,5.37,0,0,1,248.38,64.67Z"/><polygon class="cls-2" points="148.99 324.08 148.57 324 13.65 298.52 13.84 297.54 148.34 322.94 242.53 64.49 243.47 64.84 148.99 324.08"/><rect class="cls-2" x="42.3" y="78.48" width="1" height="61.49" transform="translate(-67.35 68.86) rotate(-48.47)"/><polygon class="cls-2" points="396.09 324.37 329.39 283.02 330.85 282.63 400.93 215.2 350.92 101.47 351.83 101.07 402.12 215.44 401.87 215.68 331.64 283.25 396.62 323.52 396.09 324.37"/><polygon class="cls-2" points="14.17 298.3 13.33 297.76 53.64 235.49 7.16 192.37 7.5 192 65.72 128.97 66.06 129.18 331.35 282.64 330.85 283.51 65.91 130.24 8.58 192.32 54.94 235.32 14.17 298.3"/><path class="cls-3" d="M198.64,254.69q4,.33,8,.27a81.29,81.29,0,0,0,79.72-74.59c0-.49.07-1,.11-1.48a81,81,0,0,0-3.46-29.3h0a81.36,81.36,0,0,0-62.72-55.82,82.27,82.27,0,0,0-8.25-1.1,81.29,81.29,0,1,0-13.39,162Z"/><path class="cls-4" d="M198.64,254.69q4,.33,8,.27a81.29,81.29,0,0,0,79.72-74.59c0-.49.07-1,.11-1.48a81,81,0,0,0-3.46-29.3h0a81.36,81.36,0,0,0-62.72-55.82,82.27,82.27,0,0,0-8.25-1.1,81.29,81.29,0,1,0-13.39,162Z"/><path class="cls-2" d="M5.13,83.52A8.86,8.86,0,1,0,14,74.67,8.86,8.86,0,0,0,5.13,83.52Z"/><circle class="cls-2" cx="7.87" cy="301.98" r="7.87"/><circle class="cls-4" cx="401.53" cy="215.32" r="11.69" transform="translate(-34.65 346.99) rotate(-45)"/><g class="cls-5"><path class="cls-6" d="M411,230.7l-1.54-7.36s-.9-3.54-4-4.76l-.21-.07-.3-.09-.77-.25c-4.19-1.46-5.31-1.08-9.68.41a4.79,4.79,0,0,0-2.88,3.06c-.94,2.53-2.74,6.49-2.74,6.49l4.36,1.54.83-1.24v8.5h12l-.33-3.91-.06-4.82"/><path class="cls-7" d="M398.83,219l-.1.09-.12.1-.18.12a3.68,3.68,0,0,1-.49.25,3.56,3.56,0,0,1-.65.2,4.06,4.06,0,0,1-.67.06,2.87,2.87,0,0,1-.55-.05l-.21,0-.16-.05c-.08,0-.12,0-.12-.05a5,5,0,0,0,.49.1,3,3,0,0,0,.55,0,4,4,0,0,0,.66-.06,4.86,4.86,0,0,0,.64-.19,3.74,3.74,0,0,0,.49-.24C398.68,219.16,398.83,219,398.83,219Z"/><g class="cls-8"><polygon points="394.09 231.67 395.08 232.8 396.04 232.8 396.04 234.04 406.04 236.35 405.96 235.39 396.55 232.16 394.98 232.16 394.22 231.55 394.09 231.67"/></g><path class="cls-9" d="M397,230.66l-.84-.16s-2-2.16-2.34-2.19-2,0-2.58,0a.2.2,0,0,0-.2.2h0a.2.2,0,0,0,.2.2l2,.08V229l-2,0c-.21,0-.34.33.31.39l1.66.06v.1l-1.68.24c-.09,0-.31,0-.31.14s-.11.21.37.27c.17,0,1.63,0,1.63,0l0,.14-1.52.32a.23.23,0,0,0-.17.24h0a.22.22,0,0,0,.24.19l1.62-.15,1.59,1.27h2.12Z"/><polyline class="cls-6" points="411.04 230.7 406.19 231.65 405.7 228.2"/><path class="cls-6" d="M405.54,230.83l-9-.29v3.11l6,1.18,4.19.67a4.36,4.36,0,0,0,4.28-5h0Z"/><path class="cls-10" d="M408,230.77h-.45l-1.23,0c-1,0-2.47,0-4.06,0s-3-.07-4-.14l-1.23-.1-.33,0h0l.33,0,1.23.08c1,.05,2.47.1,4,.12s3,0,4.06,0H408Z"/><path class="cls-10" d="M396.55,230.57a.28.28,0,0,0,0,.05v3l0,0c1,.22,2.23.49,3.54.76,1.8.38,3.43.68,4.62.87l1.41.2.39,0h0l-.38,0c-.34,0-.82-.1-1.41-.19-1.2-.17-2.83-.47-4.63-.85-1.31-.27-2.53-.54-3.54-.77h0v-3Z"/><path class="cls-10" d="M395.78,222.07s0-.06,0-.16a3.81,3.81,0,0,0,0-.41,6.85,6.85,0,0,0-.09-1.35,4.21,4.21,0,0,0-.39-1.29.9.9,0,0,0-.27-.3l-.13-.09,0,0,.1,0a1,1,0,0,1,.29.3,1.88,1.88,0,0,1,.24.57,6.56,6.56,0,0,1,.17.73,6.19,6.19,0,0,1,.08,1.36c0,.18,0,.32,0,.42S395.79,222.07,395.78,222.07Z"/><path class="cls-10" d="M405.67,219.33s0,2.07,0,4.62,0,4.61,0,4.61,0-2.06,0-4.61S405.66,219.33,405.67,219.33Z"/><path class="cls-10" d="M408.78,229.71l-.4,0a2.55,2.55,0,0,0-.42.08,2.75,2.75,0,0,0-.5.18,2.87,2.87,0,0,0-.46.25,3.47,3.47,0,0,0-.33.26c-.19.17-.29.28-.29.28s0,0,.06-.09a1.77,1.77,0,0,1,.2-.21,2.68,2.68,0,0,1,.34-.28,3.28,3.28,0,0,1,.46-.26,3.14,3.14,0,0,1,.51-.18,2.55,2.55,0,0,1,.43-.07h.4Z"/><g class="cls-8"><path d="M395.87,230.14a10.74,10.74,0,0,0,3.38-3.9,20.35,20.35,0,0,1,3.07-4.3,4.41,4.41,0,0,0,1.5-1.81L401.51,222l-6.42,7.38Z"/></g><path class="cls-10" d="M391.71,226.18a4.55,4.55,0,0,0-.78.15,3.6,3.6,0,0,0-.51.23l-.21.1.19-.14a2.87,2.87,0,0,1,.52-.24,2.31,2.31,0,0,1,.55-.11Z"/><path class="cls-10" d="M391.71,226.18a4.55,4.55,0,0,0-.78.15,3.6,3.6,0,0,0-.51.23l-.21.1.19-.14a2.87,2.87,0,0,1,.52-.24,2.31,2.31,0,0,1,.55-.11Z"/><path class="cls-7" d="M405.63,229.49a1.4,1.4,0,0,0-.35-.16,1.88,1.88,0,0,0-1,.06c-.43.13-.87.44-1.42.66a2.16,2.16,0,0,1-.92.18,2.35,2.35,0,0,1-1-.3c-.31-.15-.6-.32-.89-.46a2.63,2.63,0,0,0-.88-.24,2.84,2.84,0,0,0-1.51.27,2.74,2.74,0,0,0-.85.62l-.11.12-.07.1,0,.06v0s0,0,0,0l0-.07.07-.1.11-.12a2.43,2.43,0,0,1,.84-.64,2.34,2.34,0,0,1,.69-.24,2.64,2.64,0,0,1,.85,0,2.49,2.49,0,0,1,.89.25c.3.13.58.31.89.46a2.51,2.51,0,0,0,.93.29,2.07,2.07,0,0,0,.9-.17c.54-.22,1-.53,1.43-.65a1.75,1.75,0,0,1,1.05-.05,1.31,1.31,0,0,1,.26.12l.06,0S405.63,229.49,405.63,229.49Z"/><path class="cls-7" d="M410,225.75a.54.54,0,0,0-.18,0,1,1,0,0,0-.48.15c-.18.1-.36.29-.62.44a.82.82,0,0,1-.44.11,1.36,1.36,0,0,1-.47-.15c-.15-.08-.29-.16-.43-.22a2.17,2.17,0,0,0-.42-.11,1.89,1.89,0,0,0-.4,0l-.35,0a2.55,2.55,0,0,0-.48.17.83.83,0,0,0-.16.09s0,0,0,0l.12-.08a1.9,1.9,0,0,1,.48-.19l.35,0a1.91,1.91,0,0,1,.41,0,1.69,1.69,0,0,1,.44.12,4.39,4.39,0,0,1,.44.21,1,1,0,0,0,.44.15.78.78,0,0,0,.42-.11c.24-.13.43-.32.62-.42a.93.93,0,0,1,.5-.14l.14,0Z"/><path class="cls-7" d="M405.58,224.36h-.07l-.08,0h-.12a2,2,0,0,0-.72.07,4.61,4.61,0,0,0-1,.45,10.78,10.78,0,0,1-1.18.63,2.32,2.32,0,0,1-.67.19,1.57,1.57,0,0,1-.65,0,2.64,2.64,0,0,1-.54-.21l-.46-.23a2,2,0,0,0-.69-.21h-.2a.56.56,0,0,1,.2,0,1.67,1.67,0,0,1,.71.2l.46.22a2.64,2.64,0,0,0,.54.21,1.82,1.82,0,0,0,.62,0,2.71,2.71,0,0,0,.66-.18,8.53,8.53,0,0,0,1.17-.64,4.56,4.56,0,0,1,1-.43,1.84,1.84,0,0,1,.74-.06l.11,0,.08,0Z"/><path class="cls-7" d="M408.71,221.25l-.1.06-.31.15a2.45,2.45,0,0,1-.48.16,1.8,1.8,0,0,1-.62,0l-.61-.1a1.7,1.7,0,0,0-.5,0,1.11,1.11,0,0,0-.43.16l0,0,.08-.06a.91.91,0,0,1,.32-.11,1.71,1.71,0,0,1,.51,0c.19,0,.4.07.61.09a2,2,0,0,0,1.08-.19l.32-.13Z"/><path class="cls-7" d="M395.63,222.93s-.06,0-.18,0a.75.75,0,0,0-.47.17c-.08.06-.17.14-.28.21a1.14,1.14,0,0,1-.39.16,1.86,1.86,0,0,1-.92-.11c-.32-.12-.6-.26-.87-.36a1.86,1.86,0,0,0-.39-.1,1.35,1.35,0,0,0-.34,0,1.07,1.07,0,0,0-.49.13,1.87,1.87,0,0,0-.16.1l0,0,.11-.08a1,1,0,0,1,.49-.15,1.47,1.47,0,0,1,.36,0,2.19,2.19,0,0,1,.4.11c.27.09.55.23.86.35a1.8,1.8,0,0,0,.9.11,1.24,1.24,0,0,0,.37-.14L395,223a.78.78,0,0,1,.49-.16.39.39,0,0,1,.14,0Z"/><path class="cls-7" d="M401.33,230.69l0,0a.49.49,0,0,1,.08.1,1,1,0,0,1,.17.42,1,1,0,0,1-.14.65c-.13.22-.36.39-.49.64a.59.59,0,0,0-.05.39,1.4,1.4,0,0,0,.13.36,1.6,1.6,0,0,1,.21.64.48.48,0,0,1-.19.4l-.11.06h-.05a.66.66,0,0,0,.15-.07.53.53,0,0,0,.16-.39,1.48,1.48,0,0,0-.21-.61,1.57,1.57,0,0,1-.14-.38.62.62,0,0,1,.05-.42,1.33,1.33,0,0,1,.26-.35,2.25,2.25,0,0,0,.24-.3.91.91,0,0,0,.14-.62.93.93,0,0,0-.15-.41C401.37,230.73,401.32,230.69,401.33,230.69Z"/><path class="cls-7" d="M405.57,235.13l0,0a1.05,1.05,0,0,1-.08-.13.68.68,0,0,1,0-.52,1.08,1.08,0,0,1,.2-.31c.08-.1.19-.19.29-.3a2,2,0,0,0,.28-.35,1.22,1.22,0,0,0,.13-.46,4.86,4.86,0,0,0,0-.95,1.68,1.68,0,0,1,.1-.77.85.85,0,0,1,.33-.41.45.45,0,0,1,.13-.06l.05,0s-.07,0-.17.09a1,1,0,0,0-.31.41,1.8,1.8,0,0,0-.08.76,5.74,5.74,0,0,1,.05.95,1.29,1.29,0,0,1-.15.48,1.53,1.53,0,0,1-.29.37,2,2,0,0,0-.49.59.75.75,0,0,0,0,.5C405.52,235.08,405.58,235.12,405.57,235.13Z"/><path class="cls-9" d="M400.46,219.59h0a2.11,2.11,0,0,0,2.2-1.92l.11-1.24a2,2,0,0,0,2-1.73c.24-1.69.45-5.6.45-5.6h0a5.91,5.91,0,0,0-6,0l-.27.16-.45,8.14A2.11,2.11,0,0,0,400.46,219.59Z"/><path class="cls-10" d="M403,213.54a1.19,1.19,0,0,1,.39,0c.06,0,.11,0,.12,0a.3.3,0,0,0,0-.18l-.12-.5a6.11,6.11,0,0,1-.24-1.3,6.61,6.61,0,0,1,.37,1.27l.11.5a.42.42,0,0,1,0,.25.18.18,0,0,1-.12.09.33.33,0,0,1-.1,0A1.56,1.56,0,0,1,403,213.54Z"/><path class="cls-11" d="M402.77,216.41a3.94,3.94,0,0,1-2.12-.91,2.1,2.1,0,0,0,2.07,1.35Z"/><path class="cls-12" d="M405.16,209.52a2.81,2.81,0,0,1-2.37-.3,3.4,3.4,0,0,0-2.12-.6c-.24.17-.33,1.08-1.23,1.3,0,0,0,1.74-.72,1.64s-.11-2.77-.11-2.77l1.74-.74,1.87-.24,1.73.34,1.33.44Z"/><path class="cls-9" d="M398.89,211s-1.12-.49-1.23.67a.87.87,0,0,0,1.08,1S398.89,211,398.89,211Z"/><path class="cls-11" d="M398.43,212.2l-.06,0a.27.27,0,0,1-.15,0,.53.53,0,0,1-.19-.48.66.66,0,0,1,.09-.28.24.24,0,0,1,.16-.14.1.1,0,0,1,.12.07.11.11,0,0,1,0,.06s0,0,0-.07a.59.59,0,0,0,0-.08.21.21,0,0,0-.11,0,.29.29,0,0,0-.23.16.8.8,0,0,0-.1.32.52.52,0,0,0,.25.53.21.21,0,0,0,.18,0S398.43,212.21,398.43,212.2Z"/><path class="cls-12" d="M400.22,208.81a3.94,3.94,0,0,1-.78.69,1.3,1.3,0,0,1-1,.21.83.83,0,0,1-.65-.71.6.6,0,0,1,.67-.61.38.38,0,0,1-.35-.48.37.37,0,0,1,.56-.17c-.3-.06-.33-.52-.09-.71a.83.83,0,0,1,.85,0,6.52,6.52,0,0,0,.82.35,2,2,0,0,0,1.34-.33,5.07,5.07,0,0,1,1.24-.65,3,3,0,0,1,2.83,1,1.57,1.57,0,0,1,.3,1.35,1.12,1.12,0,0,1-1,.84A3.07,3.07,0,0,1,403,209a5.28,5.28,0,0,0-2.72-.56Z"/><path class="cls-10" d="M398.6,207.46l.07,0a1,1,0,0,0,.2.13,4.06,4.06,0,0,0,.84.33,3.93,3.93,0,0,0,1.33.13,10.13,10.13,0,0,0,1.6-.33,3.31,3.31,0,0,1,1.58-.09,1.52,1.52,0,0,1,1,.72,1.13,1.13,0,0,1,.09.84,1.71,1.71,0,0,1-.14.3l.07-.06a.89.89,0,0,0,.11-.22,1.15,1.15,0,0,0-.05-.9,1.61,1.61,0,0,0-1.06-.79,3.41,3.41,0,0,0-1.64.08A11.88,11.88,0,0,1,401,208a4.09,4.09,0,0,1-1.3-.1A5.57,5.57,0,0,1,398.6,207.46Z"/><path class="cls-10" d="M398.08,209.25s0,.12.15.27a1.16,1.16,0,0,0,.63.37,1.2,1.2,0,0,0,.73-.08c.18-.08.26-.16.25-.18s-.11.05-.28.1a1.42,1.42,0,0,1-.67,0,1.47,1.47,0,0,1-.6-.31C398.16,209.34,398.09,209.24,398.08,209.25Z"/><path class="cls-10" d="M398.44,208.68s.06.22.28.38.46.16.46.13-.19-.09-.39-.23S398.47,208.66,398.44,208.68Z"/><path class="cls-10" d="M405.73,210.3s0-.06.06-.16a.65.65,0,0,0-.11-.39.55.55,0,0,0-.31-.25c-.1,0-.16,0-.17,0s.23.1.38.33A1.5,1.5,0,0,1,405.73,210.3Z"/><path class="cls-10" d="M406.33,208.63a3.62,3.62,0,0,1-.46.55,3.79,3.79,0,0,1-.62.37.9.9,0,0,0,.7-.27A.94.94,0,0,0,406.33,208.63Z"/><path class="cls-10" d="M404.57,211.67a.27.27,0,0,1-.28.23.25.25,0,1,1,0-.5A.24.24,0,0,1,404.57,211.67Z"/><path class="cls-10" d="M404.78,211.64s-.22-.14-.49-.17a2.77,2.77,0,0,0-.53,0s0-.08.12-.13a.71.71,0,0,1,.43-.07.68.68,0,0,1,.39.18C404.77,211.57,404.8,211.63,404.78,211.64Z"/><path class="cls-10" d="M402,211.31a.27.27,0,0,1-.29.23.24.24,0,0,1-.23-.27.26.26,0,0,1,.28-.22A.25.25,0,0,1,402,211.31Z"/><path class="cls-10" d="M402.22,211.31s-.22-.14-.49-.18-.5.08-.53,0,0-.07.12-.13a.8.8,0,0,1,.43-.07.71.71,0,0,1,.39.18C402.22,211.23,402.24,211.29,402.22,211.31Z"/><path class="cls-10" d="M402.11,210.54c-.05.05-.26-.1-.54-.13s-.52.07-.57,0,0-.1.13-.17a.77.77,0,0,1,.46-.1.73.73,0,0,1,.44.2C402.12,210.44,402.14,210.52,402.11,210.54Z"/><path class="cls-10" d="M404.76,211s0,.09-.14.13a.69.69,0,0,1-.42.05.88.88,0,0,1-.39-.17c-.08-.08-.11-.14-.09-.17s.26,0,.52.08S404.73,210.93,404.76,211Z"/><path class="cls-10" d="M402.79,214s0,.05,0,.12,0,.11-.06.11,0-.06,0-.12S402.76,214,402.79,214Z"/><path class="cls-13" d="M398.68,213.12a.17.17,0,0,1,0,.07.4.4,0,0,1-.15.13.38.38,0,0,1-.3,0,.43.43,0,0,1-.25-.26.48.48,0,0,1,.25-.56.58.58,0,0,1,.2,0h.07a.7.7,0,0,0-.25.06.49.49,0,0,0-.19.19.39.39,0,0,0,0,.32.39.39,0,0,0,.22.23.33.33,0,0,0,.26,0A.51.51,0,0,0,398.68,213.12Z"/><path class="cls-9" d="M399.8,220.05s.57-.8.92-1.25a2.77,2.77,0,0,0,.69-1.26V216.2a.49.49,0,0,1,.61.48,1.57,1.57,0,0,1,0,.76,15.15,15.15,0,0,1,2.4-1.41c.27.2-.24.6-.24.6l-1.37,1.24.78-.25a.37.37,0,0,1,.46.23h0a.37.37,0,0,1-.14.42l-.47.4.24-.1a.37.37,0,0,1,.45.17h0a.36.36,0,0,1-.06.41l-.42.44.2-.1a.26.26,0,0,1,.35.11h0a.26.26,0,0,1-.07.31l-2.52,2Z"/><path class="cls-11" d="M401.61,221.9l0,0-.09-.09-.36-.36-1.34-1.36h0l.54-.75.3-.4c.11-.14.22-.28.32-.43a5.35,5.35,0,0,0,.29-.47,1,1,0,0,0,.14-.55v-1.26h0a.59.59,0,0,1,.41.07.54.54,0,0,1,.15.15.8.8,0,0,1,.07.2,2,2,0,0,1,0,.42,1.7,1.7,0,0,1,0,.22.93.93,0,0,1,0,.22l0,0,1.08-.71.57-.35c.19-.11.39-.22.6-.32l.09,0h.08l0,0a.19.19,0,0,1,.08.18.64.64,0,0,1-.18.32l-.26.23-.25.24-1,.9,0,0,.46-.14.22-.07.12,0h.12a.4.4,0,0,1,.36.29.41.41,0,0,1-.16.42h0l-.46.4,0,0,.22-.09a.36.36,0,0,1,.25,0,.38.38,0,0,1,.28.37.35.35,0,0,1-.08.22l-.15.16-.3.32,0,0,.21-.12a.27.27,0,0,1,.33.42.6.6,0,0,1-.08.08L404,220l-.17.13-.31.25-1,.81-.66.52-.17.13-.06,0,.06-.05.17-.14.66-.52,1-.82.31-.25L404,220l.08-.06.08-.07a.28.28,0,0,0,0-.2.31.31,0,0,0-.12-.16.26.26,0,0,0-.21,0l-.21.11-.11.06.09-.09.29-.31.15-.17a.31.31,0,0,0,.06-.19.32.32,0,0,0-.46-.31l-.23.09-.13.05.11-.09.46-.4h0a.34.34,0,0,0,.14-.37.35.35,0,0,0-.31-.25.42.42,0,0,0-.22.05l-.23.07-.45.14-.12,0,.09-.08,1-.9.26-.24.25-.23a.59.59,0,0,0,.17-.28.14.14,0,0,0-.06-.14h-.06l-.08,0c-.2.09-.4.21-.59.32l-.57.35-1.08.7-.06,0,0-.07a1.38,1.38,0,0,0,0-.2,1.48,1.48,0,0,0,0-.21,2,2,0,0,0,0-.42.67.67,0,0,0-.07-.18.44.44,0,0,0-.13-.14.53.53,0,0,0-.37-.06l0,0v1.39a.83.83,0,0,1,0,.15c0,.09-.07.18-.11.27a3.88,3.88,0,0,1-.3.48,4.63,4.63,0,0,1-.32.42c-.1.14-.21.27-.3.41s-.38.51-.54.74v0l1.32,1.36.36.37.09.1Z"/><path class="cls-6" d="M401.61,221.9l-6.9,9.11a3.68,3.68,0,0,1-4.5,1.13c-1.14-.54-2-1.7-1.28-4.07l6.61-4.52,4-3.87Z"/><path class="cls-10" d="M390.21,232.14l.08,0,.21.12a3.14,3.14,0,0,0,.91.24,3.07,3.07,0,0,0,.67,0l.38-.06.2-.06a1.52,1.52,0,0,0,.2-.06,4,4,0,0,0,.83-.41,3.32,3.32,0,0,0,.78-.68c.47-.56,1-1.19,1.48-1.87s1.08-1.41,1.66-2.18c1.17-1.54,2.44-3.24,3.77-5l.21-.28v0l-2.06-2.23h0c-1.41,1.16-2.71,2.27-3.89,3.25s-2.23,1.86-3.13,2.56-1.61,1.26-2.12,1.63l-.58.42-.15.11-.06,0,.05,0,.15-.12.58-.42c.5-.38,1.22-.93,2.11-1.64s2-1.58,3.12-2.57,2.48-2.1,3.89-3.26l0,0v0l2.06,2.22,0,0,0,0-.21.28c-1.33,1.79-2.6,3.49-3.77,5L396,229.41c-.53.67-1,1.31-1.49,1.86a3.38,3.38,0,0,1-.79.69,3.56,3.56,0,0,1-.84.4l-.2.07-.2,0a2.66,2.66,0,0,1-.39.07,3.9,3.9,0,0,1-.68,0,3,3,0,0,1-.9-.25l-.21-.12Z"/><path class="cls-7" d="M395.44,229.77s-.08-.06-.24-.14a1.55,1.55,0,0,0-.74-.09,2.6,2.6,0,0,0-.51.11,5.79,5.79,0,0,0-.57.21,6.55,6.55,0,0,1-.63.22,2.15,2.15,0,0,1-.72.07,2.69,2.69,0,0,1-.7-.2c-.21-.08-.41-.19-.61-.27a2.31,2.31,0,0,0-1.07-.28,1.2,1.2,0,0,0-.7.25,1,1,0,0,0-.18.21l0-.06a.87.87,0,0,1,.14-.16,1.12,1.12,0,0,1,.71-.28,2.33,2.33,0,0,1,1.09.27l.61.28a3,3,0,0,0,.69.19,2.06,2.06,0,0,0,.7-.07,5.83,5.83,0,0,0,.63-.22q.28-.12.57-.21a3.39,3.39,0,0,1,.52-.1,1.45,1.45,0,0,1,.75.11A1.14,1.14,0,0,1,395.44,229.77Z"/><path class="cls-7" d="M397.88,226.72a.44.44,0,0,0,0-.18.5.5,0,0,0-.31-.37,1.06,1.06,0,0,0-.33-.1,2,2,0,0,1-.39-.13,2.37,2.37,0,0,1-.74-.58c-.23-.24-.43-.48-.65-.67a1.66,1.66,0,0,0-.65-.37,1.11,1.11,0,0,0-.5,0l-.18,0,0,0,.14,0a1,1,0,0,1,.51,0,1.61,1.61,0,0,1,.67.37,8.42,8.42,0,0,1,.66.67,2.55,2.55,0,0,0,.72.57c.25.12.52.13.72.23a.54.54,0,0,1,.31.41.46.46,0,0,1,0,.14Z"/></g><rect class="cls-3" x="257.92" y="118.03" width="97.22" height="1" transform="translate(-21.85 131.71) rotate(-23.44)"/><rect class="cls-3" x="157.25" y="42.4" width="1" height="72.46" transform="translate(-17.77 94.8) rotate(-31.76)"/><rect class="cls-3" x="51.1" y="221.95" width="101.09" height="1" transform="translate(-43.45 25.57) rotate(-11.83)"/><rect class="cls-14" x="257.92" y="118.03" width="97.22" height="1" transform="translate(-21.85 131.71) rotate(-23.44)"/><rect class="cls-3" x="301.33" y="187.84" width="1" height="107.23" transform="translate(-82.14 197.09) rotate(-32.07)"/><rect class="cls-14" x="301.33" y="187.84" width="1" height="107.23" transform="translate(-82.14 197.09) rotate(-32.07)"/><rect class="cls-14" x="157.25" y="42.4" width="1" height="72.46" transform="translate(-17.77 94.8) rotate(-31.76)"/><rect class="cls-14" x="51.1" y="221.95" width="101.09" height="1" transform="translate(-43.45 25.57) rotate(-11.83)"/><path class="cls-3" d="M148.51,324.05,51.64,233l13.7-103.59.1-.11,73-81.92.18,0L270.89,29,351.66,99l0,.26L330.75,287.31l-.36.07ZM52.7,232.6,148.82,323l181-36.5L350.61,99.39l-80-69.3L138.93,48.3,66.29,129.83Z"/><path class="cls-14" d="M148.51,324.05,51.64,233l13.7-103.59.1-.11,73-81.92.18,0L270.89,29,351.66,99l0,.26L330.75,287.31l-.36.07ZM52.7,232.6,148.82,323l181-36.5L350.61,99.39l-80-69.3L138.93,48.3,66.29,129.83Z"/><path class="cls-4" d="M384.72,101.27A33.12,33.12,0,0,1,373,126.64a31.47,31.47,0,0,1-5.51,3.82,33.3,33.3,0,0,1-29.89,1.16c-.39-.17-.78-.36-1.15-.56h0a31.66,31.66,0,0,1-6.53-4.3A33.32,33.32,0,0,1,318,101.27a33.35,33.35,0,0,1,66.69,0Z"/><g class="cls-15"><polygon class="cls-4" points="335.99 124.64 351.07 116.48 365.99 114.44 379.68 166.54 378.43 182.61 339.8 184.69 341.38 147.3 335.99 124.64"/><path class="cls-16" d="M363.45,120.39s-4.71,21.84-1.09,30.91S380,178.83,380,178.83l10.69-.63s-3.85-56.38-4.76-57.52-21.7-7.12-21.7-7.12Z"/><path class="cls-16" d="M377.5,190.67s24.84-8.94,26.87-14c4.89-12.17-12.78-53.57-18.42-56S377.08,131.4,378,135.2c3.55,14.47,10.58,29.48,10.58,29.48L371.86,175.5Z"/><path class="cls-16" d="M349.44,135.88c-1.06-4.38-2.85-17-2.85-17l-12.72,6.65c-2.26,1.69-7.43,7.58-7.43,14.29,0,12.09,1.72,39.68,3.94,43.4,2.73,4.57,14.29,11.6,14.29,11.6l8.17-12.55-3.33-2.63c2-3.94,6.43-12.91,7-15.89C357.15,159.92,350.3,139.44,349.44,135.88Z"/><path class="cls-10" d="M377.79,138.74a2.79,2.79,0,0,1,.22.44l.55,1.3,2,4.8c1.64,4.1,3.89,9.7,6.36,15.89.62,1.56,1.23,3.08,1.81,4.55l.06.14-.13.07-11.95,6.89-3.53,2-.95.52a1.47,1.47,0,0,1-.34.16,1.47,1.47,0,0,1,.31-.21l.92-.58,3.48-2.08,11.88-7-.07.22-1.82-4.55-6.27-15.93c-.77-2-1.4-3.66-1.86-4.84-.2-.54-.36-1-.49-1.32A2.68,2.68,0,0,1,377.79,138.74Z"/><path class="cls-10" d="M395.53,169.9a5.82,5.82,0,0,1-.87-1,12.32,12.32,0,0,0-2.21-2.16,5.49,5.49,0,0,0-2.83-1c-.79,0-1.26.14-1.28.08a2.17,2.17,0,0,1,1.28-.33,5.13,5.13,0,0,1,3,1,9.81,9.81,0,0,1,2.2,2.3A4.12,4.12,0,0,1,395.53,169.9Z"/><path class="cls-10" d="M385.18,120.46a16.37,16.37,0,0,0-2,1.08,11.44,11.44,0,0,0-3.56,4.14,25,25,0,0,0-1.89,5.22,18.66,18.66,0,0,1-.64,2.23,1.93,1.93,0,0,1,.06-.62c.07-.4.18-1,.33-1.67a21.92,21.92,0,0,1,1.82-5.32,10.92,10.92,0,0,1,3.74-4.19,7.05,7.05,0,0,1,1.56-.73A1.91,1.91,0,0,1,385.18,120.46Z"/><path class="cls-10" d="M343.41,172.36a1.17,1.17,0,0,1-.12-.3l-.29-.88c-.26-.82-.6-1.92-1-3.25-.84-2.76-2-6.57-3.2-10.78s-2.32-8-3.09-10.81c-.37-1.35-.68-2.46-.9-3.29l-.23-.9a1.31,1.31,0,0,1-.06-.32s.06.1.13.3.17.53.29.88c.25.82.6,1.92,1,3.25.83,2.76,2,6.57,3.2,10.79s2.32,8,3.09,10.81c.37,1.34.67,2.45.9,3.29l.23.89C343.41,172.25,343.43,172.36,343.41,172.36Z"/><path class="cls-10" d="M343.48,120.53a2.87,2.87,0,0,1,.08.49c0,.36.09.83.16,1.42.13,1.27.31,3,.52,5.22.42,4.44,1,10.52,1.61,17.23.13,1.19.25,2.35.37,3.49l-.09-.13,3.87,2.23.19.11-.15.15L347.76,153l0-.18c.42.89.84,1.74,1.28,2.51s1,1.46,1.46,2.1c1,1.28,1.92,2.32,2.71,3.17l1.87,2,.49.53a1.21,1.21,0,0,1,.16.19,1,1,0,0,1-.2-.16l-.52-.49c-.45-.43-1.12-1.06-1.93-1.9a41,41,0,0,1-2.79-3.14,25,25,0,0,1-1.5-2.11c-.46-.78-.89-1.63-1.32-2.53l0-.1.07-.07,2.27-2.3,0,.26L346,148.55l-.08,0v-.09c-.12-1.14-.25-2.31-.37-3.5-.64-6.73-1.14-12.83-1.51-17.24-.17-2.18-.31-4-.41-5.23,0-.59-.07-1.06-.09-1.42A2.7,2.7,0,0,1,343.48,120.53Z"/><polygon class="cls-17" points="355.63 179.78 349.38 171.47 334.49 173.7 334.15 174.66 349.89 193.74 363.37 191.14 355.63 179.78"/><polygon class="cls-17" points="355.29 180.74 349.05 172.44 334.15 174.66 349.55 194.71 362.59 192.02 363.37 191.14 355.29 180.74"/><path class="cls-18" d="M342.91,177.33a.76.76,0,0,0,.76-1.31.76.76,0,1,0-.76,1.31Z"/><path class="cls-9" d="M372.61,177.53,367,179.07a8.25,8.25,0,0,0-6.81-2.09l-2.06.31L357,179.07s-10,2-10.19,3.24l.05.41,0,.23,8.7-.7s-7.33,1.07-7.77,1.15-2.06.18-1.9,1c.13.7,1.05,1.13,2.35,1.13.53,0,7-.4,7-.4l-7,1c-.78.11-.5,1.35,0,1.44s9.73,1.34,9.73,1.34a5.47,5.47,0,0,1-2.6,1.33c-1.24.1-3.58-1.17-3.91-.35s-.17,1.23.12,1.37a30.23,30.23,0,0,0,4.41,1.31c1,.12,10.52-2.42,10.52-2.42l10.13-1.81Z"/><path class="cls-9" d="M336.62,177.87s-1.34.78-.24,2.66a17.21,17.21,0,0,0,3.9,4.54,1.86,1.86,0,0,0,.89,1.7s-1.06.44-.09,2.19a2.13,2.13,0,0,0,1.72,2.57s-.32,1.66,1.8,2.12a4.75,4.75,0,0,0,3.84-1.13Z"/><path class="cls-9" d="M341,184.8c1.48.17,3.08.24,4.46.54.46.1.88,0,1.22.37a1,1,0,0,1,.22,1.26,1.43,1.43,0,0,1-1.12.4,20.78,20.78,0,0,1-4.57-.56"/><path class="cls-9" d="M341.94,187.08c1.47.17,3.07.24,4.46.54.45.1.88,0,1.22.36a1,1,0,0,1,.21,1.26,1.37,1.37,0,0,1-1.11.41,20.78,20.78,0,0,1-4.57-.56"/><path class="cls-9" d="M343.11,189.39c1.47.17,3.07.24,4.46.54.45.1.88,0,1.22.37a1,1,0,0,1,.21,1.25,1.37,1.37,0,0,1-1.12.41,20.69,20.69,0,0,1-4.56-.56"/><path class="cls-19" d="M341.32,186.84c0-.06,1.07.14,2.37.3s2.38.23,2.38.3a9.1,9.1,0,0,1-2.4-.08A8.51,8.51,0,0,1,341.32,186.84Z"/><path class="cls-19" d="M341.37,189a26.44,26.44,0,0,1,2.7.35c1.49.2,2.7.33,2.7.39a11.75,11.75,0,0,1-2.73-.17A12.25,12.25,0,0,1,341.37,189Z"/><path class="cls-19" d="M342.7,191.51a14.75,14.75,0,0,1,2.51.13,14.08,14.08,0,0,1,2.48.35,12.63,12.63,0,0,1-2.51-.13A14.08,14.08,0,0,1,342.7,191.51Z"/><path class="cls-20" d="M339.8,184.69c0-.07,1.33.17,3,.34s3,.22,3,.28a3.1,3.1,0,0,1-.88.06,20,20,0,0,1-2.12-.12c-.83-.09-1.57-.21-2.1-.32A4.32,4.32,0,0,1,339.8,184.69Z"/><path class="cls-19" d="M353.55,179.71a28.34,28.34,0,0,1,3.52-.66,26.41,26.41,0,0,1,3.55-.43,60.36,60.36,0,0,1-7.07,1.09Z"/><path class="cls-10" d="M354.1,179.16s-.14-.17-.38-.49l-1-1.38-3.54-4.81.07,0-3.42.5-8.23,1.2-2.5.35-.68.08-.24,0,.24,0,.67-.11,2.5-.39,8.22-1.24,3.42-.5h0l0,0c1.39,1.92,2.59,3.58,3.49,4.84l1,1.41C354,179,354.1,179.16,354.1,179.16Z"/><g class="cls-8"><path d="M375.73,173.07a4.43,4.43,0,0,1,3-3.27c1.55-.65,3.29-1.24,4.18-2.67,1.14-1.79.5-4.11,0-6.17-1-4-3.52-14.05-3.25-18.21l8.91,23Z"/></g><g class="cls-8"><path d="M372.8,168.51a3.17,3.17,0,0,0,.77-2.3,12,12,0,0,0-.46-2.45,60,60,0,0,1-1.25-9.36c-.25-2.54-.55-4.67-.54-4.5l-3.27-1.72a7.6,7.6,0,0,0,1.8-1.34s-.68-2.23-.81-2.9c0,0-1.49-7.5-1.89-9.92l.17,10.6L364.51,149l4.53,1.6,3,16.69Z"/></g><path class="cls-10" d="M371.86,167.45a1.12,1.12,0,0,1-.13-.31c-.07-.2-.19-.5-.3-.9a23.81,23.81,0,0,1-.76-3.49c-.24-1.51-.37-3.36-.65-5.44a26.25,26.25,0,0,0-.63-3.26c-.14-.57-.32-1.13-.51-1.71s-.38-1.19-.57-1.8l0,.07a4.15,4.15,0,0,0-.92-.44c-.33-.13-.68-.24-1-.35-.71-.23-1.44-.44-2.18-.64l-.23-.06.13-.2q1.35-2.13,2.81-4.4l0,.08c0-.57.07-1.19.11-1.81.11-4-.23-7.76-.43-11.21a68,68,0,0,1-.08-9.19,25.36,25.36,0,0,1,1.12-6.09,7.77,7.77,0,0,1,.33-.91l.28-.66a2.43,2.43,0,0,1,.25-.53,5.25,5.25,0,0,1-.19.56l-.24.66a8.32,8.32,0,0,0-.3.92,26.8,26.8,0,0,0-1,6.07,72.19,72.19,0,0,0,.16,9.15c.22,3.44.56,7.23.46,11.24,0,.63-.08,1.25-.11,1.83v.05l0,0-2.82,4.39-.1-.26c.75.21,1.48.42,2.2.66.35.11.71.23,1.05.36a4.16,4.16,0,0,1,1,.52l0,0v0c.19.61.37,1.2.56,1.79s.37,1.16.51,1.73a29.07,29.07,0,0,1,.6,3.31c.26,2.09.37,3.93.57,5.45a26.87,26.87,0,0,0,.67,3.49c.09.4.2.7.25.91A2.38,2.38,0,0,1,371.86,167.45Z"/><path class="cls-10" d="M366.3,163.07a2.68,2.68,0,0,1,.06.71,9.28,9.28,0,0,1-.16,1.92,11.64,11.64,0,0,1-8.06,9.15,10.4,10.4,0,0,1-1.89.4,2.27,2.27,0,0,1-.71,0c0-.07,1-.13,2.52-.66a12,12,0,0,0,7.9-9C366.29,164.09,366.23,163.07,366.3,163.07Z"/><path class="cls-10" d="M363.37,79.35c2.23,1.15,2.9,4,3.27,6.45s.88,5.28,3,6.64c1.74,1.12,4.41,1.16,5.21,3.06a2.35,2.35,0,0,1-3.28,3,4.06,4.06,0,0,1-.11,4.76c-1.13,1.28-3.55,1.24-4.35-.26a2.07,2.07,0,1,1-3.78,1.67"/><path class="cls-10" d="M338.64,102.53a2.49,2.49,0,1,1-4.91-.79c.2-1,1-1.93.89-3-.18-1.25-1.64-1.82-2.88-2.09s-2.7-.64-3.11-1.84.43-2.33,1.13-3.33,1.27-2.44.47-3.36c-.41-.47-1.06-.64-1.56-1a2.74,2.74,0,0,1-.19-3.72,5,5,0,0,1,3.68-1.64,38.12,38.12,0,0,1,4.13.24,16.51,16.51,0,0,0,12.4-4.76"/><path class="cls-9" d="M363.73,89.07l.49,28.29a9,9,0,0,1-8.87,9.12h0a9,9,0,0,1-9-8.08c-.25-2.47-.44-4.52-.44-4.52s-7.2-.45-7.94-7.54c-.35-3.42-.51-10.53-.58-17A13.28,13.28,0,0,1,349.43,76l.69-.06A13.17,13.17,0,0,1,363.73,89.07Z"/><path class="cls-10" d="M339.81,93.61a1,1,0,0,0,1.07.93,1,1,0,0,0,1-1,1,1,0,0,0-1.07-.93A1,1,0,0,0,339.81,93.61Z"/><path class="cls-10" d="M339.33,92.71c.14.12.85-.52,1.95-.61s1.93.37,2,.23-.1-.29-.47-.51a2.67,2.67,0,0,0-1.65-.35,2.59,2.59,0,0,0-1.53.65C339.36,92.41,339.26,92.66,339.33,92.71Z"/><path class="cls-10" d="M350.52,92.84a1,1,0,0,0,1.07.93,1,1,0,0,0,1-1,1,1,0,0,0-1.07-.93A1,1,0,0,0,350.52,92.84Z"/><path class="cls-10" d="M350.07,91.94c.13.12.85-.52,1.94-.62s1.94.38,2.05.23-.1-.29-.47-.51a2.85,2.85,0,0,0-1.65-.35,2.72,2.72,0,0,0-1.54.66C350.09,91.63,350,91.88,350.07,91.94Z"/><path class="cls-10" d="M346.85,100.38a7.31,7.31,0,0,0-1.8-.16c-.28,0-.55,0-.62-.22a1.5,1.5,0,0,1,.11-.84c.21-.7.41-1.43.63-2.19a37.71,37.71,0,0,0,1.35-5.72,36.53,36.53,0,0,0-1.8,5.6l-.6,2.2a1.67,1.67,0,0,0,0,1.11.68.68,0,0,0,.49.36,1.61,1.61,0,0,0,.48,0A7.31,7.31,0,0,0,346.85,100.38Z"/><path class="cls-10" d="M349.39,87.69c.14.29,1.22,0,2.51.08s2.36.29,2.5,0c.07-.13-.14-.39-.58-.64a4.23,4.23,0,0,0-1.9-.48,4.12,4.12,0,0,0-1.92.41C349.55,87.3,349.34,87.55,349.39,87.69Z"/><path class="cls-10" d="M339.44,89.52c.22.23.95-.1,1.85-.19s1.68,0,1.83-.26-.07-.37-.43-.58a2.57,2.57,0,0,0-1.54-.26,2.5,2.5,0,0,0-1.42.63C339.43,89.14,339.35,89.41,339.44,89.52Z"/><path class="cls-10" d="M355.44,82l.05,0a5.61,5.61,0,0,1,2.4,3.42l0,.14c.46,2,.6,4.06,1.08,6.06a9.28,9.28,0,0,0,3,5.24c.67.51,1.79.81,2.24.09a1.8,1.8,0,0,0,.17-1c-.07-4.92.87-9.38.39-14.48a4.32,4.32,0,0,0-2.11-3.35c-1.14-.67-2.51-1.34-3.65-.67s-2.48,3-3.31,4.06"/><path class="cls-9" d="M361.76,92.5c.11-.07,4.74-1.89,5,3s-4.66,4.15-4.67,4S361.76,92.5,361.76,92.5Z"/><path class="cls-21" d="M363.49,97.55s.09.06.24.12a.87.87,0,0,0,.63,0,2.08,2.08,0,0,0,.86-1.94,2.73,2.73,0,0,0-.31-1.2,1,1,0,0,0-.67-.61.44.44,0,0,0-.49.26c-.06.14,0,.24,0,.25s-.11-.08-.09-.28a.58.58,0,0,1,.18-.32.64.64,0,0,1,.46-.15,1.23,1.23,0,0,1,.93.7,2.91,2.91,0,0,1,.37,1.34,2.22,2.22,0,0,1-1.11,2.18.88.88,0,0,1-.78-.09C363.51,97.67,363.48,97.56,363.49,97.55Z"/><path class="cls-10" d="M359.26,78.26c1-2.05-2.51-4.54-5-5.08s-5.51.92-7.82,1.93A13.43,13.43,0,0,1,342,76.66a10.64,10.64,0,0,1-3.15-.51,7.89,7.89,0,0,0-3.16-.33,2.94,2.94,0,0,0-2.4,1.86A1.84,1.84,0,0,0,334.73,80a2.39,2.39,0,1,0-.23,4.47c-.74-.46-1.72.5-1.55,1.35a2.51,2.51,0,0,0,1.82,1.69,9.18,9.18,0,0,0,6.47-.69c2-.9,3.87-2.17,5.88-3.12s5.35-2.62,7.5-2.08c1.59.41,2.82,2.16,3.65,1.67A3,3,0,0,0,359.61,81a8.56,8.56,0,0,0-.35-2.75"/><path class="cls-10" d="M361.85,93.32a42,42,0,0,1,.57,7.67,14.2,14.2,0,0,1-2.16,7.28c-1.86,2.8-4.43,5.63-7.58,6.79a15.28,15.28,0,0,1-11.25-.25,5.28,5.28,0,0,1-2.88-4.51,3.66,3.66,0,0,1-2.64-2.64c-.32-1.27.16-3,1.14-3.39-.79,0-1.23-1.15-1.08-1.89s1.13-1.14,1.92-1.14a5.48,5.48,0,0,1,2.25.67,7.13,7.13,0,0,0,2.22.8c2.61.34,4.69-2.31,7.3-2.7,2.35-.36,4.8,1.19,7.06.42a4.73,4.73,0,0,0,2.7-2.77c.51-1.23-.57-5.22-.54-6.56"/><g class="cls-22"><path class="cls-13" d="M345.18,107.83s.2-.12.53-.28a3.2,3.2,0,0,1,1.37-.34,3.24,3.24,0,0,1,1.38.31c.33.16.52.3.54.27s-.13-.21-.47-.41a2.84,2.84,0,0,0-1.45-.4,3,3,0,0,0-1.45.42C345.31,107.61,345.16,107.81,345.18,107.83Z"/></g><path class="cls-23" d="M349.2,101.59c-.18,0-.07,1.19-1,2.12s-2.21.92-2.2,1.09.3.2.83.17a3,3,0,0,0,1.85-.84,2.59,2.59,0,0,0,.77-1.77C349.44,101.86,349.28,101.58,349.2,101.59Z"/><path class="cls-13" d="M354.86,113.79a1.51,1.51,0,0,0-.28.17c-.18.1-.45.26-.81.44a16.06,16.06,0,0,1-3.2,1.15,15.14,15.14,0,0,1-2.32.39,12.75,12.75,0,0,1-2.69,0,10.53,10.53,0,0,1-2.88-.7,8.24,8.24,0,0,1-2.68-1.65,4.83,4.83,0,0,1-1.57-3.27v-.1l-.09,0a3.76,3.76,0,0,1-1.66-.91,4.31,4.31,0,0,1-.61-.68,3,3,0,0,1-.37-.79,3.36,3.36,0,0,1,.58-3l.06-.07-.07-.06a2,2,0,0,1-.64-1.83,1.83,1.83,0,0,1,.86-1.24,2,2,0,0,1,.93-.32,1.88,1.88,0,0,0,.35,0,1.22,1.22,0,0,0-.35,0,2.05,2.05,0,0,0-1,.29,1.92,1.92,0,0,0-.95,1.29,2.15,2.15,0,0,0,.66,2v-.13a3.55,3.55,0,0,0-.64,3.17,2.71,2.71,0,0,0,.39.85,4.32,4.32,0,0,0,2.4,1.7l-.09-.12a5,5,0,0,0,1.63,3.45,8.27,8.27,0,0,0,2.77,1.7,10.57,10.57,0,0,0,2.94.7,12.42,12.42,0,0,0,2.73,0,15.3,15.3,0,0,0,2.34-.42,14.79,14.79,0,0,0,3.2-1.23,9.21,9.21,0,0,0,.8-.49A1.63,1.63,0,0,0,354.86,113.79Z"/><path class="cls-13" d="M373.61,97.7a.65.65,0,0,0,.22-.16,1.46,1.46,0,0,0,.37-.7,2.07,2.07,0,0,0-.14-1.24,2.59,2.59,0,0,0-1.17-1.17,6.16,6.16,0,0,0-1.92-.57,11.2,11.2,0,0,1-2.19-.48,4,4,0,0,1-1.87-1.51,6.57,6.57,0,0,1-1-2.42c-.38-1.79-.29-3.57-.54-5.17a6.66,6.66,0,0,0-1.73-3.87A3.85,3.85,0,0,0,361,79.28a2.4,2.4,0,0,0-.78.11c-.17.06-.26.09-.25.1a4.09,4.09,0,0,1,1-.12,3.87,3.87,0,0,1,2.49,1.16,6.6,6.6,0,0,1,1.63,3.79c.24,1.57.14,3.35.53,5.18A6.85,6.85,0,0,0,366.71,92a4.23,4.23,0,0,0,2,1.58,11.5,11.5,0,0,0,2.24.47,6,6,0,0,1,1.87.52,2.4,2.4,0,0,1,1.12,1.08,1.92,1.92,0,0,1,.17,1.16A1.48,1.48,0,0,1,373.61,97.7Z"/><path class="cls-13" d="M334.56,80a.79.79,0,0,0-.23-.06,1.12,1.12,0,0,0-.29,0,1.7,1.7,0,0,0-.4,0,2.88,2.88,0,0,0-2.17,1.29h0a3.87,3.87,0,0,0-.16,3,4.77,4.77,0,0,0,2.47,2.76,7.39,7.39,0,0,0,4.26.62,16.25,16.25,0,0,0,4.54-1.39,21.46,21.46,0,0,0,6.16-4.26,21.17,21.17,0,0,1,2.45-2.13,7.83,7.83,0,0,1,2.53-1.19,8.3,8.3,0,0,1,4.05,0,10.05,10.05,0,0,1,1.42.49,5.16,5.16,0,0,0-1.4-.58,8,8,0,0,0-4.11-.06,7.85,7.85,0,0,0-2.6,1.19,21.9,21.9,0,0,0-2.5,2.14,21.48,21.48,0,0,1-6.1,4.2A16.67,16.67,0,0,1,338,87.29a7.1,7.1,0,0,1-4.13-.59,4.54,4.54,0,0,1-2.4-2.61,3.71,3.71,0,0,1,.12-2.86h0A2.86,2.86,0,0,1,333.65,80,4.36,4.36,0,0,1,334.56,80Z"/><path class="cls-13" d="M336.22,75.47a2.65,2.65,0,0,0,.42,1A4.55,4.55,0,0,0,339,78.25a5.71,5.71,0,0,0,2,.32,8.37,8.37,0,0,0,2.34-.44,30.92,30.92,0,0,0,4.85-2.38,10.66,10.66,0,0,1,5.05-1.52,6.88,6.88,0,0,1,4,1.42,7.29,7.29,0,0,1,1.94,2.18c.34.61.45,1,.48,1a2,2,0,0,0-.08-.28,5.09,5.09,0,0,0-.32-.74,6.86,6.86,0,0,0-1.91-2.28A7,7,0,0,0,353.29,74a10.78,10.78,0,0,0-5.17,1.54,33.84,33.84,0,0,1-4.8,2.38,8.37,8.37,0,0,1-2.27.45,5.48,5.48,0,0,1-2-.29,4.47,4.47,0,0,1-2.34-1.66A6.15,6.15,0,0,1,336.22,75.47Z"/></g><circle class="cls-4" cx="269.73" cy="31.57" r="18.2"/><g class="cls-24"><path class="cls-10" d="M279.62,27a9.72,9.72,0,0,0,1.06,4.46,15.91,15.91,0,0,1,1.38,3c.25,1,.12,2.1.31,3.14.3,1.68,1.42,3.09,2.26,4.58s1.41,3.39.58,4.89l-8.6-1L276,35.34Z"/><path class="cls-25" d="M262.53,23.34c-1.11,2.36.43,4.72-.68,7.08a18.86,18.86,0,0,0-1.4,3.61,19.3,19.3,0,0,1-.78,3.4c-.74,1.71-2.41,2.86-3.19,4.55-1.15,2.5.07,5.63,2.27,7.29a11.66,11.66,0,0,0,7.86,1.88,10.71,10.71,0,0,0,4.78-1.3,5.51,5.51,0,0,0,2.76-4"/><path class="cls-25" d="M275.28,19.14c5.53,2.45,6.63,11.54,6.66,12.76,0,1.46.81,1.76,1.78,2.52a5.44,5.44,0,0,1,2.17,2.88c.22.93,0,2,.44,2.81.53,1,1.79,1.39,2.77,2A6.9,6.9,0,0,1,292,47.69,20.12,20.12,0,0,1,290.89,54a3.43,3.43,0,0,1-1.27,2.17,3.63,3.63,0,0,1-2,.33l-10.5-.24a22.37,22.37,0,0,1-7.91-1.13,9.92,9.92,0,0,1-4.86-4.07,8.06,8.06,0,0,1-.87-6.14c.44-1.57,1.39-3,1.67-4.61.34-2-1.33-2.84-1.94-4.78s-1.1-6.57-.27-8.42"/><path class="cls-6" d="M281.6,69.23l-1.73-5.53-.25,8.45,3.95,10.19a25.94,25.94,0,0,1-26.22.19L260,73l-1.27-10.82-3.51,5-7.48-7.24s5.48-10.12,6.16-11c4.33-5.89,11.82-5.75,11.82-5.75l10.59.59a12.89,12.89,0,0,1,9.87,4.38s3.82,5.84,7,20.24Z"/><path class="cls-7" d="M286.9,49.68l-.16,0a4,4,0,0,0-.45.06,7.47,7.47,0,0,0-1.68.48,7.78,7.78,0,0,0-2.3,1.52,7,7,0,0,0-1.11,1.33,5.44,5.44,0,0,0-.77,1.77,2.2,2.2,0,0,0,0,1,1.61,1.61,0,0,0,.61.85,1.07,1.07,0,0,0,1,.16,1.28,1.28,0,0,0,.72-.83,1.58,1.58,0,0,0-.08-1.15,2.61,2.61,0,0,0-.81-.94,5.16,5.16,0,0,0-2.45-.91,7.54,7.54,0,0,0-2.78.24A10.66,10.66,0,0,0,274,54.44a7.77,7.77,0,0,0-2.24,2,2.75,2.75,0,0,0-.53,1.41,1.19,1.19,0,0,0,.19.71,1.61,1.61,0,0,0,.54.53h0a1,1,0,0,0,.76,0,1.12,1.12,0,0,0,.54-.57,4,4,0,0,0,.31-1.69,4.64,4.64,0,0,0-.28-1.7,3.77,3.77,0,0,0-.94-1.39,5.05,5.05,0,0,0-3-1.35,8,8,0,0,0-3.2.36,5.43,5.43,0,0,0-2.66,1.49,1.71,1.71,0,0,0,.17,2.54,1.19,1.19,0,0,0,.61.26,1,1,0,0,0,.62-.15,1.44,1.44,0,0,0,.6-1.12,3.29,3.29,0,0,0-.15-1.29,6.37,6.37,0,0,0-.23-.61c0-.09-.07-.2-.12-.29l-.15-.28a7.55,7.55,0,0,0-1.44-1.91,8.93,8.93,0,0,0-3.53-2.12,8.83,8.83,0,0,0-3.09-.41,8.19,8.19,0,0,0-1.95.36l-.48.18-.17.05.16-.07.48-.19a7.42,7.42,0,0,1,2-.4,8.56,8.56,0,0,1,3.13.38,9.07,9.07,0,0,1,3.59,2.12A7.63,7.63,0,0,1,265,53.3l.16.28.12.3c.08.21.17.41.24.62a3.63,3.63,0,0,1,.16,1.36A1.6,1.6,0,0,1,265,57.1a1.16,1.16,0,0,1-.73.18,1.38,1.38,0,0,1-.7-.3,2,2,0,0,1-.71-1.33,1.57,1.57,0,0,1,.11-.77,2.22,2.22,0,0,1,.4-.68,5.6,5.6,0,0,1,2.74-1.55,8.18,8.18,0,0,1,3.28-.38,5.29,5.29,0,0,1,3.1,1.4,4,4,0,0,1,1,1.46,5.11,5.11,0,0,1,.3,1.77,4.21,4.21,0,0,1-.34,1.78,1.27,1.27,0,0,1-.64.65,1.17,1.17,0,0,1-.9,0h0a1.88,1.88,0,0,1-.6-.59,1.45,1.45,0,0,1-.21-.81,2.77,2.77,0,0,1,.57-1.51,7.5,7.5,0,0,1,2.3-2.09,10.43,10.43,0,0,1,2.75-1.15,7.7,7.7,0,0,1,2.85-.24,5.2,5.2,0,0,1,2.53,1,2.65,2.65,0,0,1,.85,1,1.74,1.74,0,0,1,.08,1.27,1.39,1.39,0,0,1-.8.92,1.25,1.25,0,0,1-1.17-.19,1.71,1.71,0,0,1-.65-.92,2.2,2.2,0,0,1,0-1.08A5.13,5.13,0,0,1,281.1,53a8.58,8.58,0,0,1,1.13-1.35,7.79,7.79,0,0,1,2.36-1.5,6.73,6.73,0,0,1,1.7-.46A5.51,5.51,0,0,1,286.9,49.68Z"/><path class="cls-7" d="M291.39,61.79a7.58,7.58,0,0,0-1,.46,4.94,4.94,0,0,0-1.9,2.13,4.34,4.34,0,0,0-.31.9,1.89,1.89,0,0,0,0,1,.78.78,0,0,0,.27.41.49.49,0,0,0,.47,0,1,1,0,0,0,.56-.88,2,2,0,0,0-1.13-2,2.57,2.57,0,0,0-2.52.24,3.59,3.59,0,0,0-1.43,2.19,1.61,1.61,0,0,0,.1,1.21.76.76,0,0,0,.95.37A1,1,0,0,0,286,67a1.84,1.84,0,0,0-.32-1,3,3,0,0,0-1.5-1.21,2.82,2.82,0,0,0-1.61-.1,3.34,3.34,0,0,0-1.12.52,4.42,4.42,0,0,0-.74.76l0-.06a1.84,1.84,0,0,1,.12-.18,2.53,2.53,0,0,1,.55-.58,3,3,0,0,1,1.14-.56,2.84,2.84,0,0,1,1.67.07,3.08,3.08,0,0,1,1.6,1.26,2,2,0,0,1,.35,1.1,1.14,1.14,0,0,1-.63,1,.85.85,0,0,1-.68,0,1.11,1.11,0,0,1-.51-.45,1.88,1.88,0,0,1-.13-1.34,3.85,3.85,0,0,1,1.51-2.31,2.77,2.77,0,0,1,2.72-.25,2.23,2.23,0,0,1,1.22,2.2,1.23,1.23,0,0,1-.68,1,.7.7,0,0,1-.63-.07.94.94,0,0,1-.32-.5,1.89,1.89,0,0,1,0-1.08,4.43,4.43,0,0,1,.32-.93,4.88,4.88,0,0,1,2-2.13A3.36,3.36,0,0,1,291.39,61.79Z"/><path class="cls-7" d="M279.66,67.13s0,0-.09,0l-.26-.07a8.07,8.07,0,0,0-1-.17,7.84,7.84,0,0,0-3.76.52,6.37,6.37,0,0,0-1.13.58,3.14,3.14,0,0,0-1,.91,1.5,1.5,0,0,0-.19,1.35,1.19,1.19,0,0,0,.42.57.85.85,0,0,0,.69.15,1.3,1.3,0,0,0,.95-1.09,2.38,2.38,0,0,0-.43-1.57,4.71,4.71,0,0,0-2.83-2,4.62,4.62,0,0,0-3.43.51,4.51,4.51,0,0,0-1.27,1.1,2,2,0,0,0-.32.73,1,1,0,0,0,.06.73.7.7,0,0,0,.57.38,1,1,0,0,0,.67-.2,1.29,1.29,0,0,0,.5-1.23,3.24,3.24,0,0,0-.43-1.27,4.49,4.49,0,0,0-.78-1A5,5,0,0,0,264.74,65a4.56,4.56,0,0,0-1.61-.25,5.07,5.07,0,0,0-1.39.22l.09,0,.26-.09a4.19,4.19,0,0,1,1-.17,4.81,4.81,0,0,1,1.66.23A5,5,0,0,1,266.69,66a4.85,4.85,0,0,1,.81,1A3.39,3.39,0,0,1,268,68.3a2,2,0,0,1-.08.75,1.31,1.31,0,0,1-.48.63,1.21,1.21,0,0,1-.79.23.9.9,0,0,1-.71-.46,1.22,1.22,0,0,1-.08-.86,2.25,2.25,0,0,1,.35-.79,4.46,4.46,0,0,1,1.32-1.16A4.82,4.82,0,0,1,274,68.2a2.51,2.51,0,0,1,.45,1.69,1.48,1.48,0,0,1-1.1,1.25,1.06,1.06,0,0,1-.82-.18,1.37,1.37,0,0,1-.48-.67,1.64,1.64,0,0,1,.22-1.49,3.32,3.32,0,0,1,1-1,6.53,6.53,0,0,1,1.16-.57,7.75,7.75,0,0,1,3.82-.48A5.27,5.27,0,0,1,279.66,67.13Z"/><path class="cls-9" d="M266.46,45.52c0-2.64,0-5.42,0-5.42s-3.39-.6-4.05-5.05c-.62-4.24.44-13.37.44-13.37h0c4.92-1.94,10.46-1.19,13.9,2.77h0l-.53,21.46a4.6,4.6,0,0,1-4.92,4.33h0A4.86,4.86,0,0,1,266.46,45.52Z"/><path class="cls-10" d="M263.76,28.69a.57.57,0,0,0,.54.58.55.55,0,0,0,.6-.51.57.57,0,0,0-.55-.58A.55.55,0,0,0,263.76,28.69Z"/><path class="cls-10" d="M262.85,28c.07.08.5-.24,1.11-.23s1.06.32,1.13.25,0-.17-.23-.32a1.65,1.65,0,0,0-.9-.29,1.51,1.51,0,0,0-.89.28C262.88,27.87,262.81,28,262.85,28Z"/><path class="cls-10" d="M270,28.87a.57.57,0,0,0,.54.58.55.55,0,0,0,.6-.51.57.57,0,0,0-.54-.58A.55.55,0,0,0,270,28.87Z"/><path class="cls-10" d="M269.24,28.34c.07.07.5-.24,1.11-.23s1.06.32,1.13.24,0-.16-.23-.31a1.57,1.57,0,0,0-.9-.29,1.51,1.51,0,0,0-.89.28C269.27,28.17,269.2,28.3,269.24,28.34Z"/><path class="cls-10" d="M267,32.86a3.79,3.79,0,0,0-1-.2c-.16,0-.31,0-.33-.15a.77.77,0,0,1,.11-.47l.47-1.18a19.45,19.45,0,0,0,1.08-3.11,21.08,21.08,0,0,0-1.32,3c-.16.42-.32.82-.46,1.2a.89.89,0,0,0-.09.61.39.39,0,0,0,.26.23.87.87,0,0,0,.26,0A4.66,4.66,0,0,0,267,32.86Z"/><path class="cls-11" d="M266.45,40.1a11.27,11.27,0,0,0,6-1.52s-1.48,3-5.92,2.57Z"/><path class="cls-11" d="M267.2,34.34a1.1,1.1,0,0,1,1-.4,1,1,0,0,1,.69.38.63.63,0,0,1,0,.73.74.74,0,0,1-.81.19,2.19,2.19,0,0,1-.77-.47.65.65,0,0,1-.18-.19.19.19,0,0,1,0-.23"/><path class="cls-10" d="M268.76,33.3c-.1,0-.11.66-.69,1.12s-1.28.39-1.28.48.15.13.45.14a1.59,1.59,0,0,0,1.08-.36,1.45,1.45,0,0,0,.53-.94C268.88,33.46,268.8,33.3,268.76,33.3Z"/><path class="cls-25" d="M274.82,21.29c-1.63,2.31-5.93,4.69-9,5.25.36-.48,2.25-1.64,2.61-2.12-1.39,1-3.39,2.44-5.24,2.54a1.14,1.14,0,0,1-.64-.1.82.82,0,0,1-.32-.7,18.62,18.62,0,0,1,.12-4A4.51,4.51,0,0,1,264,19.26a7.72,7.72,0,0,1,4.48-1.18,10.25,10.25,0,0,1,3.95.53,3.73,3.73,0,0,1,2.46,2.6"/><path class="cls-25" d="M279.47,31.66a23.69,23.69,0,0,0,.45-3c.13-2.29-.53-10.75-8.43-10.07l1.9,2.43s-1.56,5.12,1.76,8.66a8.21,8.21,0,0,0,2.5,4.45s1.34,0,1.82-2.51"/><path class="cls-9" d="M275.06,29.33a2.68,2.68,0,0,1,1.43.11,1.87,1.87,0,0,1,1,1,1.93,1.93,0,0,1,0,1.42,3.37,3.37,0,0,1-.83,1.19,2.21,2.21,0,0,1-.86.56,1.06,1.06,0,0,1-1-.17"/><path class="cls-11" d="M275.29,32.21c-.06,0,.15.31.58.2a.93.93,0,0,0,.54-.46,2.22,2.22,0,0,0,.25-.79,1.27,1.27,0,0,0-.19-.84.82.82,0,0,0-.62-.37c-.45,0-.59.29-.54.3s.21-.12.5-.05a.82.82,0,0,1,.49.92,1.35,1.35,0,0,1-.52,1.05C275.51,32.3,275.32,32.17,275.29,32.21Z"/></g><circle class="cls-4" cx="148.67" cy="321.92" r="18.2" transform="translate(-184.09 199.41) rotate(-45)"/><g class="cls-26"><rect class="cls-27" x="147.64" y="312.16" width="6" height="6"/><path class="cls-12" d="M159.08,328.74a3.21,3.21,0,0,0,2.33-3.21,18.36,18.36,0,0,1-.25-1.92,6.26,6.26,0,0,1,1.2-2.72,2.71,2.71,0,0,0,.26-2.84c-.38-.52-1.05-.76-1.51-1.23a4.78,4.78,0,0,1-.9-1.66,2.94,2.94,0,0,0-1.1-1.52,1.17,1.17,0,0,0-1.63.42"/><path class="cls-12" d="M153.09,312.47a2.44,2.44,0,0,0,.69-3.12A3.78,3.78,0,0,0,151,307.5a5.39,5.39,0,0,0-4.64,1.53c-.64.66-1.16,1.52-2,1.82a11.93,11.93,0,0,1-2.4.12,3.62,3.62,0,0,0-2.53,1.83,7.68,7.68,0,0,0-.9,3.08,4.72,4.72,0,0,1-.88,2.78c-.66.7-1.71.85-2.54,1.35a3.47,3.47,0,0,0-1,4.75c.32.48.79.91.83,1.49a4.14,4.14,0,0,1-.46,1.5,2.35,2.35,0,0,0,2,2.92c.69,0,1.43-.23,2,.08s.84,1,1.23,1.6a2.94,2.94,0,0,0,3.58.92c.5-.24,1-.65,1.54-.61s1,.51,1.55.62a2,2,0,0,0,1.83-1,10,10,0,0,1,1.28-1.79,7.7,7.7,0,0,1,2.63-1.11,7.42,7.42,0,0,0,4.2-10.41"/><path class="cls-9" d="M155.26,313.77a1.59,1.59,0,0,1,1.41,1.61h0l-.94,21.32c0,2.52-3.72,3.93-6.42,3.87h0c-2.72-.06-2.81-1.4-2.84-3.8-.06-4-.06-5.5-.06-5.48s-3.44-.58-4.14-5.07a47.48,47.48,0,0,1,0-8.88c.17-2.69,2-6,4.65-5.7Z"/><path class="cls-10" d="M143.22,320.24a.58.58,0,0,0,.56.59.55.55,0,1,0-.56-.59Z"/><path class="cls-10" d="M143,319.24c.07.08.5-.24,1.12-.24s1.08.31,1.14.24,0-.17-.23-.31a1.57,1.57,0,0,0-.92-.29,1.45,1.45,0,0,0-.89.29C143.06,319.07,143,319.21,143,319.24Z"/><path class="cls-10" d="M149.4,320.24a.58.58,0,0,0,.55.59.56.56,0,0,0,.6-.52.57.57,0,0,0-.56-.58A.54.54,0,0,0,149.4,320.24Z"/><path class="cls-10" d="M149.12,319.37c.07.08.5-.24,1.12-.24s1.08.31,1.14.24,0-.17-.23-.32a1.65,1.65,0,0,0-.92-.28,1.45,1.45,0,0,0-.89.29C149.15,319.2,149.08,319.34,149.12,319.37Z"/><path class="cls-10" d="M146.86,324a4.7,4.7,0,0,0-1-.18c-.16,0-.31,0-.33-.16a.84.84,0,0,1,.1-.47c.15-.38.31-.78.47-1.2a19.63,19.63,0,0,0,1.06-3.15,21.55,21.55,0,0,0-1.31,3.06c-.15.42-.3.82-.45,1.21a.91.91,0,0,0-.08.62.39.39,0,0,0,.26.23,1.47,1.47,0,0,0,.27,0A4,4,0,0,0,146.86,324Z"/><path class="cls-11" d="M146.41,331.29a11.46,11.46,0,0,0,6-1.59s-1.53,3.17-6,2.74Z"/><path class="cls-27" d="M147.12,325.46a1.1,1.1,0,0,1,1-.42,1,1,0,0,1,.7.38.65.65,0,0,1,.05.74.74.74,0,0,1-.82.2,2.47,2.47,0,0,1-.79-.47.73.73,0,0,1-.17-.18.21.21,0,0,1,0-.23"/><path class="cls-10" d="M148.68,324.39c-.1,0-.1.67-.68,1.15s-1.29.4-1.3.49.16.13.46.14a1.7,1.7,0,0,0,1.09-.37,1.47,1.47,0,0,0,.52-1C148.8,324.56,148.72,324.39,148.68,324.39Z"/><path class="cls-10" d="M148.84,318.29c.06.17.68.09,1.4.18s1.32.29,1.42.14-.06-.24-.3-.4a2.39,2.39,0,0,0-1-.37,2.34,2.34,0,0,0-1.11.13C149,318.08,148.81,318.21,148.84,318.29Z"/><path class="cls-10" d="M143.26,317.45c.11.14.53,0,1.05,0s.94.1,1-.05,0-.21-.21-.34a1.41,1.41,0,0,0-.85-.24,1.49,1.49,0,0,0-.84.28C143.27,317.24,143.21,317.38,143.26,317.45Z"/><path class="cls-12" d="M152.31,312.31a4.35,4.35,0,0,1,3.56-.66,3,3,0,0,1,2.23,2.64c0,.79-.31,1.63,0,2.35s1.16,1,1.74,1.45a2.68,2.68,0,0,1,.62,3.24c-.49.9-1.52,1.56-1.6,2.57s.72,1.77.92,2.71a3,3,0,0,1-1.18,2.79,9.25,9.25,0,0,1-2.88,1.43,4.41,4.41,0,0,1-2.46.39,2.52,2.52,0,0,1-1.85-2.1,3.42,3.42,0,0,1,.93-2.71c.58-.64,1.39-1.18,1.53-2,.21-1.31-1.34-2.38-1.25-3.7a3.81,3.81,0,0,1,.93-1.8,2.11,2.11,0,0,0,.5-1.9c-.31-.83-1.4-1.05-2.06-1.66a2,2,0,0,1-.55-2,2.08,2.08,0,0,1,1.62-1.39"/><path class="cls-12" d="M152.8,311.3a3.06,3.06,0,0,1-3.63,3c-.68-.12-1.43-.47-2-.1s-.65,1.32-1.2,1.8c-.79.69-2.05,0-3.06.34a4.11,4.11,0,0,0-1.77,1.6c-.52.62-1.29,1.21-2.06,1a9.08,9.08,0,0,1,.3-2.07,3.07,3.07,0,0,1,1.18-1.68c.32-.21.69-.34,1-.58.64-.52.79-1.42,1.19-2.15a3.35,3.35,0,0,1,2.57-1.7,19.49,19.49,0,0,0,2.65,0c.64-.16,1.19-.58,1.84-.7,1.25-.24,2.42.66,3.33,1.56"/><path class="cls-10" d="M161,322a1.08,1.08,0,0,0,.09-.52,1.28,1.28,0,0,0-.9-1,7,7,0,0,0-1-.27,2.71,2.71,0,0,1-1.11-.46,1.53,1.53,0,0,1-.58-1.2,13.3,13.3,0,0,1,.06-1.41,3.14,3.14,0,0,0,0-.69,1.52,1.52,0,0,0-.27-.59,2.18,2.18,0,0,0-1.08-.62,5.21,5.21,0,0,1-1.1-.47,3.91,3.91,0,0,1-.81-.67,3.66,3.66,0,0,1-.79-1.28,3.08,3.08,0,0,1-.12-.39c0-.09,0-.14,0-.14s.06.19.2.51a4,4,0,0,0,.82,1.22,4.09,4.09,0,0,0,1.87,1.07,2.43,2.43,0,0,1,1.17.66,1.77,1.77,0,0,1,.3.67,3.54,3.54,0,0,1,0,.73,13.73,13.73,0,0,0-.08,1.39,1.45,1.45,0,0,0,.51,1.09,2.9,2.9,0,0,0,1.06.45,5.59,5.59,0,0,1,1,.29,1.54,1.54,0,0,1,.69.52,1.14,1.14,0,0,1,.23.62.7.7,0,0,1-.08.4A.32.32,0,0,1,161,322Z"/><path class="cls-10" d="M134.56,324.83l-.08,0a.54.54,0,0,1-.17-.17.92.92,0,0,1,.09-.89,1.22,1.22,0,0,1,.49-.46,5.38,5.38,0,0,1,.72-.3,2.28,2.28,0,0,0,.75-.43,1.64,1.64,0,0,0,.43-.85c.08-.34.1-.71.16-1.09a2.39,2.39,0,0,1,.45-1.13,20.13,20.13,0,0,1,2-1.7,3.23,3.23,0,0,0,.7-1.19,9.17,9.17,0,0,0,.32-1.44,6.14,6.14,0,0,1,.94-3,2.2,2.2,0,0,1,1.35-.88,4.84,4.84,0,0,1,1.57,0,6.07,6.07,0,0,0,1.46.09,1.92,1.92,0,0,0,1.19-.62c.61-.66,1-1.55,1.72-2a2.88,2.88,0,0,1,2.26-.31,2.55,2.55,0,0,1,1.5,1.16,2.86,2.86,0,0,1,.39,1.39,2.56,2.56,0,0,1-.15.89,1.42,1.42,0,0,1-.13.29s0-.1.1-.3a2.47,2.47,0,0,0,.11-.88,2.81,2.81,0,0,0-.41-1.34,2.38,2.38,0,0,0-1.44-1.09,2.76,2.76,0,0,0-2.16.31,3.22,3.22,0,0,0-.86.9,11.19,11.19,0,0,1-.82,1.1,2.31,2.31,0,0,1-.57.45,2.18,2.18,0,0,1-.71.22,6.38,6.38,0,0,1-1.51-.08,4.45,4.45,0,0,0-1.5,0,2,2,0,0,0-1.26.81,4.29,4.29,0,0,0-.64,1.41,14.88,14.88,0,0,0-.27,1.51,7.93,7.93,0,0,1-.33,1.46,3.22,3.22,0,0,1-.74,1.25,23.34,23.34,0,0,0-2,1.67,2.31,2.31,0,0,0-.43,1.07c-.06.37-.09.74-.17,1.09a1.73,1.73,0,0,1-.47.91,2.54,2.54,0,0,1-.8.44,5.41,5.41,0,0,0-.72.28,1.13,1.13,0,0,0-.46.43.88.88,0,0,0-.12.83A.6.6,0,0,0,134.56,324.83Z"/><path class="cls-27" d="M123.54,355.74l8-.73s4.9-12.91,10.94-16l3.92,6.83L138,361.54H121.63Z"/><path class="cls-6" d="M123.54,355.74l8-.73s4.9-12.91,10.94-16l3.92,6.83L138,361.54H121.63Z"/><path class="cls-7" d="M126.69,359.38a6.47,6.47,0,0,1,.67-1.29,5.4,5.4,0,0,1,.82-1.2,6.23,6.23,0,0,1-.68,1.29A6.43,6.43,0,0,1,126.69,359.38Z"/><path class="cls-7" d="M132.33,359.22a5.89,5.89,0,0,1-1-1.07,5.66,5.66,0,0,1-.83-1.18,6.54,6.54,0,0,1,1,1.07A7,7,0,0,1,132.33,359.22Z"/><path class="cls-7" d="M133.31,356.26a6.05,6.05,0,0,1,0-2.08,6.8,6.8,0,0,1,0,2.08Z"/><path class="cls-7" d="M130.5,360.88a2.32,2.32,0,0,1-.76-.4c-.39-.25-.69-.49-.66-.53a2.18,2.18,0,0,1,.76.39C130.23,360.6,130.53,360.84,130.5,360.88Z"/><path class="cls-7" d="M135.08,349a7.65,7.65,0,0,1-.55,1.43,7.1,7.1,0,0,1-.71,1.37,7.08,7.08,0,0,1,.55-1.44A6.57,6.57,0,0,1,135.08,349Z"/><path class="cls-7" d="M138.3,343.79s-.25.3-.63.59a2.31,2.31,0,0,1-.74.45s.25-.3.63-.59A2.21,2.21,0,0,1,138.3,343.79Z"/><path class="cls-6" d="M150.21,360.52l4.11-16.58a5.64,5.64,0,0,1,6.48-4.2h0a5.64,5.64,0,0,1,4.57,6.42l-2.51,16.21a8.12,8.12,0,0,1-6.73,6.56l-3.27.51Z"/><path class="cls-10" d="M163.16,338.67a3.81,3.81,0,0,0-1.47-.74,4.06,4.06,0,0,0-1.77,0,4.89,4.89,0,0,0-1.92,1,9.27,9.27,0,0,0-2.3,3.23c-.22.47-.39.85-.51,1.12a2.9,2.9,0,0,1-.2.4,2.5,2.5,0,0,1,.14-.43c.1-.27.25-.66.46-1.14a12.73,12.73,0,0,1,.84-1.62,7.6,7.6,0,0,1,1.46-1.7,4.83,4.83,0,0,1,2-1,4,4,0,0,1,1.83,0,3.17,3.17,0,0,1,1.11.54,1.49,1.49,0,0,1,.25.23Z"/><path class="cls-10" d="M139.89,342.4s0,.06-.11.15l-.36.42c-.3.37-.73.91-1.23,1.6a16.84,16.84,0,0,0-2.8,5.95,38.25,38.25,0,0,0-.7,6.59c0,.85-.08,1.54-.12,2l0,.54c0,.13,0,.19,0,.19s0-.06,0-.19l0-.55c0-.5,0-1.18.06-2a34.56,34.56,0,0,1,.65-6.63,16.47,16.47,0,0,1,2.87-6c.51-.68,1-1.21,1.28-1.56.16-.18.29-.31.38-.4Z"/><path class="cls-6" d="M166.21,342.36c-.45-3-2.09-3.67-3.79-4.6a44.39,44.39,0,0,0-5.35-1.5c-.2-1.29-.56-3.59-.64-4.07-.11-.68-10.8,1-10.94,1.28s-.33,2.83-.49,4.61l-2.56.89-3.34,4.25-1.73,2.46a13.25,13.25,0,0,0-2.16,4.74,26,26,0,0,0-.48,5.75l-.51,10.88,22.36,6.33,1.73-11,5.77-7.86C164.57,351.32,166.76,346,166.21,342.36Z"/><path class="cls-10" d="M147.12,338.42a3.79,3.79,0,0,1-.15-.76c-.07-.47-.15-1.12-.23-1.84,0-.35-.08-.69-.12-1s-.06-.59-.05-.84a1,1,0,0,1,.15-.56c.09-.11.16-.14.17-.13s0,.06-.11.17a1,1,0,0,0-.09.52,7.27,7.27,0,0,0,.09.82l.13,1c.08.72.14,1.38.18,1.85A3,3,0,0,1,147.12,338.42Z"/><path class="cls-10" d="M150,337.74a2.43,2.43,0,0,1-.23-.69,10.88,10.88,0,0,1-.31-1.74,11.72,11.72,0,0,1,0-1.76,2.9,2.9,0,0,1,.11-.72s0,1.11.08,2.47S150,337.73,150,337.74Z"/><path class="cls-10" d="M155.28,337a11.43,11.43,0,0,0-.06-2.46,11,11,0,0,0-.77-2.33,2,2,0,0,1,.39.62,6.35,6.35,0,0,1,.55,1.68,6.07,6.07,0,0,1,.05,1.78A2.23,2.23,0,0,1,155.28,337Z"/><path class="cls-7" d="M140.09,346.67a7.38,7.38,0,0,1,.88-1.39,5.89,5.89,0,0,1,1.09-1.22,11.82,11.82,0,0,1-.95,1.33A8.86,8.86,0,0,1,140.09,346.67Z"/><path class="cls-7" d="M145.13,342.57a10.61,10.61,0,0,1-1.64-2.14,4.84,4.84,0,0,1,.89,1A5.29,5.29,0,0,1,145.13,342.57Z"/><path class="cls-7" d="M150.4,340a9.84,9.84,0,0,1-1.06,1.06,9.53,9.53,0,0,1-1.09,1,5.3,5.3,0,0,1,1-1.15A4.88,4.88,0,0,1,150.4,340Z"/><path class="cls-7" d="M148.92,336.86a2.88,2.88,0,0,1-.82-.63,3.18,3.18,0,0,1-.71-.75,2.88,2.88,0,0,1,.82.63A3.46,3.46,0,0,1,148.92,336.86Z"/><path class="cls-7" d="M153.53,334.4a4,4,0,0,1-1.11.33,3.78,3.78,0,0,1-1.15.15,4.23,4.23,0,0,1,1.11-.32A4.52,4.52,0,0,1,153.53,334.4Z"/><path class="cls-7" d="M154.45,341.7a3.79,3.79,0,0,1-.14-1.15,3.83,3.83,0,0,1,0-1.15,4.2,4.2,0,0,1,.14,1.15A3.83,3.83,0,0,1,154.45,341.7Z"/><path class="cls-7" d="M152.77,345.22a7.28,7.28,0,0,1-.58-1.34,5.83,5.83,0,0,1-.41-1.39,12.83,12.83,0,0,1,1,2.73Z"/><path class="cls-7" d="M148.2,347.69a6.86,6.86,0,0,1-.63-1.4,7.17,7.17,0,0,1-.48-1.45,6.33,6.33,0,0,1,.64,1.39A6.73,6.73,0,0,1,148.2,347.69Z"/><path class="cls-7" d="M143.9,350.5a6.57,6.57,0,0,1-.37-1.39,5.57,5.57,0,0,1-.2-1.41,5.93,5.93,0,0,1,.37,1.38A5.63,5.63,0,0,1,143.9,350.5Z"/><path class="cls-7" d="M138.79,350.61a6.19,6.19,0,0,1-.69-1.22,5.24,5.24,0,0,1-.53-1.3,6.19,6.19,0,0,1,.69,1.22A5.24,5.24,0,0,1,138.79,350.61Z"/><path class="cls-7" d="M138.68,353.88a6.23,6.23,0,0,1-1.34.76,6.14,6.14,0,0,1-1.41.6,7,7,0,0,1,1.34-.75A7.14,7.14,0,0,1,138.68,353.88Z"/><path class="cls-7" d="M138.75,359.07a3.59,3.59,0,0,1-.47-1.2,3.67,3.67,0,0,1-.19-1.28,6.94,6.94,0,0,1,.36,1.23A7.71,7.71,0,0,1,138.75,359.07Z"/><path class="cls-7" d="M137.69,362.71a6.54,6.54,0,0,1-1.08-.87,5.75,5.75,0,0,1-1-1,10.87,10.87,0,0,1,2,1.87Z"/><path class="cls-7" d="M144.42,360.22s-.74.27-1.63.66-1.55.79-1.58.75a5,5,0,0,1,1.51-.91A5.12,5.12,0,0,1,144.42,360.22Z"/><path class="cls-7" d="M142.45,358.42a4.76,4.76,0,0,1-.48-1.13,4.26,4.26,0,0,1-.32-1.19,4.76,4.76,0,0,1,.48,1.13A4.26,4.26,0,0,1,142.45,358.42Z"/><path class="cls-7" d="M146.45,354a9.72,9.72,0,0,1-.91,1.59,8.83,8.83,0,0,1-1,1.5,10.13,10.13,0,0,1,.9-1.59A10.44,10.44,0,0,1,146.45,354Z"/><path class="cls-7" d="M150.74,354.39a6.73,6.73,0,0,1-1.1-1.5,6.28,6.28,0,0,1-.8-1.67s.42.71.95,1.58S150.78,354.36,150.74,354.39Z"/><path class="cls-7" d="M153.31,350.15a3.29,3.29,0,0,1-1.26.23,3.61,3.61,0,0,1-1.27-.1,7.61,7.61,0,0,1,1.26-.07A9.49,9.49,0,0,1,153.31,350.15Z"/><path class="cls-7" d="M159.41,345.33a10.71,10.71,0,0,1-1.62.87,10.54,10.54,0,0,1-1.69.71,9.76,9.76,0,0,1,1.62-.87A10.54,10.54,0,0,1,159.41,345.33Z"/><path class="cls-7" d="M159.81,342.26a6.8,6.8,0,0,1,.58-1.36,6.44,6.44,0,0,1,.73-1.28,5.82,5.82,0,0,1-.57,1.36A6.19,6.19,0,0,1,159.81,342.26Z"/><path class="cls-7" d="M163.69,344.67a10.46,10.46,0,0,1-.5-1.5,9.59,9.59,0,0,1-.44-1.52,6,6,0,0,1,.61,1.47A5.35,5.35,0,0,1,163.69,344.67Z"/><path class="cls-7" d="M164.3,347.86a5,5,0,0,1-1.45.53,4.86,4.86,0,0,1-1.52.23,10.49,10.49,0,0,1,1.48-.4A14.39,14.39,0,0,1,164.3,347.86Z"/><path class="cls-7" d="M157.66,351.76s.09-.81.13-1.81,0-1.81,0-1.82A5.71,5.71,0,0,1,158,350,5.53,5.53,0,0,1,157.66,351.76Z"/><path class="cls-7" d="M156.33,355.77a8,8,0,0,1-2.14-2.58,15.84,15.84,0,0,1,1.07,1.29C155.84,355.19,156.36,355.73,156.33,355.77Z"/><path class="cls-7" d="M163,354.93a6.74,6.74,0,0,1-1.37.66,6.2,6.2,0,0,1-1.44.51,7.07,7.07,0,0,1,1.37-.67A6.62,6.62,0,0,1,163,354.93Z"/><path class="cls-7" d="M160.61,362.47a9.23,9.23,0,0,1-.07-1.81,10.7,10.7,0,0,1,.1-1.81,9.23,9.23,0,0,1,.07,1.81A10.7,10.7,0,0,1,160.61,362.47Z"/><path class="cls-7" d="M155.49,362a7.44,7.44,0,0,1,.29-1.86,7.71,7.71,0,0,1,.62-1.79,17.93,17.93,0,0,1-.45,1.83A18.23,18.23,0,0,1,155.49,362Z"/><path class="cls-7" d="M155.73,364c0,.05-.82.13-1.82.3s-1.81.35-1.82.3a6.39,6.39,0,0,1,1.79-.47A6.88,6.88,0,0,1,155.73,364Z"/><path class="cls-7" d="M150.07,362.75a12.71,12.71,0,0,1,2.08-2.15,7.21,7.21,0,0,1-1,1.13A6.59,6.59,0,0,1,150.07,362.75Z"/><path class="cls-7" d="M146.4,366.32s-.19-.59-.44-1.29a10.24,10.24,0,0,1-.46-1.29,3.65,3.65,0,0,1,.62,1.23A3.34,3.34,0,0,1,146.4,366.32Z"/><path class="cls-7" d="M152.32,368.35a8.28,8.28,0,0,1-1.65-.64,9.1,9.1,0,0,1-1.59-.79,8.28,8.28,0,0,1,1.65.64A9.1,9.1,0,0,1,152.32,368.35Z"/><path class="cls-7" d="M142,367.75a4.21,4.21,0,0,1,.31-1.2,4.92,4.92,0,0,1,.47-1.15,4.21,4.21,0,0,1-.31,1.2A4.46,4.46,0,0,1,142,367.75Z"/><path class="cls-7" d="M148.8,368.9c0,.05-1-.1-2.11-.16s-2.11,0-2.12-.06a7.87,7.87,0,0,1,2.13-.11A7.6,7.6,0,0,1,148.8,368.9Z"/><path class="cls-10" d="M150.21,359.18s0,0,0-.13a1.25,1.25,0,0,1,.06-.37.78.78,0,0,1,.36-.49,1.1,1.1,0,0,1,.8-.13l-.07,0c.36-1.26.94-3.11,1.52-5.18s.9-3.72,1.16-5c.12-.63.22-1.15.3-1.54a3.72,3.72,0,0,1,.13-.56,3.74,3.74,0,0,1-.06.57c-.06.37-.14.9-.25,1.55a51.34,51.34,0,0,1-1.12,5c-.57,2.07-1.17,3.91-1.57,5.17v.05h0a1.06,1.06,0,0,0-.74.1.73.73,0,0,0-.34.43C150.22,359,150.24,359.19,150.21,359.18Z"/><path class="cls-10" d="M157.61,363.77s-.23-.44-.65-1.1a11.25,11.25,0,0,0-2-2.34,11.48,11.48,0,0,0-2.52-1.74c-.7-.35-1.16-.51-1.15-.54a1.36,1.36,0,0,1,.33.09,7.4,7.4,0,0,1,.87.34,10.24,10.24,0,0,1,4.54,4.13,8.59,8.59,0,0,1,.43.83A2,2,0,0,1,157.61,363.77Z"/><path d="M151.5,357.81a11.44,11.44,0,0,1,3.48.63,4.44,4.44,0,0,1,2.71,2.48.83.83,0,0,1-.06.85.6.6,0,0,1-.63.1,1.53,1.53,0,0,1-.54-.37c-.73-.67-1.48-1.27-2.23-1.91a6.25,6.25,0,0,0-2.82-1.48"/><path class="cls-10" d="M149.12,355.7a1.12,1.12,0,0,1-.34.2,5.79,5.79,0,0,1-1,.39,7,7,0,0,1-3.56,0,6.88,6.88,0,0,1-3.08-1.77,4.79,4.79,0,0,1-.7-.83,1.85,1.85,0,0,1-.21-.34s.33.47,1,1.08a7,7,0,0,0,6.53,1.7A13.76,13.76,0,0,0,149.12,355.7Z"/><path d="M140.4,353.65a8.33,8.33,0,0,0,2.26,3.23,3.6,3.6,0,0,0,2.08.87,4.63,4.63,0,0,0,2.89-1.44,8.14,8.14,0,0,1-7.23-2.66"/><path class="cls-10" d="M152.59,337.49c-.05,0,0-1.13-.12-2.51s-.41-2.48-.36-2.49a2.6,2.6,0,0,1,.23.7,13.11,13.11,0,0,1,.3,1.77,12.54,12.54,0,0,1,0,1.79A2.65,2.65,0,0,1,152.59,337.49Z"/><path class="cls-9" d="M122.38,359.07l5-2.58,4.89,3.07,18.32.6,2.65,8.91-26.51-6.14s-4.82.43-5.18-.66S122.38,359.07,122.38,359.07Z"/><path class="cls-11" d="M127,358.11a20.05,20.05,0,0,1-2.44.87,20.13,20.13,0,0,1-2.5.71,18.23,18.23,0,0,1,2.44-.87A18.23,18.23,0,0,1,127,358.11Z"/><path class="cls-11" d="M127.41,359.63a7.23,7.23,0,0,1-.85.16c-.53.08-1.25.21-2,.4s-1.5.38-2,.53a6.45,6.45,0,0,1-.83.23,3.78,3.78,0,0,1,.8-.35,17.73,17.73,0,0,1,2-.58,17.38,17.38,0,0,1,2.06-.35A3.6,3.6,0,0,1,127.41,359.63Z"/><path class="cls-11" d="M127,361a23,23,0,0,1-2.75.64,22.27,22.27,0,0,1-2.78.46,22,22,0,0,1,2.75-.63A26.85,26.85,0,0,1,127,361Z"/></g><circle class="cls-4" cx="65.81" cy="129.61" r="18.2" transform="translate(-75.45 163.88) rotate(-76.72)"/><circle class="cls-4" cx="137.44" cy="46.33" r="30.52"/><circle class="cls-4" cx="53.07" cy="234.22" r="28.86"/><g class="cls-28"><path class="cls-23" d="M38.1,275.83s-1-2.29-1.2-2.8c-.52-1.37-3.82-10.56-3-11.95,3.67-6.43,6.51-11,13.74-11L60.38,250s12.1-2.47,20.63,25.06Z"/><path class="cls-23" d="M11.15,278.13l16.72-3.6,19.67-10.35.07-14.11c-3-.81-8.59,1.24-18.76,6.41l-15.09,7.8a8.93,8.93,0,0,0-2.61,13.85Z"/><path class="cls-23" d="M71.54,275.19a8.63,8.63,0,0,0,.31-1.89,6,6,0,0,0-.33-2,6,6,0,0,0-1.35-2.11c-.62-.65-1.29-1.21-1.83-1.81a5.53,5.53,0,0,1-1.14-1.79,3.06,3.06,0,0,1-.21-1.42,1.14,1.14,0,0,1,.13-.5,3.7,3.7,0,0,0,.24,1.86,5.75,5.75,0,0,0,1.16,1.69c.53.57,1.2,1.13,1.84,1.8A5.62,5.62,0,0,1,72,273.31a5.3,5.3,0,0,1-.27,1.4A1.54,1.54,0,0,1,71.54,275.19Z"/><path class="cls-23" d="M37,252.53a2.24,2.24,0,0,1,.38-.17c.24-.11.62-.25,1.1-.41a9.44,9.44,0,0,1,1.84-.37,6.19,6.19,0,0,1,2.47.23,5.71,5.71,0,0,1,2.53,1.62,6.65,6.65,0,0,1,1.52,3.1,11.69,11.69,0,0,1,.24,3.81,8.28,8.28,0,0,1-1.41,3.84,10.55,10.55,0,0,1-3.07,2.72c-1.12.7-2.25,1.28-3.32,1.85l-5.69,3-3.84,2-1.06.53-.37.17.35-.22,1-.57,3.81-2.07,5.66-3c1.06-.57,2.19-1.15,3.3-1.85a10.5,10.5,0,0,0,3-2.66,8.08,8.08,0,0,0,1.38-3.72,11.81,11.81,0,0,0-.23-3.73,6.57,6.57,0,0,0-1.45-3A5.58,5.58,0,0,0,42.72,252a6.3,6.3,0,0,0-2.41-.26,9.48,9.48,0,0,0-1.82.33c-.49.13-.86.26-1.12.35A1.53,1.53,0,0,1,37,252.53Z"/><path class="cls-23" d="M29,274.5a12.67,12.67,0,0,0-1.43-3.42,13,13,0,0,0-2.53-2.7A3.31,3.31,0,0,1,26,269a8.49,8.49,0,0,1,1.8,2,8.29,8.29,0,0,1,1.07,2.46A3.11,3.11,0,0,1,29,274.5Z"/><path class="cls-23" d="M66.69,271.3a3.49,3.49,0,0,1-.54.14,5.21,5.21,0,0,1-1.62.07,5.82,5.82,0,0,1-2.43-.79,5.64,5.64,0,0,1-2.24-2.52,6,6,0,0,1-.31-4.07,3.31,3.31,0,0,1,1.35-1.87,1.69,1.69,0,0,1,1.22-.25,1.78,1.78,0,0,1,1.07.7,6.13,6.13,0,0,1-.88,7.47,5.43,5.43,0,0,1-2.49,1.41,5.69,5.69,0,0,1-5.32-1.24,5.59,5.59,0,0,1-1.6-4.85,4.82,4.82,0,0,1,1-2.25,2.36,2.36,0,0,1,.95-.73,1.58,1.58,0,0,1,1.17,0,2.17,2.17,0,0,1,1.25,1.74,3.62,3.62,0,0,1-.38,2,9.66,9.66,0,0,1-4.13,4.19,8.75,8.75,0,0,1-1.49.63l-.4.11-.14,0s0,0,.13-.06l.4-.13a11.78,11.78,0,0,0,1.46-.66,9.89,9.89,0,0,0,2-1.5,9.1,9.1,0,0,0,2-2.68,3.55,3.55,0,0,0,.36-1.86,2,2,0,0,0-1.14-1.56,1.36,1.36,0,0,0-1,0,2.22,2.22,0,0,0-.86.67,4.63,4.63,0,0,0-.92,2.15,5.35,5.35,0,0,0,1.54,4.63,5.46,5.46,0,0,0,5.09,1.18A5.2,5.2,0,0,0,62.13,270a5.7,5.7,0,0,0,1.39-2.27,6.25,6.25,0,0,0,.29-2.56,5.62,5.62,0,0,0-.27-1.23,3.42,3.42,0,0,0-.54-1.08,1.51,1.51,0,0,0-.92-.63,1.47,1.47,0,0,0-1.06.22,3.16,3.16,0,0,0-1.27,1.74,5.75,5.75,0,0,0,.28,3.93,5.34,5.34,0,0,0,2.15,2.47,6.1,6.1,0,0,0,2.36.83A6.75,6.75,0,0,0,66.69,271.3Z"/><path class="cls-29" d="M68.62,242.63a5.93,5.93,0,0,1-1.14-2.27,1.47,1.47,0,0,1,0-.83.65.65,0,0,1,.62-.48c.28,0,.48.3.63.54a12,12,0,0,1,1.18,2.24,1.72,1.72,0,0,1,.14.68.63.63,0,0,1-1,.48,2.14,2.14,0,0,1-.5-.58"/><path class="cls-29" d="M69.85,242.09l-1.26-2.64a2.13,2.13,0,0,1-.27-.83.73.73,0,0,1,.41-.7.71.71,0,0,1,.7.18,2,2,0,0,1,.42.62l.6,1.16a3.65,3.65,0,0,1,.39,1,1.24,1.24,0,0,1-.19,1,.77.77,0,0,1-1,.23"/><path class="cls-29" d="M64.23,250.28s-1.75-2.28-1.91-3.48,1.31-3.34,4.47-3.82A7.69,7.69,0,0,0,70,241.87a1,1,0,0,0,.37-1.23,18.74,18.74,0,0,1-1.11-3.13c.15-.64.57-.63,1.66,1s2.36,3.22,2.11,4-4.09,3-4.09,3l1,1.7Z"/><path class="cls-23" d="M74.68,273.71,62.56,250l7.8-4.37,16.4,26s.87,1.67,2.08,3.61H75.09"/><path class="cls-23" d="M70.24,245.59l-.14.09-.41.25-1.57.91-5.63,3.22,0-.15c1.18,2.41,2.71,5.19,4.26,8.21,2.3,4.47,4.28,8.56,5.68,11.55.7,1.49,1.26,2.7,1.63,3.54l.43,1a1.77,1.77,0,0,1,.13.35,2.07,2.07,0,0,1-.18-.33l-.47-.95-1.7-3.51c-1.44-3-3.45-7-5.75-11.5-1.54-3-3.07-5.81-4.23-8.23l0-.1.09,0,5.68-3.13,1.6-.86.43-.22Q70.23,245.58,70.24,245.59Z"/><path class="cls-23" d="M38.1,275.83a10.27,10.27,0,0,1-1.3-2.69,10.58,10.58,0,0,1-.73-2.9c.08,0,.41,1.28,1,2.81S38.16,275.79,38.1,275.83Z"/><path class="cls-10" d="M64.8,240.81a4.79,4.79,0,0,0,5.65-7.25,5.78,5.78,0,0,0,3.89-6.62,7.48,7.48,0,0,0-5.79-5.53,6.1,6.1,0,0,0-3.2.08,4,4,0,0,0-2.39,2"/><path class="cls-6" d="M64.41,234.62a8.64,8.64,0,0,0-.93.39,4.13,4.13,0,0,0-2.18,3.8,4,4,0,0,0,.66,2,3.69,3.69,0,0,0,.76.87,3.82,3.82,0,0,0,1,.64,4.13,4.13,0,0,0,2.49.23,4,4,0,0,0,2.14-1.29,4,4,0,0,0,1-2.13A4.21,4.21,0,0,0,69,237a4.14,4.14,0,0,0-3.61-2.47,8.66,8.66,0,0,0-1,.05.91.91,0,0,1,.26-.08,3.49,3.49,0,0,1,.76-.07,4.12,4.12,0,0,1,2.62.94,4.21,4.21,0,0,1,1.51,3.77,4.22,4.22,0,0,1-1,2.26,4.3,4.3,0,0,1-2.27,1.38,4.41,4.41,0,0,1-2.65-.25,4.29,4.29,0,0,1-1.08-.68,4.12,4.12,0,0,1-.8-.93,4.36,4.36,0,0,1-.67-2.14,4.24,4.24,0,0,1,2.34-3.9,3.83,3.83,0,0,1,.72-.26A.74.74,0,0,1,64.41,234.62Z"/><path class="cls-10" d="M66.48,227.08a4.69,4.69,0,0,0,2.21-8.68A5.83,5.83,0,0,0,60,211.57a7.74,7.74,0,0,0-14.31,2.29A7.49,7.49,0,0,0,36.06,224a5.8,5.8,0,0,0,1,11.56,5.12,5.12,0,0,0,7.76,5.74,5.6,5.6,0,0,0,10.06-1.16"/><path class="cls-29" d="M60.73,249.5c.1-2.32.23-4.43.23-4.43s5.2-.66,5.42-6-.3-17.54-.3-17.54L56.51,217l-10.3,8.29,1.61,24.38a6.45,6.45,0,0,0,6.75,6h0A6.45,6.45,0,0,0,60.73,249.5Z"/><path class="cls-10" d="M65.82,230.66c-.08.09-.58-.32-1.29-.35s-1.24.33-1.32.24,0-.21.28-.38a1.71,1.71,0,0,1,1.06-.3,1.74,1.74,0,0,1,1,.4C65.79,230.45,65.86,230.63,65.82,230.66Z"/><path class="cls-10" d="M57.93,230.66c-.08.09-.58-.32-1.29-.35s-1.24.33-1.32.24,0-.21.28-.38a1.72,1.72,0,0,1,2.08.1C57.9,230.45,58,230.63,57.93,230.66Z"/><path class="cls-10" d="M60.61,236a3.94,3.94,0,0,1,1.16-.18c.18,0,.35,0,.39-.18a1.09,1.09,0,0,0-.12-.58l-.51-1.5a27.31,27.31,0,0,1-1.15-3.93,27.67,27.67,0,0,1,1.44,3.82c.17.53.34,1,.49,1.52a1.16,1.16,0,0,1,.08.77.45.45,0,0,1-.3.27,1.2,1.2,0,0,1-.31,0A4.28,4.28,0,0,1,60.61,236Z"/><path class="cls-30" d="M61,245.07a12.69,12.69,0,0,1-6.89-2.25s1.62,3.86,6.8,3.55Z"/><path class="cls-10" d="M53.57,217.27a7,7,0,0,0,.1,8.12,4.05,4.05,0,0,0,3.21,1.79,2.29,2.29,0,0,0,2.24-2.5,2.64,2.64,0,1,0,5.05.09,4.64,4.64,0,0,0,.6,1.63,1.61,1.61,0,0,0,1.46.77c.8-.11,1.27-1,1.45-1.75a7.21,7.21,0,0,0-2-6.62A8.74,8.74,0,0,0,59,216.47a11.18,11.18,0,0,0-6.52,2.85"/><path class="cls-10" d="M54.24,219.14a12.36,12.36,0,0,1,1.07,4.77,6.37,6.37,0,0,1-1.72,4.47,4.35,4.35,0,0,1-4.51,1.08,5.05,5.05,0,0,1-.66,4.24,3.21,3.21,0,0,1-3.94,1,4.3,4.3,0,0,1-1.84-3.39,10.86,10.86,0,0,1,11.82-12.12"/><path class="cls-29" d="M47.68,231.79a1.89,1.89,0,0,0-2.24.54,3.05,3.05,0,0,0,3,5"/><path class="cls-30" d="M47.51,235.75s-.23.06-.6,0a1.61,1.61,0,0,1-1.09-1,1.18,1.18,0,0,1,0-.85,1.28,1.28,0,0,1,.44-.52c.33-.21.58-.21.58-.18s-.21.1-.47.32a1.07,1.07,0,0,0-.34,1.15,1.61,1.61,0,0,0,.91.89C47.29,235.68,47.52,235.71,47.51,235.75Z"/><path class="cls-10" d="M58.37,228.45c-.07.2-.84.13-1.77.17s-1.69.16-1.77,0,.67-.69,1.74-.72S58.44,228.26,58.37,228.45Z"/><path class="cls-10" d="M65.81,228.3c-.08.07-.24,0-.43,0a1.66,1.66,0,0,0-.65,0c-.28,0-.58.07-.81.07s-.4-.05-.43-.15.07-.24.27-.37a2,2,0,0,1,.9-.31,1.17,1.17,0,0,1,1,.36C65.87,228.05,65.88,228.24,65.81,228.3Z"/><path class="cls-27" d="M59.37,237.38a1.6,1.6,0,0,1,1.34-.19,1,1,0,0,1,.67,1.09,1.11,1.11,0,0,1-.43.61,1.41,1.41,0,0,1-1.11.28,1.11,1.11,0,0,1-.82-.76.88.88,0,0,1,.43-1"/><path class="cls-10" d="M62,237.94s-.17.15-.51.23a2.44,2.44,0,0,1-1.35-.13,2.32,2.32,0,0,1-1-.87c-.19-.29-.23-.51-.2-.52s.13.17.34.41a2.59,2.59,0,0,0,2.22.93A3.66,3.66,0,0,1,62,237.94Z"/><path class="cls-6" d="M51.2,240.48s0-.37-.18-1a4.08,4.08,0,0,0-3.22-3,4,4,0,0,0-2.11.19,3.61,3.61,0,0,0-1,.55,3.81,3.81,0,0,0-.85.85,4,4,0,0,0,.85,5.61,4.2,4.2,0,0,0,1,.55,4.06,4.06,0,0,0,2.11.18,4,4,0,0,0,1.71-.74A4.12,4.12,0,0,0,51,241.47c.17-.63.15-1,.18-1a1,1,0,0,1,0,.26,3.09,3.09,0,0,1-.09.76,4.19,4.19,0,0,1-3.28,3.15,4.3,4.3,0,0,1-2.23-.17,3.9,3.9,0,0,1-1.08-.58,4.09,4.09,0,0,1-.91-.9,4.23,4.23,0,0,1,.91-5.95,3.62,3.62,0,0,1,1.08-.57,4.18,4.18,0,0,1,4,.63,4.12,4.12,0,0,1,1.5,2.34,3.14,3.14,0,0,1,.09.76A1.17,1.17,0,0,1,51.2,240.48Z"/><path class="cls-13" d="M65.8,216.72s0,0,.14,0a1.09,1.09,0,0,1,.33.22,1.55,1.55,0,0,1,.43,1.39A2,2,0,0,1,65,219.83a4.2,4.2,0,0,1-2.8-.67l-1-.57,1.08.35a1.17,1.17,0,0,1,.73.84,1.52,1.52,0,0,1-.15,1.14,1.58,1.58,0,0,1-1,.69,2.2,2.2,0,0,1-1.22,0,4.19,4.19,0,0,1-2.08-1.79l-.69-1,.88.86a1.9,1.9,0,0,1,.47,1.8,1.94,1.94,0,0,1-1.06,1.35,2.58,2.58,0,0,1-2.72-.33,3.23,3.23,0,0,1-1-1.54,2.76,2.76,0,0,1-.11-.48c0-.11,0-.17,0-.17s0,.23.2.63a3.38,3.38,0,0,0,1.05,1.43,2.4,2.4,0,0,0,2.52.27,1.75,1.75,0,0,0,.94-1.21,1.66,1.66,0,0,0-.42-1.57l.19-.16a3.89,3.89,0,0,0,2,1.69,1.66,1.66,0,0,0,1.89-.55,1.14,1.14,0,0,0-.44-1.63l.1-.21a4,4,0,0,0,2.65.68,1.87,1.87,0,0,0,1.55-1.3,1.51,1.51,0,0,0-.34-1.31A1.76,1.76,0,0,0,65.8,216.72Z"/><path class="cls-13" d="M53.07,225.26s0,0-.06.09l-.22.24a3.15,3.15,0,0,1-1.07.63,3,3,0,0,1-1.93,0,3.14,3.14,0,0,1-1.9-1.64l.2,0a3.09,3.09,0,1,1-5.2-2.72l.17.18a3.23,3.23,0,0,1-2,.73,3.42,3.42,0,0,1-1.89-.52A2.82,2.82,0,0,1,38,220.93a3.27,3.27,0,0,1-.24-1.47,3.31,3.31,0,0,1,.79-2,2.19,2.19,0,0,1,.58-.48s-.21.16-.52.54a3.34,3.34,0,0,0-.69,1.9,3.21,3.21,0,0,0,.25,1.39,2.61,2.61,0,0,0,1.07,1.22,3.19,3.19,0,0,0,1.77.46,2.9,2.9,0,0,0,1.86-.68l.16.18a3,3,0,0,0-.61,3.22,2.92,2.92,0,0,0,3.19,1.62,3,3,0,0,0,2.24-2.33l.06-.33.14.3a3,3,0,0,0,1.76,1.57,3,3,0,0,0,1.84,0,3.25,3.25,0,0,0,1.06-.57C53,225.36,53.06,225.25,53.07,225.26Z"/><path class="cls-13" d="M43.59,233.76a1.18,1.18,0,0,1-.41.24,2.81,2.81,0,0,1-3.15-.68,3,3,0,0,1-.71-2.45l.21.09a4.83,4.83,0,0,1-1.79,1.47,3.85,3.85,0,0,1-1.74.37,3.53,3.53,0,0,1-1.6-.44,2.83,2.83,0,0,1-1.53-2.26,2.64,2.64,0,0,1,.5-1.79,1.82,1.82,0,0,1,.35-.37l.15-.09s-.18.16-.42.51a2.65,2.65,0,0,0,1.06,3.8,3.45,3.45,0,0,0,3.12,0,4.78,4.78,0,0,0,1.71-1.38l.31-.4-.09.49a2.76,2.76,0,0,0,.63,2.27,2.63,2.63,0,0,0,1.68.87,2.81,2.81,0,0,0,1.28-.13C43.44,233.83,43.58,233.74,43.59,233.76Z"/><path class="cls-13" d="M70.66,223.4a1.76,1.76,0,0,1,.1.89A3.17,3.17,0,0,1,68,227.21a1.6,1.6,0,0,1-.89-.07s.34,0,.86-.11a3.44,3.44,0,0,0,1.77-1,3.4,3.4,0,0,0,.87-1.8C70.66,223.74,70.61,223.41,70.66,223.4Z"/><path class="cls-13" d="M73.58,228.41a.74.74,0,0,1,.12.36,2,2,0,0,1-.1,1,1.62,1.62,0,0,1-1.16,1.06,1.6,1.6,0,0,1-1-.08,1.36,1.36,0,0,1-.77-.74L71,230a1.83,1.83,0,0,1,.05.47,1.9,1.9,0,0,1-1.19,1.7,1.56,1.56,0,0,1-.95,0,1.8,1.8,0,0,1-.72-.4,1.7,1.7,0,0,1-.58-1,.82.82,0,0,1,0-.42s0,.15.09.4a1.68,1.68,0,0,0,.59.89,1.51,1.51,0,0,0,1.47.27,1.69,1.69,0,0,0,1-1.49,1.27,1.27,0,0,0-.05-.39L71,230a1.3,1.3,0,0,0,1.45.69,1.48,1.48,0,0,0,1-.91,2.27,2.27,0,0,0,.17-1A1.71,1.71,0,0,1,73.58,228.41Z"/><path class="cls-10" d="M59,235.51s.05.11,0,.27a1.13,1.13,0,0,1-1,.78c-.17,0-.27,0-.26-.06s.36-.11.69-.38S58.93,235.5,59,235.51Z"/></g><circle class="cls-4" cx="331.5" cy="283.8" r="35.76" transform="translate(-103.58 317.52) rotate(-45)"/><g class="cls-31"><path class="cls-17" d="M292.16,288.49a7.88,7.88,0,0,1,2.85,0,8.52,8.52,0,0,1-2.85,0Z"/><path class="cls-32" d="M365.81,315.77,355,322.42l3.95,9.51a34.69,34.69,0,0,0,8.46-12.21Z"/><path class="cls-16" d="M368.74,316c-1.4-3.33-6.18-14.34-10.18-18.45-6-6.16-16.53-5.33-16.53-5.33l-13.69.48a32.09,32.09,0,0,0-10.08,3.12l-.34.11V296c-3.84,2.08-9.26,7.07-14.43,11.91l6.18,5.74,6.85,6.08a.16.16,0,0,0,0,.12c.07.37-1.11,7.73-2.16,14.08a34.51,34.51,0,0,0,36.36,3.7l.52-5.87c.46-5.33.82-11.92.82-11.92l2,5,14.29-7.43C368.46,316.93,368.6,316.46,368.74,316Z"/><path class="cls-10" d="M342.41,291.69s0,.08.06.24a5.38,5.38,0,0,1,.1.72,7.16,7.16,0,0,1-.36,2.63,7.46,7.46,0,0,1-2.16,3.27A7.52,7.52,0,0,1,331,299a7.45,7.45,0,0,1-2.47-3.06,7.1,7.1,0,0,1-.6-2.58,4.89,4.89,0,0,1,0-.72,1,1,0,0,1,0-.25s0,.34,0,1a7.57,7.57,0,0,0,.67,2.52,7.36,7.36,0,0,0,2.44,2.95,7.35,7.35,0,0,0,8.79-.42,7.44,7.44,0,0,0,2.15-3.16,7.77,7.77,0,0,0,.42-2.57C342.46,292,342.39,291.69,342.41,291.69Z"/><path class="cls-10" d="M355.45,294.66a6.06,6.06,0,0,0-1,.23,4.72,4.72,0,0,0-2.12,1.6,7.56,7.56,0,0,0-1.34,3.73c-.1.75-.14,1.55-.17,2.38s-.05,1.69-.06,2.58a88,88,0,0,0,.41,9c.11,1.15.22,2.08.29,2.72l.09.74a1.28,1.28,0,0,1,0,.26.83.83,0,0,1-.06-.25c0-.19-.08-.44-.13-.73-.1-.64-.25-1.57-.38-2.72a76.44,76.44,0,0,1-.47-9c0-.88,0-1.74.06-2.58s.08-1.63.18-2.4a7.54,7.54,0,0,1,1.43-3.8,4.66,4.66,0,0,1,2.23-1.6A2.46,2.46,0,0,1,355.45,294.66Z"/><path class="cls-10" d="M322.86,293.77a1,1,0,0,1-.05.26l-.22.75-.8,2.75c-.67,2.32-1.56,5.54-2.42,9.13s-1.55,6.86-2,9.23c-.23,1.16-.41,2.11-.54,2.81-.06.31-.12.56-.16.76a.78.78,0,0,1-.07.27,1.73,1.73,0,0,1,0-.27l.1-.78c.1-.67.26-1.63.47-2.82.41-2.39,1.07-5.67,1.94-9.26s1.78-6.81,2.49-9.12c.36-1.15.66-2.09.88-2.73l.26-.73A1.57,1.57,0,0,1,322.86,293.77Z"/><path class="cls-10" d="M368.47,313.7a4.46,4.46,0,0,1-.56.42l-1.58,1.05c-1.35.87-3.23,2-5.35,3.24s-4.08,2.26-5.51,3c-.71.36-1.29.64-1.7.83a3.24,3.24,0,0,1-.64.27,3.17,3.17,0,0,1,.6-.36l1.66-.9c1.41-.76,3.35-1.82,5.47-3s4-2.35,5.37-3.18l1.63-1A4.29,4.29,0,0,1,368.47,313.7Z"/><path class="cls-10" d="M317.24,315.78c0,.06-2.74-2.07-6-4.74s-5.9-4.88-5.86-4.93,2.73,2.07,6,4.74S317.28,315.73,317.24,315.78Z"/><path class="cls-33" d="M350.66,306.15,356,323.78l-2,1-2-5S350,309.35,350.66,306.15Z"/><g class="cls-34"><path d="M323.45,293.78c-2.89,1.52,4.35,5.19,7.62,5.09l-2.38-6.27A32.89,32.89,0,0,0,323.45,293.78Z"/></g><polygon class="cls-35" points="341.88 319.35 324.73 319.41 325.86 313.1 343.15 312.76 341.88 319.35"/><path class="cls-25" d="M340.24,271.34a1.28,1.28,0,0,0,1.82,1.47c.83-.44.91-1.6.73-2.52a4.68,4.68,0,0,1-.15-2.76,6.31,6.31,0,0,1,1.41-1.61,4.07,4.07,0,0,0,1.06-3.45,3.41,3.41,0,0,0-2.4-2.63c-1.23-.32-2.74.09-3.67-.78-.67-.64-.73-1.69-1.26-2.45-.82-1.18-2.51-1.34-3.93-1.11s-2.85.7-4.25.38a19.51,19.51,0,0,1-3.24-1.53,6.28,6.28,0,0,0-8,8.78,4,4,0,0,0,2,1.89"/><path class="cls-32" d="M335.27,300.15h0a7,7,0,0,1-7.07-6.65c-.15-3.11-.28-6.1-.28-6.1s-5.77-.42-6.3-6.06-.61-18.68-.61-18.68h0a20,20,0,0,1,20.1.87l.55.35.66,29.19A7,7,0,0,1,335.27,300.15Z"/><path class="cls-10" d="M332,271.33a.83.83,0,1,0,1.05.53A.85.85,0,0,0,332,271.33Z"/><path class="cls-10" d="M330.38,271.63c.09.09.63-.37,1.41-.42s1.38.32,1.46.21-.06-.22-.32-.39a1.94,1.94,0,0,0-2.29.17C330.4,271.4,330.33,271.59,330.38,271.63Z"/><path class="cls-10" d="M323.35,271.33a.83.83,0,1,0,1,.53A.85.85,0,0,0,323.35,271.33Z"/><path class="cls-10" d="M321.66,271.65c.1.09.63-.37,1.42-.42s1.38.32,1.46.21-.06-.22-.32-.39a2,2,0,0,0-2.3.16C321.69,271.42,321.62,271.6,321.66,271.65Z"/><path class="cls-10" d="M327.59,277.74a3.87,3.87,0,0,0-1.29-.16c-.21,0-.38,0-.4-.15a1.1,1.1,0,0,1,.1-.59l.49-1.63a21.6,21.6,0,0,0,1-4.26,22,22,0,0,0-1.43,4.14c-.16.56-.31,1.1-.46,1.64a1.34,1.34,0,0,0,0,.85.56.56,0,0,0,.38.3,1.05,1.05,0,0,0,.35,0A3.77,3.77,0,0,0,327.59,277.74Z"/><path class="cls-23" d="M330.21,278.4a20.5,20.5,0,0,1-3.76,1.42,2.18,2.18,0,0,0,2.63.64C330.73,279.71,330.21,278.4,330.21,278.4Z"/><path class="cls-36" d="M327.9,287.32a13.38,13.38,0,0,0,7.26-2.69s-1.43,4.2-7.15,4.15Z"/><path class="cls-20" d="M341.79,269.59a.86.86,0,0,1,.81-.87c1.06-.05,2.81.33,3,3.24.32,4.15-3.74,3.19-3.75,3.07S341.81,271.2,341.79,269.59Z"/><path class="cls-36" d="M342.77,273.38s.08.05.2.09a.71.71,0,0,0,.55,0,1.76,1.76,0,0,0,.71-1.66,2.21,2.21,0,0,0-.28-1,.82.82,0,0,0-.59-.52.39.39,0,0,0-.42.23c0,.12,0,.2,0,.21s-.1-.06-.08-.24a.49.49,0,0,1,.15-.27.52.52,0,0,1,.39-.13,1,1,0,0,1,.82.58,2.5,2.5,0,0,1,.34,1.14,1.88,1.88,0,0,1-.93,1.87.79.79,0,0,1-.68-.06C342.78,273.48,342.75,273.39,342.77,273.38Z"/><path class="cls-10" d="M333.17,269.31c-.17.23-.79.12-1.6.09s-1.43,0-1.57-.28.61-.85,1.64-.77S333.37,269.08,333.17,269.31Z"/><path class="cls-10" d="M324.11,269.17c-.06.29-.58.42-1.17.48s-1.12,0-1.23-.27.38-.71,1.14-.78S324.17,268.89,324.11,269.17Z"/><path class="cls-25" d="M320.21,264.45a9.41,9.41,0,0,0,7.88-.57c2.92-1.46,6.33-2.17,7.08-1.58s.91,3.59,3.8,4.47c0,0-.2,5.75,2.09,5.54s.86-9.1.86-9.1l-5.6-2.74-6.12-1.15-5.76.81L320,261.35Z"/><path class="cls-32" d="M304.07,307.87l-8.58,5.59-1.58-20h0l.13-1,5.81-2.22L298.18,286a3.68,3.68,0,0,0-5.08-1.89l-1.87.94a5.29,5.29,0,0,0-2.69,3.32c-.66,2.48-1.24,5.15-1.18,4.92h0L283.68,319S281.93,326.42,287,330c3.84,2.67,10.3-.16,13.73-2.1l14.86-9Z"/></g><text class="cls-37" transform="translate(170.42 182.02)">MEE<tspan class="cls-38" x="43.84" y="0">T</tspan><tspan class="cls-6" x="55.54" y="0">S</tspan><tspan x="67.71" y="0">UP</tspan></text><path class="cls-6" d="M148.77,180.18a3.49,3.49,0,0,0,1,1.7,3.43,3.43,0,0,0,3.27.25,10.55,10.55,0,0,0,3.37-2.1,19.75,19.75,0,0,0,2.26-2.4c.61-.77,1.18-1.86,2-2.17a2.52,2.52,0,0,1,2.61.27,2.42,2.42,0,0,1,1.15,2.66,2.85,2.85,0,0,1-.29.93,19.44,19.44,0,0,1-2.58,3.15,13.43,13.43,0,0,1-4.75,3.32,6.7,6.7,0,0,1-5.22-.62C150,184.23,149.11,182.53,148.77,180.18Z"/><path class="cls-23" d="M157.42,185.57a12.58,12.58,0,0,1-6.54,1.57,7,7,0,0,1-5.14-2.5,9,9,0,0,1-2-4.65,14.15,14.15,0,0,1,0-3.79,18.43,18.43,0,0,1,1.11-4.26c.27-.69.63-1.34,1-2a8.6,8.6,0,0,1,.5-.88c0-.09.65-1,.74-1.12s-.77,2.75.43,3.81,4-.35,4-.35c-.18.26-.95,1.56-1.07,1.78a14,14,0,0,0-.77,1.61,10.62,10.62,0,0,0-.89,4c0,2.46.89,5.44,3.26,6.6A7.1,7.1,0,0,0,157.42,185.57Z"/><path class="cls-16" d="M150.15,172.34a2.73,2.73,0,0,0,.85-.43,4,4,0,0,0,.72-1c.08-.11.17-.22.25-.34a22.65,22.65,0,0,1,2.32-2.67,12.48,12.48,0,0,1,2.57-1.88,6.49,6.49,0,0,1,2.42-.82,2.68,2.68,0,0,1,2.45,1.07,3.44,3.44,0,0,1,.53,1.26s-.17-3.45-2.54-5a6.44,6.44,0,0,0-6.38-.68,12.37,12.37,0,0,0-2.88,2,21.78,21.78,0,0,0-2.17,2.23,17.07,17.07,0,0,0-1.21,1.59,3.07,3.07,0,0,0,.71,4.26,2.55,2.55,0,0,0,.46.25,2.85,2.85,0,0,0,1.89.06Z"/><path class="cls-39" d="M153.09,162a12,12,0,0,1,6.25-1.83,7.66,7.66,0,0,1,7.46,5.5,13.94,13.94,0,0,1-.5,9.34,24.73,24.73,0,0,1-1.07,2.42,17.91,17.91,0,0,1-1.06,1.79c0,.07-.18.24-.23.31a3.59,3.59,0,0,0,.45-2.2,2.66,2.66,0,0,0-.81-1.3,2.81,2.81,0,0,0-1.48-.76,2.76,2.76,0,0,0-2.16.66,1.63,1.63,0,0,0-.3.34,17.47,17.47,0,0,0,1-1.6,17.65,17.65,0,0,0,1-2.22c.09-.26.18-.52.26-.78a9.08,9.08,0,0,0,.4-4.13,7.8,7.8,0,0,0-.4-1.82,6.28,6.28,0,0,0-5-4.18,6.75,6.75,0,0,0-1.74,0,6.44,6.44,0,0,0-1,.19A3.29,3.29,0,0,0,153.09,162Z"/><g class="cls-40"><path class="cls-12" d="M115.51,64.46c.35-2.38,3.11-5.79,5.56-5.79a6.35,6.35,0,0,1,0-7c1-1.41,2.47-2.45,3.12-4,.73-1.77.17-3.78.24-5.69.1-2.8,1.55-5.35,3-7.78,1.3-2.23,2.88-4.67,5.44-5.22a8.25,8.25,0,0,1,4.81.81A26,26,0,0,1,152.45,47c.47,1.8.78,3.75,2,5.14s3.66,2.28,4.06,4.2c.29,1.39-.6,2.78-.47,4.19.12,1.17,2.32,4.61,2.83,5.68a6.44,6.44,0,0,1-.33,5.68A8.73,8.73,0,0,1,155.39,76l-22.51-7.51c-2.12,1.21-4.23,5.87-6.66,6.16s-5.4,1.35-7.74-1.21A12,12,0,0,1,115.51,64.46Z"/><path class="cls-12" d="M152.84,42.06a11.79,11.79,0,0,0,1.3,6.61,7.74,7.74,0,0,0,3,2.4,11.39,11.39,0,0,1,3.19,2.17,3.26,3.26,0,0,1,.75,3.53,4.21,4.21,0,0,1,2.19,5.33,6.41,6.41,0,0,1-4.91,3.75l-9.29-2.8L147,51.2l5.36-9.14"/><path class="cls-10" d="M154,54.14l.18.08a3.8,3.8,0,0,1,.51.27,6.61,6.61,0,0,1,1.63,1.35,8.58,8.58,0,0,1,.87,1.21,7.59,7.59,0,0,1,.67,1.58,6.87,6.87,0,0,1,0,3.95l0-.08a6.52,6.52,0,0,1,1.51,1.14,7,7,0,0,1,2,4.14,6.78,6.78,0,0,1-.67,3.72,7.12,7.12,0,0,1-1.52,2c-.23.2-.41.35-.54.44l-.2.13.18-.16a6.34,6.34,0,0,0,.52-.45,7.16,7.16,0,0,0,1.47-2.06,6.7,6.7,0,0,0,.62-3.66,6.92,6.92,0,0,0-2-4,7.18,7.18,0,0,0-1.48-1.13l0,0,0-.05a6.73,6.73,0,0,0,0-3.88,7.17,7.17,0,0,0-1.49-2.75,7.07,7.07,0,0,0-1.59-1.38,4.18,4.18,0,0,0-.49-.28Z"/><path class="cls-16" d="M126.51,66.42s-4.15,1.26-5.6,3.37c-1,1.5-11.57,24.31-11.57,24.31l-16-4.8-5.72,7.55,17.79,9.86a10.84,10.84,0,0,0,10.6,0h0a10.86,10.86,0,0,0,4.27-4.41l4.53-8.67Z"/><path class="cls-16" d="M122.26,116.11l2.5-10.77-1.89-7.81c-1.22-4-2.26-10.58-.94-15.86l4.42-15.18,4.87-2.24,11.13-1.91c.42.14,11.63,3.3,11.63,3.3a17.41,17.41,0,0,1,2.18.61l1.28,8.31-3.86,13.7-1.69,13.65,3.7,14.2Z"/><path class="cls-9" d="M128.69,65.41,131.92,64l14.55.2,3.44,2s-12,13.26-15,13.7C127.29,81,128.69,65.41,128.69,65.41Z"/><path class="cls-16" d="M155.84,66.14s2.18.49,4,4.47,4.88,15.07,4.88,15.07l1.29-11.75,10.52,1.16-2,28.08s-3.72,5.4-9.94,4.9S150.47,87.9,150.47,87.9Z"/><path class="cls-10" d="M163.13,100v-.27l0-.76c0-.66.12-1.62.23-2.81.22-2.36.62-5.62,1.11-9.22s.91-6.85,1.16-9.21c.12-1.18.22-2.14.27-2.8l.08-.76,0-.2a.32.32,0,0,0,0-.07s0,0,0,.07v.2L166,75c0,.67-.12,1.63-.23,2.81-.22,2.37-.62,5.63-1.11,9.22s-.91,6.85-1.15,9.21c-.13,1.19-.22,2.14-.28,2.8l-.07.77,0,.19A.17.17,0,0,1,163.13,100Z"/><path class="cls-10" d="M109.52,100.16s0-.07-.11-.21a4.37,4.37,0,0,1-.25-.6,9,9,0,0,1-.41-4.26,6.28,6.28,0,0,1,.12-.64.74.74,0,0,1,.08-.23s0,.34-.1.88a11.54,11.54,0,0,0,0,2.13,11,11,0,0,0,.41,2.09A6.6,6.6,0,0,1,109.52,100.16Z"/><path class="cls-10" d="M111.29,100.42s-.07-.06-.18-.2a5.79,5.79,0,0,1-.44-.63,11.08,11.08,0,0,1-1.1-2.26,10.88,10.88,0,0,1-.54-2.45c0-.32,0-.58,0-.76a.9.9,0,0,1,0-.28s0,.39.13,1a13,13,0,0,0,.58,2.41,12.45,12.45,0,0,0,1.05,2.26C111.08,100.09,111.31,100.41,111.29,100.42Z"/><path class="cls-10" d="M123.74,75.34a.8.8,0,0,1,0,.22l-.18.65-.67,2.37a51.16,51.16,0,0,0-1.67,7.92,18.12,18.12,0,0,0,.68,8c.29,1,.57,1.79.77,2.34l.22.63c0,.14.07.22.07.22a.93.93,0,0,1-.1-.21l-.25-.62c-.21-.55-.5-1.33-.81-2.33A18.7,18.7,0,0,1,121,91a19.29,19.29,0,0,1,0-4.48,49.06,49.06,0,0,1,1.72-7.93c.29-1,.54-1.8.71-2.36l.21-.64A1.82,1.82,0,0,1,123.74,75.34Z"/><path class="cls-10" d="M153.15,93.84s0,0,0-.07l-.1-.21-.37-.81c-.15-.35-.35-.78-.56-1.28s-.44-1.09-.69-1.73-.49-1.36-.76-2.12l-.38-1.2-.19-.63c-.06-.21-.11-.43-.17-.65a28.43,28.43,0,0,1-1-5.85,16.93,16.93,0,0,1,.6-5.88,10.5,10.5,0,0,1,2.33-4.22,8,8,0,0,1,2.63-1.93,6.22,6.22,0,0,1,.83-.31l.22-.06.08,0s0,0-.07,0l-.22.08a7.69,7.69,0,0,0-.82.33,8.36,8.36,0,0,0-2.57,2,10.46,10.46,0,0,0-2.28,4.19,17.17,17.17,0,0,0-.59,5.84,29.57,29.57,0,0,0,1,5.81l.17.65.19.63.36,1.2c.27.76.5,1.48.74,2.12l.67,1.74.55,1.29.34.82.08.21Z"/><g class="cls-8"><path d="M149.14,81.12c-1.38,6.5-1.39,13.19,1,19.4.14.36.68,1.64,1.07,1.66s.72-.58.8-1.06c.18-1,.28-2.62.46-3.61.21-1.24.51-4.11.51-4.11s-1.14-2.6-1.64-4a39.33,39.33,0,0,1-2.14-8.08"/></g><path class="cls-10" d="M148,106.31l-.11.17-.34.47-.25.34c-.09.12-.21.24-.32.38s-.49.59-.82.9l-.51.49c-.18.17-.38.33-.58.5-.4.35-.87.67-1.35,1a17.48,17.48,0,0,1-7.17,2.8c-.59.07-1.16.15-1.69.16-.26,0-.52,0-.76,0l-.71,0c-.45,0-.86-.07-1.21-.1l-.5-.06-.41-.08-.57-.12-.19-.05.2,0,.57.09.41.07.5,0c.35,0,.75.08,1.2.08h.71l.76,0c.52,0,1.08-.1,1.67-.18a19.74,19.74,0,0,0,3.71-1,19.36,19.36,0,0,0,3.4-1.78c.49-.34,1-.66,1.35-1,.2-.17.41-.33.58-.49l.51-.49c.34-.3.59-.61.84-.87s.23-.26.33-.37l.25-.33.36-.46A1.13,1.13,0,0,1,148,106.31Z"/><path class="cls-10" d="M145.72,102a1,1,0,0,1,0,.31,6.74,6.74,0,0,1-.19.82,9.86,9.86,0,0,1-3,4.63,8.41,8.41,0,0,1-.68.52,1.29,1.29,0,0,1-.26.16s.34-.28.87-.76a10.86,10.86,0,0,0,1.78-2.1,11.35,11.35,0,0,0,1.19-2.48C145.61,102.44,145.7,102,145.72,102Z"/><path class="cls-16" d="M140.6,27.2a11.44,11.44,0,0,1,9.94,16.94,5.38,5.38,0,0,1-2.86,2.7,23.55,23.55,0,0,0-7.14-18.3"/><path class="cls-16" d="M145.21,28.22a3.13,3.13,0,0,1,1.08-3.59A8.86,8.86,0,0,1,150,23.12a9.61,9.61,0,0,0,3.74-1.47,10.18,10.18,0,0,1-2.05,5.91A5.15,5.15,0,0,1,146,29.25"/><path class="cls-16" d="M146.56,29.61a3,3,0,0,1-2.77-.4A6.36,6.36,0,0,1,141.94,27a9.7,9.7,0,0,1-1.19-3.37,5.63,5.63,0,0,1,.6-3.47c1.54,1.64,3.24,3,4.13,5.1a6.23,6.23,0,0,1-.1,4.38"/><path class="cls-10" d="M150.94,36.46a2.42,2.42,0,0,1,.07.39,2.72,2.72,0,0,1,.06.46c0,.19,0,.39.05.62a13,13,0,0,1-.34,3.58,14,14,0,0,1-.61,1.89,12.59,12.59,0,0,1-.7,1.46c-.11.2-.22.37-.32.53a2.92,2.92,0,0,1-.26.39,2.28,2.28,0,0,1-.25.32l.2-.35.24-.4c.09-.16.2-.34.3-.54a13.77,13.77,0,0,0,1.25-3.33,15,15,0,0,0,.32-1.94,11.45,11.45,0,0,0,.06-1.6,5.92,5.92,0,0,0,0-.62c0-.18,0-.34,0-.46A1.51,1.51,0,0,1,150.94,36.46Z"/><path class="cls-10" d="M150.06,28.89a2.28,2.28,0,0,1-.32.25,3.44,3.44,0,0,1-1,.39,7.86,7.86,0,0,1-3.6-.2h0v-.05L145,29a6.28,6.28,0,0,1-.09-2.1,3.5,3.5,0,0,1,.59-1.61,3.18,3.18,0,0,1,.84-.8,2.09,2.09,0,0,1,.38-.19,2.06,2.06,0,0,1-.35.24,3,3,0,0,0-.78.81,3.47,3.47,0,0,0-.55,1.57,6.29,6.29,0,0,0,.11,2.05l.05.26-.05,0a8.28,8.28,0,0,0,3.54.24,3.54,3.54,0,0,0,1-.34A1.45,1.45,0,0,1,150.06,28.89Z"/><path class="cls-10" d="M151.21,25.23s-.41.09-1.06.28a8.73,8.73,0,0,0-1.11.41,11.6,11.6,0,0,0-1.27.69,11,11,0,0,0-1.14.89,10.49,10.49,0,0,0-.82.85c-.43.52-.65.88-.67.86a1.56,1.56,0,0,1,.13-.26,7.75,7.75,0,0,1,1.27-1.55,9.23,9.23,0,0,1,1.15-.91,9.72,9.72,0,0,1,1.3-.69,7.28,7.28,0,0,1,1.13-.39,6.94,6.94,0,0,1,.8-.16A1.27,1.27,0,0,1,151.21,25.23Z"/><path class="cls-10" d="M146.5,29.58s0,0,0,.09a1.32,1.32,0,0,1-.07.23,1.92,1.92,0,0,1-.56.7,1.88,1.88,0,0,1-1.27.41,1.83,1.83,0,0,1-1.4-.82,1.87,1.87,0,0,1-.26-1.6,1.92,1.92,0,0,1,.84-1,1.85,1.85,0,0,1,.86-.27.76.76,0,0,1,.24,0c.06,0,.09,0,.09,0s-.12,0-.33,0a1.89,1.89,0,0,0-.81.3,1.8,1.8,0,0,0-.76,1,1.79,1.79,0,0,0,1.54,2.25,1.9,1.9,0,0,0,1.2-.36,1.85,1.85,0,0,0,.56-.65C146.46,29.69,146.49,29.58,146.5,29.58Z"/><path class="cls-10" d="M143.08,29.65s-.1-.15,0-.37a.59.59,0,0,1,.33-.26A1.22,1.22,0,0,1,144,29a2.29,2.29,0,0,1,1.19.36s-.53-.16-1.2-.21a.81.81,0,0,0-.75.23A.68.68,0,0,0,143.08,29.65Z"/><path class="cls-10" d="M141.35,20.14a3.29,3.29,0,0,0-.43,1.2,7.56,7.56,0,0,0-.07,1.4,9.42,9.42,0,0,0,.15,1.71,8.53,8.53,0,0,0,1.2,2.86c.23.33.44.58.58.75a3.46,3.46,0,0,1,.22.27,4.19,4.19,0,0,1-.88-1,8,8,0,0,1-1.26-2.89,8.25,8.25,0,0,1-.15-1.74,7.47,7.47,0,0,1,.1-1.41,2.73,2.73,0,0,1,.33-.91C141.25,20.22,141.34,20.13,141.35,20.14Z"/><path class="cls-10" d="M142.81,23.48a2.73,2.73,0,0,1,.4.49,8.87,8.87,0,0,1,.75,1.3,8.39,8.39,0,0,1,.49,1.43,2.07,2.07,0,0,1,.1.61c-.05,0-.24-.92-.73-2S142.77,23.51,142.81,23.48Z"/><path class="cls-10" d="M142.33,25.24s.51.46,1.13,1a9.67,9.67,0,0,1,1.09,1.06,6.4,6.4,0,0,1-1.19-.95A5.07,5.07,0,0,1,142.33,25.24Z"/><path class="cls-7" d="M149.72,31.86l0,0-.13.11c-.11.09-.27.21-.48.35a7,7,0,0,1-1.78.87,7.4,7.4,0,0,1-1.94.36,5.4,5.4,0,0,1-.6,0h0c.14,0,.34,0,.6,0a7.71,7.71,0,0,0,1.92-.36,8.49,8.49,0,0,0,1.78-.85l.49-.34.13-.1Z"/><path class="cls-7" d="M151.38,35.28l0,0-.13.11-.48.36a8.76,8.76,0,0,1-1.77.89,8.33,8.33,0,0,1-1.93.44l-.6,0h0l.6,0a8.94,8.94,0,0,0,1.91-.46,8.22,8.22,0,0,0,1.76-.87l.5-.34.13-.09S151.38,35.27,151.38,35.28Z"/><path class="cls-7" d="M150.92,40.26l-.12.08a2.9,2.9,0,0,1-.35.21,5.32,5.32,0,0,1-1.24.49,5.55,5.55,0,0,1-1.32.18h-.41c-.09,0-.15,0-.15,0h.55a6.15,6.15,0,0,0,1.31-.2,6.55,6.55,0,0,0,1.24-.46l.35-.2C150.87,40.28,150.91,40.25,150.92,40.26Z"/><path class="cls-7" d="M151.87,39.49a1,1,0,0,1-.38.11,1.12,1.12,0,0,1-.39,0,1.77,1.77,0,0,1,.38-.1A1.88,1.88,0,0,1,151.87,39.49Z"/><path class="cls-7" d="M149.07,45.35a2,2,0,0,1-.64,0,1.9,1.9,0,0,1-.63-.12s.28,0,.63.06S149.07,45.33,149.07,45.35Z"/><path class="cls-7" d="M143.72,30.6a1.86,1.86,0,0,1-.38.24,1.74,1.74,0,0,1-.4.19,1.25,1.25,0,0,1,.37-.24A1.47,1.47,0,0,1,143.72,30.6Z"/><path class="cls-7" d="M142.32,27.63a6,6,0,0,0-.83.45,5.25,5.25,0,0,0-.7.64,1.3,1.3,0,0,1,.16-.23,3.34,3.34,0,0,1,.5-.46,3,3,0,0,1,.6-.32A1.74,1.74,0,0,1,142.32,27.63Z"/><path class="cls-7" d="M144.86,30.91a3.61,3.61,0,0,0,0-.85,3.38,3.38,0,0,0-.23-.82s.06.07.13.22a2.24,2.24,0,0,1,.16.59,2.55,2.55,0,0,1,0,.62C144.9,30.82,144.87,30.92,144.86,30.91Z"/><path class="cls-7" d="M153.59,21.71a3.27,3.27,0,0,1-.31.33,6.54,6.54,0,0,1-1,.75,12.65,12.65,0,0,1-1.62.84c-.63.28-1.33.55-2,.9a7.49,7.49,0,0,0-1.87,1.19,4.74,4.74,0,0,0-1.1,1.43,3.45,3.45,0,0,0-.34,1.17c0,.29,0,.45,0,.45a.5.5,0,0,1,0-.11,1.88,1.88,0,0,1,0-.34,3.48,3.48,0,0,1,.32-1.19,4.68,4.68,0,0,1,1.1-1.45,8,8,0,0,1,1.88-1.21c.72-.34,1.42-.61,2-.89a12.76,12.76,0,0,0,1.62-.82,6.6,6.6,0,0,0,1-.74,3.22,3.22,0,0,0,.25-.23Z"/><path class="cls-7" d="M152.83,25.06l0,.06-.12.18c-.1.16-.26.37-.46.63a12.18,12.18,0,0,1-1.84,1.8,11.3,11.3,0,0,1-2.21,1.34l-.72.29-.2.07c-.05,0-.07,0-.07,0l.07,0,.19-.08c.17-.06.42-.17.72-.31a11.65,11.65,0,0,0,4-3.13c.21-.25.38-.46.48-.61l.13-.17Z"/><path class="cls-7" d="M141.05,21.1a5,5,0,0,1,.85.45,7.23,7.23,0,0,1,1.73,1.56,7.08,7.08,0,0,1,1.13,2,5.3,5.3,0,0,1,.25.94l0-.06-.05-.19a5.59,5.59,0,0,0-.22-.67,7.38,7.38,0,0,0-1.13-2,7.69,7.69,0,0,0-1.71-1.57q-.37-.24-.6-.36l-.17-.09Z"/><path class="cls-12" d="M126.9,31.71c.11,1.49-.88,2.83-1.87,3.95s-2.1,2.29-2.32,3.77c-.38,2.63,2.19,5.08,1.66,7.68-.28,1.4-1.42,2.52-1.63,3.93a4.92,4.92,0,0,0,1.44,3.73c.91,1,2,.89,2.76,2a11.29,11.29,0,0,0,3.47,3.09c2.89,1.58,6.35-.71,7.74-1.12"/><path class="cls-12" d="M148.72,37.83c1.33-.57,1.44-5.34-1.9-5.89a9.17,9.17,0,0,1-3.58-1.63c-1-.67-1.29-2.38-2.13-3.23a8.36,8.36,0,0,0-14.05,3.83,5.47,5.47,0,0,0,1.37,5.5c1.77,1.49,4.39,1.16,6.65.69s4.83-.92,6.72.41a9.81,9.81,0,0,1,2.49,3.32,5.89,5.89,0,0,0,2.89,2.89s1,2.36.18,4,1-1.16,1-1.16,3.25-5.78.4-8.73"/><path class="cls-9" d="M131.82,71.29c0-3.11,0-11.85,0-11.83s-4.95-.84-6-7.29a68.38,68.38,0,0,1,0-12.77c.25-3.87,2.82-8.62,6.68-8.2l12,3.07a2.27,2.27,0,0,1,2,2.31h0l-.73,29.89Z"/><path class="cls-10" d="M127.86,43.09a.83.83,0,0,0,.8.83.77.77,0,0,0,.85-.74.83.83,0,0,0-.79-.84A.8.8,0,0,0,127.86,43.09Z"/><path class="cls-10" d="M127,42.14c.1.11.73-.36,1.62-.35s1.54.45,1.64.34-.06-.24-.34-.45a2.26,2.26,0,0,0-1.31-.41,2.22,2.22,0,0,0-1.29.41C127,41.89,126.9,42.09,127,42.14Z"/><path class="cls-10" d="M135.7,43.56c.11.1.73-.36,1.62-.35s1.55.45,1.64.34-.05-.24-.34-.45a2.27,2.27,0,0,0-2.6,0C135.75,43.31,135.65,43.51,135.7,43.56Z"/><path class="cls-10" d="M132.46,48.92a5.77,5.77,0,0,0-1.45-.26c-.23,0-.44-.07-.48-.23a1.17,1.17,0,0,1,.15-.67c.22-.55.44-1.13.68-1.73a29.68,29.68,0,0,0,1.52-4.53A29.8,29.8,0,0,0,131,45.89c-.23.61-.44,1.19-.65,1.74a1.42,1.42,0,0,0-.12.9.57.57,0,0,0,.37.33,1.49,1.49,0,0,0,.39,0A5.53,5.53,0,0,0,132.46,48.92Z"/><path class="cls-11" d="M131.82,59.46a16.41,16.41,0,0,0,8.65-2.29A8.53,8.53,0,0,1,131.9,61Z"/><path class="cls-11" d="M132.71,51.49c-.1-.55.54-.73,1-1s.74-.69,1.19-.35a1.85,1.85,0,0,1,.55.77,1.24,1.24,0,0,1,.08.63,1.19,1.19,0,0,1-.39.66,2,2,0,0,1-1,.51,1.36,1.36,0,0,1-1.05-.25,1,1,0,0,1-.39-1"/><path class="cls-10" d="M135.08,49.54c-.15,0-.15,1-1,1.64s-1.86.58-1.87.71.23.19.67.21a2.41,2.41,0,0,0,1.55-.54,2.06,2.06,0,0,0,.76-1.38C135.25,49.78,135.14,49.54,135.08,49.54Z"/><path class="cls-10" d="M135.57,41.57c.09.24,1,.13,2,.26s1.89.41,2,.19-.08-.33-.42-.56a3.57,3.57,0,0,0-3.09-.35C135.73,41.26,135.53,41.45,135.57,41.57Z"/><path class="cls-10" d="M127.07,39.06c.16.2.77,0,1.51,0s1.36.14,1.51-.07,0-.3-.31-.5a2.21,2.21,0,0,0-2.43.07C127.09,38.75,127,39,127.07,39.06Z"/><path class="cls-12" d="M147.27,55.86c-1.78.36-1.94-.55-3.26-1.78a5.81,5.81,0,0,1-1.78-4.92c.2-1.58,1.05-3.19.5-4.69-.73-2-3.5-2.6-4.24-4.58-.43-1.15-.05-2.49-.53-3.62a4.29,4.29,0,0,0-2.66-2.06,10.9,10.9,0,0,1-3.16-1.37,2.49,2.49,0,0,1-.89-3,61.64,61.64,0,0,1,14.1,3.42A5.47,5.47,0,0,1,148.13,35a5.65,5.65,0,0,1,.57,3.46l-.81,17.38"/><path class="cls-10" d="M151.38,53.69s0,0,.07-.08.11-.14.18-.26a3.45,3.45,0,0,0,.42-1.12,3.85,3.85,0,0,0-.1-1.91,3.66,3.66,0,0,0-1.5-2,9.13,9.13,0,0,1-2.4-1.77A2,2,0,0,1,147.7,45a8.86,8.86,0,0,1,.56-1.67,4.81,4.81,0,0,0-.08-3.86,4.18,4.18,0,0,0-1.31-1.62,5.08,5.08,0,0,0-2-.82c-.7-.16-1.39-.25-2-.45a3.87,3.87,0,0,1-1.71-.94A2.75,2.75,0,0,1,140.4,34a14.59,14.59,0,0,0-.31-1.87A6.4,6.4,0,0,0,138.35,29a5.12,5.12,0,0,0-2.74-1.36,4.15,4.15,0,0,0-2.5.38,3.93,3.93,0,0,0-1.44,1.25,3.29,3.29,0,0,0-.5,1.09,1.87,1.87,0,0,0-.07.42,4.3,4.3,0,0,1,.66-1.45,4,4,0,0,1,1.43-1.17,4,4,0,0,1,2.39-.32,5,5,0,0,1,2.61,1.33,6.3,6.3,0,0,1,1.65,2.95,14.91,14.91,0,0,1,.29,1.85,3.1,3.1,0,0,0,.81,1.85,4.29,4.29,0,0,0,1.83,1c.68.2,1.37.3,2.06.45a4.94,4.94,0,0,1,1.87.77,4.1,4.1,0,0,1,1.23,1.52,4.57,4.57,0,0,1,.09,3.64,9.73,9.73,0,0,0-.57,1.73,2.22,2.22,0,0,0,.41,1.69,9,9,0,0,0,2.47,1.81,3.45,3.45,0,0,1,1.47,1.9,3.87,3.87,0,0,1,.14,1.84A4.13,4.13,0,0,1,151.38,53.69Z"/><path class="cls-12" d="M143,47.28A16.31,16.31,0,0,0,142.23,58a6.67,6.67,0,0,1,.45,3.22c-.27,1.15-1.24,2-1.94,2.94A7.27,7.27,0,0,0,143,74.82a3.48,3.48,0,0,1,2.15-2.25A8.82,8.82,0,0,0,147.9,71c.74-.78.95-2.21.09-2.86,2.49-.65,3.89-3.6,3.37-6.11a8.46,8.46,0,0,0-4.89-5.59"/><path class="cls-12" d="M145.63,72.34c-.44.24-.87.46-.93,1a6.69,6.69,0,0,0,.71,2.19,3,3,0,0,1-4,3.86A1.6,1.6,0,0,0,143,77.84a3.36,3.36,0,0,0-.79-2.2,22.16,22.16,0,0,1-1.45-1.9c-.82-1.4-2-5.21-1.1-7.35"/><path class="cls-10" d="M147.89,68.23l.15-.13.45-.36a10.05,10.05,0,0,0,1.45-1.5,7.64,7.64,0,0,0,1.37-2.74,6.21,6.21,0,0,0-.18-3.7,5.33,5.33,0,0,0-1-1.65c-.42-.48-.87-.9-1.29-1.3a13,13,0,0,1-1.16-1.21,4.88,4.88,0,0,1-.76-1.24,3.3,3.3,0,0,1-.25-2.08,2.21,2.21,0,0,1,.21-.53,1.57,1.57,0,0,1,.11-.17,4.11,4.11,0,0,0-.26.71,3.31,3.31,0,0,0,.28,2,5.21,5.21,0,0,0,.76,1.22,14.19,14.19,0,0,0,1.16,1.18c.42.4.88.82,1.31,1.3a5.81,5.81,0,0,1,1.05,1.69,6.27,6.27,0,0,1,.17,3.79A7.65,7.65,0,0,1,150,66.31a9.64,9.64,0,0,1-1.5,1.48l-.46.34Z"/></g><g class="cls-41"><path class="cls-6" d="M45.32,155.44l4.21,21-.75,15.76,28.29-4.71L76,173.73l0-11.42,6.93,13.44,5.4-10.43L78.38,147.4h0a16.69,16.69,0,0,0-6.47-4.19,13.07,13.07,0,0,0-4-.78h0a16.3,16.3,0,0,1-9.8,0l-1.64.18-.13,0a12.5,12.5,0,0,0-10.91,11.76Z"/><path class="cls-6" d="M56.42,142.63S44.8,142.72,43.36,155l-.2,9,10-.09Z"/><path class="cls-7" d="M84.19,158.42c0,.09-9.15.16-20.43.16s-20.43-.07-20.43-.16,9.15-.15,20.43-.15S84.19,158.34,84.19,158.42Z"/><path class="cls-7" d="M84.19,160.37c0,.09-9.15.16-20.43.16s-20.43-.07-20.43-.16,9.15-.16,20.43-.16S84.19,160.28,84.19,160.37Z"/><path class="cls-7" d="M83.54,156.81c0,.09-9,.16-20.1.16s-20.11-.07-20.11-.16,9-.16,20.11-.16S83.54,156.72,83.54,156.81Z"/><path class="cls-10" d="M75.78,175.75c-.08,0,0-5,.09-11.11s.32-11.11.4-11.11,0,5-.08,11.12S75.87,175.75,75.78,175.75Z"/><path class="cls-9" d="M71.81,167.68s5.5.39,6.49,1.85,2.5,5.6,1.93,5.63a1.55,1.55,0,0,1-1-.31l-1.51-2.68s.24,2.59-.66,2.64-5.36.94-5.36.94Z"/><path class="cls-6" d="M43.16,161.6l0,14.18a5.4,5.4,0,0,0,6.53,5l22.17-4.57,0-9.09-19.13,3.67-.25-9.62Z"/><path class="cls-10" d="M55.81,179.61a1.9,1.9,0,0,1,.3-.08l.85-.19,3.26-.69,11.54-2.36-.11.14c0-2.86,0-6,0-9.34l.19.15-3.9.75-15.23,2.9-.17,0v-.16c.14-4.22.26-7.74.35-10.22,0-1.21.09-2.17.12-2.86l0-.75a.9.9,0,0,1,0-.26s0,.09,0,.26v.76c0,.68,0,1.64,0,2.85-.05,2.49-.14,6-.23,10.22l-.16-.13,15.22-2.95,3.9-.74.19,0v.19c0,3.33,0,6.48,0,9.34v.11l-.11,0-11.56,2.25-3.28.61-.87.15A1,1,0,0,1,55.81,179.61Z"/><path class="cls-10" d="M68.53,142.63a.74.74,0,0,1,.09.21,3.8,3.8,0,0,1,.17.63,5.2,5.2,0,0,1-.1,2.38,6.22,6.22,0,0,1-1.93,3,5.9,5.9,0,0,1-4,1.52,5.45,5.45,0,0,1-4-1.62,5.52,5.52,0,0,1-1.48-3.21,5.2,5.2,0,0,1,.27-2.37,3.82,3.82,0,0,1,.29-.58.88.88,0,0,1,.13-.19s-.14.28-.3.81a5.19,5.19,0,0,0-.17,2.31,5.43,5.43,0,0,0,1.47,3A5.28,5.28,0,0,0,62.73,150a5.78,5.78,0,0,0,3.84-1.43,6.15,6.15,0,0,0,1.9-2.81,5.32,5.32,0,0,0,.2-2.31C68.6,142.94,68.5,142.64,68.53,142.63Z"/><path class="cls-7" d="M69.6,176.93a6.46,6.46,0,0,1,0-1.4c0-.86.08-2.05.09-3.36s0-2.5,0-3.36a6.33,6.33,0,0,1,0-1.4,5.89,5.89,0,0,1,.21,1.39c.08.86.14,2,.13,3.37s-.08,2.52-.17,3.38A5.49,5.49,0,0,1,69.6,176.93Z"/><path class="cls-7" d="M68.46,177.16a6,6,0,0,1,0-1.39c0-1,0-2.1,0-3.34v-3.34a7.1,7.1,0,0,1,0-1.38,5.85,5.85,0,0,1,.17,1.38c.06.85.1,2,.1,3.35s-.06,2.49-.13,3.34A6.12,6.12,0,0,1,68.46,177.16Z"/><path class="cls-10" d="M61.62,117.71a4.07,4.07,0,0,1,3-2.75,4.86,4.86,0,0,1,4.45.72c.83.63,1.48,1.55,2.46,1.89,1.63.57,3.53-.65,5.09.08a2.22,2.22,0,0,1-1,4.23,2,2,0,0,1,.77,2.84,3,3,0,0,1-3,1.09,6.21,6.21,0,0,1-2.92-1.63c-.84-.76-1.59-1.61-2.48-2.29a4.85,4.85,0,0,0-3.12-1.15,4.43,4.43,0,0,0-3.51,2.6,11.27,11.27,0,0,0-.92,4.46,19.14,19.14,0,0,1-.57,4.54c0,.17-.13.36-.3.41s-.46-.18-.58-.41A22.51,22.51,0,0,1,56.38,124a7,7,0,0,1,.81-4.71c.92-1.43,3.27-2.48,4.43-1.58"/><path class="cls-42" d="M58.67,124.79l-.79,17.12c-.13,2.91.27,7.21,4.88,7.21h0c4-.3,5.19-4,5.31-6.76.06-1.28.11-2.36.12-2.49s4.38-.21,4.89-4.51c.24-2.08.41-6.4.51-10.31a8.07,8.07,0,0,0-7.21-8.21l-.42,0C61.46,116.58,58.76,120.28,58.67,124.79Z"/><path class="cls-42" d="M68.2,139.81a10.09,10.09,0,0,1-5.44-2.19s1,3.24,5.34,3.3Z"/><path class="cls-10" d="M72,127.8a.61.61,0,0,1-.65.56.6.6,0,0,1-.58-.62.62.62,0,0,1,.66-.56A.59.59,0,0,1,72,127.8Z"/><path class="cls-10" d="M72.44,127.07c-.09.07-.52-.32-1.18-.39s-1.18.21-1.24.12.06-.18.29-.31a1.65,1.65,0,0,1,1-.19,1.61,1.61,0,0,1,.93.41C72.42,126.88,72.48,127,72.44,127.07Z"/><path class="cls-10" d="M65.51,127.34a.61.61,0,0,1-.65.55.59.59,0,0,1-.58-.62.62.62,0,0,1,.66-.55A.58.58,0,0,1,65.51,127.34Z"/><path class="cls-10" d="M65.92,126.5c-.08.07-.51-.32-1.17-.39s-1.19.21-1.25.12.06-.18.29-.31a1.7,1.7,0,0,1,1-.19,1.55,1.55,0,0,1,.92.41C65.91,126.32,66,126.47,65.92,126.5Z"/><path class="cls-10" d="M67.8,131.66a4,4,0,0,1,1.09-.08c.18,0,.34,0,.38-.13a.89.89,0,0,0-.06-.51c-.12-.43-.24-.87-.36-1.34a23.41,23.41,0,0,1-.77-3.48,21.58,21.58,0,0,1,1,3.41c.11.47.23.92.34,1.35a1,1,0,0,1,0,.67.44.44,0,0,1-.3.22.93.93,0,0,1-.29,0A4,4,0,0,1,67.8,131.66Z"/><path class="cls-10" d="M65.8,131.91c.11,0,0,.72.6,1.3s1.33.58,1.33.68-.19.12-.51.09a1.81,1.81,0,0,1-1.12-.52,1.62,1.62,0,0,1-.45-1.09C65.66,132.07,65.76,131.9,65.8,131.91Z"/><path class="cls-10" d="M66.37,123.93c-.09.17-.74,0-1.52,0s-1.44.16-1.53,0,.09-.24.37-.39a2.44,2.44,0,0,1,1.15-.27,2.58,2.58,0,0,1,1.16.26C66.28,123.69,66.41,123.84,66.37,123.93Z"/><path class="cls-10" d="M72.4,125.13c-.14.14-.57-.07-1.12-.13s-1,0-1.11-.18,0-.22.26-.34a1.58,1.58,0,0,1,.94-.15,1.53,1.53,0,0,1,.86.39C72.41,124.9,72.46,125.06,72.4,125.13Z"/><path class="cls-42" d="M58.68,128c-.07,0-2.87-1.19-3.09,1.76a2.23,2.23,0,0,0,2.81,2.48C58.41,132.17,58.68,128,58.68,128Z"/><path class="cls-11" d="M57.58,131.07s-.06,0-.15.07a.51.51,0,0,1-.38,0,1.28,1.28,0,0,1-.51-1.19,1.78,1.78,0,0,1,.2-.72.62.62,0,0,1,.42-.37.27.27,0,0,1,.29.16c0,.09,0,.15,0,.15s.06,0,.05-.16a.33.33,0,0,0-.38-.29.7.7,0,0,0-.57.41,1.67,1.67,0,0,0-.24.81,1.33,1.33,0,0,0,.65,1.33.57.57,0,0,0,.48,0C57.57,131.14,57.59,131.08,57.58,131.07Z"/><path class="cls-10" d="M74.59,124.26a6.28,6.28,0,0,1-5.39-1.83c-1-1-1.62-2.36-2.89-2.91a3.54,3.54,0,0,0-2.71.08,6.82,6.82,0,0,0-2.23,1.65c.6,2.28-.22,4.66-1,6.87a1.21,1.21,0,0,1-.41.64.94.94,0,0,1-1.15-.38,3.67,3.67,0,0,1-.59-2,12.24,12.24,0,0,1,.54-4.77,8.32,8.32,0,0,1,2.7-3.92,7.87,7.87,0,0,1,5.7-1.48,9.59,9.59,0,0,1,5.35,2.58,5.66,5.66,0,0,1,1.58,2.27"/></g></g></g></svg>