<svg width="43" height="48" viewBox="0 0 43 48" fill="none" xmlns="http://www.w3.org/2000/svg">
<path d="M9.27185 35.5613C9.38632 36.2481 10.1113 37.8506 11.0652 38.6137C12.744 39.9492 15.0715 39.6821 16.8649 39.0716C19.0397 38.3085 21.1383 36.8586 22.8553 35.3323C24.3052 34.0351 25.6788 32.5851 26.8617 31.0589C27.9682 29.6853 28.9602 27.7393 30.372 27.2052C31.593 26.7091 33.0811 26.3657 35.027 27.7012C36.7822 28.884 37.5071 30.5629 37.0874 32.4325C36.973 32.9285 36.8967 33.5772 36.5532 34.1114C35.3323 36.0192 33.5008 38.2322 31.9746 39.7203C29.5326 42.0859 26.5946 44.6042 23.504 45.6344C20.6041 46.5883 16.903 46.1304 14.2321 44.5279C11.4086 42.8109 9.88234 39.7584 9.27185 35.5613Z" fill="#2AB2DA"/>
<path d="M24.6868 45.1765C21.3291 47.1225 17.1701 48.0764 13.0493 47.9619C9.50079 47.8856 6.18123 46.2067 3.89189 43.4977C1.86963 41.132 0.686799 38.2703 0.267085 35.2179C-0.0381614 33.0048 -0.0381614 30.6773 0.228929 28.4643C0.534176 25.8697 1.29729 23.3133 2.21303 20.8713C2.6709 19.6503 3.31955 18.5056 3.89189 17.3228C4.15898 16.7886 4.46422 16.2544 4.76947 15.7584C4.88394 15.6058 5.91414 13.9269 6.10492 13.7361C6.10492 13.7361 4.73131 18.6582 6.86804 20.5279C9.00476 22.4357 14.0032 19.9174 14.0032 19.9174C13.6979 20.3753 12.3243 22.7028 12.0954 23.0843C11.523 24.1145 11.1796 24.8776 10.7218 25.946C9.72972 28.2353 9.15739 30.6392 9.11923 33.0811C9.08107 37.469 10.7218 42.7727 14.9189 44.8331C17.8951 46.3212 21.7106 46.3594 24.6868 45.1765Z" fill="#C7E5F6"/>
<path d="M11.7138 21.6344C12.248 21.4818 12.7821 21.2147 13.24 20.8713C13.8123 20.4516 14.1176 19.7266 14.5373 19.1543C14.6899 18.9635 14.8426 18.7346 14.9952 18.5438C16.2925 16.9031 17.5898 15.2242 19.116 13.7743C20.4896 12.477 22.0158 11.3324 23.6947 10.4166C25.0302 9.69166 26.4801 9.11932 28.0063 8.9667C29.8378 8.77592 31.5166 9.61535 32.3561 10.8745C33.1573 12.0573 33.31 13.1257 33.31 13.1257C33.31 13.1257 33.0047 6.9826 28.8076 4.31169C24.6104 1.64079 21.2909 1.64079 17.4371 3.09071C15.6438 3.77751 13.7742 5.49452 12.2861 6.71551C10.8362 7.89834 9.65337 9.3101 8.43238 10.6837C7.63111 11.5613 6.9443 12.5152 6.2575 13.5072C4.6168 15.9492 4.99836 19.4214 7.51664 21.1002C7.78373 21.291 8.05082 21.4055 8.35607 21.5581C9.42443 21.9397 10.6073 21.9778 11.7138 21.6344Z" fill="#514F7E"/>
<path d="M16.9793 3.24332C16.9793 3.24332 21.8251 -0.0762365 28.1208 7.51357e-05C34.4165 0.0763867 39.682 3.89197 41.399 9.80612C43.2305 16.0637 42.4292 21.291 40.5214 26.442C39.9491 27.9301 39.3386 29.3419 38.6136 30.7536C38.0413 31.8602 37.4308 32.8904 36.744 33.9587C36.6677 34.0732 36.4006 34.3785 36.3243 34.4929C36.8966 33.3482 37.3927 31.822 37.1256 30.601C36.8966 29.6853 36.3625 28.9222 35.7138 28.2735C34.9888 27.5867 34.0731 27.0907 33.0811 26.9381C31.7074 26.7091 30.2957 27.2052 29.2273 28.1209C29.0747 28.2735 28.8076 28.5406 28.6931 28.7314C29.3036 27.8538 29.9141 26.8236 30.4101 25.9079C31.097 24.6487 31.6693 23.3133 32.1653 21.9397C32.3179 21.4818 32.4706 21.0239 32.6232 20.5661C33.5771 17.5136 33.5771 15.4913 33.3481 13.202C33.3481 13.202 33.2337 11.7902 32.6613 9.95874C31.2877 5.95238 27.7392 3.05254 23.6566 2.44205C22.6264 2.28942 21.5962 2.25127 20.566 2.36573C19.9555 2.44205 19.3068 2.55651 18.6963 2.70914C18.124 2.86176 17.4753 2.89992 16.9793 3.24332Z" fill="#BDA7D3"/>
</svg>
