<svg xmlns="http://www.w3.org/2000/svg" viewBox="0 0 588.75 400.96"><defs><style>.cls-1{fill:#fff;}.cls-2{fill:#dfdfdf;}.cls-3{fill:#f9f9f9;}.cls-4{fill:#263238;}.cls-5{fill:#465a63;}.cls-6{fill:#c5e3f4;}.cls-7{fill:#bf9684;}.cls-8{fill:#8c6659;}.cls-9{fill:#2ab0d8;}.cls-10{fill:#e5525e;}</style></defs><title>2-how-it-works</title><g id="Слой_2" data-name="Слой 2"><g id="Layer_1" data-name="Layer 1"><path class="cls-1" d="M382.05,135.11v44.1a14.37,14.37,0,0,0,14.44,14.13H554.61a14.44,14.44,0,0,0,14.45-14.44V141.64L588.75,121l-192.21-.6A14.52,14.52,0,0,0,382.05,135.11Z"/><polygon class="cls-2" points="545.75 147.07 402.27 146.41 402.28 142 545.77 142.66 545.75 147.07"/><polygon class="cls-2" points="545.75 161.58 402.27 160.92 402.28 156.51 545.77 157.17 545.75 161.58"/><rect class="cls-2" x="515.17" y="144.99" width="4.41" height="56.77" transform="translate(341.46 689.89) rotate(-89.72)"/><path class="cls-2" d="M474.92,381.8c-22.11-15.45-27.13-44.12-26.25-69.9.14-4.3-.33-8.84,1.72-12.61s6.82-6.36,10.67-4.54c3.19,1.5,4.59,5.22,6.37,8.29a25.22,25.22,0,0,0,10.09,9.64c2.74,1.42,6.13,2.29,8.84.8,3.71-2.05,4.15-7.18,4.12-11.46l-.15-23.92c0-4.28,0-8.65,1.29-12.71s4.27-7.83,8.34-9,9.11,1.2,10,5.39c.36,1.74,0,3.55.12,5.33s.95,3.74,2.63,4.24,3.42-.72,4.7-2c4.42-4.32,7.42-9.88,10.22-15.42s5.52-11.2,9.52-15.91,9.55-8.45,15.68-8.8,12.66,3.44,14.21,9.46-2,12.15-5.8,17a95.56,95.56,0,0,1-19.88,19c-1.35,1-2.82,2-3.33,3.57-.93,2.86,1.77,5.69,4.59,6.63,3.19,1.06,6.65.73,10,1.12s6.95,1.87,8.21,5c1.75,4.37-1.91,9-5.51,12a81.86,81.86,0,0,1-24.21,14c-3.15,1.15-6.46,2.16-9,4.37s-4.07,6.06-2.54,9.07,5.47,4,8.77,3.37,6.25-2.4,9.39-3.58c5.88-2.22,13.48-1.82,17.24,3.26,2.48,3.35,2.7,8,1.44,12s-3.79,7.41-6.48,10.57c-9.43,11.06-21.49,20-35.14,24.69s-26.28,6-39.83,1.06"/><path class="cls-1" d="M474.58,400.9a187.44,187.44,0,0,1,7-35.26,383.54,383.54,0,0,1,15.22-41.28q2.31-5.39,4.55-10.62c1.5-3.48,3-6.93,4.65-10.22a190.34,190.34,0,0,1,10.64-18.33c3.66-5.67,7.35-10.92,10.83-15.8s6.84-9.35,10.06-13.31a150.71,150.71,0,0,1,16.57-17.51c2.11-1.91,3.79-3.34,4.95-4.29l1.32-1.07a2.62,2.62,0,0,1,.47-.34,4.47,4.47,0,0,1-.42.4l-1.27,1.14c-1.12,1-2.77,2.45-4.85,4.39A159.42,159.42,0,0,0,538,256.44c-3.19,4-6.5,8.45-10,13.34s-7.12,10.14-10.76,15.81a193,193,0,0,0-10.56,18.29c-1.65,3.27-3.12,6.69-4.62,10.18s-3,7-4.54,10.61a394.82,394.82,0,0,0-15.25,41.18A191.21,191.21,0,0,0,475.13,401"/><path class="cls-1" d="M506.21,303.49a8.8,8.8,0,0,1-.42-1.82c-.22-1.18-.49-2.91-.79-5-.61-4.26-1.24-10.17-1.92-16.69s-1.39-12.41-2.06-16.65c-.32-2.12-.61-3.83-.82-5a9.2,9.2,0,0,1-.24-1.85,7.27,7.27,0,0,1,.54,1.79c.31,1.16.67,2.87,1.07,5,.81,4.23,1.62,10.13,2.3,16.66s1.23,12.26,1.68,16.71c.22,2,.4,3.7.55,5.06A8.23,8.23,0,0,1,506.21,303.49Z"/><path class="cls-1" d="M561.23,293.21a11,11,0,0,1-2.2.26c-1.41.13-3.45.3-6,.59-5,.55-12,1.54-19.58,3s-14.42,3.05-19.32,4.35c-2.46.64-4.43,1.2-5.8,1.59a12.52,12.52,0,0,1-2.15.52,12.2,12.2,0,0,1,2.06-.82c1.34-.47,3.29-1.12,5.74-1.83,4.88-1.44,11.71-3.14,19.33-4.59A192.41,192.41,0,0,1,553,293.5c2.53-.22,4.58-.31,6-.33A11.94,11.94,0,0,1,561.23,293.21Z"/><path class="cls-1" d="M482.25,364.63a2.48,2.48,0,0,1-.38-.67c-.25-.54-.56-1.2-.94-2-.81-1.74-1.92-4.27-3.24-7.43-2.65-6.3-6.05-15.12-9.66-24.9s-6.92-18.63-9.44-25c-1.23-3.09-2.25-5.62-3-7.51-.33-.82-.59-1.5-.81-2a2.72,2.72,0,0,1-.23-.74,3.34,3.34,0,0,1,.38.68c.25.53.56,1.19.94,2,.81,1.74,1.91,4.27,3.24,7.42,2.65,6.31,6,15.13,9.66,24.92s6.92,18.62,9.43,25c1.24,3.09,2.25,5.63,3,7.51.32.82.59,1.5.81,2.05A3.44,3.44,0,0,1,482.25,364.63Z"/><path class="cls-1" d="M555.35,341.07a3.47,3.47,0,0,1-.72.29l-2.13.72-7.82,2.53c-6.61,2.15-15.71,5.21-25.75,8.61s-19.19,6.39-25.84,8.4c-3.33,1-6,1.79-7.91,2.29l-2.16.57a3.72,3.72,0,0,1-.77.15,2.63,2.63,0,0,1,.72-.3l2.13-.71,7.82-2.54c6.61-2.14,15.71-5.21,25.76-8.61s19.17-6.39,25.83-8.4c3.33-1,6-1.79,7.91-2.29l2.16-.57A2.61,2.61,0,0,1,555.35,341.07Z"/><path class="cls-2" d="M163.58,89.49v34.17a11.19,11.19,0,0,1-11.19,11.19H29.87a11.19,11.19,0,0,1-11.19-11.19V94.79l-15.26-16,148.93-.47A11.19,11.19,0,0,1,163.58,89.49Z"/><polygon class="cls-3" points="36.74 98.99 147.91 98.48 147.9 95.06 36.73 95.58 36.74 98.99"/><polygon class="cls-3" points="36.74 110.24 147.91 109.72 147.9 106.31 36.73 106.82 36.74 110.24"/><rect class="cls-3" x="36.73" y="117.67" width="43.99" height="3.42" transform="translate(-0.59 0.29) rotate(-0.28)"/><path class="cls-4" d="M576.28,399.1c0,.14-129,.26-288.13.26S0,399.24,0,399.1s129-.26,288.15-.26S576.28,399,576.28,399.1Z"/><rect class="cls-4" x="159.69" y="84.84" width="258.1" height="370.4" rx="11.55" transform="translate(18.7 558.79) rotate(-90)"/><rect class="cls-1" x="162.64" y="115.38" width="241.83" height="309.33" transform="translate(13.51 553.59) rotate(-90)"/><circle class="cls-5" cx="455.33" cy="270.04" r="9.9" transform="translate(88.28 651.52) rotate(-76.77)"/><rect class="cls-5" x="77.39" y="268" width="77.74" height="4.09" rx="1.22" transform="translate(-153.79 386.3) rotate(-90)"/><rect class="cls-2" x="128.89" y="149.13" width="309.33" height="15.43"/><path class="cls-1" d="M138.87,156.42a2.09,2.09,0,1,1-2.09-2.09A2.09,2.09,0,0,1,138.87,156.42Z"/><path class="cls-1" d="M145.81,156.42a2.09,2.09,0,1,1-2.09-2.09A2.09,2.09,0,0,1,145.81,156.42Z"/><path class="cls-1" d="M152.75,156.42a2.09,2.09,0,1,1-2.09-2.09A2.08,2.08,0,0,1,152.75,156.42Z"/><path class="cls-6" d="M246.8,142.62s-2.12-4.78-2.51-5.84c-1.08-2.87-8-22.1-6.34-25,7.68-13.46,13.62-23,28.76-23l26.72-.18S318.76,83.4,336.61,141Z"/><path class="cls-6" d="M190.41,147.45l35-7.55,41.14-21.64.16-29.53c-6.18-1.7-18,2.58-39.26,13.42l-31.59,16.31a18.7,18.7,0,0,0-5.45,29Z"/><path class="cls-7" d="M269.18,204.6c-.51-1.66-.17-2.72,2.25-1.91,5.35,1.79,10.11,1.21,11.28.17s.09-3-1.64-2.85a20.67,20.67,0,0,1-5.62-.78,13.9,13.9,0,0,1-4.2-1.77c-1.11-.71-2.07-1.37-2.93-2,0,0-4.92-3.55-6.46-6.41L245,196.3l2.72,8.46a8.92,8.92,0,0,0,5.71,6.55c4.83,1.58,12.51,1,12.51,1,1.4-.92,6.84,6.94,8.48,9.72s3.61,3.12,4.24,1.42c.44-1.16-4.39-9.77-6.08-12.48a33,33,0,0,1-3.37-6.35"/><path class="cls-8" d="M257.73,212.32c0,.06-.41,0-1-.24a4.3,4.3,0,0,1-1.76-1.73,4.23,4.23,0,0,1-.55-2.41c.06-.64.26-1,.31-1a7.63,7.63,0,0,0,.7,3.12A7.48,7.48,0,0,0,257.73,212.32Z"/><path class="cls-8" d="M263.08,212.52c0,.06-.4,0-.94-.27a4.34,4.34,0,0,1-2.17-4c0-.61.23-.95.29-.93a7.86,7.86,0,0,0,.7,3A7.69,7.69,0,0,0,263.08,212.52Z"/><path class="cls-6" d="M189.42,146.3S243,207.92,243,206.9s24-19,24-19l-52.56-62.61Z"/><path class="cls-4" d="M221.94,134.19a2.47,2.47,0,0,1,.37.37l1,1.11,3.61,4.16c3,3.53,7.17,8.42,11.73,13.85s8.66,10.37,11.62,14c1.42,1.76,2.6,3.2,3.47,4.27l.92,1.18a2.22,2.22,0,0,1,.3.43s-.14-.11-.38-.36l-1-1.11-3.6-4.16c-3-3.53-7.17-8.43-11.73-13.86s-8.67-10.37-11.62-14l-3.47-4.27-.93-1.17C222,134.35,221.92,134.2,221.94,134.19Z"/><path class="cls-4" d="M316.78,141.29a18.41,18.41,0,0,0,.65-3.95,12.25,12.25,0,0,0-.7-4.23,12.07,12.07,0,0,0-2.81-4.41c-1.3-1.37-2.7-2.55-3.82-3.79a11.76,11.76,0,0,1-2.41-3.74,6.58,6.58,0,0,1-.43-3,2.84,2.84,0,0,1,.28-1.07,7.39,7.39,0,0,0,.51,3.9,11.7,11.7,0,0,0,2.41,3.55c1.11,1.19,2.52,2.35,3.85,3.75A12.41,12.41,0,0,1,317.2,133a11.84,11.84,0,0,1,.6,4.41,10.92,10.92,0,0,1-.56,2.94A2.93,2.93,0,0,1,316.78,141.29Z"/><path class="cls-4" d="M244.47,93.88a4.08,4.08,0,0,1,.78-.37,22.74,22.74,0,0,1,2.32-.85,19.86,19.86,0,0,1,3.84-.78,13,13,0,0,1,5.17.48,12.09,12.09,0,0,1,5.3,3.4,14.14,14.14,0,0,1,3.17,6.49,24.4,24.4,0,0,1,.51,8,17.25,17.25,0,0,1-3,8,22.27,22.27,0,0,1-6.41,5.69c-2.35,1.48-4.71,2.69-6.95,3.87l-11.91,6.25-8.05,4.17-2.2,1.11a6.14,6.14,0,0,1-.78.36,4.07,4.07,0,0,1,.73-.46l2.16-1.19,8-4.33L249,127.38c2.23-1.19,4.6-2.42,6.91-3.88a21.72,21.72,0,0,0,6.25-5.56,16.79,16.79,0,0,0,2.88-7.78,24.34,24.34,0,0,0-.46-7.81,13.72,13.72,0,0,0-3-6.29,11.67,11.67,0,0,0-5.08-3.34,12.93,12.93,0,0,0-5-.54,20.54,20.54,0,0,0-3.81.68c-1,.29-1.81.56-2.34.75A7,7,0,0,1,244.47,93.88Z"/><path class="cls-4" d="M227.83,139.84a26.77,26.77,0,0,0-3-7.14,27.28,27.28,0,0,0-5.29-5.66,6.87,6.87,0,0,1,2,1.22,17.18,17.18,0,0,1,3.77,4.15,17.49,17.49,0,0,1,2.24,5.13A6.56,6.56,0,0,1,227.83,139.84Z"/><path class="cls-3" d="M306.64,133.15a7.28,7.28,0,0,1-1.14.3,11.66,11.66,0,0,1-3.38.15,12.37,12.37,0,0,1-5.08-1.67,11.65,11.65,0,0,1-4.7-5.27,12.43,12.43,0,0,1-.64-8.51,6.94,6.94,0,0,1,2.83-3.92,3.48,3.48,0,0,1,2.55-.52,3.68,3.68,0,0,1,2.23,1.48,12.39,12.39,0,0,1,1.2,10.66,12.79,12.79,0,0,1-3,5,11.41,11.41,0,0,1-5.21,2.94,11.89,11.89,0,0,1-11.14-2.59A11.71,11.71,0,0,1,277.78,121a10,10,0,0,1,2-4.7,5,5,0,0,1,2-1.53,3.15,3.15,0,0,1,2.45,0,4.57,4.57,0,0,1,2.62,3.63,7.74,7.74,0,0,1-.81,4.09,19.67,19.67,0,0,1-4.26,5.67,20.52,20.52,0,0,1-4.37,3.1,19.92,19.92,0,0,1-3.12,1.3c-.37.12-.66.18-.85.23a1.09,1.09,0,0,1-.29.06,1.28,1.28,0,0,1,.28-.11l.82-.28a21.28,21.28,0,0,0,3.06-1.39,20.85,20.85,0,0,0,4.27-3.12,19.57,19.57,0,0,0,4.11-5.62,7.31,7.31,0,0,0,.75-3.88,4.14,4.14,0,0,0-2.38-3.27,2.73,2.73,0,0,0-2.12,0,4.57,4.57,0,0,0-1.8,1.4,9.61,9.61,0,0,0-1.91,4.48,11.18,11.18,0,0,0,3.21,9.7,11.43,11.43,0,0,0,10.65,2.46,11.08,11.08,0,0,0,5-2.81,12.16,12.16,0,0,0,2.91-4.75,13,13,0,0,0,.59-5.37,11.56,11.56,0,0,0-.55-2.56,7.32,7.32,0,0,0-1.13-2.27,3.22,3.22,0,0,0-1.93-1.31,3,3,0,0,0-2.22.45,6.54,6.54,0,0,0-2.65,3.65,12,12,0,0,0,.57,8.22,11.34,11.34,0,0,0,4.5,5.17,12.39,12.39,0,0,0,4.95,1.72A14,14,0,0,0,306.64,133.15Z"/><path class="cls-7" d="M310.68,73.15a12.06,12.06,0,0,1-2.39-4.75,3.33,3.33,0,0,1-.07-1.74,1.35,1.35,0,0,1,1.29-1c.6.06,1,.62,1.33,1.13a25.22,25.22,0,0,1,2.47,4.68,3.47,3.47,0,0,1,.29,1.42,1.3,1.3,0,0,1-2.2,1,4.14,4.14,0,0,1-1-1.21"/><path class="cls-7" d="M313.25,72c-.88-1.85-1.77-3.69-2.65-5.54a4.22,4.22,0,0,1-.54-1.72,1.33,1.33,0,0,1,2.31-1.1,4.6,4.6,0,0,1,.89,1.31l1.24,2.42a7.87,7.87,0,0,1,.83,2.07,2.6,2.6,0,0,1-.42,2.12,1.61,1.61,0,0,1-2,.47"/><path class="cls-7" d="M301.5,89.17s-3.68-4.78-4-7.29,2.75-7,9.36-8a16.16,16.16,0,0,0,6.79-2.33,2.13,2.13,0,0,0,.78-2.58c-.87-2.11-2.43-6-2.32-6.54.31-1.35,1.19-1.33,3.48,2s4.92,6.74,4.41,8.28-8.56,6.3-8.56,6.3l2.2,3.56Z"/><path class="cls-6" d="M323.36,138.2,298,88.5l16.33-9.16,34.32,54.41s1.81,3.47,4.34,7.54H324.21"/><path class="cls-4" d="M314.06,79.34s-.09.08-.28.2l-.86.52L309.64,82l-11.8,6.73.09-.31c2.47,5,5.67,10.86,8.91,17.18,4.81,9.35,9,17.92,11.89,24.16,1.47,3.12,2.63,5.66,3.42,7.42.37.84.66,1.52.89,2a3.6,3.6,0,0,1,.27.72,4.77,4.77,0,0,1-.37-.68l-1-2-3.57-7.34c-3-6.19-7.22-14.73-12-24.08-3.23-6.31-6.41-12.15-8.84-17.21l-.1-.2.19-.1,11.89-6.56,3.35-1.8.89-.46A1.51,1.51,0,0,1,314.06,79.34Z"/><path class="cls-4" d="M246.8,142.62a21.78,21.78,0,0,1-2.72-5.62,21.67,21.67,0,0,1-1.51-6.06c.15,0,.84,2.66,2,5.88S246.94,142.55,246.8,142.62Z"/><path class="cls-4" d="M302.67,69.34a10,10,0,0,0,11.84-15.17c5.73-1.45,9.3-8.06,8.14-13.85S316.31,30,310.54,28.75a12.79,12.79,0,0,0-6.7.17,8.19,8.19,0,0,0-5,4.28"/><path class="cls-9" d="M301.87,56.38c0,.07-.75.2-2,.83a8.68,8.68,0,0,0-3.82,4.13,8.46,8.46,0,0,0,.64,8,7.64,7.64,0,0,0,1.6,1.82,7.79,7.79,0,0,0,2.14,1.33,8.35,8.35,0,0,0,9.68-2.21,8.47,8.47,0,0,0,2-4.46,8.49,8.49,0,0,0-2.92-7.54,8.68,8.68,0,0,0-5.24-2c-1.36,0-2.11.17-2.12.1a3.49,3.49,0,0,1,.54-.14,6.58,6.58,0,0,1,1.59-.17A8.77,8.77,0,0,1,312,61.29a8.91,8.91,0,0,1,.69,4.64A8.48,8.48,0,0,1,312,68.4a8.31,8.31,0,0,1-1.42,2.27A8.84,8.84,0,0,1,300.26,73,8.28,8.28,0,0,1,298,71.6a8.51,8.51,0,0,1-1.67-1.94,8.78,8.78,0,0,1-.58-8.48A8.63,8.63,0,0,1,299.82,57a7.55,7.55,0,0,1,1.5-.55A3.26,3.26,0,0,1,301.87,56.38Z"/><path class="cls-4" d="M306.2,40.63a10.14,10.14,0,0,0,9-7.39,10.11,10.11,0,0,0-4.35-10.78,12.55,12.55,0,0,0-4-13.71,12.54,12.54,0,0,0-14.26-.59,16.21,16.21,0,0,0-30,4.8,16.07,16.07,0,0,0-17.36,3.72,16.06,16.06,0,0,0-2.74,17.53,12.61,12.61,0,0,0-11,13.12,12.6,12.6,0,0,0,13.1,11.06,10.7,10.7,0,0,0,16.22,12A11.71,11.71,0,0,0,281.87,68"/><path class="cls-7" d="M294.17,87.54c.21-4.87.47-9.28.47-9.28S305.52,76.89,306,65.78s-.63-36.69-.63-36.69l-20-9.62L263.77,36.83l3.38,51a13.54,13.54,0,0,0,14.13,12.63h0A13.54,13.54,0,0,0,294.17,87.54Z"/><path class="cls-4" d="M304.82,48.12c-.17.18-1.21-.69-2.7-.75s-2.6.7-2.76.5.1-.43.59-.78a3.57,3.57,0,0,1,2.21-.64,3.6,3.6,0,0,1,2.15.83C304.76,47.68,304.91,48,304.82,48.12Z"/><path class="cls-4" d="M288.31,48.12c-.18.18-1.22-.69-2.71-.75s-2.6.7-2.76.5.11-.43.59-.78a3.57,3.57,0,0,1,2.21-.64,3.6,3.6,0,0,1,2.15.83C288.24,47.68,288.39,48,288.31,48.12Z"/><path class="cls-4" d="M293.9,59.32a9.14,9.14,0,0,1,2.44-.37c.38,0,.74-.09.81-.37a2.26,2.26,0,0,0-.24-1.22l-1.08-3.15c-1.49-4.48-2.57-8.17-2.4-8.23s1.52,3.53,3,8c.36,1.1.71,2.16,1,3.17a2.51,2.51,0,0,1,.18,1.6,1,1,0,0,1-.64.58,3.28,3.28,0,0,1-.65.07A9.43,9.43,0,0,1,293.9,59.32Z"/><path class="cls-8" d="M294.64,78.26a26.48,26.48,0,0,1-14.41-4.72s3.38,8.1,14.22,7.45Z"/><path class="cls-4" d="M279.18,20.09a14.67,14.67,0,0,0,.2,17c1.62,2.13,4.06,3.85,6.73,3.76s5.25-2.63,4.68-5.24a5.52,5.52,0,1,0,10.58.19,9.91,9.91,0,0,0,1.24,3.41,3.4,3.4,0,0,0,3.07,1.61c1.68-.22,2.65-2,3-3.66a15,15,0,0,0-4.28-13.85,18.26,18.26,0,0,0-13.88-4.87,23.25,23.25,0,0,0-13.63,6"/><path class="cls-4" d="M280.59,24a26,26,0,0,1,2.24,10,13.39,13.39,0,0,1-3.6,9.35,9.1,9.1,0,0,1-9.45,2.27,10.56,10.56,0,0,1-1.38,8.87c-1.87,2.47-5.52,3.65-8.24,2.16-2.45-1.34-3.51-4.32-3.85-7.09A22.73,22.73,0,0,1,281,24.17"/><path class="cls-7" d="M266.85,50.48c-1.48-.92-3.5-.16-4.68,1.12a6.38,6.38,0,0,0,6.35,10.48"/><path class="cls-8" d="M266.51,58.75c0,.07-.5.14-1.26-.08a3.33,3.33,0,0,1-2.29-2,2.47,2.47,0,0,1,.06-1.78,2.69,2.69,0,0,1,.93-1.09c.68-.45,1.21-.43,1.21-.38s-.44.21-1,.68a2.19,2.19,0,0,0-.71,2.4,3.3,3.3,0,0,0,1.91,1.86C266.05,58.6,266.52,58.67,266.51,58.75Z"/><path class="cls-4" d="M289.22,43.48c-.14.43-1.76.27-3.69.36s-3.55.34-3.72-.08,1.4-1.44,3.66-1.52S289.37,43.08,289.22,43.48Z"/><path class="cls-4" d="M304.79,43.17c-.17.15-.51,0-.9,0a3.56,3.56,0,0,0-1.35-.09,16.08,16.08,0,0,1-1.71.15c-.49,0-.83-.11-.89-.32s.15-.49.57-.76a4.23,4.23,0,0,1,1.88-.66,2.49,2.49,0,0,1,2.15.75C304.92,42.65,304.94,43,304.79,43.17Z"/><path class="cls-10" d="M291.32,62.17a3.29,3.29,0,0,1,2.8-.4,2.11,2.11,0,0,1,1.4,2.29,2.33,2.33,0,0,1-.9,1.28,3,3,0,0,1-2.32.57,2.29,2.29,0,0,1-1.72-1.58,1.86,1.86,0,0,1,.9-2.08"/><path class="cls-4" d="M296.77,63.35c0,.06-.35.31-1.07.47a4.83,4.83,0,0,1-5-2.08c-.4-.62-.49-1.07-.43-1.09s.29.35.73.86a5.38,5.38,0,0,0,4.64,1.93C296.32,63.39,296.74,63.27,296.77,63.35Z"/><path class="cls-9" d="M274.22,68.65a20.93,20.93,0,0,0-.37-2.09,8.59,8.59,0,0,0-3.17-4.65,8.32,8.32,0,0,0-3.57-1.56,8.47,8.47,0,0,0-4.42.39,7.74,7.74,0,0,0-2.13,1.15,8,8,0,0,0-1.78,1.79,8.39,8.39,0,0,0,0,9.94,8.46,8.46,0,0,0,3.91,2.94,8.42,8.42,0,0,0,8-1.17,8.63,8.63,0,0,0,3.17-4.65c.35-1.32.31-2.1.37-2.09a2,2,0,0,1,0,.55,7,7,0,0,1-.2,1.59,8.61,8.61,0,0,1-3.14,4.9,8.74,8.74,0,0,1-3.72,1.69,8.87,8.87,0,0,1-4.67-.36,8.35,8.35,0,0,1-2.26-1.2,8.51,8.51,0,0,1-1.9-1.89,8.88,8.88,0,0,1,0-10.56,8.92,8.92,0,0,1,4.16-3.09,8.77,8.77,0,0,1,4.67-.36,8.75,8.75,0,0,1,6.86,6.59,7,7,0,0,1,.2,1.58A2,2,0,0,1,274.22,68.65Z"/><path class="cls-5" d="M304.78,18.94s.1,0,.28.06a2.39,2.39,0,0,1,.69.45,3.26,3.26,0,0,1,.9,2.92,4.15,4.15,0,0,1-3.46,3.06,8.63,8.63,0,0,1-5.86-1.4l-2.07-1.19,2.27.75a2.46,2.46,0,0,1,1.53,1.75,3.2,3.2,0,0,1-.32,2.39,3.36,3.36,0,0,1-2,1.44,4.76,4.76,0,0,1-2.54-.05,8.75,8.75,0,0,1-4.35-3.76l-1.45-2.12L290.21,25a4,4,0,0,1,1,3.78A4.14,4.14,0,0,1,289,31.62a5.39,5.39,0,0,1-5.69-.7,6.78,6.78,0,0,1-2.15-3.21,6.59,6.59,0,0,1-.24-1c0-.23,0-.35,0-.36s.11.49.43,1.32a6.89,6.89,0,0,0,2.19,3,5,5,0,0,0,5.28.56,3.69,3.69,0,0,0,2-2.53,3.49,3.49,0,0,0-.87-3.29l.4-.34a8.2,8.2,0,0,0,4.07,3.54,3.5,3.5,0,0,0,4-1.14c.73-1.18.3-3-.92-3.41l.2-.44A8.38,8.38,0,0,0,303.11,25a3.84,3.84,0,0,0,3.24-2.72,3.08,3.08,0,0,0-.71-2.74A3.31,3.31,0,0,0,304.78,18.94Z"/><path class="cls-5" d="M278.14,36.8s0,.07-.13.19a3.9,3.9,0,0,1-.47.5,6.19,6.19,0,0,1-2.24,1.33,6.39,6.39,0,0,1-4,.07,6.73,6.73,0,0,1-4-3.44l.42-.05a6.47,6.47,0,1,1-10.88-5.69l.35.38A6.69,6.69,0,0,1,253,31.61,7.21,7.21,0,0,1,249,30.53a6,6,0,0,1-2.36-2.77,7,7,0,0,1-.5-3.1,6.86,6.86,0,0,1,1.65-4.06,4.23,4.23,0,0,1,1.22-1s-.45.34-1.09,1.12a6.94,6.94,0,0,0-1.45,4A6.62,6.62,0,0,0,247,27.6a5.5,5.5,0,0,0,2.24,2.56,6.82,6.82,0,0,0,3.7,1,6.18,6.18,0,0,0,3.88-1.43l.35.38a6.15,6.15,0,0,0-1.27,6.72,6.08,6.08,0,0,0,6.67,3.39,6.18,6.18,0,0,0,4.68-4.87l.12-.7.3.65a6.39,6.39,0,0,0,3.68,3.28,6.24,6.24,0,0,0,3.85,0,6.71,6.71,0,0,0,2.23-1.19C277.91,37,278.11,36.78,278.14,36.8Z"/><path class="cls-5" d="M258.3,54.59a2.67,2.67,0,0,1-.86.51,5.91,5.91,0,0,1-6.59-1.43,6.17,6.17,0,0,1-1.5-5.13l.46.21a10.31,10.31,0,0,1-3.76,3.06,8.08,8.08,0,0,1-3.64.78,7.44,7.44,0,0,1-3.35-.92,5.91,5.91,0,0,1-3.19-4.73,5.63,5.63,0,0,1,1-3.76,4.47,4.47,0,0,1,.75-.76,1.25,1.25,0,0,1,.31-.2s-.39.34-.89,1.08a5.56,5.56,0,0,0,2.22,7.94,7.25,7.25,0,0,0,6.54.09,9.87,9.87,0,0,0,3.57-2.9l.64-.83-.18,1a5.76,5.76,0,0,0,1.32,4.74,5.5,5.5,0,0,0,3.52,1.83,6,6,0,0,0,2.67-.27A9.65,9.65,0,0,1,258.3,54.59Z"/><path class="cls-5" d="M314.93,32.92a3.23,3.23,0,0,1,.22,1.85,6.62,6.62,0,0,1-5.84,6.11,3.25,3.25,0,0,1-1.86-.14c0-.08.72,0,1.8-.23a6.87,6.87,0,0,0,5.53-5.78C315,33.64,314.84,32.94,314.93,32.92Z"/><path class="cls-5" d="M321.05,43.39s.16.25.25.76a4.31,4.31,0,0,1-.2,2.19,3.4,3.4,0,0,1-2.43,2.23,3.45,3.45,0,0,1-2-.17,2.78,2.78,0,0,1-1.59-1.55l.5-.17a3.18,3.18,0,0,1,.12,1,4,4,0,0,1-2.5,3.57,3.4,3.4,0,0,1-2,.08,3.75,3.75,0,0,1-1.5-.83,3.54,3.54,0,0,1-1.21-2.1,1.63,1.63,0,0,1,0-.88c.05,0,0,.32.18.84a3.63,3.63,0,0,0,1.25,1.85,3.08,3.08,0,0,0,3.07.58,3.53,3.53,0,0,0,2.15-3.12,2.79,2.79,0,0,0-.1-.82l.5-.17a2.7,2.7,0,0,0,3,1.44,3.05,3.05,0,0,0,2.18-1.89,4.72,4.72,0,0,0,.35-2A4.81,4.81,0,0,1,321.05,43.39Z"/><path class="cls-4" d="M290.56,58.25c.06,0,.11.23,0,.57a2.32,2.32,0,0,1-.75,1.12,2.25,2.25,0,0,1-1.24.52c-.34,0-.55-.06-.55-.13s.77-.22,1.45-.8S290.41,58.23,290.56,58.25Z"/><path class="cls-10" d="M56.31,346.35c-2.5,3.57-7.35,2.39-9.6.21s-3.2-5.33-4.06-8.34c-2-6.87-4-14.08-2.51-21.08a11.73,11.73,0,0,1,2.7-5.73,6.12,6.12,0,0,1,5.8-1.93c2.44.65,4,3,5.06,5.32a50.34,50.34,0,0,1,5,21.57c0,3.47-.4,7.11-2.36,10"/><path class="cls-6" d="M56.31,346.35c-2.5,3.57-7.35,2.39-9.6.21s-3.2-5.33-4.06-8.34c-2-6.87-4-14.08-2.51-21.08a11.73,11.73,0,0,1,2.7-5.73,6.12,6.12,0,0,1,5.8-1.93c2.44.65,4,3,5.06,5.32a50.34,50.34,0,0,1,5,21.57c0,3.47-.4,7.11-2.36,10"/><path class="cls-9" d="M47,364.41c-4.09-2.11-8.89-2.38-13.43-1.63-2.43.4-5,1.13-6.63,3s-2,5.05-.07,6.62A6.4,6.4,0,0,0,31,373.42c3.54,0,7.48-.67,10.32,1.47C43,376.11,44,378.13,46,378.73a4.56,4.56,0,0,0,5-2.24,7.76,7.76,0,0,0,.57-5.76A8.8,8.8,0,0,0,47,364.41Z"/><path class="cls-6" d="M63.17,351.47c-2.71-3.22-3.23-7.91-2-11.94a23,23,0,0,1,7.07-10.26,38.16,38.16,0,0,1,12.66-7.47,13.63,13.63,0,0,1,5.7-1,6,6,0,0,1,4.78,2.89c1.33,2.55,0,5.63-1.33,8.14a97.37,97.37,0,0,1-8.32,12.67c-2.49,3.21-5.35,6.38-9.15,7.84s-7.74,1.28-9.76-1.36"/><path class="cls-4" d="M56.48,400.14a8,8,0,0,1-.23-1.62c-.11-1.18-.26-2.66-.43-4.42a61.32,61.32,0,0,0-1-6.49A50.15,50.15,0,0,0,52.47,380,28.08,28.08,0,0,0,48.56,373a14.59,14.59,0,0,0-4.94-4.11,13.77,13.77,0,0,0-4.16-1.29,7.43,7.43,0,0,1-1.61-.24,8.3,8.3,0,0,1,1.64,0,12.49,12.49,0,0,1,4.34,1.13A14.44,14.44,0,0,1,49,372.64a27.59,27.59,0,0,1,4.05,7.07,45.91,45.91,0,0,1,2.34,7.78,53.5,53.5,0,0,1,.86,6.56c.14,1.88.2,3.4.22,4.45A7.77,7.77,0,0,1,56.48,400.14Z"/><path class="cls-4" d="M56.17,396.74a4,4,0,0,1,0-.76c0-.56,0-1.27,0-2.15,0-1.86,0-4.56-.1-7.89-.16-6.67-.74-15.88-1.85-26s-2.59-19.23-3.94-25.76c-.32-1.64-.64-3.11-1-4.4s-.53-2.41-.77-3.31-.37-1.54-.5-2.09a3.17,3.17,0,0,1-.13-.74,3.1,3.1,0,0,1,.26.7l.62,2.06c.28.9.56,2,.89,3.29s.69,2.76,1,4.39a244.46,244.46,0,0,1,4.15,25.78C56,370,56.47,379.24,56.51,385.93c0,3.34,0,6-.11,7.91-.06.87-.1,1.59-.13,2.15A2.68,2.68,0,0,1,56.17,396.74Z"/><path class="cls-4" d="M56.13,378.93a13.24,13.24,0,0,1,0-2.24c.08-1.45.28-3.53.68-6.09a81.36,81.36,0,0,1,2-8.86,78.61,78.61,0,0,1,3.71-10.49A55.55,55.55,0,0,1,73.41,334.3,26.89,26.89,0,0,1,76,331.92c.39-.34.74-.67,1.09-.93l1-.68a17.43,17.43,0,0,1,1.89-1.22,70,70,0,0,0-6.19,5.53,58.86,58.86,0,0,0-10.62,16.89,86.16,86.16,0,0,0-3.73,10.4c-1,3.25-1.61,6.25-2.1,8.77s-.73,4.6-.89,6A14.37,14.37,0,0,1,56.13,378.93Z"/><path class="cls-9" d="M274.47,318.28a36.7,36.7,0,1,1,36.7-36.7A36.74,36.74,0,0,1,274.47,318.28Zm0-69.62a32.92,32.92,0,1,0,32.91,32.92A33,33,0,0,0,274.47,248.66Z"/><path class="cls-9" d="M271.8,292.89a1.89,1.89,0,0,1-1.25-.48c-3.21-2.82-8.7-7.72-9.4-8.77a1.9,1.9,0,0,1,3.13-2.14c.51.65,4,3.83,7.48,6.92l18.58-17.63a1.89,1.89,0,1,1,2.61,2.74l-19.84,18.84A1.94,1.94,0,0,1,271.8,292.89Z"/></g></g></svg>