<svg width="370" height="235" viewBox="0 0 370 235" fill="none" xmlns="http://www.w3.org/2000/svg">
<g clip-path="url(#clip0)">
<path d="M280.931 0.271667H79.4136V158.279H280.931V0.271667Z" fill="white" stroke="black" stroke-width="0.25" stroke-miterlimit="10"/>
<path d="M280.931 158.279C280.931 156.812 280.877 95.5757 280.768 0.271662L280.931 0.434668C223.486 0.434668 154.108 0.434668 79.4138 0.489003L79.6307 0.271662C79.6307 57.2694 79.6307 111.116 79.6307 158.279L79.4138 158.061C199.022 158.224 279.25 158.279 280.931 158.279C279.25 158.279 199.022 158.333 79.4138 158.496H79.1968V158.279C79.1968 111.116 79.1968 57.2694 79.1968 0.271662V0.0543213H79.4138C154.108 0.0543213 223.486 0.0543213 280.931 0.108657H281.094V0.271662C280.985 95.63 280.931 156.812 280.931 158.279Z" fill="white"/>
<path d="M280.931 158.279C280.931 156.812 280.877 95.5757 280.768 0.271662L280.931 0.434668C223.486 0.434668 154.108 0.434668 79.4138 0.489003L79.6307 0.271662C79.6307 57.2694 79.6307 111.116 79.6307 158.279L79.4138 158.061C199.022 158.224 279.25 158.279 280.931 158.279ZM280.931 158.279C279.25 158.279 199.022 158.333 79.4138 158.496H79.1968V158.279C79.1968 111.116 79.1968 57.2694 79.1968 0.271662V0.0543213H79.4138C154.108 0.0543213 223.486 0.0543213 280.931 0.108657H281.094V0.271662C280.985 95.63 280.931 156.812 280.931 158.279Z" stroke="black" stroke-width="0.25" stroke-miterlimit="10"/>
<path d="M280.66 12.7688C280.66 12.8775 235.637 12.9861 180.145 12.9861C124.653 12.9861 79.6304 12.8775 79.6304 12.7688C79.6304 12.6601 124.599 12.5515 180.145 12.5515C235.637 12.5515 280.66 12.6601 280.66 12.7688Z" fill="#263238"/>
<path d="M5.53271 221.525C5.53271 221.579 87.1161 221.688 187.739 221.688C288.416 221.688 369.946 221.634 369.946 221.525C369.946 221.416 288.362 221.362 187.739 221.362C87.1161 221.362 5.53271 221.416 5.53271 221.525Z" fill="#263238"/>
<path d="M226.958 195.335C225.602 197.074 223.161 196.313 222.13 195.118C221.045 193.923 220.666 192.347 220.34 190.771C219.581 187.239 218.767 183.545 219.744 180.067C220.015 179.035 220.503 178.002 221.262 177.242C222.076 176.481 223.215 176.101 224.246 176.427C225.439 176.807 226.144 178.111 226.633 179.252C228.043 182.729 228.694 186.533 228.477 190.282C228.314 192.13 228.043 193.977 226.958 195.335Z" fill="#E6525E"/>
<path d="M226.958 195.335C225.602 197.074 223.161 196.313 222.13 195.118C221.045 193.923 220.666 192.347 220.34 190.771C219.581 187.239 218.767 183.545 219.744 180.067C220.015 179.035 220.503 178.002 221.262 177.242C222.076 176.481 223.215 176.101 224.246 176.427C225.439 176.807 226.144 178.111 226.633 179.252C228.043 182.729 228.694 186.533 228.477 190.282C228.314 192.13 228.043 193.977 226.958 195.335Z" fill="#514F7E"/>
<path d="M221.642 204.192C219.635 202.997 217.248 202.725 214.916 202.942C213.668 203.051 212.366 203.377 211.498 204.246C210.631 205.116 210.359 206.746 211.227 207.561C211.77 208.05 212.583 208.213 213.289 208.213C215.079 208.321 217.086 208.104 218.442 209.299C219.201 209.951 219.689 211.038 220.666 211.364C221.588 211.744 222.727 211.201 223.269 210.386C223.812 209.571 223.92 208.484 223.758 207.506C223.758 207.506 223.649 205.387 221.642 204.192Z" fill="#2AB2DA"/>
<path d="M230.213 198.161C228.965 196.476 228.857 194.086 229.562 192.075C230.321 190.065 231.786 188.435 233.467 187.131C235.42 185.609 237.698 184.414 240.085 183.762C241.007 183.49 242.038 183.273 242.96 183.436C243.936 183.599 244.859 184.142 245.293 185.066C245.889 186.37 245.13 187.891 244.37 189.141C243.014 191.314 241.441 193.379 239.76 195.281C238.404 196.802 236.885 198.324 234.878 198.921C232.925 199.519 230.918 199.302 229.996 197.943" fill="#514F7E"/>
<path d="M225.331 222.503C225.331 222.503 225.276 222.231 225.276 221.688C225.276 221.09 225.222 220.329 225.222 219.46C225.168 218.536 225.114 217.395 224.951 216.146C224.788 214.896 224.463 213.592 224.029 212.179C223.595 210.821 222.998 209.571 222.293 208.539C221.588 207.506 220.72 206.746 219.906 206.311C219.093 205.822 218.387 205.605 217.845 205.55C217.302 205.442 217.031 205.387 217.031 205.387C217.031 205.387 217.302 205.387 217.845 205.442C218.387 205.496 219.147 205.713 220.015 206.148C220.883 206.583 221.751 207.343 222.51 208.43C223.269 209.462 223.866 210.766 224.354 212.125C224.788 213.538 225.114 214.896 225.276 216.146C225.439 217.395 225.493 218.536 225.493 219.514C225.493 220.492 225.493 221.253 225.439 221.742C225.385 222.231 225.331 222.503 225.331 222.503Z" fill="#263238"/>
<path d="M225.276 220.764C225.276 220.764 225.276 220.655 225.276 220.384C225.276 220.112 225.331 219.732 225.331 219.297C225.385 218.373 225.493 217.015 225.548 215.331C225.656 211.962 225.656 207.289 225.439 202.127C225.222 196.965 224.734 192.347 224.246 188.978C224.137 188.163 224.029 187.402 223.92 186.75C223.812 186.098 223.703 185.501 223.649 185.066C223.595 184.631 223.486 184.251 223.486 183.979C223.432 183.707 223.432 183.599 223.432 183.599C223.432 183.599 223.486 183.707 223.541 183.979C223.595 184.251 223.703 184.631 223.812 185.066C223.92 185.501 224.029 186.098 224.137 186.75C224.246 187.402 224.409 188.163 224.517 188.978C225.059 192.292 225.548 196.965 225.765 202.127C225.982 207.289 225.982 211.962 225.765 215.331C225.656 217.015 225.548 218.373 225.439 219.297C225.385 219.732 225.331 220.112 225.331 220.384C225.331 220.655 225.276 220.764 225.276 220.764Z" fill="#263238"/>
<path d="M225.819 211.799C225.819 211.799 225.819 211.418 225.873 210.658C225.982 209.951 226.144 208.865 226.416 207.615C226.687 206.365 227.121 204.844 227.717 203.214C228.26 201.584 229.019 199.791 229.941 198.052C231.731 194.466 234.01 191.586 235.963 189.847C236.396 189.358 236.939 189.032 237.319 188.706C237.536 188.543 237.698 188.38 237.915 188.272C238.078 188.163 238.295 188.054 238.458 187.946C239.109 187.565 239.434 187.348 239.434 187.402C239.488 187.457 238.024 188.217 236.125 190.01C234.227 191.803 232.003 194.629 230.213 198.215C229.29 199.954 228.585 201.747 227.989 203.323C227.392 204.953 226.958 206.42 226.633 207.669C226.307 208.919 226.144 209.951 225.982 210.658C225.927 211.418 225.819 211.799 225.819 211.799Z" fill="#263238"/>
<path d="M335.338 158.659C335.338 158.659 335.284 158.659 335.121 158.659C334.958 158.659 334.741 158.659 334.47 158.659C333.873 158.659 333.005 158.659 331.866 158.659C329.588 158.659 326.387 158.659 322.373 158.713C314.345 158.713 303.279 158.713 291.02 158.768C278.761 158.768 267.695 158.713 259.667 158.713C255.653 158.713 252.453 158.659 250.174 158.659C249.089 158.659 248.221 158.659 247.571 158.659C247.299 158.659 247.082 158.659 246.92 158.659C246.757 158.659 246.703 158.659 246.703 158.659C246.703 158.659 246.757 158.659 246.92 158.659C247.082 158.659 247.299 158.659 247.571 158.659C248.167 158.659 249.035 158.659 250.174 158.659C252.453 158.659 255.653 158.659 259.667 158.605C267.695 158.605 278.761 158.605 291.02 158.55C303.225 158.55 314.345 158.605 322.373 158.605C326.387 158.605 329.588 158.659 331.866 158.659C332.951 158.659 333.819 158.659 334.47 158.659C334.741 158.659 334.958 158.659 335.121 158.659C335.284 158.659 335.338 158.659 335.338 158.659Z" fill="#263238"/>
<path d="M265.309 95.9561L277.297 89.4902L289.122 87.8601L299.971 129.264L298.994 142.032L268.346 143.662L269.594 113.995L265.309 95.9561Z" fill="#C7E5F6"/>
<path d="M250.771 202.616L249.09 217.884L244.262 229.566C243.936 230.436 244.37 231.36 245.238 231.686C245.726 231.849 246.269 231.794 246.649 231.468C249.252 229.566 258.854 222.449 258.908 221.362C258.962 220.058 261.783 205.387 261.783 205.387L250.771 202.616Z" fill="#C7E5F6"/>
<g opacity="0.6">
<path opacity="0.6" d="M245.184 231.686L259.016 220.329L258.908 220.981C258.854 221.525 258.582 222.068 258.148 222.449C257.009 223.481 253.863 226.143 246.594 231.523C246.215 231.74 245.672 231.849 245.184 231.686Z" fill="white"/>
</g>
<g opacity="0.6">
<g opacity="0.6">
<path opacity="0.6" d="M256.575 214.95C256.141 215.168 255.979 215.711 256.141 216.146C256.358 216.58 256.901 216.798 257.335 216.58C257.769 216.363 258.04 215.711 257.769 215.331C257.552 214.95 256.847 214.733 256.467 215.005" fill="white"/>
</g>
</g>
<path d="M249.523 225.491C249.415 225.546 249.198 224.676 248.33 224.133C247.516 223.535 246.648 223.644 246.648 223.535C246.648 223.481 246.865 223.427 247.191 223.427C247.571 223.427 248.059 223.535 248.547 223.861C249.035 224.187 249.306 224.622 249.469 224.948C249.578 225.22 249.578 225.491 249.523 225.491Z" fill="#263238"/>
<path d="M248.167 227.393C248.113 227.447 247.679 226.904 246.92 226.578C246.16 226.252 245.455 226.306 245.455 226.198C245.401 226.089 246.215 225.872 247.028 226.306C247.95 226.632 248.276 227.339 248.167 227.393Z" fill="#263238"/>
<path d="M251.91 223.155C251.856 223.209 251.205 222.34 250.066 221.742C248.927 221.09 247.896 221.036 247.896 220.927C247.896 220.818 249.035 220.764 250.228 221.471C251.422 222.068 251.964 223.101 251.91 223.155Z" fill="#263238"/>
<path d="M252.833 218.536C252.778 218.645 251.965 218.156 250.88 217.993C249.795 217.776 248.873 217.939 248.873 217.83C248.819 217.776 249.795 217.45 250.934 217.613C252.127 217.83 252.887 218.482 252.833 218.536Z" fill="#263238"/>
<path d="M253.429 214.081C253.375 214.19 252.616 213.538 251.422 213.429C250.283 213.32 249.361 213.755 249.361 213.646C249.361 213.592 249.524 213.429 249.903 213.266C250.283 213.103 250.825 212.994 251.476 213.049C252.127 213.103 252.616 213.32 252.995 213.592C253.321 213.864 253.429 214.027 253.429 214.081Z" fill="#263238"/>
<path d="M251.585 212.56C251.585 212.56 251.585 212.342 251.639 211.962C251.748 211.581 251.91 211.092 252.29 210.495C252.507 210.223 252.724 209.897 253.158 209.734C253.375 209.68 253.7 209.734 253.863 209.951C254.026 210.169 254.026 210.44 254.026 210.658C253.863 211.636 252.941 212.451 251.802 212.451C250.717 212.396 249.795 211.69 249.469 210.766C249.415 210.549 249.361 210.277 249.524 210.006C249.686 209.788 250.012 209.68 250.229 209.788C250.663 209.897 250.934 210.223 251.151 210.44C251.639 210.929 251.856 211.418 252.019 211.744C252.182 212.07 252.182 212.288 252.182 212.288C252.127 212.342 251.91 211.473 250.988 210.549C250.771 210.332 250.5 210.06 250.174 210.006C250.012 209.951 249.849 210.006 249.795 210.114C249.741 210.223 249.741 210.44 249.795 210.603C250.066 211.31 250.88 212.016 251.856 212.016C252.778 212.016 253.646 211.31 253.755 210.549C253.809 210.386 253.755 210.169 253.646 210.06C253.538 209.951 253.429 209.897 253.266 209.951C252.941 210.006 252.724 210.332 252.507 210.549C251.693 211.744 251.639 212.614 251.585 212.56Z" fill="#263238"/>
<path d="M320.692 203.16L320.204 214.896C320.204 214.896 331.921 219.351 332.029 221.525L309.301 221.362V203.051L320.692 203.16Z" fill="#C7E5F6"/>
<path d="M313.206 213.864C312.772 213.972 312.447 214.461 312.555 214.896C312.664 215.331 313.152 215.657 313.586 215.548C314.02 215.439 314.4 214.842 314.291 214.407C314.128 213.972 313.532 213.646 313.152 213.864" fill="#E0E0E0"/>
<g opacity="0.6">
<path opacity="0.6" d="M309.355 221.362L309.409 219.514L331.161 220.329C331.161 220.329 332.192 220.764 332.029 221.471L309.355 221.362Z" fill="white"/>
</g>
<path d="M320.584 214.787C320.584 214.896 320.041 214.95 319.499 215.276C318.956 215.602 318.631 216.091 318.577 216.037C318.468 216.037 318.631 215.331 319.336 214.95C319.933 214.57 320.584 214.679 320.584 214.787Z" fill="#263238"/>
<path d="M322.97 215.765C322.97 215.874 322.536 216.037 322.156 216.526C321.777 216.961 321.668 217.504 321.56 217.504C321.451 217.504 321.397 216.852 321.885 216.309C322.319 215.711 322.97 215.657 322.97 215.765Z" fill="#263238"/>
<path d="M324.272 218.645C324.164 218.645 324.001 218.102 324.327 217.504C324.598 216.906 325.14 216.635 325.194 216.743C325.249 216.852 324.923 217.178 324.706 217.667C324.435 218.156 324.381 218.645 324.272 218.645Z" fill="#263238"/>
<path d="M320.366 212.125C320.312 212.234 319.824 212.071 319.173 212.125C318.522 212.125 318.034 212.342 317.98 212.288C317.925 212.234 318.414 211.799 319.119 211.745C319.932 211.636 320.421 212.016 320.366 212.125Z" fill="#263238"/>
<path d="M320.421 209.734C320.421 209.788 319.987 209.843 319.282 209.734C318.956 209.68 318.522 209.571 318.088 209.354C317.871 209.245 317.654 209.136 317.437 209.028C317.329 208.973 317.22 208.865 317.112 208.756C317.003 208.647 316.895 208.321 317.058 208.158C317.166 207.995 317.383 207.887 317.546 207.887C317.709 207.887 317.871 207.941 317.98 207.941C318.251 207.995 318.468 208.104 318.685 208.213C319.119 208.43 319.444 208.647 319.716 208.919C320.258 209.408 320.421 209.843 320.366 209.843C320.312 209.897 320.041 209.517 319.553 209.136C319.282 208.919 318.956 208.702 318.522 208.539C318.305 208.43 318.088 208.376 317.871 208.321C317.654 208.267 317.437 208.267 317.383 208.376C317.383 208.43 317.383 208.43 317.383 208.484C317.437 208.539 317.546 208.593 317.654 208.702C317.871 208.81 318.034 208.973 318.251 209.028C318.631 209.245 319.01 209.354 319.336 209.462C320.041 209.625 320.421 209.68 320.421 209.734Z" fill="#263238"/>
<path d="M320.312 209.897C320.258 209.897 320.041 209.517 320.041 208.81C320.041 208.43 320.041 207.995 320.204 207.561C320.258 207.343 320.366 207.126 320.475 206.854C320.583 206.637 320.8 206.311 321.18 206.257C321.397 206.257 321.614 206.42 321.668 206.583C321.723 206.746 321.777 206.854 321.777 207.017C321.831 207.289 321.831 207.561 321.777 207.778C321.723 208.267 321.506 208.647 321.289 208.973C320.855 209.571 320.366 209.68 320.366 209.68C320.312 209.625 320.692 209.408 321.072 208.865C321.234 208.593 321.397 208.213 321.451 207.778C321.451 207.561 321.451 207.343 321.451 207.126C321.397 206.909 321.343 206.691 321.234 206.691C321.126 206.691 320.909 206.854 320.855 207.072C320.746 207.289 320.638 207.506 320.583 207.669C320.421 208.104 320.366 208.484 320.366 208.81C320.258 209.462 320.366 209.897 320.312 209.897Z" fill="#263238"/>
<path d="M247.191 208.539L250.283 158.496C250.825 150.835 252.073 147.357 258.257 144.314L260.86 142.467L288.2 139.913L289.881 158.224L268.509 163.006L262.922 210.929L247.191 208.539Z" fill="#263238"/>
<path d="M289.881 158.333L303.496 163.984L306.425 207.561L324.109 205.387L323.024 158.279C322.97 154.747 321.397 151.432 318.685 149.15L306.317 138.555L288.145 140.022L286.843 159.039L289.881 158.333Z" fill="#263238"/>
<path d="M269.106 156.92C269.16 156.92 268.997 159.202 268.726 162.028C268.455 164.853 268.129 167.081 268.075 167.081C268.021 167.081 268.183 164.799 268.455 161.973C268.726 159.202 269.051 156.92 269.106 156.92Z" fill="#465A63"/>
<path d="M266.502 149.096C266.502 149.096 266.448 149.15 266.339 149.205C266.231 149.259 266.068 149.368 265.905 149.476C265.471 149.694 264.929 150.02 264.169 150.454C262.651 151.324 260.481 152.519 257.823 153.986L257.877 153.877C257.606 159.691 257.172 167.57 256.738 176.318C256.25 185.283 255.816 193.379 255.436 199.193C255.219 202.127 255.056 204.464 254.948 206.148C254.894 206.963 254.839 207.561 254.785 208.05C254.785 208.267 254.731 208.43 254.731 208.539C254.731 208.647 254.731 208.702 254.731 208.702C254.731 208.702 254.731 208.647 254.731 208.539C254.731 208.43 254.731 208.267 254.731 208.05C254.731 207.615 254.785 206.963 254.839 206.148C254.948 204.464 255.056 202.127 255.219 199.193C255.545 193.325 255.979 185.229 256.467 176.318C256.901 167.57 257.335 159.691 257.714 153.877V153.823H257.769C260.481 152.356 262.651 151.215 264.169 150.346C264.929 149.965 265.526 149.639 265.905 149.422C266.122 149.313 266.231 149.259 266.339 149.205C266.448 149.096 266.502 149.096 266.502 149.096Z" fill="#465A63"/>
<path d="M302.9 154.91C302.954 154.91 303.225 156.975 303.388 159.528C303.605 162.082 303.714 164.147 303.605 164.201C303.551 164.201 303.28 162.136 303.117 159.583C302.9 156.975 302.846 154.91 302.9 154.91Z" fill="#465A63"/>
<path d="M303.551 163.984C303.497 163.984 302.954 162.843 302.466 161.376C301.923 159.909 301.544 158.713 301.598 158.659C301.652 158.659 302.195 159.8 302.683 161.267C303.225 162.734 303.605 163.929 303.551 163.984Z" fill="#465A63"/>
<path d="M302.574 146.596C302.574 146.596 302.683 146.651 302.845 146.76C303.008 146.868 303.225 147.031 303.551 147.194C304.147 147.575 305.069 148.118 306.154 148.824C308.433 150.291 311.633 152.356 315.484 154.801L315.539 154.855V154.91C315.701 160.072 315.864 166.266 316.027 172.949C316.244 182.132 316.461 190.499 316.569 196.531C316.623 199.519 316.623 201.964 316.678 203.703C316.678 204.518 316.678 205.17 316.678 205.659C316.678 205.876 316.678 206.039 316.678 206.148C316.678 206.257 316.678 206.311 316.678 206.311C316.678 206.311 316.678 206.257 316.678 206.148C316.678 206.039 316.678 205.876 316.678 205.659C316.678 205.17 316.623 204.572 316.623 203.703C316.569 202.018 316.515 199.573 316.406 196.585C316.244 190.554 316.027 182.186 315.81 173.003C315.647 166.32 315.484 160.126 315.376 154.964L315.43 155.073C311.579 152.573 308.378 150.454 306.154 148.987C305.069 148.281 304.202 147.683 303.551 147.303C303.279 147.086 303.062 146.977 302.9 146.868C302.628 146.651 302.574 146.596 302.574 146.596Z" fill="#465A63"/>
<path d="M288.2 156.323C288.254 156.323 288.634 156.757 289.122 157.355C289.61 157.953 289.935 158.442 289.881 158.496C289.827 158.55 289.393 158.116 288.905 157.518C288.417 156.92 288.091 156.323 288.2 156.323Z" fill="#465A63"/>
<path d="M288.199 156.323C288.145 156.323 287.928 154.584 287.82 152.465C287.711 150.291 287.657 148.553 287.711 148.553C287.765 148.553 287.982 150.291 288.091 152.41C288.199 154.529 288.254 156.268 288.199 156.323Z" fill="#465A63"/>
<path d="M269.648 160.615C269.648 160.669 269.485 160.778 269.268 160.832C269.051 160.887 268.834 160.887 268.834 160.778C268.834 160.724 268.997 160.615 269.214 160.561C269.431 160.506 269.648 160.561 269.648 160.615Z" fill="#465A63"/>
<path d="M272.794 159.854C272.794 159.909 272.469 160.072 272.035 160.18C271.601 160.289 271.221 160.289 271.221 160.235C271.221 160.18 271.547 160.017 271.981 159.909C272.415 159.8 272.794 159.8 272.794 159.854Z" fill="#465A63"/>
<path d="M275.995 159.094C275.995 159.148 275.669 159.311 275.236 159.42C274.802 159.528 274.422 159.528 274.422 159.474C274.422 159.42 274.747 159.257 275.181 159.148C275.615 159.039 275.941 158.985 275.995 159.094Z" fill="#465A63"/>
<path d="M279.141 158.279C279.141 158.333 278.815 158.496 278.382 158.605C277.948 158.713 277.568 158.713 277.568 158.659C277.568 158.605 277.893 158.442 278.327 158.333C278.761 158.279 279.141 158.224 279.141 158.279Z" fill="#465A63"/>
<path d="M282.287 157.518C282.287 157.572 281.962 157.735 281.528 157.844C281.094 157.953 280.714 157.953 280.714 157.898C280.714 157.844 281.039 157.681 281.473 157.572C281.907 157.464 282.287 157.464 282.287 157.518Z" fill="#465A63"/>
<path d="M285.488 156.757C285.488 156.812 285.162 156.975 284.728 157.083C284.294 157.192 283.915 157.192 283.915 157.138C283.915 157.083 284.24 156.92 284.674 156.812C285.108 156.703 285.488 156.703 285.488 156.757Z" fill="#465A63"/>
<path d="M287.874 156.159C287.874 156.214 287.711 156.322 287.494 156.377C287.278 156.431 287.061 156.431 287.061 156.323C287.061 156.214 287.223 156.159 287.44 156.105C287.657 156.105 287.82 156.105 287.874 156.159Z" fill="#465A63"/>
<path d="M289.176 156.377C289.176 156.431 288.959 156.486 288.742 156.431C288.525 156.377 288.362 156.268 288.362 156.214C288.362 156.16 288.579 156.105 288.796 156.16C289.013 156.214 289.176 156.323 289.176 156.377Z" fill="#465A63"/>
<path d="M292.159 157.301C292.159 157.355 291.78 157.355 291.346 157.192C290.912 157.083 290.641 156.92 290.641 156.812C290.641 156.757 291.02 156.757 291.454 156.92C291.888 157.029 292.159 157.192 292.159 157.301Z" fill="#465A63"/>
<path d="M295.089 158.387C295.034 158.442 294.709 158.387 294.329 158.224C293.949 158.061 293.624 157.898 293.624 157.79C293.624 157.735 294.004 157.79 294.383 157.953C294.817 158.116 295.143 158.279 295.089 158.387Z" fill="#465A63"/>
<path d="M298.018 159.637C297.964 159.691 297.638 159.637 297.258 159.42C296.879 159.257 296.553 159.039 296.607 158.985C296.662 158.931 296.987 158.985 297.367 159.202C297.747 159.365 298.018 159.528 298.018 159.637Z" fill="#465A63"/>
<path d="M300.784 161.05C300.73 161.104 300.405 160.995 300.025 160.832C299.645 160.615 299.374 160.398 299.374 160.343C299.428 160.289 299.754 160.398 300.133 160.561C300.567 160.724 300.839 160.941 300.784 161.05Z" fill="#465A63"/>
<path d="M302.845 162.191C302.791 162.245 302.628 162.245 302.412 162.082C302.195 161.973 302.086 161.81 302.14 161.756C302.195 161.702 302.357 161.702 302.574 161.865C302.791 161.973 302.9 162.136 302.845 162.191Z" fill="#465A63"/>
<path d="M287.115 92.5873C287.115 92.5873 283.372 109.92 286.247 117.147C289.122 124.373 300.242 139.044 300.242 139.044L308.704 138.555C308.704 138.555 305.667 93.7283 304.907 92.8589C304.202 91.9352 287.712 87.2081 287.712 87.2081L287.115 92.5873Z" fill="#514F7E"/>
<path d="M298.235 148.444C298.235 148.444 317.925 141.326 319.553 137.305C323.404 127.634 309.409 94.7063 304.961 92.8046C300.513 90.9029 297.909 101.335 298.669 104.324C301.489 115.843 307.076 127.742 307.076 127.742L293.787 136.382L298.235 148.444Z" fill="#514F7E"/>
<path d="M275.995 104.867C275.127 101.39 273.716 91.3919 273.716 91.3919L263.627 96.6624C261.837 98.0208 257.714 102.694 257.714 108.018C257.714 117.636 259.07 139.533 260.861 142.521C263.03 146.162 272.198 151.758 272.198 151.758L278.653 141.761L275.995 139.696C277.568 136.544 281.094 129.427 281.528 127.09C282.124 123.993 276.7 107.747 275.995 104.867Z" fill="#514F7E"/>
<path d="M298.506 107.149C298.506 107.149 298.56 107.258 298.669 107.475C298.777 107.747 298.94 108.073 299.103 108.507C299.482 109.431 300.025 110.735 300.676 112.311C301.978 115.571 303.768 120.027 305.72 124.917C306.209 126.166 306.697 127.362 307.131 128.557L307.185 128.666L307.077 128.72C303.279 130.894 300.025 132.795 297.584 134.208C296.39 134.86 295.468 135.403 294.763 135.784C294.438 135.947 294.221 136.11 294.004 136.218C293.841 136.327 293.732 136.381 293.732 136.327C293.732 136.327 293.787 136.273 294.004 136.164C294.166 136.055 294.438 135.892 294.763 135.729C295.414 135.349 296.39 134.751 297.53 134.045C299.916 132.632 303.225 130.676 306.968 128.503L306.914 128.666C306.426 127.525 305.992 126.275 305.503 125.025C303.551 120.081 301.815 115.625 300.513 112.365C299.916 110.79 299.374 109.431 299.048 108.507C298.886 108.073 298.777 107.747 298.669 107.475C298.506 107.312 298.506 107.149 298.506 107.149Z" fill="#263238"/>
<path d="M312.556 131.926C312.501 131.926 312.284 131.654 311.85 131.165C311.416 130.676 310.874 130.024 310.115 129.427C309.355 128.883 308.487 128.612 307.89 128.612C307.294 128.557 306.914 128.72 306.86 128.666C306.86 128.666 307.185 128.449 307.89 128.394C308.541 128.34 309.464 128.612 310.277 129.209C311.091 129.807 311.633 130.513 312.013 131.057C312.393 131.546 312.61 131.926 312.556 131.926Z" fill="#263238"/>
<path d="M304.364 92.6416C304.364 92.6959 303.659 92.8589 302.737 93.511C301.815 94.1087 300.73 95.304 299.916 96.8254C299.103 98.3468 298.723 99.8682 298.397 100.955C298.126 102.042 297.909 102.748 297.909 102.748C297.909 102.748 297.909 102.585 297.963 102.259C298.018 101.933 298.126 101.498 298.235 100.955C298.506 99.8682 298.886 98.2925 299.699 96.7167C300.513 95.141 301.706 94 302.683 93.4023C303.171 93.0763 303.605 92.9133 303.93 92.8046C304.147 92.6416 304.364 92.6416 304.364 92.6416Z" fill="#263238"/>
<path d="M271.221 133.882C271.221 133.882 271.167 133.828 271.113 133.665C271.058 133.447 270.95 133.23 270.896 132.958C270.679 132.306 270.407 131.437 270.082 130.35C269.431 128.177 268.509 125.134 267.533 121.765C266.556 118.397 265.688 115.354 265.092 113.18C264.82 112.094 264.549 111.224 264.386 110.572C264.332 110.301 264.278 110.029 264.224 109.866C264.169 109.703 264.169 109.594 264.169 109.594C264.169 109.594 264.224 109.649 264.278 109.812C264.332 110.029 264.441 110.246 264.495 110.518C264.712 111.17 264.983 112.039 265.309 113.126C265.959 115.299 266.882 118.342 267.858 121.711C268.834 125.08 269.702 128.123 270.299 130.296C270.57 131.383 270.841 132.252 271.004 132.904C271.058 133.176 271.113 133.447 271.167 133.61C271.221 133.773 271.221 133.882 271.221 133.882Z" fill="#263238"/>
<path d="M271.275 92.6959C271.275 92.6959 271.33 92.8046 271.33 93.0763C271.384 93.3479 271.384 93.7283 271.438 94.2173C271.547 95.2497 271.655 96.6624 271.872 98.3468C272.198 101.879 272.631 106.714 273.174 112.039C273.282 112.963 273.391 113.887 273.445 114.81L273.391 114.702C274.476 115.299 275.506 115.897 276.483 116.495L276.646 116.603L276.537 116.712C275.886 117.364 275.289 117.962 274.747 118.505V118.342C275.072 119.049 275.398 119.755 275.778 120.353C276.157 120.95 276.537 121.494 276.917 122.037C277.676 123.069 278.436 123.884 279.087 124.536C279.683 125.188 280.226 125.732 280.551 126.112C280.714 126.275 280.822 126.438 280.931 126.547C281.039 126.655 281.039 126.71 281.039 126.71C281.039 126.71 280.985 126.655 280.877 126.601C280.768 126.492 280.605 126.384 280.443 126.221C280.063 125.895 279.575 125.351 278.924 124.699C278.273 124.047 277.513 123.232 276.7 122.2C276.32 121.711 275.886 121.168 275.506 120.516C275.127 119.918 274.801 119.212 274.476 118.505L274.422 118.451L274.476 118.396C275.072 117.799 275.669 117.201 276.266 116.549L276.32 116.766C275.344 116.223 274.313 115.625 273.228 115.028L273.174 114.973V114.919C273.065 113.995 272.957 113.072 272.903 112.148C272.415 106.823 271.981 101.933 271.709 98.4555C271.601 96.7167 271.438 95.304 271.384 94.326C271.33 93.837 271.33 93.4566 271.33 93.1849C271.275 92.8046 271.275 92.6959 271.275 92.6959Z" fill="#263238"/>
<path d="M280.931 139.75L275.941 133.176L264.115 134.969L263.898 135.729L276.375 150.889L287.061 148.824L280.931 139.75Z" fill="#E0E0E0"/>
<path d="M280.66 140.565L275.669 133.936L263.898 135.729L276.103 151.65L286.41 149.531L287.061 148.824L280.66 140.565Z" fill="#E0E0E0"/>
<path d="M270.842 137.849C271.113 138.012 271.493 137.903 271.655 137.631C271.818 137.36 271.71 136.979 271.438 136.816C271.167 136.653 270.787 136.762 270.625 137.033C270.408 137.305 270.516 137.686 270.842 137.849Z" fill="#EBEBEB"/>
<path d="M294.384 138.012L289.936 139.261C288.471 137.903 286.464 137.305 284.511 137.577L282.884 137.794L281.962 139.207C281.962 139.207 274.042 140.728 273.879 141.761L273.934 142.087V142.25L280.823 141.706C280.823 141.706 275.018 142.576 274.639 142.63C274.259 142.684 273.011 142.793 273.12 143.445C273.228 143.988 273.934 144.369 274.964 144.369C275.398 144.369 280.497 144.043 280.497 144.043C280.497 144.043 275.181 144.803 274.964 144.803C274.368 144.912 274.585 145.89 274.964 145.944C275.29 145.999 282.667 147.031 282.667 147.031C282.667 147.031 281.582 148.009 280.606 148.064C279.629 148.118 277.785 147.14 277.514 147.792C277.243 148.444 277.351 148.77 277.622 148.879C277.839 148.987 280.334 149.802 281.148 149.911C281.962 150.02 289.502 148.009 289.502 148.009L297.53 146.597L294.384 138.012Z" fill="#FEBEA0"/>
<path d="M265.851 138.283C265.851 138.283 264.766 138.881 265.634 140.402C266.882 142.576 268.726 143.988 268.726 143.988C268.726 143.988 268.617 144.858 269.431 145.347C269.431 145.347 268.563 145.673 269.377 147.086C269.377 147.086 268.997 148.716 270.733 149.096C270.733 149.096 270.462 150.4 272.143 150.78C273.825 151.161 275.181 149.857 275.181 149.857L265.851 138.283Z" fill="#FEBEA0"/>
<path d="M269.323 143.771C270.516 143.88 271.764 143.988 272.849 144.206C273.228 144.26 273.554 144.26 273.825 144.477C274.096 144.749 274.205 145.184 273.988 145.456C273.771 145.727 273.445 145.782 273.12 145.782C271.926 145.836 270.679 145.564 269.485 145.347" fill="#FEBEA0"/>
<path d="M270.028 145.564C271.221 145.673 272.469 145.781 273.554 145.999C273.933 146.053 274.259 146.053 274.53 146.271C274.801 146.542 274.91 146.977 274.693 147.249C274.476 147.52 274.15 147.575 273.825 147.575C272.632 147.629 271.384 147.357 270.191 147.14" fill="#FEBEA0"/>
<path d="M271.004 147.412C272.198 147.52 273.445 147.629 274.53 147.846C274.91 147.901 275.235 147.901 275.507 148.118C275.778 148.39 275.886 148.824 275.669 149.096C275.452 149.368 275.127 149.422 274.801 149.422C273.608 149.476 272.36 149.205 271.167 148.987" fill="#FEBEA0"/>
<path d="M269.54 145.401C269.54 145.347 270.407 145.51 271.438 145.618C272.469 145.727 273.337 145.781 273.337 145.836C273.337 145.89 272.469 145.89 271.438 145.781C270.353 145.673 269.54 145.455 269.54 145.401Z" fill="#A96552"/>
<path d="M269.594 147.086C269.594 147.031 270.57 147.194 271.709 147.357C272.903 147.52 273.825 147.629 273.825 147.683C273.825 147.738 272.848 147.683 271.655 147.52C270.516 147.357 269.594 147.14 269.594 147.086Z" fill="#A96552"/>
<path d="M270.679 149.096C270.679 149.042 271.547 149.096 272.686 149.205C273.771 149.313 274.639 149.422 274.639 149.476C274.639 149.531 273.771 149.476 272.632 149.368C271.547 149.259 270.625 149.15 270.679 149.096Z" fill="#A96552"/>
<path d="M268.346 143.662C268.346 143.608 269.377 143.825 270.679 143.934C271.981 144.097 273.065 144.097 273.065 144.151C273.065 144.151 272.794 144.206 272.36 144.206C271.926 144.206 271.33 144.206 270.679 144.097C270.028 144.043 269.431 143.934 268.997 143.825C268.617 143.771 268.346 143.717 268.346 143.662Z" fill="#B68878"/>
<path d="M279.25 139.696C279.25 139.642 280.497 139.424 282.016 139.153C283.589 138.935 284.837 138.772 284.837 138.827C284.837 138.881 283.589 139.098 282.07 139.37C280.551 139.642 279.25 139.75 279.25 139.696Z" fill="#A96552"/>
<path d="M279.684 139.316C279.684 139.316 279.575 139.207 279.358 138.935C279.141 138.664 278.87 138.283 278.544 137.849C277.839 136.87 276.863 135.566 275.724 134.045H275.778C274.91 134.154 274.042 134.317 273.066 134.425C270.516 134.806 268.238 135.132 266.556 135.349C265.743 135.458 265.092 135.566 264.549 135.621C264.332 135.621 264.17 135.675 264.007 135.675C263.898 135.675 263.844 135.675 263.844 135.675C263.844 135.675 263.898 135.675 264.007 135.621C264.17 135.621 264.332 135.566 264.549 135.512C265.092 135.403 265.743 135.349 266.502 135.186C268.238 134.914 270.516 134.588 273.012 134.208C273.934 134.045 274.856 133.936 275.724 133.828H275.778C276.863 135.349 277.839 136.653 278.544 137.686C278.87 138.12 279.141 138.501 279.358 138.827C279.629 139.153 279.684 139.316 279.684 139.316Z" fill="#263238"/>
<g opacity="0.3">
<g opacity="0.3">
<path opacity="0.3" d="M296.879 134.425C297.15 133.121 298.018 132.361 299.266 131.817C300.513 131.274 301.869 130.839 302.575 129.698C303.497 128.286 302.954 126.438 302.575 124.808C301.761 121.602 299.754 113.615 299.971 110.355L307.023 128.666L296.879 134.425Z" fill="black"/>
</g>
</g>
<g opacity="0.3">
<g opacity="0.3">
<path opacity="0.3" d="M294.329 130.839C294.763 130.35 294.98 129.644 294.926 128.992C294.926 128.34 294.709 127.688 294.546 127.036C293.95 124.591 293.787 122.091 293.57 119.592C293.353 117.582 293.136 115.897 293.136 116.006C293.136 116.006 291.509 115.136 290.532 114.647C291.075 114.484 291.942 113.561 291.942 113.561C291.942 113.561 291.4 111.768 291.292 111.279C291.292 111.279 290.098 105.302 289.773 103.4L289.935 111.822L287.711 115.299L291.292 116.549L293.624 129.807L294.329 130.839Z" fill="black"/>
</g>
</g>
<path d="M293.787 129.97C293.787 129.97 293.733 129.916 293.678 129.753C293.624 129.59 293.516 129.372 293.461 129.046C293.244 128.394 293.027 127.471 292.865 126.275C292.702 125.08 292.593 123.613 292.376 121.928C292.268 121.113 292.105 120.244 291.888 119.32C291.78 118.886 291.617 118.397 291.454 117.962C291.292 117.473 291.129 117.038 291.02 116.549L291.075 116.603C290.912 116.495 290.586 116.332 290.369 116.277C290.098 116.169 289.827 116.06 289.556 116.006C289.013 115.843 288.417 115.68 287.82 115.517L287.657 115.462L287.766 115.299C288.471 114.158 289.23 113.017 289.99 111.822V111.876C289.99 111.442 290.044 110.953 290.098 110.409C290.207 107.258 289.936 104.269 289.773 101.498C289.61 98.7815 289.556 96.2821 289.719 94.2173C289.881 92.1526 290.207 90.4682 290.586 89.3815C290.641 89.1098 290.749 88.8381 290.858 88.6751C290.966 88.4578 291.02 88.2948 291.075 88.1318C291.183 87.8601 291.237 87.6971 291.292 87.6971C291.292 87.6971 291.237 87.8601 291.129 88.1318C291.075 88.2948 291.02 88.4578 290.912 88.6751C290.803 88.8925 290.749 89.1098 290.695 89.3815C290.369 90.4682 290.044 92.1526 289.881 94.2173C289.773 96.2821 289.827 98.7271 289.99 101.498C290.152 104.215 290.424 107.258 290.369 110.409C290.315 110.898 290.315 111.387 290.261 111.876V111.931V111.985C289.502 113.18 288.742 114.376 288.037 115.462L287.983 115.245C288.579 115.408 289.176 115.571 289.719 115.788C289.99 115.897 290.261 115.951 290.532 116.06C290.803 116.169 291.075 116.277 291.346 116.495V116.549C291.509 117.038 291.617 117.527 291.78 117.962C291.943 118.451 292.051 118.886 292.16 119.32C292.376 120.244 292.539 121.113 292.648 121.928C292.865 123.613 292.919 125.08 293.082 126.275C293.244 127.471 293.461 128.394 293.624 129.046C293.678 129.372 293.787 129.59 293.841 129.753C293.787 129.916 293.787 129.97 293.787 129.97Z" fill="#263238"/>
<path d="M289.393 126.492C289.393 126.492 289.448 126.71 289.448 127.036C289.448 127.416 289.448 127.905 289.339 128.557C289.122 129.807 288.471 131.6 287.169 133.121C285.867 134.643 284.186 135.458 282.938 135.838C282.342 136.001 281.799 136.11 281.419 136.164C281.04 136.219 280.877 136.219 280.877 136.164C280.877 136.11 281.691 136.056 282.884 135.621C284.077 135.186 285.65 134.371 286.952 132.904C288.254 131.437 288.905 129.753 289.122 128.503C289.393 127.308 289.339 126.492 289.393 126.492Z" fill="#263238"/>
<path d="M28.9663 127.416L43.124 175.34C43.775 177.459 45.7278 178.926 47.8975 178.926L105.396 179.089C108.434 179.089 110.875 176.535 110.712 173.492C110.55 170.667 108.217 168.439 105.396 168.439H83.4275L65.7981 119.32H35.0416C30.8106 119.32 27.7729 123.395 28.9663 127.416Z" fill="#465A63"/>
<path d="M77.6233 172.406C77.6233 172.514 71.7649 172.623 64.5504 172.623C57.3359 172.623 51.4775 172.514 51.4775 172.406C51.4775 172.297 57.3359 172.188 64.5504 172.188C71.7649 172.188 77.6233 172.297 77.6233 172.406Z" fill="#263238"/>
<path d="M33.1971 120.842C33.3056 120.787 37.2112 132.252 41.9304 146.488C46.6497 160.669 50.3925 172.188 50.2841 172.243C50.1756 172.297 46.27 160.832 41.5507 146.596C36.8315 132.415 33.0886 120.842 33.1971 120.842Z" fill="#263238"/>
<path d="M75.2368 221.525L71.7109 221.416V178.926H75.2368V221.525Z" fill="#465A63"/>
<path d="M57.1733 221.307H89.7741L75.0197 216.2H71.4938L57.1733 221.307Z" fill="#465A63"/>
<path d="M48.9282 106.823L54.2984 133.828L53.322 154.095L89.6114 148.064L88.2011 130.35L88.1468 115.68L97.0429 132.958L103.986 119.538L91.293 96.5538C88.9605 94.163 86.2483 92.3699 82.9936 91.1746C81.4205 90.5769 79.739 90.2509 77.7862 90.1965C73.6094 91.5006 69.4325 91.5006 65.2015 90.1965C64.7133 90.2509 64.0081 90.3052 63.086 90.4139C63.0317 90.4139 62.9775 90.4139 62.9232 90.4139C55.2206 91.3376 49.3622 97.7491 48.9282 105.519V106.823Z" fill="#2AB2DA"/>
<path d="M63.1401 90.3595C63.1401 90.3595 48.2229 90.4682 46.3786 106.225L46.1074 117.799L58.9633 117.69L63.1401 90.3595Z" fill="#2AB2DA"/>
<path d="M98.7789 110.681C98.7789 110.79 87.0621 110.898 72.5789 110.898C58.0957 110.898 46.3789 110.79 46.3789 110.681C46.3789 110.572 58.0957 110.464 72.5789 110.464C87.0621 110.464 98.7789 110.518 98.7789 110.681Z" fill="#FAFAFA"/>
<path d="M98.7789 113.18C98.7789 113.289 87.0621 113.398 72.5789 113.398C58.0957 113.398 46.3789 113.289 46.3789 113.18C46.3789 113.072 58.0957 112.963 72.5789 112.963C87.0621 112.963 98.7789 113.017 98.7789 113.18Z" fill="#FAFAFA"/>
<path d="M97.9109 108.562C97.9109 108.67 86.3569 108.779 72.1449 108.779C57.9329 108.779 46.3789 108.67 46.3789 108.562C46.3789 108.453 57.9329 108.344 72.1449 108.344C86.4112 108.399 97.9109 108.453 97.9109 108.562Z" fill="#FAFAFA"/>
<path d="M87.9842 132.904C87.8757 132.904 87.9299 126.492 88.0927 118.614C88.2554 110.735 88.4724 104.324 88.6351 104.324C88.7436 104.324 88.6893 110.735 88.5266 118.614C88.3096 126.547 88.0927 132.904 87.9842 132.904Z" fill="#263238"/>
<path d="M82.8854 122.526C82.8854 122.526 89.9371 123.015 91.1848 124.917C92.4324 126.764 94.3852 132.089 93.68 132.143C92.9206 132.198 92.4324 131.763 92.4324 131.763L90.4796 128.34C90.4796 128.34 90.805 131.654 89.6117 131.709C88.4725 131.763 82.7227 132.904 82.7227 132.904L82.8854 122.526Z" fill="#FEBEA0"/>
<path d="M46.1616 114.756V132.958C46.3786 137.197 50.3927 140.239 54.5152 139.37L82.9392 133.502L82.885 121.82L58.3666 126.547L58.0411 114.213L46.1616 114.756Z" fill="#2AB2DA"/>
<path d="M62.381 137.849C62.381 137.849 62.4894 137.794 62.7607 137.74C63.0319 137.686 63.4116 137.577 63.8456 137.468C64.8219 137.251 66.2323 136.979 68.0224 136.599C71.6567 135.838 76.7557 134.806 82.831 133.556L82.6683 133.719C82.6683 130.079 82.6683 126.003 82.6683 121.711L82.8853 121.928C81.258 122.254 79.5764 122.58 77.8948 122.906C70.7346 124.265 64.0083 125.569 58.3669 126.655L58.1499 126.71V126.492C58.3126 121.059 58.4754 116.549 58.5839 113.343C58.6381 111.768 58.6923 110.572 58.7466 109.703C58.7466 109.323 58.8008 108.997 58.8008 108.725C58.8008 108.508 58.8551 108.399 58.8551 108.399C58.8551 108.399 58.8551 108.508 58.8551 108.725C58.8551 108.997 58.8551 109.268 58.8551 109.703C58.8551 110.572 58.8008 111.822 58.8008 113.398C58.7466 116.603 58.6381 121.113 58.4754 126.547L58.2584 126.384C63.8998 125.297 70.6261 123.993 77.7863 122.58C79.5221 122.254 81.2037 121.928 82.7768 121.602L82.9938 121.548V121.765C82.9938 126.058 82.9938 130.079 82.9938 133.773V133.936L82.831 133.991C76.7557 135.186 71.6567 136.164 68.0224 136.871C66.2323 137.197 64.8219 137.468 63.8456 137.631C63.3574 137.686 63.0319 137.794 62.7064 137.849C62.4894 137.849 62.381 137.903 62.381 137.849Z" fill="#263238"/>
<path d="M78.7085 90.3595C78.7085 90.3595 78.7628 90.4682 78.817 90.6312C78.8713 90.7942 78.9797 91.0659 79.034 91.4462C79.1967 92.1526 79.251 93.2393 78.9255 94.489C78.6 95.7387 77.7321 97.1514 76.4845 98.2925C75.1826 99.4878 73.3383 100.249 71.3313 100.249C69.3243 100.249 67.4257 99.4335 66.2323 98.1838C65.039 96.9341 64.4965 95.3584 64.3338 94.0543C64.1711 92.7503 64.4423 91.6636 64.7135 91.0115C64.822 90.6855 64.9847 90.4139 65.0932 90.2509C65.2017 90.0879 65.256 89.9792 65.256 90.0335C65.3102 90.0335 65.0932 90.4139 64.8762 91.0659C64.6593 91.7179 64.4965 92.7503 64.6593 94C64.822 95.2497 65.3644 96.7167 66.5578 97.9121C67.6969 99.1075 69.487 99.8682 71.3856 99.8682C73.2841 99.8682 75.0742 99.1618 76.3218 98.0208C77.5694 96.9341 78.3831 95.63 78.7628 94.3803C79.1425 93.185 79.0882 92.0983 79.034 91.4462C78.7628 90.7399 78.6543 90.3595 78.7085 90.3595Z" fill="#263238"/>
<path d="M80.0646 134.425C80.0104 134.425 80.0104 133.719 80.0646 132.632C80.1189 131.546 80.1731 130.024 80.1731 128.34C80.1731 126.655 80.1731 125.134 80.1188 124.047C80.0646 122.961 80.0646 122.254 80.1188 122.254C80.1731 122.254 80.2816 122.906 80.3901 124.047C80.4986 125.134 80.5528 126.71 80.5528 128.394C80.5528 130.079 80.4443 131.6 80.3358 132.741C80.2273 133.773 80.1189 134.425 80.0646 134.425Z" fill="#FAFAFA"/>
<path d="M78.6001 134.751C78.5459 134.751 78.5459 134.045 78.5459 132.958C78.5459 131.709 78.6001 130.242 78.6001 128.666C78.6001 127.09 78.6001 125.623 78.6001 124.373C78.6001 123.287 78.6001 122.58 78.6544 122.58C78.7086 122.58 78.8171 123.232 78.8714 124.373C78.9256 125.46 78.9799 126.981 78.9799 128.666C78.9799 130.35 78.9256 131.872 78.8171 132.958C78.7629 134.045 78.6544 134.751 78.6001 134.751Z" fill="#FAFAFA"/>
<path d="M107.078 207.072L112.448 221.905L120.097 232.392C120.639 233.153 120.422 234.239 119.663 234.728C119.229 235 118.686 235.054 118.198 234.837C115.106 233.533 103.824 228.806 103.498 227.719C103.118 226.415 95.8496 210.495 95.8496 210.495L107.078 207.072Z" fill="#514F7E"/>
<g opacity="0.6">
<g opacity="0.6">
<path opacity="0.6" d="M119.608 234.728L103.064 226.687L103.281 227.284C103.498 227.828 103.878 228.262 104.366 228.534C105.722 229.24 109.519 231.197 118.035 234.783C118.578 235.054 119.175 235 119.608 234.728Z" fill="white"/>
</g>
</g>
<g opacity="0.6">
<g opacity="0.6">
<g opacity="0.6">
<path opacity="0.6" d="M104.203 220.764C104.691 220.873 105.017 221.362 104.908 221.851C104.8 222.34 104.312 222.666 103.823 222.557C103.335 222.449 102.956 221.851 103.064 221.416C103.227 220.981 103.823 220.601 104.257 220.818" fill="white"/>
</g>
</g>
</g>
<path d="M113.75 229.566C113.859 229.566 113.859 228.697 114.618 227.936C115.323 227.176 116.191 227.067 116.191 226.958C116.191 226.904 115.974 226.85 115.594 226.958C115.215 227.067 114.781 227.284 114.347 227.719C113.967 228.154 113.75 228.643 113.696 229.023C113.642 229.349 113.696 229.566 113.75 229.566Z" fill="#263238"/>
<path d="M115.594 231.142C115.703 231.197 115.974 230.49 116.625 230.001C117.276 229.458 117.981 229.349 117.981 229.24C117.981 229.132 117.167 229.132 116.408 229.729C115.649 230.327 115.486 231.142 115.594 231.142Z" fill="#263238"/>
<path d="M110.821 227.828C110.929 227.882 111.363 226.85 112.34 225.98C113.316 225.057 114.347 224.731 114.293 224.622C114.293 224.513 113.099 224.731 112.069 225.709C111.038 226.687 110.767 227.828 110.821 227.828Z" fill="#263238"/>
<path d="M108.814 223.481C108.868 223.535 109.573 222.883 110.604 222.449C111.635 221.96 112.557 221.905 112.557 221.851C112.557 221.742 111.58 221.688 110.441 222.177C109.356 222.612 108.76 223.427 108.814 223.481Z" fill="#263238"/>
<path d="M107.132 219.134C107.187 219.188 107.837 218.373 108.977 217.993C110.116 217.558 111.092 217.83 111.092 217.721C111.092 217.667 110.875 217.558 110.441 217.504C110.007 217.45 109.411 217.45 108.814 217.667C108.217 217.884 107.729 218.21 107.458 218.536C107.187 218.862 107.132 219.134 107.132 219.134Z" fill="#263238"/>
<path d="M108.651 217.232C108.651 217.232 108.651 217.015 108.434 216.689C108.271 216.363 107.946 215.874 107.403 215.385C107.132 215.168 106.861 214.896 106.373 214.842C106.156 214.842 105.83 215.005 105.722 215.222C105.613 215.494 105.668 215.765 105.722 215.983C106.102 216.906 107.241 217.504 108.326 217.232C109.41 216.961 110.116 215.983 110.224 215.005C110.224 214.787 110.224 214.461 110.007 214.298C109.79 214.081 109.465 214.081 109.248 214.244C108.814 214.461 108.651 214.842 108.488 215.113C108.163 215.711 108 216.254 107.946 216.635C107.892 217.015 107.892 217.232 107.892 217.232C107.946 217.232 108 216.363 108.705 215.222C108.868 214.95 109.085 214.624 109.41 214.461C109.573 214.407 109.736 214.407 109.79 214.516C109.899 214.624 109.953 214.787 109.899 215.005C109.79 215.82 109.139 216.689 108.217 216.906C107.295 217.124 106.264 216.635 105.993 215.874C105.939 215.711 105.885 215.494 105.939 215.331C105.993 215.168 106.102 215.113 106.264 215.113C106.59 215.113 106.915 215.331 107.186 215.548C108.326 216.417 108.597 217.232 108.651 217.232Z" fill="#263238"/>
<path d="M129.752 203.214L129.264 215.276C129.264 215.276 141.306 219.786 141.469 222.014L118.144 221.96L118.09 203.16L129.752 203.214Z" fill="#514F7E"/>
<g opacity="0.6">
<g opacity="0.6">
<path opacity="0.6" d="M122.049 214.19C121.615 214.298 121.29 214.842 121.398 215.276C121.507 215.711 121.995 216.037 122.483 215.928C122.917 215.82 123.351 215.222 123.189 214.787C123.026 214.353 122.429 213.972 121.995 214.244" fill="white"/>
</g>
</g>
<g opacity="0.6">
<path opacity="0.6" d="M118.144 221.905V220.003L140.601 220.764C140.601 220.764 141.632 221.199 141.523 221.959L118.144 221.905Z" fill="white"/>
</g>
<path d="M129.644 215.113C129.644 215.222 129.047 215.276 128.505 215.657C127.908 215.983 127.637 216.526 127.528 216.472C127.42 216.472 127.582 215.765 128.288 215.331C128.993 214.896 129.698 215.005 129.644 215.113Z" fill="#263238"/>
<path d="M132.085 216.146C132.085 216.254 131.597 216.472 131.217 216.906C130.837 217.395 130.729 217.884 130.62 217.884C130.512 217.884 130.458 217.232 130.946 216.635C131.434 216.091 132.085 216.037 132.085 216.146Z" fill="#263238"/>
<path d="M133.495 219.08C133.386 219.08 133.224 218.536 133.549 217.884C133.82 217.232 134.363 217.015 134.417 217.124C134.471 217.232 134.146 217.558 133.875 218.047C133.658 218.591 133.603 219.08 133.495 219.08Z" fill="#263238"/>
<path d="M129.481 212.342C129.427 212.451 128.884 212.288 128.288 212.342C127.637 212.397 127.149 212.56 127.094 212.505C127.04 212.397 127.528 212.016 128.288 211.962C128.993 211.908 129.535 212.288 129.481 212.342Z" fill="#263238"/>
<g opacity="0.3">
<path opacity="0.3" d="M129.644 205.605L129.59 207.724L118.09 207.615V205.659L129.644 205.605Z" fill="black"/>
</g>
<path d="M129.481 209.951C129.481 210.006 129.047 210.06 128.288 209.951C127.908 209.897 127.528 209.788 127.04 209.571C126.823 209.462 126.606 209.354 126.389 209.191C126.28 209.136 126.172 209.028 126.063 208.919C125.955 208.81 125.847 208.484 126.009 208.321C126.118 208.158 126.335 208.05 126.497 208.05C126.66 208.05 126.823 208.104 126.931 208.104C127.203 208.158 127.42 208.267 127.637 208.376C128.071 208.593 128.45 208.865 128.721 209.082C129.264 209.571 129.427 210.006 129.427 210.06C129.372 210.114 129.101 209.734 128.559 209.299C128.288 209.082 127.908 208.865 127.528 208.702C127.311 208.593 127.094 208.539 126.877 208.484C126.606 208.43 126.443 208.43 126.335 208.539C126.335 208.593 126.335 208.593 126.335 208.647C126.389 208.702 126.497 208.756 126.606 208.865C126.823 208.973 127.04 209.136 127.203 209.245C127.582 209.462 128.016 209.571 128.342 209.68C129.047 209.843 129.535 209.843 129.481 209.951Z" fill="#263238"/>
<path d="M129.372 210.114C129.318 210.114 129.101 209.734 129.047 208.973C129.047 208.593 129.047 208.158 129.21 207.669C129.264 207.452 129.372 207.18 129.535 206.963C129.698 206.746 129.861 206.42 130.294 206.365C130.511 206.365 130.728 206.528 130.783 206.691C130.837 206.854 130.891 206.963 130.891 207.126C130.945 207.398 130.945 207.669 130.891 207.941C130.837 208.43 130.62 208.865 130.403 209.136C129.969 209.734 129.481 209.897 129.481 209.843C129.427 209.788 129.861 209.571 130.186 208.973C130.349 208.702 130.511 208.321 130.566 207.887C130.566 207.669 130.566 207.452 130.566 207.235C130.511 206.963 130.457 206.8 130.349 206.8C130.24 206.8 130.023 206.963 129.915 207.18C129.806 207.398 129.698 207.615 129.644 207.832C129.481 208.267 129.427 208.647 129.427 208.973C129.318 209.625 129.427 210.06 129.372 210.114Z" fill="#263238"/>
<path d="M118.09 145.455C104.312 146.868 86.0312 148.77 86.0312 148.77L88.5265 171.265C88.5265 171.265 115.377 164.147 115.215 164.744C114.998 165.342 116.462 212.614 116.462 212.614H132.627L132.953 159.094C133.007 150.943 126.118 144.64 118.09 145.455Z" fill="#263238"/>
<path d="M52.9966 154.529V161.484C52.9966 166.212 58.421 171.265 63.1403 171.265H66.8289C69.7038 171.265 74.2603 169.146 76.5928 167.461L78.0032 166.429L94.8731 218.699C94.8731 218.699 114.13 215.222 114.13 214.624C114.13 214.027 101.057 171.808 95.0359 152.193C92.5949 144.206 84.0243 139.533 76.1046 142.25C75.8334 142.358 75.5622 142.467 75.291 142.576C66.6661 146.053 52.9966 154.529 52.9966 154.529Z" fill="#263238"/>
<path d="M114.076 214.624C114.076 214.624 114.021 214.57 113.967 214.461C113.913 214.298 113.859 214.135 113.75 213.918C113.587 213.429 113.316 212.723 112.991 211.745C112.34 209.843 111.472 207.126 110.387 203.703C108.217 196.911 105.342 187.457 102.196 177.024C100.623 171.808 99.1584 166.809 97.8023 162.299C97.1514 160.017 96.5004 157.898 95.9037 155.888C95.5783 154.855 95.3071 153.932 95.0358 152.954C94.7646 152.03 94.4934 151.106 94.1679 150.291C93.517 148.661 92.4864 147.412 91.4557 146.434C90.4251 145.456 89.4487 144.749 88.5808 144.206C87.7671 143.662 87.1162 143.228 86.628 142.956C86.411 142.847 86.2483 142.739 86.1398 142.63C86.0313 142.576 85.9771 142.521 85.9771 142.521C85.9771 142.521 86.0313 142.521 86.1398 142.63C86.3025 142.684 86.4653 142.793 86.6822 142.902C87.1704 143.173 87.8214 143.554 88.635 144.097C89.5029 144.64 90.4793 145.347 91.5642 146.271C92.5948 147.249 93.6797 148.498 94.3849 150.183C94.7646 150.998 95.0358 151.921 95.3071 152.845C95.5783 153.769 95.9037 154.747 96.175 155.725C96.7717 157.735 97.4226 159.909 98.1278 162.136C99.4839 166.646 101.003 171.645 102.576 176.861C105.722 187.294 108.543 196.694 110.604 203.594C111.635 206.963 112.502 209.734 113.099 211.69C113.37 212.614 113.642 213.375 113.804 213.864C113.859 214.081 113.913 214.298 113.967 214.461C114.076 214.57 114.076 214.624 114.076 214.624Z" fill="#465A63"/>
<path d="M118.144 157.953C118.253 158.007 117.33 159.42 116.571 161.267C115.812 163.114 115.486 164.744 115.323 164.744C115.215 164.744 115.378 163.06 116.191 161.104C117.005 159.202 118.09 157.898 118.144 157.953Z" fill="#465A63"/>
<path d="M121.236 160.126C121.29 160.235 119.88 160.832 118.469 161.973C117.005 163.114 116.082 164.31 115.974 164.255C115.865 164.201 116.679 162.843 118.198 161.647C119.717 160.506 121.236 160.017 121.236 160.126Z" fill="#465A63"/>
<path d="M94.9814 218.699C94.8729 218.754 90.3164 204.735 84.8377 187.457C79.3048 170.178 74.9653 156.105 75.0738 156.105C75.1823 156.051 79.7388 170.069 85.2174 187.348C90.6961 204.627 95.0899 218.699 94.9814 218.699Z" fill="#465A63"/>
<path d="M74.3145 137.142L129.481 137.686L139.733 108.562L99.6465 108.834L90.3165 135.023L74.3145 135.295V137.142Z" fill="#E0E0E0"/>
<path d="M116.137 125.623C114.889 125.46 114.076 124.319 114.238 123.069C114.401 121.82 115.54 121.005 116.788 121.168C118.036 121.331 118.849 122.472 118.686 123.721C118.47 124.971 117.33 125.84 116.137 125.623Z" fill="white"/>
<path d="M69.8126 58.3561C70.355 56.4 71.7654 55.4763 73.6639 54.8243C75.5625 54.1722 77.7865 54.5526 79.3596 55.748C80.4445 56.563 81.2581 57.7584 82.5057 58.1931C84.567 58.8994 87.008 57.378 89.015 58.3017C90.2084 58.8451 90.8593 60.3121 90.5881 61.5618C90.2627 62.8116 89.015 63.7896 87.7132 63.7353C89.0693 64.2243 89.5032 66.1803 88.6896 67.3757C87.8759 68.5711 86.2486 69.0601 84.8382 68.7884C83.4279 68.5168 82.1803 67.6474 81.0954 66.6694C80.0105 65.6913 79.0341 64.6046 77.895 63.7353C76.7558 62.8659 75.3455 62.2139 73.8809 62.2682C71.9281 62.3769 70.2465 63.8439 69.3786 65.5827C68.5107 67.3214 68.2937 69.3318 68.1853 71.2879C68.0768 73.2439 68.0225 75.2543 67.4801 77.1017C67.4258 77.3191 67.3173 77.5907 67.1004 77.6451C66.7749 77.7538 66.5037 77.4277 66.3409 77.1017C64.5509 73.7873 63.4118 70.1468 63.032 66.3977C62.8151 64.2243 62.8693 62.1595 64.0627 60.3665C65.3103 58.5734 68.348 57.215 69.8126 58.3561Z" fill="#263238"/>
<path d="M66.0152 67.4301L65.0388 89.4358C64.8761 93.185 65.3643 98.7272 71.2769 98.7272C76.4301 98.3468 77.949 93.511 78.0574 90.0335C78.1117 88.4035 78.2202 86.9908 78.2202 86.8277C78.2202 86.8277 83.8073 86.5561 84.5125 81.0139C84.838 78.3514 85.055 72.8092 85.1634 67.7561C85.3262 62.3769 81.2579 57.7584 75.9419 57.215L75.3995 57.1607C69.5953 56.889 66.178 61.6705 66.0152 67.4301Z" fill="#FEBEA0"/>
<path d="M78.2744 86.7191C78.2744 86.7191 74.7485 86.6104 71.2769 83.8936C71.2769 83.8936 72.5787 88.0775 78.1116 88.1318L78.2744 86.7191Z" fill="#E99972"/>
<path d="M83.1561 71.3422C83.1019 71.7769 82.7222 72.1029 82.2882 72.0486C81.8543 72.0486 81.5288 71.6682 81.5288 71.2335C81.5831 70.7988 81.9628 70.4728 82.3967 70.5272C82.8849 70.5272 83.2104 70.9075 83.1561 71.3422Z" fill="#263238"/>
<path d="M83.6985 70.3642C83.59 70.4728 83.0476 69.9295 82.1797 69.8751C81.3118 69.7665 80.6608 70.1468 80.6066 70.0381C80.5523 69.9838 80.6608 69.8208 80.9863 69.6578C81.2575 69.4948 81.7457 69.3318 82.2881 69.3861C82.8306 69.4405 83.2645 69.7121 83.4815 69.9295C83.6985 70.1468 83.7527 70.3642 83.6985 70.3642Z" fill="#263238"/>
<path d="M74.8026 70.7445C74.7484 71.1792 74.3687 71.5052 73.9347 71.4508C73.5008 71.4508 73.1753 71.0705 73.1753 70.6358C73.2295 70.2011 73.6093 69.8751 74.0432 69.9294C74.5314 69.9294 74.8569 70.3098 74.8026 70.7445Z" fill="#263238"/>
<path d="M75.345 69.6578C75.2365 69.7665 74.6941 69.2231 73.8262 69.1688C72.9582 69.0601 72.3073 69.4404 72.2531 69.3318C72.1988 69.2774 72.3073 69.1144 72.6328 68.9514C72.904 68.7884 73.3922 68.6254 73.9346 68.6798C74.4771 68.7341 74.911 69.0058 75.128 69.2231C75.345 69.3861 75.3992 69.6034 75.345 69.6578Z" fill="#263238"/>
<path d="M77.7319 76.2867C77.7319 76.2323 78.2744 76.178 79.1423 76.178C79.3593 76.178 79.5762 76.178 79.6305 76.015C79.6847 75.852 79.6305 75.6347 79.5762 75.363C79.4135 74.8196 79.2508 74.2219 79.088 73.6243C78.4371 71.1792 78.0032 69.1688 78.1116 69.1688C78.2201 69.1688 78.8168 71.1248 79.4677 73.5699C79.6305 74.1676 79.7932 74.7653 79.9017 75.3086C79.9559 75.5803 80.0644 75.852 79.9017 76.178C79.8475 76.341 79.6305 76.4497 79.522 76.4497C79.3593 76.504 79.2508 76.4497 79.1423 76.4497C78.2744 76.3953 77.7319 76.341 77.7319 76.2867Z" fill="#263238"/>
<path d="M75.1823 76.6127C75.345 76.6127 75.2366 77.5364 75.9417 78.2971C76.6469 79.0578 77.6776 79.0578 77.6233 79.1665C77.6233 79.2208 77.4063 79.3295 76.9724 79.2751C76.5384 79.2208 75.996 79.0578 75.562 78.6231C75.1281 78.1884 74.9653 77.5907 74.9653 77.2104C75.0196 76.83 75.1281 76.6127 75.1823 76.6127Z" fill="#263238"/>
<path d="M75.8874 66.3433C75.779 66.5607 74.9653 66.3433 73.9347 66.3977C72.904 66.3977 72.0903 66.615 71.9819 66.3977C71.9276 66.289 72.0903 66.0717 72.4701 65.9087C72.7955 65.7457 73.338 65.5826 73.9347 65.5826C74.5313 65.5826 75.0738 65.7457 75.3992 65.9087C75.779 66.0173 75.9417 66.2347 75.8874 66.3433Z" fill="#263238"/>
<path d="M83.6443 67.8647C83.4816 68.0277 82.8849 67.756 82.234 67.7017C81.5288 67.593 80.9321 67.7017 80.8236 67.4844C80.7694 67.3757 80.8779 67.2127 81.1491 67.0497C81.4203 66.8867 81.8543 66.778 82.3425 66.8323C82.8307 66.8867 83.2104 67.104 83.4273 67.3214C83.6443 67.593 83.6986 67.8104 83.6443 67.8647Z" fill="#263238"/>
<path d="M66.0697 71.6139C65.9612 71.5596 62.3811 70.0925 62.1099 73.896C61.8387 77.6994 65.69 77.2104 65.69 77.1017C65.69 76.9387 66.0697 71.6139 66.0697 71.6139Z" fill="#FEBEA0"/>
<path d="M64.6593 75.526C64.6593 75.526 64.6051 75.5804 64.4966 75.6347C64.3881 75.689 64.1711 75.689 64.0084 75.6347C63.6287 75.4717 63.3032 74.8197 63.3574 74.1133C63.3574 73.7873 63.4659 73.4613 63.6287 73.1896C63.7914 72.9179 63.9541 72.7549 64.1711 72.7006C64.3881 72.6463 64.4966 72.8093 64.5508 72.9179C64.6051 73.0266 64.5508 73.081 64.6051 73.1353C64.6051 73.1353 64.7136 73.0809 64.6593 72.9179C64.6593 72.8636 64.6051 72.7549 64.5508 72.6463C64.4423 72.5919 64.3338 72.5376 64.1711 72.5376C63.8999 72.5376 63.5744 72.8093 63.4117 73.081C63.249 73.3526 63.1405 73.733 63.0862 74.1133C63.032 74.874 63.4117 75.6347 63.8999 75.7977C64.1711 75.9064 64.3881 75.7977 64.4966 75.7434C64.6051 75.6347 64.6593 75.526 64.6593 75.526Z" fill="#E99972"/>
<path d="M86.4656 66.778C83.9703 67.1584 81.3124 66.2347 79.5765 64.4416C78.3289 63.1376 77.5153 61.3988 75.8879 60.6925C74.8031 60.2035 73.5012 60.3121 72.4163 60.8011C71.3314 61.2902 70.4093 62.0509 69.5414 62.9202C70.3008 65.8543 69.2701 68.8971 68.2395 71.7225C68.131 72.0485 67.9683 72.3746 67.6971 72.5376C67.2089 72.8092 66.5579 72.4832 66.2325 72.0485C65.69 71.3422 65.5273 70.3642 65.473 69.4948C65.3103 67.43 65.473 65.311 66.1782 63.3549C66.8291 61.3988 68.0225 59.6058 69.6498 58.3017C71.7111 56.726 74.3691 56.074 76.9728 56.4C79.5765 56.726 81.9633 57.9214 83.8076 59.7144C84.6755 60.5295 85.4892 61.5075 85.8146 62.6485" fill="#263238"/>
<path d="M0 138.772V143.934H28.6952V221.362H31.3532V143.934L151.287 144.532V221.362H153.891V144.423L172.388 144.532V138.283L0 138.772Z" fill="#263238"/>
<path d="M18.3886 142.956L29.6714 151.106L28.695 152.03L17.3037 143.445L18.3886 142.956Z" fill="#263238"/>
<path d="M164.577 143.717L151.396 153.062L152.372 154.04L165.607 144.206L164.577 143.717Z" fill="#263238"/>
<path d="M71.4397 136.816H41.7681V138.99H71.4397V136.816Z" fill="#263238"/>
<path d="M287.061 59.9861C288.851 60.9098 289.339 63.1376 289.664 65.0936C289.936 67.0497 290.37 69.2774 292.051 70.3641C293.407 71.2335 295.523 71.2878 296.174 72.8092C296.445 73.5156 296.282 74.385 295.685 74.9283C295.143 75.4173 294.221 75.5803 293.57 75.2C294.275 76.341 294.384 77.9711 293.461 79.0034C292.539 80.0358 290.641 79.9815 289.99 78.7861C290.37 79.6011 289.99 80.6878 289.176 81.0139C288.362 81.3942 287.278 80.9052 286.952 80.0902" fill="#263238"/>
<path d="M267.424 78.4058C267.316 79.4381 266.177 80.2531 265.146 80.0901C264.115 79.9271 263.302 78.7861 263.519 77.7537C263.681 76.9387 264.332 76.2323 264.224 75.4173C264.061 74.4393 262.922 73.9503 261.946 73.7329C260.969 73.5156 259.83 73.2439 259.45 72.2659C259.125 71.3422 259.776 70.4185 260.373 69.6034C260.915 68.7884 261.403 67.6474 260.752 66.941C260.427 66.5607 259.884 66.452 259.505 66.126C258.637 65.4196 258.691 64.0069 259.342 63.1375C260.047 62.2682 261.186 61.8878 262.271 61.8335C263.356 61.7792 264.441 61.9422 265.58 62.0508C269.214 62.2682 272.849 60.8555 275.398 58.2474" fill="#263238"/>
<path d="M287.44 67.7017L287.82 90.1965C287.874 94.163 284.728 97.4231 280.768 97.4231C277.08 97.4775 273.988 94.652 273.608 91.0116C273.391 89.0555 273.282 87.4254 273.282 87.4254C273.282 87.4254 267.587 87.0451 266.99 81.4485C266.719 78.7318 266.556 73.0809 266.556 67.9734C266.502 62.4855 270.679 57.867 276.103 57.378L276.646 57.3237C282.504 57.1064 287.386 61.7792 287.44 67.7017Z" fill="#FEBEA0"/>
<path d="M268.346 71.2878C268.346 71.7225 268.726 72.0485 269.214 72.0485C269.648 72.0485 269.974 71.6682 269.974 71.2335C269.974 70.7988 269.594 70.4728 269.106 70.4728C268.672 70.5271 268.346 70.8532 268.346 71.2878Z" fill="#263238"/>
<path d="M267.966 70.5815C268.075 70.6901 268.617 70.1468 269.485 70.0925C270.353 69.9838 271.004 70.3641 271.113 70.2555C271.167 70.2011 271.058 70.0381 270.733 69.8208C270.462 69.6578 269.974 69.4948 269.431 69.5491C268.889 69.6034 268.455 69.8208 268.238 70.0925C268.021 70.3641 267.912 70.5271 267.966 70.5815Z" fill="#263238"/>
<path d="M276.862 70.6901C276.862 71.1248 277.242 71.4508 277.73 71.4508C278.164 71.4508 278.49 71.0705 278.49 70.6358C278.49 70.2011 278.11 69.8751 277.622 69.8751C277.188 69.8751 276.808 70.2555 276.862 70.6901Z" fill="#263238"/>
<path d="M276.483 69.9838C276.591 70.0925 277.133 69.5491 278.001 69.4948C278.869 69.3861 279.52 69.7664 279.629 69.6578C279.683 69.6034 279.574 69.4404 279.249 69.2231C278.978 69.0601 278.49 68.8971 277.947 68.9514C277.405 69.0058 276.971 69.2231 276.754 69.4948C276.537 69.7121 276.428 69.9295 276.483 69.9838Z" fill="#263238"/>
<path d="M273.934 76.667C273.934 76.6127 273.391 76.5583 272.523 76.5583C272.306 76.5583 272.089 76.504 272.035 76.3953C271.981 76.2323 272.035 76.015 272.143 75.7433C272.306 75.2 272.469 74.6023 272.632 74.0046C273.337 71.5052 273.771 69.4948 273.717 69.4404C273.608 69.4404 272.957 71.3965 272.306 73.8959C272.143 74.4936 271.981 75.0913 271.818 75.6346C271.764 75.9063 271.655 76.178 271.764 76.504C271.818 76.667 272.035 76.7757 272.143 76.7757C272.306 76.83 272.415 76.7757 272.523 76.7757C273.391 76.7757 273.934 76.7214 273.934 76.667Z" fill="#263238"/>
<path d="M275.94 66.615C276.049 66.8324 276.917 66.6693 277.947 66.6693C278.978 66.6693 279.846 66.8867 279.954 66.6693C280.009 66.5607 279.846 66.3433 279.466 66.1803C279.141 65.963 278.598 65.8 277.947 65.8C277.351 65.8 276.808 65.963 276.429 66.126C276.103 66.289 275.94 66.5063 275.94 66.615Z" fill="#263238"/>
<path d="M268.075 68.0277C268.238 68.1907 268.834 67.9734 269.54 67.8647C270.245 67.7561 270.896 67.8647 271.004 67.6474C271.058 67.5387 270.95 67.3757 270.679 67.2127C270.408 67.0497 269.974 66.941 269.485 66.9954C268.997 67.0497 268.563 67.267 268.346 67.4844C268.075 67.7561 268.021 67.9734 268.075 68.0277Z" fill="#263238"/>
<path d="M280.768 62.0508C280.768 62.1052 280.768 62.1052 280.768 62.0508C281.744 62.7029 282.45 63.6809 282.721 64.7676C282.721 64.8219 282.721 64.8219 282.721 64.8763C283.101 66.452 283.209 68.0821 283.589 69.7121C283.968 71.2878 284.674 72.8636 285.976 73.8959C286.518 74.3306 287.386 74.548 287.766 73.9503C287.928 73.7329 287.928 73.4613 287.874 73.1896C287.82 69.2774 288.579 65.7456 288.2 61.6705C288.091 60.5838 287.494 59.5514 286.518 59.0081C285.596 58.4647 284.511 57.9214 283.643 58.4647C282.721 59.0081 281.69 60.8555 281.039 61.6705" fill="#263238"/>
<path d="M285.759 70.4185C285.867 70.3642 289.502 68.8971 289.773 72.8092C289.99 76.667 286.084 76.1237 286.084 76.015C286.03 75.852 285.759 70.4185 285.759 70.4185Z" fill="#FEBEA0"/>
<path d="M287.169 74.4393C287.169 74.4393 287.224 74.4936 287.332 74.548C287.44 74.6023 287.657 74.6023 287.82 74.548C288.2 74.385 288.525 73.6786 288.525 73.0266C288.525 72.7006 288.417 72.3202 288.254 72.0485C288.146 71.7769 287.929 71.5595 287.712 71.5595C287.495 71.5052 287.386 71.6682 287.332 71.7769C287.278 71.8855 287.332 71.9399 287.278 71.9942C287.278 71.9942 287.169 71.9399 287.224 71.7769C287.224 71.7225 287.278 71.6139 287.386 71.5052C287.495 71.4509 287.603 71.3965 287.766 71.3965C288.091 71.3965 288.363 71.6682 288.525 71.9399C288.688 72.2115 288.797 72.5919 288.797 73.0266C288.797 73.7873 288.471 74.548 287.929 74.7653C287.657 74.874 287.44 74.7653 287.332 74.711C287.169 74.548 287.115 74.4393 287.169 74.4393Z" fill="#895041"/>
<path d="M283.806 59.1167C284.62 57.4867 281.799 55.5306 279.846 55.0959C277.893 54.6612 275.452 55.8023 273.662 56.6173C272.523 57.1063 271.384 57.7583 270.082 57.867C269.214 57.9214 268.401 57.6497 267.587 57.4867C266.773 57.2693 265.905 57.1063 265.092 57.215C264.278 57.3237 263.41 57.867 263.193 58.682C262.922 59.4971 263.519 60.5294 264.332 60.5838C263.193 60.0948 261.729 61.0185 261.674 62.2138C261.62 63.4092 262.976 64.4959 264.115 64.1156C263.519 63.7352 262.759 64.4959 262.868 65.2023C262.976 65.8543 263.681 66.3433 264.332 66.5607C266.014 67.104 267.858 66.7237 269.486 66.0173C271.113 65.311 272.578 64.2786 274.151 63.5179C275.724 62.7572 278.382 61.4532 280.117 61.8878C281.365 62.2138 282.341 63.5722 282.992 63.1919C283.643 62.8115 283.969 62.1052 284.077 61.3445C284.132 60.5295 283.969 59.8231 283.806 59.1167Z" fill="#263238"/>
<path d="M285.867 71.0705C286.138 73.0809 286.41 75.1457 286.301 77.1561C286.193 79.1665 285.704 81.2312 284.565 82.9699C283.101 85.1977 281.039 87.4254 278.544 88.3491C275.832 89.3272 272.252 89.4358 269.594 88.1318C268.346 87.5341 267.207 85.9584 267.316 84.5457C266.285 84.274 265.471 83.4589 265.2 82.4266C264.929 81.3942 265.309 80.0358 266.122 79.7098C265.471 79.7098 265.146 78.7861 265.254 78.1884C265.363 77.5907 266.122 77.2647 266.773 77.2647C267.424 77.2647 268.021 77.5364 268.563 77.8081C269.106 78.0798 269.702 78.3514 270.299 78.4601C272.36 78.7318 274.042 76.6127 276.103 76.2867C277.948 76.015 279.9 77.2104 281.69 76.6127C282.667 76.2867 283.426 75.4173 283.86 74.4393C284.24 73.4613 283.426 70.3098 283.426 69.2231" fill="#263238"/>
<g opacity="0.6">
<g opacity="0.6">
<path opacity="0.6" d="M272.631 82.5896C272.631 82.5896 272.794 82.4809 273.065 82.3723C273.337 82.2636 273.716 82.1006 274.15 82.1006C274.584 82.1006 274.964 82.2092 275.235 82.3723C275.506 82.4809 275.669 82.5896 275.669 82.5896C275.669 82.5896 275.561 82.4266 275.289 82.2636C275.018 82.1006 274.639 81.9376 274.15 81.9376C273.662 81.9376 273.282 82.1006 273.011 82.2636C272.74 82.4266 272.577 82.5896 272.631 82.5896Z" fill="#465A63"/>
</g>
</g>
<path d="M275.832 77.6451C275.669 77.6451 275.778 78.5688 275.019 79.3295C274.259 80.0902 273.283 80.0358 273.283 80.1988C273.283 80.2532 273.5 80.3619 273.934 80.3075C274.368 80.3075 274.964 80.0902 275.398 79.6555C275.832 79.2208 275.995 78.6231 275.995 78.2428C275.995 77.8624 275.886 77.6451 275.832 77.6451Z" fill="white"/>
<path d="M280.497 87.3168C280.497 87.3168 280.443 87.3711 280.28 87.4254C280.117 87.5341 279.9 87.6428 279.629 87.8058C279.032 88.0775 278.219 88.4578 277.08 88.7295C276.537 88.8925 275.886 89.0012 275.235 89.0555C274.584 89.1098 273.825 89.1098 273.12 89.0555C272.36 89.0012 271.601 88.7838 270.842 88.5121C270.082 88.2405 269.323 87.8058 268.726 87.2081C267.967 86.5017 267.478 85.5237 267.478 84.6V84.5457H267.424C266.936 84.437 266.448 84.1653 266.122 83.8393C265.96 83.6763 265.797 83.5133 265.634 83.296C265.526 83.0786 265.417 82.8613 265.363 82.6439C265.092 81.7746 265.363 80.8509 265.797 80.2532L265.851 80.1989L265.797 80.1445C265.363 79.7642 265.2 79.1665 265.309 78.6775C265.417 78.1884 265.688 77.8624 266.014 77.6994C266.285 77.5364 266.556 77.4821 266.773 77.4278C266.936 77.4278 267.044 77.4278 267.044 77.4278C267.044 77.4278 266.936 77.3734 266.773 77.3734C266.61 77.3734 266.285 77.4278 266.014 77.5908C265.688 77.7538 265.363 78.0798 265.254 78.6231C265.146 79.1121 265.309 79.7642 265.797 80.1989V80.0902C265.309 80.6879 265.037 81.6659 265.309 82.5896C265.363 82.8069 265.471 83.0786 265.634 83.296C265.797 83.5133 265.96 83.6763 266.122 83.8936C266.502 84.2197 266.99 84.5457 267.533 84.6543L267.478 84.5457C267.478 85.578 268.021 86.5561 268.78 87.3168C269.431 87.9145 270.191 88.3491 271.004 88.6751C271.764 89.0012 272.577 89.1642 273.337 89.2185C274.096 89.2728 274.856 89.2728 275.507 89.2185C276.158 89.1642 276.808 89.0012 277.351 88.8925C278.49 88.6208 279.304 88.2405 279.9 87.9145C280.172 87.7515 280.389 87.6428 280.551 87.5341C280.443 87.4254 280.497 87.3168 280.497 87.3168Z" fill="#465A63"/>
<path d="M295.197 74.5479C295.197 74.5479 295.251 74.4936 295.36 74.4393C295.468 74.3306 295.577 74.1676 295.631 73.8959C295.685 73.6242 295.685 73.2982 295.522 72.9179C295.36 72.5375 295.034 72.2115 294.6 71.9942C294.166 71.7768 293.624 71.6138 293.081 71.5595C292.539 71.4508 291.942 71.3965 291.346 71.1792C290.749 70.9618 290.261 70.5271 289.881 69.9838C289.501 69.4404 289.23 68.7884 289.067 68.082C288.742 66.6693 288.85 65.2566 288.633 63.9526C288.471 62.7029 287.982 61.5618 287.277 60.8555C286.572 60.1491 285.758 59.9318 285.216 59.9318C284.945 59.9318 284.728 59.9861 284.619 60.0404C284.511 60.0948 284.402 60.0948 284.402 60.1491C284.402 60.1491 284.674 60.0404 285.216 60.0404C285.758 60.0404 286.518 60.3121 287.223 60.9641C287.928 61.6162 288.362 62.7029 288.525 63.9526C288.742 65.2023 288.633 66.615 288.959 68.082C289.122 68.7884 289.393 69.4948 289.827 70.0925C290.206 70.6901 290.803 71.1248 291.4 71.3422C291.997 71.5595 292.647 71.6138 293.19 71.7225C293.732 71.8312 294.275 71.9399 294.655 72.1572C295.088 72.3745 295.414 72.6462 295.522 73.0266C295.685 73.3526 295.685 73.6786 295.631 73.9503C295.468 74.3849 295.143 74.5479 295.197 74.5479Z" fill="#465A63"/>
<path d="M264.169 60.4751C264.169 60.4751 264.115 60.4751 264.007 60.4208C263.952 60.4208 263.898 60.3665 263.79 60.3665C263.681 60.3665 263.573 60.3665 263.464 60.3665C262.976 60.3665 262.271 60.6381 261.728 61.3988C261.403 61.9965 261.294 62.9202 261.62 63.7896C261.891 64.6589 262.596 65.474 263.573 65.963C264.549 66.452 265.742 66.615 266.936 66.452C268.129 66.289 269.377 65.8543 270.516 65.3653C272.469 64.4959 274.096 63.2462 275.398 61.9965C276.049 61.3445 276.7 60.7468 277.351 60.3121C278.002 59.8231 278.707 59.5514 279.358 59.3884C280.714 59.0624 281.853 59.1711 282.558 59.3884C283.318 59.6058 283.697 59.7688 283.697 59.7688C283.697 59.7688 283.318 59.5514 282.612 59.3341C281.853 59.1167 280.714 58.9537 279.358 59.2797C278.707 59.4428 277.947 59.7688 277.296 60.2035C276.591 60.6925 275.995 61.2902 275.344 61.8878C274.042 63.1376 272.414 64.3329 270.516 65.2023C269.323 65.7457 268.129 66.126 266.99 66.289C265.797 66.452 264.658 66.289 263.735 65.8C262.813 65.3653 262.108 64.5503 261.837 63.7352C261.566 62.9202 261.62 62.0509 261.945 61.4532C262.434 60.7468 263.139 60.4751 263.573 60.4208C263.952 60.4208 264.169 60.4751 264.169 60.4751Z" fill="#465A63"/>
<path d="M265.525 56.889C265.525 56.889 265.58 57.215 265.851 57.704C266.122 58.1931 266.773 58.7907 267.749 59.1168C268.238 59.2798 268.78 59.3884 269.377 59.3884C269.973 59.3884 270.624 59.2254 271.221 59.0624C272.469 58.6277 273.716 57.867 275.072 57.1607C276.374 56.4543 277.785 55.911 279.086 55.9653C280.388 55.9653 281.527 56.5087 282.287 57.1063C283.046 57.704 283.534 58.3561 283.806 58.8451C284.077 59.3341 284.185 59.6058 284.185 59.6058C284.185 59.6058 284.185 59.5514 284.131 59.3884C284.077 59.2254 284.023 59.0624 283.86 58.7907C283.589 58.3017 283.155 57.5954 282.341 56.9977C281.582 56.4 280.443 55.8023 279.086 55.8023C277.73 55.748 276.32 56.2913 274.964 56.9977C273.608 57.704 272.414 58.4647 271.167 58.8994C270.57 59.1168 269.919 59.2254 269.377 59.2798C268.78 59.2798 268.292 59.2254 267.804 59.0624C266.882 58.7364 266.231 58.1931 265.959 57.7584C265.58 57.1607 265.525 56.889 265.525 56.889Z" fill="#465A63"/>
<path d="M193.652 41.0774C198.751 42.6532 201.951 36.7306 201.951 36.7306L198.86 34.9376C197.341 38.5237 192.242 38.1433 192.242 38.1433L193.652 41.0774Z" fill="#E0E0E0"/>
<path d="M197.286 179.089C203.524 180.991 207.43 173.764 207.43 173.764L203.633 171.591C201.788 175.992 195.55 175.503 195.55 175.503L197.286 179.089Z" fill="#EBEBEB"/>
<path d="M212.8 56.4C215.187 56.563 215.946 53.6289 215.946 53.6289L214.427 53.1942C214.156 54.9329 211.878 55.259 211.878 55.259L212.8 56.4Z" fill="#2AB2DA"/>
<path d="M167.94 44.6636H152.698V59.9318H167.94V44.6636Z" fill="#2AB2DA"/>
<path d="M229.019 75.4173H213.776V90.6855H229.019V75.4173Z" fill="#2AB2DA"/>
<path d="M221.424 102.515L210.646 113.312L221.424 124.108L232.202 113.312L221.424 102.515Z" fill="#C7E5F6"/>
<path d="M125.827 41.4736L115.049 52.2698L125.827 63.0659L136.605 52.2698L125.827 41.4736Z" fill="#C7E5F6"/>
<path d="M142.717 56.1826L152.101 72.4289H133.387L142.717 56.1826Z" fill="#BDA7D3"/>
<path d="M239.976 88.8381L249.361 105.03H230.646L239.976 88.8381Z" fill="#BDA7D3"/>
<path d="M201.897 105.41C206.571 105.41 210.359 101.615 210.359 96.9341C210.359 92.2528 206.571 88.4578 201.897 88.4578C197.224 88.4578 193.435 92.2528 193.435 96.9341C193.435 101.615 197.224 105.41 201.897 105.41Z" fill="#514F7E"/>
<path d="M142.716 43.4682C147.39 43.4682 151.179 39.6732 151.179 34.9919C151.179 30.3105 147.39 26.5156 142.716 26.5156C138.043 26.5156 134.254 30.3105 134.254 34.9919C134.254 39.6732 138.043 43.4682 142.716 43.4682Z" fill="#514F7E"/>
<path d="M231.297 49.8798L210.088 71.1248C207.538 73.6786 203.416 73.6786 200.866 71.1248L179.657 49.8798C177.107 47.326 177.107 43.1965 179.657 40.6428L200.866 19.3977C203.416 16.8439 207.538 16.8439 210.088 19.3977L231.297 40.6428C233.847 43.1965 233.847 47.326 231.297 49.8798Z" fill="white" stroke="#514F7E" stroke-width="3" stroke-miterlimit="10"/>
<path d="M140.167 97.8578C139.191 94.489 134.797 94.815 134.797 94.815L134.905 97.1514C137.455 96.7167 139.028 99.7052 139.028 99.7052L140.167 97.8578Z" fill="#E0E0E0"/>
<path d="M137.564 101.227H114.022C110.441 101.227 107.512 98.2925 107.512 94.7063V87.3167C107.512 83.7306 110.441 80.7965 114.022 80.7965H137.564C141.144 80.7965 144.073 83.7306 144.073 87.3167V94.7063C144.073 98.2925 141.144 101.227 137.564 101.227Z" fill="white" stroke="#514F7E" stroke-width="3" stroke-miterlimit="10"/>
<path d="M113.316 86.7734H138.269" stroke="#514F7E" stroke-width="3" stroke-miterlimit="10"/>
<path d="M113.316 90.9572H138.269" stroke="#514F7E" stroke-width="3" stroke-miterlimit="10"/>
<path d="M113.316 95.1953H126.986" stroke="#514F7E" stroke-width="3" stroke-miterlimit="10"/>
<path d="M240.573 151.215H217.031C213.451 151.215 210.522 148.281 210.522 144.695V137.305C210.522 133.719 213.451 130.785 217.031 130.785H240.573C244.153 130.785 247.083 133.719 247.083 137.305V144.695C247.083 148.281 244.153 151.215 240.573 151.215Z" fill="white" stroke="#514F7E" stroke-width="3" stroke-miterlimit="10"/>
<path d="M216.977 138.066H241.929" stroke="#514F7E" stroke-width="3" stroke-miterlimit="10"/>
<path d="M216.977 143.934H233.684" stroke="#514F7E" stroke-width="3" stroke-miterlimit="10"/>
<path d="M205.477 56.8347C198.805 56.8347 193.327 51.4012 193.327 44.6636C193.327 37.9804 198.751 32.4925 205.477 32.4925C212.204 32.4925 217.628 37.926 217.628 44.6636C217.628 51.3468 212.149 56.8347 205.477 56.8347ZM205.477 33.7422C199.456 33.7422 194.574 38.6324 194.574 44.6636C194.574 50.6948 199.456 55.585 205.477 55.585C211.498 55.585 216.38 50.6948 216.38 44.6636C216.38 38.6324 211.498 33.7422 205.477 33.7422Z" fill="#2AB2DA"/>
<path d="M204.61 48.4127C204.447 48.4127 204.338 48.3584 204.176 48.2497C203.091 47.326 201.301 45.6959 201.084 45.3156C200.867 45.0439 200.975 44.6636 201.246 44.4462C201.518 44.2289 201.897 44.3376 202.114 44.6092C202.277 44.8266 203.416 45.859 204.61 46.8913L210.739 41.0231C211.01 40.8058 211.39 40.8058 211.607 41.0231C211.824 41.2948 211.824 41.6751 211.607 41.8925L205.044 48.2497C204.935 48.3584 204.772 48.4127 204.61 48.4127Z" fill="#2AB2DA"/>
<path d="M125.792 108.508V102.042" stroke="#263238" stroke-width="0.5" stroke-miterlimit="10" stroke-dasharray="6 6"/>
<path d="M125.792 63.0289V80.0358" stroke="#263238" stroke-width="0.5" stroke-miterlimit="10" stroke-dasharray="6 6"/>
<path d="M136.533 52.2705H152.698" stroke="#263238" stroke-width="0.5" stroke-miterlimit="10" stroke-dasharray="6 6"/>
<path d="M142.717 56.1826V43.4138" stroke="#263238" stroke-width="0.5" stroke-miterlimit="10" stroke-dasharray="6 6"/>
<path d="M167.886 51.5098H178.084" stroke="#263238" stroke-width="0.5" stroke-miterlimit="10" stroke-dasharray="6 6"/>
<path d="M221.425 59.9861V75.4173" stroke="#263238" stroke-width="0.5" stroke-miterlimit="10" stroke-dasharray="6 6"/>
<path d="M221.425 90.9572V102.476" stroke="#263238" stroke-width="0.5" stroke-miterlimit="10" stroke-dasharray="6 6"/>
<path d="M210.359 96.9341H235.312" stroke="#263238" stroke-width="0.5" stroke-miterlimit="10" stroke-dasharray="6 6"/>
<path d="M221.425 124.047V130.785" stroke="#263238" stroke-width="0.5" stroke-miterlimit="10" stroke-dasharray="6 6"/>
<path d="M247.896 140.022H267.695" stroke="#263238" stroke-width="0.5" stroke-miterlimit="10" stroke-dasharray="6 6"/>
</g>
<defs>
<clipPath id="clip0">
<rect width="370" height="235" fill="white"/>
</clipPath>
</defs>
</svg>
