<svg width="372" height="224" viewBox="0 0 372 224" fill="none" xmlns="http://www.w3.org/2000/svg">
<path d="M230.286 146.987C231.069 142.234 235.106 138.744 239.926 138.684C260.713 138.383 313.736 137.902 316.568 140.188C320.123 143.016 321.93 144.46 321.689 148.912C321.448 153.003 316.989 223.699 316.989 223.699H217.813L230.286 146.987Z" fill="#465A63"/>
<path d="M305.662 223.699C305.662 223.699 305.662 223.639 305.662 223.519C305.662 223.338 305.602 223.158 305.602 222.917C305.542 222.376 305.481 221.593 305.421 220.571C305.361 219.548 305.24 218.284 305.24 216.84C305.18 215.396 305.12 213.712 305.12 211.907C305.12 211.004 305.12 210.041 305.06 209.019C305.06 207.996 305.06 206.973 305.12 205.89C305.12 203.724 305.24 201.438 305.361 199.031C305.662 194.157 306.084 188.863 306.867 183.327C307.65 177.792 308.614 172.497 309.639 167.804C310.181 165.458 310.663 163.172 311.266 161.126C311.567 160.103 311.808 159.08 312.049 158.118C312.35 157.155 312.591 156.252 312.832 155.35C313.314 153.605 313.856 151.981 314.278 150.597C314.7 149.213 315.122 148.01 315.483 147.047C315.845 146.084 316.086 145.362 316.267 144.821C316.327 144.58 316.447 144.4 316.508 144.219C316.568 144.099 316.568 144.039 316.568 144.039C316.568 144.039 316.568 144.099 316.508 144.219C316.447 144.34 316.387 144.58 316.327 144.821C316.146 145.362 315.905 146.084 315.604 147.047C315.303 148.01 314.881 149.213 314.459 150.597C314.037 151.981 313.495 153.545 313.013 155.35C312.772 156.252 312.531 157.155 312.23 158.118C311.989 159.08 311.748 160.103 311.446 161.126C310.904 163.232 310.422 165.458 309.88 167.804C308.855 172.558 307.891 177.792 307.108 183.327C306.385 188.863 305.903 194.157 305.602 199.031C305.481 201.438 305.361 203.724 305.361 205.89C305.361 206.973 305.301 207.996 305.301 209.019C305.301 210.041 305.301 211.004 305.301 211.907C305.301 213.712 305.361 215.396 305.421 216.84C305.421 218.284 305.542 219.548 305.542 220.571C305.602 221.593 305.602 222.376 305.662 222.917C305.662 223.158 305.662 223.398 305.662 223.519C305.662 223.639 305.662 223.699 305.662 223.699Z" fill="#263238"/>
<path d="M249.868 174.302C249.868 174.302 249.928 174.242 250.049 174.242C250.169 174.242 250.29 174.182 250.531 174.242C250.952 174.242 251.555 174.483 251.977 175.085C252.459 175.686 252.579 176.649 252.097 177.551C251.856 177.973 251.555 178.394 251.133 178.695C250.711 178.995 250.169 179.176 249.627 179.236C249.085 179.296 248.482 179.116 248.06 178.815C247.578 178.514 247.337 178.033 247.217 177.551C247.036 176.589 247.458 175.686 248 175.205C249.085 174.242 250.109 174.242 250.109 174.302C250.049 174.242 249.988 174.242 249.868 174.302C249.747 174.302 249.627 174.363 249.446 174.423C249.085 174.603 248.603 174.844 248.121 175.325C247.639 175.807 247.337 176.649 247.518 177.491C247.578 177.912 247.819 178.334 248.241 178.574C248.603 178.815 249.145 178.935 249.627 178.935C250.109 178.875 250.591 178.755 251.013 178.454C251.374 178.153 251.675 177.792 251.916 177.431C252.338 176.649 252.218 175.746 251.856 175.205C251.495 174.663 250.952 174.423 250.591 174.363C250.109 174.242 249.928 174.302 249.868 174.302Z" fill="#263238"/>
<path d="M265.473 165.278C265.473 165.338 264.449 165.157 262.822 165.278C261.195 165.398 258.906 165.999 256.857 167.443C254.808 168.887 253.483 170.813 252.82 172.257C252.097 173.761 251.916 174.784 251.856 174.724C251.856 174.724 251.856 174.483 251.976 174.002C252.097 173.52 252.278 172.919 252.579 172.136C253.242 170.632 254.567 168.587 256.676 167.143C258.785 165.638 261.135 165.097 262.762 165.037C263.605 164.977 264.268 165.037 264.75 165.097C265.232 165.217 265.473 165.278 265.473 165.278Z" fill="#263238"/>
<path d="M236.672 183.688C236.672 183.688 236.733 183.508 236.913 183.207C237.094 182.906 237.395 182.425 237.817 181.944C238.661 180.921 240.047 179.778 241.975 179.116C243.842 178.454 245.71 178.574 246.976 178.815C247.638 178.935 248.12 179.116 248.422 179.296C248.723 179.417 248.904 179.537 248.904 179.537C248.904 179.597 248.181 179.236 246.915 179.056C245.65 178.815 243.903 178.815 242.035 179.417C240.227 180.018 238.781 181.161 237.938 182.124C237.094 183.027 236.733 183.749 236.672 183.688Z" fill="#263238"/>
<path d="M255.893 186.155C255.893 186.155 255.471 185.915 254.869 185.433C254.266 184.892 253.543 184.11 252.881 183.147C252.218 182.124 251.796 181.161 251.615 180.379C251.374 179.657 251.314 179.176 251.374 179.176C251.495 179.116 251.917 181.041 253.182 182.966C254.387 184.892 255.953 186.095 255.893 186.155Z" fill="#263238"/>
<path d="M283.368 175.145C283.368 175.145 283.429 175.085 283.549 175.085C283.67 175.085 283.79 175.024 284.031 175.085C284.453 175.085 285.055 175.325 285.477 175.927C285.959 176.529 286.08 177.491 285.598 178.394C285.357 178.815 285.055 179.236 284.634 179.537C284.212 179.838 283.67 180.018 283.127 180.078C282.585 180.139 281.983 179.958 281.561 179.657C281.079 179.356 280.838 178.875 280.717 178.394C280.537 177.431 280.958 176.529 281.501 176.047C282.585 175.085 283.609 175.085 283.609 175.145C283.549 175.085 283.489 175.085 283.368 175.145C283.248 175.145 283.127 175.205 282.947 175.265C282.585 175.446 282.103 175.686 281.621 176.168C281.139 176.649 280.838 177.491 281.019 178.334C281.079 178.755 281.32 179.176 281.742 179.417C282.103 179.657 282.645 179.778 283.127 179.778C283.609 179.717 284.091 179.597 284.513 179.296C284.875 178.995 285.176 178.634 285.417 178.273C285.839 177.491 285.718 176.589 285.357 176.047C284.995 175.506 284.453 175.265 284.091 175.205C283.609 175.085 283.368 175.145 283.368 175.145Z" fill="#263238"/>
<path d="M298.914 166.12C298.914 166.18 297.889 166 296.262 166.12C294.636 166.24 292.346 166.842 290.297 168.286C288.249 169.73 286.923 171.655 286.26 173.099C285.537 174.603 285.357 175.626 285.296 175.566C285.296 175.566 285.296 175.325 285.417 174.844C285.537 174.363 285.718 173.761 286.019 172.979C286.682 171.475 288.008 169.429 290.117 167.985C292.225 166.481 294.575 165.939 296.202 165.879C297.046 165.819 297.708 165.879 298.19 165.939C298.672 166.06 298.914 166.12 298.914 166.12Z" fill="#263238"/>
<path d="M270.173 184.531C270.173 184.531 270.233 184.35 270.414 184.049C270.595 183.749 270.896 183.267 271.318 182.786C272.161 181.763 273.547 180.62 275.475 179.958C277.343 179.296 279.211 179.417 280.476 179.657C281.139 179.778 281.621 179.958 281.922 180.139C282.223 180.259 282.404 180.379 282.404 180.379C282.404 180.439 281.681 180.078 280.416 179.898C279.151 179.657 277.403 179.657 275.535 180.259C273.728 180.861 272.282 182.004 271.438 182.966C270.595 183.869 270.233 184.591 270.173 184.531Z" fill="#263238"/>
<path d="M289.393 186.998C289.393 186.998 288.971 186.757 288.369 186.276C287.766 185.734 287.043 184.952 286.381 183.989C285.718 182.966 285.296 182.004 285.115 181.222C284.874 180.5 284.814 180.018 284.874 180.018C284.995 179.958 285.417 181.883 286.682 183.809C287.887 185.734 289.453 186.937 289.393 186.998Z" fill="#263238"/>
<path d="M130.929 71.2372L130.989 72.8617C131.23 72.621 131.532 72.5007 131.893 72.5007C132.677 72.4405 133.339 73.0422 133.339 73.8243C133.4 74.6065 132.797 75.2683 132.014 75.3285C131.652 75.3285 131.351 75.2082 131.11 75.0277L131.17 76.6522C131.411 76.4115 131.712 76.2912 132.074 76.2912C132.857 76.231 133.52 76.8327 133.52 77.6148C133.58 78.397 132.978 79.0588 132.195 79.119C131.833 79.119 131.532 78.9987 131.291 78.8182L131.351 80.4426C131.592 80.202 131.893 80.0817 132.255 80.0817C133.038 80.0215 133.701 80.6232 133.701 81.4053C133.761 82.1875 133.159 82.8493 132.375 82.9095C132.014 82.9095 131.712 82.7891 131.471 82.6086L131.532 84.2331C131.773 83.9925 132.074 83.8721 132.436 83.8721C133.219 83.812 133.882 84.4136 133.882 85.1958C133.942 85.978 133.339 86.6398 132.556 86.7C132.195 86.7 131.893 86.5796 131.652 86.3991L131.712 88.0236C131.953 87.783 132.255 87.6626 132.616 87.6626C133.4 87.6025 134.062 88.2041 134.062 88.9863C134.123 89.7685 133.52 90.4303 132.737 90.4905C132.375 90.4905 132.074 90.3701 131.833 90.1896L131.893 91.8141C132.134 91.5735 132.436 91.4531 132.797 91.4531C133.58 91.393 134.243 91.9946 134.243 92.7768C134.303 93.559 133.701 94.2208 132.918 94.2809C132.556 94.2809 132.255 94.1606 132.014 93.9801L132.074 95.0029L175.516 93.9801L173.287 68.7102L130.929 71.2372Z" fill="#EBEBEB"/>
<path d="M129.965 70.2143L130.025 71.8388C130.266 71.5982 130.567 71.4778 130.929 71.4778C131.712 71.4177 132.375 72.0193 132.375 72.8015C132.435 73.5837 131.833 74.2455 131.049 74.3057C130.688 74.3057 130.387 74.1853 130.146 74.0048L130.206 75.6293C130.447 75.3887 130.748 75.2683 131.11 75.2683C131.893 75.2082 132.556 75.8098 132.556 76.592C132.616 77.3742 132.013 78.036 131.23 78.0962C130.869 78.0962 130.567 77.9758 130.326 77.7953L130.387 79.4198C130.628 79.1792 130.929 79.0588 131.29 79.0588C132.074 78.9986 132.736 79.6003 132.736 80.3825C132.797 81.1646 132.194 81.8265 131.411 81.8866C131.049 81.8866 130.748 81.7663 130.507 81.5858L130.567 83.2103C130.808 82.9696 131.11 82.8493 131.471 82.8493C132.254 82.7891 132.917 83.3908 132.917 84.173C132.977 84.9551 132.375 85.617 131.592 85.6771C131.23 85.6771 130.929 85.5568 130.688 85.3763L130.748 87.0008C130.989 86.7601 131.29 86.6398 131.652 86.6398C132.435 86.5796 133.098 87.1813 133.098 87.9635C133.158 88.7456 132.556 89.4075 131.772 89.4676C131.411 89.4676 131.11 89.3473 130.869 89.1668L130.929 90.7913C131.17 90.5506 131.471 90.4303 131.833 90.4303C132.616 90.3701 133.279 90.9718 133.279 91.754C133.339 92.5361 132.736 93.198 131.953 93.2581C131.592 93.2581 131.29 93.1378 131.049 92.9573L131.11 93.9801L174.552 91.6336L173.286 68.0483L129.965 70.2143Z" fill="#F5F5F5"/>
<path d="M173.648 72.5608C173.648 72.621 163.948 73.2227 151.957 73.8845C139.967 74.5463 130.266 74.9675 130.206 74.9073C130.206 74.8471 139.907 74.2455 151.897 73.5837C163.948 72.9218 173.648 72.4405 173.648 72.5608Z" fill="#E0E0E0"/>
<path d="M173.889 76.3513C173.889 76.4115 164.188 77.0132 152.198 77.675C140.208 78.3368 130.507 78.758 130.447 78.6978C130.447 78.6376 140.147 78.036 152.138 77.3742C164.128 76.7123 173.829 76.231 173.889 76.3513Z" fill="#E0E0E0"/>
<path d="M174.07 80.0817C174.07 80.1418 164.369 80.7435 152.379 81.4053C140.388 82.0671 130.688 82.4883 130.627 82.4281C130.627 82.368 140.328 81.7663 152.318 81.1045C164.309 80.4427 174.07 80.0215 174.07 80.0817Z" fill="#E0E0E0"/>
<path d="M174.251 83.8721C174.251 83.9323 164.55 84.534 152.56 85.1958C140.57 85.8576 130.869 86.2788 130.809 86.2186C130.809 86.1585 140.509 85.5568 152.5 84.895C164.55 84.2331 174.251 83.812 174.251 83.8721Z" fill="#E0E0E0"/>
<path d="M174.492 87.6626C174.492 87.7228 164.791 88.3245 152.801 88.9863C140.81 89.6481 131.11 90.0693 131.049 90.0091C131.049 89.949 140.75 89.3473 152.74 88.6855C164.731 88.0236 174.492 87.5423 174.492 87.6626Z" fill="#E0E0E0"/>
<path d="M136.144 69.8655L135.843 69.8816L137.109 93.4939L137.409 93.4778L136.144 69.8655Z" fill="#E6525E"/>
<path d="M141.232 93.2581C141.172 93.2581 140.811 87.9635 140.449 81.4655C140.087 74.9675 139.907 69.6729 139.967 69.6729C140.027 69.6729 140.389 74.9675 140.75 81.4655C141.112 87.9635 141.293 93.2581 141.232 93.2581Z" fill="#E0E0E0"/>
<path d="M133.459 93.6793C133.399 93.6793 133.038 88.3846 132.676 81.8866C132.315 75.3887 132.134 70.094 132.194 70.094C132.254 70.094 132.616 75.3887 132.977 81.8866C133.339 88.3846 133.58 93.6793 133.459 93.6793Z" fill="#E0E0E0"/>
<path d="M145.45 93.0174C145.389 93.0174 145.028 87.7228 144.666 81.2248C144.305 74.7268 144.124 69.4322 144.184 69.4322C144.245 69.4322 144.606 74.7268 144.968 81.2248C145.329 87.7228 145.51 93.0174 145.45 93.0174Z" fill="#E0E0E0"/>
<path d="M149.667 92.837C149.607 92.837 149.246 87.5423 148.884 81.0443C148.523 74.5463 148.342 69.2517 148.402 69.2517C148.462 69.2517 148.824 74.5463 149.185 81.0443C149.547 87.5423 149.788 92.837 149.667 92.837Z" fill="#E0E0E0"/>
<path d="M153.945 92.5963C153.885 92.5963 153.523 87.3016 153.162 80.8036C152.8 74.3056 152.62 69.011 152.68 69.011C152.74 69.011 153.102 74.3056 153.463 80.8036C153.764 87.3016 154.005 92.5963 153.945 92.5963Z" fill="#E0E0E0"/>
<path d="M158.163 92.3556C158.103 92.3556 157.741 87.0609 157.38 80.563C157.018 74.065 156.837 68.7703 156.898 68.7703C156.958 68.7703 157.319 74.065 157.681 80.563C158.042 87.0609 158.223 92.3556 158.163 92.3556Z" fill="#E0E0E0"/>
<path d="M162.381 92.1149C162.32 92.1149 161.959 86.8203 161.597 80.3223C161.236 73.8243 161.055 68.5297 161.115 68.5297C161.176 68.5297 161.537 73.8243 161.899 80.3223C162.26 86.8203 162.501 92.1149 162.381 92.1149Z" fill="#E0E0E0"/>
<path d="M166.599 91.9345C166.538 91.9345 166.177 86.6398 165.815 80.1418C165.454 73.6438 165.273 68.3492 165.333 68.3492C165.393 68.3492 165.755 73.6438 166.117 80.1418C166.478 86.6398 166.719 91.9345 166.599 91.9345Z" fill="#E0E0E0"/>
<path d="M170.876 91.6938C170.816 91.6938 170.455 86.3991 170.093 79.9012C169.732 73.4032 169.551 68.1085 169.611 68.1085C169.671 68.1085 170.033 73.4032 170.394 79.9012C170.756 86.3991 170.937 91.6938 170.876 91.6938Z" fill="#E0E0E0"/>
<path d="M170.335 77.3742C170.335 77.3742 170.214 77.3742 170.033 77.4343C169.792 77.4343 169.491 77.4945 169.129 77.4945C168.286 77.5547 167.201 77.6148 165.876 77.7352C163.104 77.9157 159.308 78.0962 155.091 78.3368C150.873 78.5173 147.077 78.6978 144.305 78.8182C141.534 78.8783 139.847 78.9385 139.847 78.8182C141.474 78.758 147.077 78.4572 155.091 78.036C159.308 77.8555 163.044 77.675 165.876 77.5547C167.201 77.4945 168.346 77.4343 169.129 77.4343C169.491 77.4343 169.792 77.4343 170.033 77.4343C170.214 77.3742 170.335 77.3742 170.335 77.3742Z" fill="#263238"/>
<path d="M171.178 81.7062C171.178 81.7663 164.189 82.1875 155.512 82.6087C146.836 83.0298 139.847 83.2705 139.847 83.1502C139.847 83.09 146.836 82.6688 155.512 82.2477C164.189 81.8867 171.178 81.646 171.178 81.7062Z" fill="#263238"/>
<path d="M171.66 85.4966C171.66 85.5568 164.671 85.978 155.994 86.3991C147.318 86.8203 140.329 87.061 140.329 86.9406C140.329 86.8805 147.318 86.4593 155.994 86.0381C164.671 85.617 171.66 85.3763 171.66 85.4966Z" fill="#263238"/>
<path d="M134.846 72.6812C135.026 73.6439 135.448 74.5464 136.232 75.0879C137.135 75.6895 138.461 75.6293 139.244 74.9074C140.088 74.1854 140.329 72.9219 139.847 71.9592C139.365 70.9965 138.16 70.3949 137.135 70.6355" fill="#E0E0E0"/>
<path d="M134.725 72.6812C134.785 73.7642 135.689 74.6065 136.773 74.5463C137.858 74.4862 138.701 73.5837 138.641 72.5007C138.581 71.4177 137.677 70.5753 136.593 70.6355C135.508 70.6355 134.664 71.5982 134.725 72.6812Z" fill="#465A63"/>
<path d="M133.58 71.9592C133.64 72.621 134.183 73.1023 134.845 73.1023C135.508 73.0422 135.99 72.5007 135.99 71.8388C135.93 71.177 135.388 70.6957 134.725 70.6957C134.062 70.7558 133.58 71.2973 133.58 71.9592Z" fill="#465A63"/>
<path d="M134.725 73.0422C134.725 72.982 134.906 72.982 135.147 72.9218C135.388 72.8617 135.689 72.621 135.809 72.26C135.93 71.899 135.809 71.538 135.689 71.2973C135.568 71.0567 135.448 70.9363 135.448 70.9363C135.448 70.8762 135.689 70.9363 135.87 71.177C136.05 71.4177 136.231 71.8388 136.05 72.3202C135.87 72.8015 135.448 73.0422 135.147 73.1023C134.845 73.1625 134.665 73.0422 134.725 73.0422Z" fill="#263238"/>
<path d="M135.689 71.177C135.749 71.1168 136.05 71.177 136.351 71.1168C136.713 71.0567 136.894 70.816 137.014 70.8762C137.074 70.9363 136.894 71.2973 136.472 71.4177C135.99 71.4778 135.628 71.2372 135.689 71.177Z" fill="#263238"/>
<path d="M135.99 74.1252C135.93 74.1252 135.809 73.7642 135.508 73.4633C135.207 73.1625 134.845 73.1023 134.845 73.0422C134.845 72.982 135.327 72.8617 135.749 73.2828C136.171 73.6438 136.111 74.1853 135.99 74.1252Z" fill="#263238"/>
<path d="M168.226 71.2973C168.406 72.26 168.828 73.1625 169.611 73.704C170.515 74.3057 171.841 74.2455 172.624 73.5235C173.468 72.8015 173.709 71.538 173.227 70.5753C172.745 69.6127 171.539 69.011 170.515 69.2517" fill="#E0E0E0"/>
<path d="M172.021 70.7558C172.082 71.7787 171.298 72.6812 170.214 72.7413C169.189 72.8015 168.286 72.0193 168.225 70.9363C168.165 69.9135 168.948 69.011 170.033 68.9508C171.057 68.8907 171.961 69.6728 172.021 70.7558Z" fill="#2AB2DA"/>
<path d="M173.046 69.9135C173.106 70.5152 172.624 71.0567 171.961 71.1168C171.298 71.177 170.816 70.6957 170.756 70.0338C170.696 69.4322 171.178 68.8907 171.841 68.8305C172.503 68.8305 173.046 69.3118 173.046 69.9135Z" fill="#2AB2DA"/>
<path d="M172.082 71.1168C172.082 71.177 171.961 71.2973 171.6 71.2372C171.298 71.2372 170.877 71.0567 170.636 70.5753C170.455 70.1542 170.515 69.6728 170.696 69.4322C170.877 69.1915 171.057 69.1313 171.057 69.1313C171.057 69.1915 170.937 69.3118 170.877 69.5525C170.756 69.7932 170.756 70.1542 170.877 70.455C171.057 70.7558 171.359 70.9363 171.6 70.9965C171.901 71.0567 172.082 71.0567 172.082 71.1168Z" fill="#263238"/>
<path d="M170.937 69.372C170.997 69.4322 170.696 69.733 170.274 69.6729C169.792 69.6127 169.611 69.2517 169.671 69.1915C169.732 69.1314 169.973 69.3119 170.274 69.372C170.635 69.4322 170.937 69.3119 170.937 69.372Z" fill="#263238"/>
<path d="M170.997 72.3202C170.937 72.3202 170.816 71.899 171.178 71.4177C171.539 70.9965 172.021 71.0567 172.021 71.1169C172.021 71.177 171.66 71.2974 171.419 71.5982C171.117 71.9592 171.057 72.3202 170.997 72.3202Z" fill="#263238"/>
<path d="M98.0913 127.433L133.58 132.005L133.158 119.009L98.0913 127.433Z" fill="#E0E0E0"/>
<path d="M133.146 119.245L99.042 116.403L98.1001 127.675L132.204 130.517L133.146 119.245Z" fill="#465A63"/>
<path d="M128.338 122.68C128.338 122.74 122.614 122.379 115.564 121.777C108.515 121.175 102.791 120.634 102.851 120.574C102.851 120.514 108.575 120.875 115.625 121.476C122.614 122.018 128.338 122.559 128.338 122.68Z" fill="#263238"/>
<path d="M128.278 125.628C128.278 125.688 122.554 125.327 115.504 124.725C108.455 124.124 102.731 123.582 102.791 123.522C102.791 123.462 108.515 123.823 115.565 124.424C122.554 124.966 128.278 125.507 128.278 125.628Z" fill="#263238"/>
<path d="M109.117 115.64L122.313 116.723L121.65 117.325L122.554 118.107L121.469 118.588L122.433 119.491L108.575 118.287L109.479 117.565L108.997 116.783L109.78 116.422L109.117 115.64Z" fill="#EBEBEB"/>
<path d="M77.9668 95.1834C78.0873 95.4241 78.2078 95.6648 78.2078 95.9656C78.2078 96.8079 77.545 97.4698 76.7015 97.4698C75.8579 97.4698 75.1951 96.8079 75.1951 95.9656C75.1951 95.6648 75.2554 95.4241 75.4361 95.1834H73.6286C73.7491 95.4241 73.8696 95.6648 73.8696 95.9656C73.8696 96.8079 73.2068 97.4698 72.3633 97.4698C71.5197 97.4698 70.8569 96.8079 70.8569 95.9656C70.8569 95.6648 70.9172 95.4241 71.098 95.1834H69.2904C69.4109 95.4241 69.5314 95.6648 69.5314 95.9656C69.5314 96.8079 68.8686 97.4698 68.0251 97.4698C67.1815 97.4698 66.5188 96.8079 66.5188 95.9656C66.5188 95.6648 66.579 95.4241 66.7598 95.1834H64.9522C65.0727 95.4241 65.1932 95.6648 65.1932 95.9656C65.1932 96.8079 64.5304 97.4698 63.6869 97.4698C62.8433 97.4698 62.1806 96.8079 62.1806 95.9656C62.1806 95.6648 62.2408 95.4241 62.4216 95.1834H60.614C60.7345 95.4241 60.855 95.6648 60.855 95.9656C60.855 96.8079 60.1922 97.4698 59.3487 97.4698C58.5052 97.4698 57.8424 96.8079 57.8424 95.9656C57.8424 95.6648 57.9026 95.4241 58.0834 95.1834H56.2758C56.3963 95.4241 56.5168 95.6648 56.5168 95.9656C56.5168 96.8079 55.854 97.4698 55.0105 97.4698C54.167 97.4698 53.5042 96.8079 53.5042 95.9656C53.5042 95.6648 53.5644 95.4241 53.7452 95.1834H52.6606V126.831L80.3769 128.335L79.0513 95.1834H77.9668Z" fill="#E0E0E0"/>
<path d="M77.5449 94.3411C77.6654 94.5818 77.7859 94.8225 77.7859 95.1233C77.7859 95.9656 77.1231 96.6275 76.2796 96.6275C75.436 96.6275 74.7733 95.9656 74.7733 95.1233C74.7733 94.8225 74.8335 94.5818 75.0143 94.3411H73.2067C73.3272 94.5818 73.4477 94.8225 73.4477 95.1233C73.4477 95.9656 72.7849 96.6275 71.9414 96.6275C71.0979 96.6275 70.4351 95.9656 70.4351 95.1233C70.4351 94.8225 70.4953 94.5818 70.6761 94.3411H68.8685C68.989 94.5818 69.1095 94.8225 69.1095 95.1233C69.1095 95.9656 68.4467 96.6275 67.6032 96.6275C66.7597 96.6275 66.0969 95.9656 66.0969 95.1233C66.0969 94.8225 66.1571 94.5818 66.3379 94.3411H64.5303C64.6508 94.5818 64.7713 94.8225 64.7713 95.1233C64.7713 95.9656 64.1085 96.6275 63.265 96.6275C62.4215 96.6275 61.7587 95.9656 61.7587 95.1233C61.7587 94.8225 61.8189 94.5818 61.9997 94.3411H60.1921C60.3126 94.5818 60.4331 94.8225 60.4331 95.1233C60.4331 95.9656 59.7704 96.6275 58.9268 96.6275C58.0833 96.6275 57.4205 95.9656 57.4205 95.1233C57.4205 94.8225 57.4808 94.5818 57.6615 94.3411H55.8539C55.9744 94.5818 56.0949 94.8225 56.0949 95.1233C56.0949 95.9656 55.4322 96.6275 54.5886 96.6275C53.7451 96.6275 53.0823 95.9656 53.0823 95.1233C53.0823 94.8225 53.1426 94.5818 53.3233 94.3411H52.2388V125.989H78.6294V94.3411H77.5449Z" fill="#F5F5F5"/>
<path d="M50.1301 127.433C50.0699 127.433 49.8891 119.731 49.7686 110.285C49.6481 100.839 49.6481 93.1378 49.7686 93.1378C49.8289 93.1378 50.0096 100.779 50.1301 110.285C50.1904 119.792 50.1904 127.433 50.1301 127.433Z" fill="#E0E0E0"/>
<path d="M54.3479 127.433C54.2876 127.433 54.1069 119.731 53.9864 110.285C53.8659 100.839 53.8659 93.1378 53.9864 93.1378C54.0466 93.1378 54.2274 100.779 54.3479 110.285C54.4684 119.731 54.4684 127.433 54.3479 127.433Z" fill="#E0E0E0"/>
<path d="M56.4568 127.433C56.3965 127.433 56.2158 119.731 56.0953 110.285C55.9748 100.839 55.9748 93.1378 56.0953 93.1378C56.1555 93.1378 56.3363 100.779 56.4568 110.285C56.5773 119.731 56.5773 127.433 56.4568 127.433Z" fill="#E0E0E0"/>
<path d="M60.7346 127.433C60.6744 127.433 60.4936 119.731 60.3731 110.285C60.2526 100.839 60.2526 93.1378 60.3731 93.1378C60.4333 93.1378 60.6141 100.779 60.7346 110.285C60.8551 119.731 60.8551 127.433 60.7346 127.433Z" fill="#E0E0E0"/>
<path d="M65.073 127.433C65.0127 127.433 64.832 119.731 64.7115 110.285C64.591 100.839 64.591 93.1378 64.7115 93.1378C64.7717 93.1378 64.9525 100.779 65.073 110.285C65.1332 119.731 65.1332 127.433 65.073 127.433Z" fill="#E0E0E0"/>
<path d="M69.3508 127.433C69.2906 127.433 69.1098 119.731 68.9893 110.285C68.8688 100.839 68.8688 93.1378 68.9893 93.1378C69.0496 93.1378 69.2303 100.779 69.3508 110.285C69.4111 119.731 69.4111 127.433 69.3508 127.433Z" fill="#E0E0E0"/>
<path d="M73.3874 127.433C73.3272 127.433 73.1464 119.731 73.0259 110.285C72.9054 100.839 72.9054 93.1378 73.0259 93.1378C73.1464 93.1378 73.2669 100.779 73.3874 110.285C73.4477 119.731 73.5079 127.433 73.3874 127.433Z" fill="#E0E0E0"/>
<path d="M77.4846 127.433C77.4244 127.433 77.2436 119.731 77.1231 110.285C77.0026 100.839 77.0026 93.1378 77.1231 93.1378C77.1833 93.1378 77.3641 100.779 77.4846 110.285C77.5449 119.731 77.5449 127.433 77.4846 127.433Z" fill="#E0E0E0"/>
<path d="M58.6257 127.373C58.5655 127.373 58.3847 119.671 58.2642 110.225C58.1437 100.779 58.1437 93.0776 58.2642 93.0776C58.3245 93.0776 58.5052 100.719 58.6257 110.225C58.686 119.671 58.686 127.373 58.6257 127.373Z" fill="#E0E0E0"/>
<path d="M62.8435 127.312C62.7832 127.312 62.6025 119.611 62.482 110.165C62.3615 100.719 62.3615 93.0175 62.482 93.0175C62.5422 93.0175 62.723 100.659 62.8435 110.165C62.9037 119.671 62.964 127.312 62.8435 127.312Z" fill="#E0E0E0"/>
<path d="M67.0613 127.312C67.001 127.312 66.8203 119.611 66.6998 110.165C66.5792 100.719 66.5792 93.0175 66.6998 93.0175C66.76 93.0175 66.9408 100.659 67.0613 110.165C67.1818 119.611 67.1818 127.312 67.0613 127.312Z" fill="#E0E0E0"/>
<path d="M71.3391 127.252C71.2788 127.252 71.0981 119.551 70.9776 110.105C70.8571 100.659 70.8571 92.9573 70.9776 92.9573C71.0378 92.9573 71.2186 100.598 71.3391 110.105C71.3993 119.551 71.3993 127.252 71.3391 127.252Z" fill="#E0E0E0"/>
<path d="M75.3762 127.433C75.316 127.433 75.1352 119.731 75.0147 110.285C74.8942 100.839 74.8942 93.1378 75.0147 93.1378C75.0749 93.1378 75.2557 100.779 75.3762 110.285C75.4967 119.792 75.4967 127.433 75.3762 127.433Z" fill="#E0E0E0"/>
<path d="M79.8347 127.132C79.7745 127.132 79.5937 119.431 79.4732 109.984C79.3527 100.538 79.3527 92.837 79.4732 92.837C79.5334 92.837 79.7142 100.478 79.8347 109.984C79.895 119.491 79.895 127.132 79.8347 127.132Z" fill="#E0E0E0"/>
<path d="M84.3538 123.161C84.3538 123.221 76.6414 123.402 67.1818 123.462C57.7221 123.582 50.0098 123.582 50.0098 123.462C50.0098 123.402 57.6619 123.221 67.1818 123.161C76.7017 123.041 84.3538 123.041 84.3538 123.161Z" fill="#E0E0E0"/>
<path d="M84.5344 125.327C84.5344 125.387 76.8221 125.568 67.3624 125.628C57.9028 125.748 50.1904 125.748 50.1904 125.628C50.1904 125.568 57.8425 125.387 67.3624 125.327C76.8221 125.207 84.5344 125.207 84.5344 125.327Z" fill="#E0E0E0"/>
<path d="M84.2932 118.889C84.2932 118.949 76.5809 119.13 67.1212 119.19C57.6616 119.31 49.9492 119.31 49.9492 119.19C49.9492 119.13 57.6013 118.949 67.1212 118.889C76.6412 118.829 84.2932 118.829 84.2932 118.889Z" fill="#E0E0E0"/>
<path d="M84.2932 114.677C84.2932 114.738 76.5809 114.918 67.1212 114.978C57.6616 115.099 49.9492 115.099 49.9492 114.978C49.9492 114.918 57.6013 114.738 67.1212 114.677C76.5809 114.617 84.2932 114.557 84.2932 114.677Z" fill="#E0E0E0"/>
<path d="M84.2332 110.466C84.2332 110.526 76.5208 110.706 67.0612 110.767C57.6015 110.887 49.8892 110.887 49.8892 110.767C49.8892 110.706 57.5412 110.526 67.0612 110.466C76.5208 110.345 84.2332 110.345 84.2332 110.466Z" fill="#E0E0E0"/>
<path d="M84.1726 106.194C84.1726 106.254 76.4603 106.435 67.0006 106.495C57.541 106.615 49.8286 106.615 49.8286 106.495C49.8286 106.435 57.4807 106.254 67.0006 106.194C76.5205 106.134 84.1726 106.134 84.1726 106.194Z" fill="#E0E0E0"/>
<path d="M84.1726 101.982C84.1726 102.042 76.4603 102.223 67.0006 102.283C57.541 102.403 49.8286 102.403 49.8286 102.283C49.8286 102.223 57.4807 102.042 67.0006 101.982C76.4603 101.862 84.1726 101.862 84.1726 101.982Z" fill="#E0E0E0"/>
<path d="M84.1126 97.7105C84.1126 97.7706 76.4002 97.9511 66.9406 98.0113C57.4809 98.1316 49.7686 98.1316 49.7686 98.0113C49.7686 97.9511 57.4206 97.7706 66.9406 97.7105C76.4002 97.6503 84.1126 97.6503 84.1126 97.7105Z" fill="#E0E0E0"/>
<path d="M84.1126 96.0258C84.1126 96.086 76.4002 96.2665 66.9406 96.3266C57.4809 96.447 49.7686 96.447 49.7686 96.3266C49.7686 96.2665 57.4206 96.086 66.9406 96.0258C76.4002 95.9656 84.1126 95.9656 84.1126 96.0258Z" fill="#E0E0E0"/>
<path d="M84.1126 99.8765C84.1126 99.9366 76.4002 100.117 66.9406 100.177C57.4809 100.298 49.7686 100.298 49.7686 100.177C49.7686 100.117 57.4206 99.9366 66.9406 99.8765C76.4002 99.8163 84.1126 99.8163 84.1126 99.8765Z" fill="#E0E0E0"/>
<path d="M84.1126 104.088C84.1126 104.148 76.4002 104.329 66.9406 104.389C57.4809 104.509 49.7686 104.509 49.7686 104.389C49.7686 104.329 57.4206 104.148 66.9406 104.088C76.4002 104.028 84.1126 104.028 84.1126 104.088Z" fill="#E0E0E0"/>
<path d="M84.1126 108.3C84.1126 108.36 76.4002 108.54 66.9406 108.601C57.4809 108.721 49.7686 108.721 49.7686 108.601C49.7686 108.54 57.4206 108.36 66.9406 108.3C76.4002 108.24 84.1126 108.24 84.1126 108.3Z" fill="#E0E0E0"/>
<path d="M84.1126 112.511C84.1126 112.572 76.4002 112.752 66.9406 112.812C57.4809 112.933 49.7686 112.933 49.7686 112.812C49.7686 112.752 57.4206 112.572 66.9406 112.511C76.4002 112.391 84.1126 112.391 84.1126 112.511Z" fill="#E0E0E0"/>
<path d="M84.1126 116.723C84.1126 116.783 76.4002 116.964 66.9406 117.024C57.4809 117.144 49.7686 117.144 49.7686 117.024C49.7686 116.964 57.4206 116.783 66.9406 116.723C76.4002 116.603 84.1126 116.603 84.1126 116.723Z" fill="#E0E0E0"/>
<path d="M84.1126 120.875C84.1126 120.935 76.4002 121.115 66.9406 121.175C57.4809 121.296 49.7686 121.296 49.7686 121.175C49.7686 121.115 57.4206 120.935 66.9406 120.875C76.4002 120.814 84.1126 120.814 84.1126 120.875Z" fill="#E0E0E0"/>
<path d="M63.145 98.9138C63.3258 99.8765 63.7475 100.779 64.5308 101.32C65.4346 101.922 66.7602 101.862 67.5435 101.14C68.387 100.418 68.628 99.1545 68.146 98.1918C67.664 97.2291 66.4589 96.6275 65.4346 96.8681" fill="#E0E0E0"/>
<path d="M63.0846 98.9138C63.1448 99.9968 64.0486 100.839 65.1332 100.779C66.2177 100.719 67.0613 99.8163 67.001 98.7333C66.9408 97.6503 66.037 96.8079 64.9524 96.8681C63.8679 96.8681 63.0243 97.8308 63.0846 98.9138Z" fill="#514F7E"/>
<path d="M61.9399 98.1918C62.0002 98.8536 62.5425 99.3349 63.2052 99.3349C63.868 99.2748 64.3501 98.7333 64.3501 98.0714C64.2898 97.4096 63.7475 96.9283 63.0847 96.9283C62.422 96.9885 61.9399 97.5299 61.9399 98.1918Z" fill="#514F7E"/>
<path d="M63.0848 99.2748C63.0848 99.2146 63.2655 99.2146 63.5066 99.1545C63.7476 99.0943 64.0488 98.8536 64.1693 98.4926C64.2898 98.1316 64.1693 97.7706 64.0488 97.53C63.9283 97.2893 63.8078 97.1689 63.8078 97.1689C63.8078 97.1088 64.0488 97.1689 64.2296 97.4096C64.4103 97.6503 64.5911 98.0715 64.4103 98.5528C64.2296 99.0341 63.8078 99.2748 63.5066 99.335C63.2053 99.3951 63.0245 99.335 63.0848 99.2748Z" fill="#263238"/>
<path d="M64.0486 97.4096C64.1089 97.3495 64.4101 97.4096 64.7114 97.3495C65.0729 97.2893 65.2537 97.0486 65.3742 97.1088C65.4344 97.169 65.2537 97.53 64.8319 97.6503C64.2896 97.7105 63.9884 97.4698 64.0486 97.4096Z" fill="#263238"/>
<path d="M64.3499 100.418C64.2896 100.418 64.1691 100.057 63.8679 99.7561C63.5666 99.4553 63.2051 99.3951 63.2051 99.3349C63.2051 99.2748 63.6871 99.1544 64.1089 99.5756C64.5306 99.9366 64.4101 100.418 64.3499 100.418Z" fill="#263238"/>
<path d="M75.1953 105.652C75.1953 105.713 70.9776 105.833 65.7959 105.833C60.6142 105.833 56.3965 105.773 56.3965 105.652C56.3965 105.532 60.6142 105.472 65.7959 105.472C70.9776 105.472 75.1953 105.532 75.1953 105.652Z" fill="#263238"/>
<path d="M75.1953 107.578C75.1953 107.638 70.9776 107.758 65.7959 107.758C60.6142 107.758 56.3965 107.698 56.3965 107.578C56.3965 107.518 60.6142 107.397 65.7959 107.397C70.9776 107.457 75.1953 107.518 75.1953 107.578Z" fill="#263238"/>
<path d="M75.1953 109.563C75.1953 109.623 70.9776 109.744 65.7959 109.744C60.6142 109.744 56.3965 109.684 56.3965 109.563C56.3965 109.503 60.6142 109.383 65.7959 109.383C70.9776 109.383 75.1953 109.443 75.1953 109.563Z" fill="#263238"/>
<path d="M75.1953 111.489C75.1953 111.549 70.9776 111.669 65.7959 111.669C60.6142 111.669 56.3965 111.609 56.3965 111.489C56.3965 111.428 60.6142 111.308 65.7959 111.308C70.9776 111.368 75.1953 111.428 75.1953 111.489Z" fill="#263238"/>
<path d="M75.1953 113.474C75.1953 113.534 70.9776 113.655 65.7959 113.655C60.6142 113.655 56.3965 113.594 56.3965 113.474C56.3965 113.414 60.6142 113.294 65.7959 113.294C70.9776 113.294 75.1953 113.354 75.1953 113.474Z" fill="#263238"/>
<path d="M75.1953 115.399C75.1953 115.46 70.9776 115.58 65.7959 115.58C60.6142 115.58 56.3965 115.52 56.3965 115.399C56.3965 115.339 60.6142 115.219 65.7959 115.219C70.9776 115.279 75.1953 115.339 75.1953 115.399Z" fill="#263238"/>
<path d="M75.1953 117.385C75.1953 117.445 70.9776 117.565 65.7959 117.565C60.6142 117.565 56.3965 117.505 56.3965 117.385C56.3965 117.325 60.6142 117.204 65.7959 117.204C70.9776 117.204 75.1953 117.265 75.1953 117.385Z" fill="#263238"/>
<path d="M28.6801 207.334C28.3788 207.334 28.1378 207.153 28.0776 206.853L6.62763 125.327C6.56738 124.966 6.74813 124.605 7.10965 124.545C7.47117 124.485 7.83268 124.665 7.89294 125.026L29.3429 206.552C29.4031 206.913 29.2224 207.274 28.8609 207.334C28.8006 207.334 28.7404 207.334 28.6801 207.334Z" fill="#263238"/>
<path d="M23.0166 209.38C22.7153 209.38 22.4743 209.199 22.4141 208.898L1.02436 127.373C0.964105 127.012 1.14486 126.651 1.50638 126.59C1.86789 126.47 2.22941 126.711 2.28966 127.072L23.7396 208.597C23.8601 208.958 23.6191 209.319 23.2576 209.38C23.1371 209.38 23.0768 209.38 23.0166 209.38Z" fill="#263238"/>
<path d="M3.55481 123.823L2.53052 123.041L57.5412 49.1561L107.732 58.7225L107.491 59.986L58.0835 50.5399L3.55481 123.823Z" fill="#263238"/>
<path d="M61.3778 51.4481L7.27051 124.417L8.28744 125.169L62.3947 52.2L61.3778 51.4481Z" fill="#263238"/>
<path d="M56.1554 52.5254C56.8182 54.4507 58.8668 55.4134 60.7949 54.8117C62.7229 54.1499 63.687 52.1042 63.0845 50.1789C62.4217 48.2536 60.3731 47.2909 58.445 47.8926C56.5169 48.5544 55.5529 50.6001 56.1554 52.5254Z" fill="#C7E5F6"/>
<path d="M105.322 54.571L104.418 49.3967L108.334 49.0959L108.575 54.1499L105.322 54.571Z" fill="#C7E5F6"/>
<g opacity="0.3">
<g opacity="0.3">
<path opacity="0.3" d="M105.322 54.571L104.418 49.3967L108.334 49.0959L108.575 54.1499L105.322 54.571Z" fill="#C7E5F6"/>
</g>
</g>
<path d="M102.189 54.21L98.5735 73.5837L89.5356 99.2146L140.509 91.8743L119.963 69.5525L111.347 52.8864L102.189 54.21Z" fill="#C7E5F6"/>
<path d="M0 125.989C0 128.215 1.80758 130.02 4.03693 130.02C6.26628 130.02 8.07386 128.215 8.07386 125.989C8.07386 123.763 6.26628 121.958 4.03693 121.958C1.80758 121.958 0 123.763 0 125.989Z" fill="#C7E5F6"/>
<path d="M12.593 223.639C12.593 223.398 12.5327 223.098 12.5327 222.857C12.5327 213.952 19.763 206.732 28.6804 206.732C37.5978 206.732 44.8281 213.952 44.8281 222.857C44.8281 223.158 44.8281 223.398 44.7679 223.639H12.593Z" fill="#C7E5F6"/>
<path d="M100.743 217.622C100.562 217.683 99.7183 218.525 100.923 219.909C102.128 221.292 109.419 225.023 110.805 222.797C112.13 220.57 108.877 219.006 108.877 219.006L100.743 217.622Z" fill="#FEBEA0"/>
<path d="M108.756 215.216C108.756 215.216 116.288 214.373 119.361 214.794C122.674 215.216 126.229 213.531 128.338 211.245C130.447 208.958 130.989 205.95 130.989 205.95L135.809 202.581C135.809 202.581 136.352 191.209 128.76 193.014L119.903 193.315C119.903 193.315 102.429 196.203 99.7181 198.369C99.7181 198.369 96.4042 201.558 95.4402 202.821C95.0787 203.303 94.7774 207.996 98.0913 209.56C98.0913 209.56 96.103 212.087 97.8503 213.471L98.6938 214.072C98.6938 214.072 97.549 216.599 98.6336 217.321C99.7181 218.043 108.093 220.57 110.443 218.946C112.793 217.261 110.021 215.396 108.756 215.216Z" fill="#FEBEA0"/>
<path d="M99.3566 209.139C99.3566 209.139 99.7181 209.139 100.321 209.259C100.923 209.319 101.887 209.44 103.032 209.56C103.574 209.62 104.237 209.62 104.9 209.62C105.563 209.62 106.286 209.62 107.069 209.68C107.852 209.741 108.636 209.921 109.359 210.402C110.021 210.884 110.624 211.726 110.503 212.749C110.443 213.23 110.142 213.651 109.841 213.952C109.479 214.253 109.118 214.434 108.696 214.614C107.913 214.915 107.069 214.975 106.346 215.035C104.84 215.155 103.454 215.095 102.309 214.975C101.164 214.855 100.26 214.674 99.6579 214.614C99.0554 214.494 98.6938 214.433 98.6938 214.433C98.6938 214.433 99.0554 214.434 99.6579 214.494C100.321 214.554 101.224 214.674 102.369 214.795C103.514 214.915 104.84 214.975 106.346 214.795C107.069 214.734 107.852 214.614 108.636 214.373C108.997 214.253 109.359 214.072 109.66 213.772C109.961 213.531 110.202 213.17 110.202 212.749C110.323 211.967 109.841 211.185 109.178 210.703C108.575 210.222 107.732 210.102 107.009 210.041C106.286 209.981 105.563 209.981 104.9 209.981C104.237 209.981 103.574 209.921 103.032 209.861C101.887 209.741 100.983 209.62 100.321 209.5C99.7181 209.199 99.3566 209.139 99.3566 209.139Z" fill="#E99972"/>
<path d="M98.754 203.664C98.754 203.664 99.1155 203.664 99.718 203.784C100.321 203.844 101.285 203.965 102.369 204.085C103.514 204.205 104.84 204.265 106.346 204.265C107.069 204.265 107.912 204.205 108.696 204.626C109.057 204.807 109.419 205.168 109.599 205.589C109.78 206.01 109.78 206.492 109.72 206.913C109.539 207.815 108.937 208.537 108.214 209.019C107.491 209.5 106.707 209.68 105.924 209.741C104.418 209.861 103.032 209.62 101.887 209.56C100.803 209.44 99.8988 209.38 99.236 209.259C98.6335 209.199 98.272 209.139 98.272 209.139C98.272 209.139 98.6335 209.139 99.236 209.139C99.8988 209.199 100.803 209.259 101.947 209.319C103.092 209.38 104.418 209.56 105.924 209.44C106.647 209.38 107.43 209.139 108.093 208.718C108.756 208.297 109.298 207.635 109.479 206.853C109.66 206.07 109.298 205.168 108.635 204.867C107.973 204.506 107.129 204.566 106.406 204.506C104.9 204.506 103.514 204.386 102.429 204.265C101.285 204.145 100.381 203.965 99.7783 203.844C99.1155 203.784 98.754 203.724 98.754 203.664Z" fill="#E99972"/>
<path d="M102.67 204.326C102.61 204.326 102.369 203.664 102.008 202.942C101.646 202.22 101.224 201.618 101.285 201.558C101.345 201.498 101.887 201.979 102.309 202.761C102.67 203.604 102.731 204.326 102.67 204.326Z" fill="#E99972"/>
<path d="M125.687 193.435L118.577 192.473C118.577 192.473 98.4529 188.381 98.2722 188.923C98.0914 189.464 97.0671 189.645 97.8504 191.811C98.5734 193.977 110.202 195.902 110.744 196.564C111.287 197.226 111.648 201.257 116.167 203.062C120.746 204.867 123.578 204.265 123.578 204.265" fill="#FEBEA0"/>
<path d="M123.518 204.265C123.518 204.265 123.458 204.265 123.337 204.326C123.217 204.326 123.096 204.386 122.855 204.386C122.433 204.446 121.831 204.446 121.048 204.386C120.264 204.326 119.3 204.205 118.276 203.904C117.191 203.604 115.986 203.243 114.781 202.521C113.576 201.859 112.431 200.716 111.648 199.272C111.226 198.55 110.985 197.707 110.684 196.925C110.624 196.805 110.624 196.745 110.564 196.684C110.503 196.624 110.443 196.624 110.323 196.564C110.142 196.504 109.901 196.444 109.72 196.323C109.298 196.203 108.877 196.083 108.395 195.962C106.647 195.481 104.779 195.06 102.851 194.518C101.887 194.218 100.923 193.917 99.9591 193.556C99.4771 193.375 98.9951 193.135 98.5131 192.834C98.2721 192.713 98.0913 192.533 97.8503 192.352C97.7298 192.232 97.6695 192.112 97.6093 191.991C97.549 191.871 97.549 191.751 97.4888 191.63C97.3683 191.089 97.2478 190.547 97.3683 190.006C97.4285 189.705 97.6093 189.464 97.79 189.284C97.8503 189.164 97.9708 189.103 97.9708 188.983C97.9708 188.983 97.9708 188.983 98.031 188.923C98.0913 188.863 98.1516 188.863 98.1516 188.863C98.2118 188.863 98.2118 188.863 98.2721 188.863C98.3323 188.863 98.3926 188.863 98.4528 188.863C99.4771 188.923 100.501 189.103 101.465 189.284C103.454 189.585 105.322 189.946 107.129 190.307C110.744 190.969 113.938 191.63 116.709 192.172C117.372 192.292 118.035 192.473 118.637 192.533C119.24 192.593 119.843 192.713 120.385 192.774C121.469 192.954 122.433 193.074 123.156 193.195C123.879 193.315 124.482 193.375 124.904 193.435C125.085 193.496 125.265 193.496 125.386 193.496C125.506 193.496 125.567 193.556 125.567 193.556C125.567 193.556 125.506 193.556 125.386 193.556C125.265 193.556 125.085 193.556 124.904 193.496C124.482 193.435 123.879 193.375 123.156 193.315C122.373 193.195 121.409 193.074 120.325 192.954C119.782 192.894 119.18 192.834 118.577 192.713C117.975 192.593 117.312 192.473 116.649 192.352C113.938 191.811 110.684 191.209 107.069 190.547C105.261 190.186 103.394 189.886 101.405 189.525C100.441 189.344 99.4169 189.224 98.3926 189.164C98.3323 189.164 98.2721 189.164 98.2118 189.164H98.1516C98.0913 189.103 98.1516 189.103 98.1516 189.103C98.3926 189.164 98.2118 189.164 98.2721 189.164C98.2118 189.284 98.0913 189.404 98.031 189.525C97.8503 189.705 97.7298 189.886 97.6695 190.126C97.549 190.547 97.6093 191.089 97.79 191.57C97.8503 191.811 97.9105 192.052 98.0913 192.232C98.2721 192.413 98.4528 192.533 98.6938 192.713C99.1156 192.954 99.5976 193.195 100.08 193.375C101.044 193.736 102.008 194.097 102.912 194.338C104.84 194.879 106.707 195.361 108.455 195.842C108.877 195.962 109.359 196.083 109.78 196.203C110.021 196.263 110.202 196.323 110.443 196.444C110.564 196.504 110.684 196.564 110.744 196.684C110.805 196.805 110.865 196.925 110.925 196.985C111.226 197.828 111.467 198.61 111.889 199.332C112.612 200.776 113.697 201.859 114.902 202.521C116.107 203.182 117.312 203.604 118.336 203.904C119.36 204.205 120.325 204.386 121.108 204.446C121.891 204.506 122.494 204.506 122.855 204.506C123.036 204.506 123.217 204.506 123.337 204.446C123.458 204.265 123.518 204.265 123.518 204.265Z" fill="#E99972"/>
<path d="M106.587 214.855C106.587 214.855 106.828 214.855 107.31 214.915C107.792 214.975 108.455 215.156 109.238 215.517C109.599 215.697 110.021 215.938 110.443 216.238C110.865 216.539 111.286 217.021 111.347 217.622C111.407 218.284 110.985 218.886 110.443 219.187C109.901 219.548 109.178 219.608 108.515 219.608C105.924 219.427 103.574 219.066 101.947 218.645C101.104 218.404 100.441 218.224 100.019 218.043C99.5975 217.863 99.3564 217.743 99.3564 217.743C99.3564 217.743 99.5975 217.803 100.079 217.923C100.562 218.043 101.224 218.224 102.008 218.404C103.634 218.765 105.984 219.126 108.515 219.247C109.117 219.247 109.78 219.187 110.262 218.886C110.744 218.585 111.106 218.104 111.045 217.562C110.985 217.081 110.624 216.66 110.262 216.359C109.901 216.058 109.479 215.817 109.117 215.637C107.671 214.915 106.587 214.915 106.587 214.855Z" fill="#E99972"/>
<path d="M158.947 173.761C158.947 173.761 167.864 159.08 169.852 149.394C171.841 139.707 182.204 124.364 185.578 120.333C188.892 116.302 202.268 111.669 202.268 111.669L207.209 109.022L245.409 105.652C245.409 105.652 270.836 108.3 278.488 115.339C286.2 122.379 292.165 138.383 292.165 146.385C292.165 154.387 299.938 223.759 299.938 223.759L205.823 223.639L207.932 189.404C207.932 189.404 196.544 181.703 193.532 175.024C190.519 168.346 192.206 171.715 192.206 171.715C192.206 171.715 181.541 194.338 177.866 197.045C174.191 199.693 131.471 212.809 131.471 212.809L125.627 190.427L158.947 173.761Z" fill="#2AB2DA"/>
<path d="M270.113 118.167C269.088 118.468 256.315 151.379 255.411 154.387C254.507 157.396 255.411 176.228 255.411 176.228L259.629 183.989C259.629 183.989 258.424 189.645 259.327 192.352L240.468 195.962C240.468 195.962 235.648 192.653 231.189 195.962L208.956 197.828C208.956 197.828 215.463 197.888 213.535 207.936C211.607 217.743 210.161 219.909 210.161 219.909L288.429 218.104C288.429 218.104 297.106 217.682 295.78 200.956C294.455 184.29 290.719 138.203 290.719 138.203C290.719 138.203 284.995 113.534 270.113 118.167Z" fill="#2AB2DA"/>
<path d="M255.23 173.58C255.23 173.58 255.17 173.46 255.049 173.159C254.929 172.858 254.748 172.437 254.567 171.956C254.387 171.414 254.085 170.813 253.844 170.031C253.603 169.309 253.302 168.466 253.001 167.504C252.699 166.541 252.398 165.518 252.157 164.375C251.856 163.232 251.615 162.028 251.374 160.705C250.952 158.118 250.591 155.23 250.47 152.221C250.35 149.213 250.47 146.325 250.711 143.678C250.892 142.354 251.012 141.151 251.193 140.008C251.314 139.406 251.374 138.864 251.494 138.323C251.615 137.781 251.735 137.3 251.796 136.819C251.976 135.856 252.217 134.954 252.458 134.232C252.639 133.449 252.82 132.848 253.001 132.306C253.181 131.825 253.302 131.404 253.423 131.103C253.543 130.802 253.543 130.682 253.603 130.682C253.603 130.682 253.603 130.862 253.483 131.103C253.423 131.404 253.302 131.825 253.121 132.306C252.94 132.848 252.76 133.51 252.639 134.232C252.458 135.014 252.217 135.856 252.037 136.819C251.916 137.3 251.856 137.781 251.735 138.323C251.615 138.864 251.555 139.406 251.494 140.008C251.314 141.151 251.193 142.414 251.012 143.678C250.771 146.265 250.651 149.153 250.771 152.161C250.892 155.169 251.253 157.997 251.675 160.584C251.916 161.848 252.157 163.111 252.398 164.194C252.639 165.338 252.94 166.36 253.181 167.323C253.423 168.286 253.724 169.128 253.965 169.85C254.206 170.632 254.447 171.234 254.628 171.775C254.808 172.257 254.929 172.678 255.049 172.979C255.23 173.4 255.23 173.58 255.23 173.58Z" fill="#263238"/>
<path d="M282.464 209.199C282.464 209.199 282.404 209.139 282.284 208.958C282.163 208.778 281.982 208.537 281.741 208.297C281.5 207.996 281.259 207.635 280.898 207.214C280.536 206.792 280.175 206.311 279.753 205.83C279.331 205.348 278.849 204.747 278.247 204.205C277.704 203.604 277.102 203.062 276.439 202.46C275.114 201.257 273.607 200.054 271.92 198.85C270.233 197.707 268.546 196.745 266.979 195.902C266.196 195.541 265.413 195.12 264.69 194.819C263.967 194.518 263.304 194.218 262.641 194.037C262.039 193.796 261.436 193.616 260.954 193.435C260.472 193.255 259.99 193.135 259.629 193.014C259.267 192.894 259.026 192.834 258.785 192.774C258.604 192.713 258.484 192.653 258.484 192.653C258.484 192.653 258.604 192.653 258.785 192.713C259.026 192.774 259.267 192.834 259.629 192.894C259.99 192.954 260.472 193.074 260.954 193.255C261.497 193.435 262.039 193.556 262.702 193.796C263.364 194.037 264.027 194.278 264.75 194.579C265.473 194.879 266.256 195.24 267.04 195.601C268.667 196.384 270.354 197.346 272.041 198.55C273.728 199.753 275.234 200.956 276.56 202.22C277.222 202.821 277.825 203.423 278.367 204.025C278.909 204.626 279.392 205.168 279.813 205.709C280.235 206.191 280.597 206.732 280.958 207.153C281.259 207.575 281.561 207.936 281.741 208.297C281.922 208.597 282.103 208.838 282.223 209.019C282.404 209.139 282.464 209.199 282.464 209.199Z" fill="#263238"/>
<path d="M289.032 204.807C288.972 204.867 288.309 204.085 286.983 203.002C286.321 202.46 285.537 201.919 284.573 201.317C283.609 200.776 282.525 200.234 281.32 199.753C280.114 199.332 278.909 198.971 277.825 198.79C276.74 198.61 275.716 198.489 274.873 198.429C273.185 198.369 272.161 198.489 272.161 198.429C272.161 198.429 272.402 198.369 272.884 198.309C273.125 198.249 273.426 198.249 273.728 198.249C274.089 198.249 274.451 198.189 274.873 198.249C275.716 198.249 276.74 198.369 277.825 198.55C278.909 198.73 280.114 199.091 281.38 199.512C282.585 199.994 283.73 200.535 284.694 201.137C285.658 201.738 286.441 202.34 287.104 202.882C287.465 203.122 287.706 203.423 287.947 203.664C288.188 203.904 288.369 204.085 288.55 204.265C288.911 204.626 289.092 204.807 289.032 204.807Z" fill="#263238"/>
<path d="M281.802 193.857C281.741 193.917 280.838 193.195 279.151 192.352C278.729 192.172 278.247 191.931 277.765 191.751C277.283 191.51 276.68 191.39 276.078 191.209C274.873 190.908 273.547 190.608 272.101 190.487C270.655 190.427 269.329 190.487 268.064 190.608C267.462 190.728 266.859 190.788 266.317 190.969C265.774 191.089 265.292 191.209 264.81 191.39C263.003 191.991 262.039 192.593 261.979 192.533C261.979 192.533 262.22 192.352 262.702 192.112C262.943 191.991 263.244 191.811 263.545 191.691C263.907 191.57 264.268 191.33 264.75 191.209C265.172 191.029 265.714 190.848 266.256 190.728C266.799 190.547 267.401 190.487 268.004 190.367C269.269 190.186 270.655 190.126 272.101 190.186C273.547 190.307 274.933 190.547 276.138 190.908C276.74 191.089 277.283 191.269 277.825 191.51C278.367 191.691 278.789 191.931 279.211 192.172C279.633 192.352 279.994 192.593 280.295 192.834C280.597 193.014 280.898 193.195 281.079 193.375C281.621 193.616 281.802 193.796 281.802 193.857Z" fill="#263238"/>
<path d="M236.07 218.525C236.01 218.525 236.492 217.261 236.612 215.156C236.733 214.133 236.673 212.869 236.612 211.485C236.492 210.102 236.191 208.597 235.829 207.033C235.407 205.469 234.865 204.085 234.323 202.761C233.72 201.498 233.118 200.415 232.515 199.572C231.37 197.828 230.346 196.985 230.406 196.925C230.406 196.925 230.647 197.106 231.069 197.527C231.31 197.707 231.551 198.008 231.792 198.309C231.913 198.489 232.093 198.67 232.214 198.85C232.334 199.031 232.515 199.272 232.636 199.452C233.298 200.294 233.901 201.438 234.504 202.641C235.106 203.904 235.648 205.348 236.07 206.913C236.492 208.477 236.733 209.981 236.853 211.425C236.974 212.809 236.974 214.073 236.793 215.156C236.793 215.396 236.733 215.697 236.733 215.878C236.673 216.118 236.673 216.359 236.612 216.539C236.552 216.961 236.432 217.322 236.371 217.562C236.191 218.224 236.07 218.525 236.07 218.525Z" fill="#263238"/>
<path d="M222.935 195.902C222.935 195.902 222.935 195.842 222.875 195.722C222.875 195.601 222.814 195.421 222.814 195.18C222.754 194.699 222.633 194.037 222.513 193.195C222.272 191.45 221.971 188.983 221.549 185.915C220.826 179.717 219.922 171.174 219.199 161.728C218.536 152.282 218.175 143.678 217.994 137.481C217.934 134.352 217.874 131.885 217.874 130.14C217.874 129.298 217.874 128.636 217.874 128.155C217.874 127.914 217.874 127.794 217.874 127.613C217.874 127.493 217.874 127.433 217.874 127.433C217.874 127.433 217.874 127.493 217.874 127.613C217.874 127.734 217.874 127.914 217.874 128.155C217.874 128.636 217.934 129.298 217.934 130.14C217.994 131.885 218.054 134.412 218.175 137.481C218.416 143.678 218.777 152.282 219.5 161.728C220.163 171.174 221.067 179.717 221.73 185.915C222.091 188.983 222.392 191.45 222.573 193.195C222.694 194.037 222.754 194.699 222.814 195.18C222.814 195.421 222.875 195.541 222.875 195.722C222.935 195.842 222.935 195.902 222.935 195.902Z" fill="#263238"/>
<path d="M192.206 172.197C192.206 172.197 192.025 171.896 191.784 171.294C191.543 170.692 191.182 169.85 190.76 168.767C189.856 166.661 188.531 163.773 186.904 160.584C185.277 157.456 183.831 154.688 182.746 152.582C182.204 151.56 181.782 150.717 181.541 150.116C181.24 149.514 181.12 149.213 181.12 149.213C181.12 149.213 181.3 149.514 181.662 150.055C182.023 150.657 182.445 151.499 182.987 152.462C184.072 154.508 185.639 157.275 187.265 160.464C188.892 163.593 190.218 166.541 191.061 168.707C191.483 169.79 191.845 170.632 192.025 171.294C192.146 171.896 192.206 172.197 192.206 172.197Z" fill="#263238"/>
<path d="M187.386 161.126C187.386 161.126 187.205 161.126 186.844 161.006C186.482 160.945 186 160.765 185.398 160.584C184.192 160.163 182.566 159.562 180.818 158.719C179.071 157.877 177.565 156.914 176.54 156.192C175.998 155.831 175.576 155.53 175.335 155.29C175.034 155.049 174.914 154.929 174.914 154.929C174.914 154.869 175.576 155.35 176.661 156.012C177.745 156.674 179.252 157.576 180.999 158.418C182.746 159.261 184.373 159.923 185.518 160.404C186.663 160.825 187.386 161.066 187.386 161.126Z" fill="#263238"/>
<path d="M179.312 181.643C179.312 181.643 179.071 181.522 178.649 181.222C178.228 180.921 177.685 180.56 176.902 180.139C175.396 179.236 173.287 178.093 170.817 177.19C168.346 176.288 165.996 175.746 164.309 175.446C163.466 175.325 162.743 175.205 162.261 175.145C161.779 175.085 161.538 175.024 161.538 175.024C161.538 175.024 161.779 175.024 162.321 175.024C162.803 175.024 163.526 175.085 164.369 175.205C166.117 175.446 168.467 175.927 170.997 176.89C173.468 177.852 175.637 178.995 177.083 179.958C177.806 180.439 178.408 180.861 178.77 181.161C179.131 181.462 179.312 181.643 179.312 181.643Z" fill="#263238"/>
<path d="M244.445 105.713C244.445 105.713 244.445 105.893 244.385 106.194C244.324 106.555 244.264 107.036 244.204 107.578C244.023 108.781 243.842 110.526 243.481 112.692C243.119 114.858 242.637 117.385 241.794 120.153C240.95 122.92 239.806 125.929 237.998 128.756C237.094 130.261 235.949 131.584 234.865 132.788L234.744 132.908L234.624 132.788C232.997 130.622 230.948 129.057 228.9 128.034C227.875 127.493 226.851 127.192 225.887 126.951C224.923 126.711 224.019 126.59 223.116 126.59C221.428 126.53 220.103 126.831 219.199 127.132C218.295 127.433 217.874 127.673 217.874 127.613C217.874 127.613 217.994 127.553 218.175 127.433C218.416 127.312 218.717 127.132 219.139 127.012C220.043 126.651 221.368 126.35 223.055 126.35C223.899 126.35 224.863 126.47 225.827 126.711C226.791 126.951 227.875 127.312 228.9 127.794C231.009 128.817 233.117 130.381 234.744 132.607H234.503C235.588 131.404 236.672 130.08 237.576 128.636C239.323 125.808 240.529 122.86 241.372 120.153C242.216 117.385 242.698 114.858 243.119 112.692C243.541 110.526 243.782 108.781 243.963 107.578C244.083 106.976 244.144 106.555 244.204 106.194C244.445 105.893 244.445 105.713 244.445 105.713Z" fill="#263238"/>
<path d="M244.987 106.134L239.143 98.4324L232.877 98.6129L212.391 109.443L244.987 106.134Z" fill="#2AB2DA"/>
<path d="M217.934 127.673C217.934 127.673 217.814 127.673 217.573 127.673C217.332 127.673 217.03 127.613 216.609 127.493C215.765 127.312 214.68 126.891 213.355 126.109C212.692 125.748 212.029 125.387 211.126 125.207C210.282 125.026 209.378 125.026 208.414 125.207C206.546 125.568 204.678 127.072 203.835 129.178L203.534 130.08V129.117C203.534 128.877 203.534 128.636 203.534 128.395C203.594 123.642 203.594 119.37 203.835 116.242C203.895 114.677 204.076 113.414 204.196 112.572C204.257 112.15 204.317 111.789 204.377 111.609C204.437 111.368 204.437 111.248 204.437 111.248C204.437 111.248 204.377 111.729 204.317 112.572C204.257 113.414 204.136 114.677 204.076 116.242C203.955 119.37 203.955 123.642 203.895 128.395C203.895 128.636 203.895 128.877 203.895 129.117L203.594 129.057C204.437 126.831 206.426 125.327 208.354 124.966C210.342 124.545 212.21 125.146 213.415 125.989C214.68 126.771 215.765 127.252 216.548 127.433C217.512 127.613 217.934 127.613 217.934 127.673Z" fill="#263238"/>
<path d="M239.143 61.2495V107.397C239.143 110.045 238.239 112.572 236.491 114.617C233.901 117.686 230.767 120.333 227.213 122.319L217.873 127.553L210.161 120.694C207.871 118.648 206.546 115.821 206.425 112.812C206.305 109.443 206.305 106.074 206.305 106.074C206.305 106.074 193.23 105.111 192.025 92.2955C191.422 86.2186 191.242 73.8243 191.242 62.3927C191.242 49.2162 201.244 38.3261 214.258 37.3033L214.62 37.2431C228.116 36.9423 239.203 47.7722 239.143 61.2495Z" fill="#FEBEA0"/>
<path d="M206.365 105.773C206.365 105.773 214.56 105.773 222.754 99.6358C222.754 99.6358 219.561 109.202 206.606 109.142L206.365 105.773Z" fill="#E99972"/>
<path d="M195.64 70.9364C195.7 71.899 196.544 72.6812 197.568 72.621C198.592 72.621 199.376 71.7787 199.315 70.816C199.255 69.8534 198.412 69.0712 197.387 69.1314C196.363 69.1314 195.58 69.9135 195.64 70.9364Z" fill="#263238"/>
<path d="M194.616 67.4467C194.857 67.6874 196.182 66.5442 198.171 66.3637C200.159 66.1832 201.665 67.0857 201.906 66.7849C202.027 66.6645 201.726 66.2434 201.063 65.8222C200.4 65.401 199.316 65.04 198.05 65.1604C196.845 65.2807 195.821 65.8222 195.279 66.3035C194.616 66.9052 194.435 67.3264 194.616 67.4467Z" fill="#263238"/>
<path d="M214.499 70.094C214.559 71.0567 215.403 71.8388 216.427 71.7787C217.451 71.7787 218.235 70.9364 218.174 69.9737C218.114 69.011 217.27 68.2289 216.246 68.289C215.222 68.3492 214.439 69.1314 214.499 70.094Z" fill="#263238"/>
<path d="M214.077 66.1832C214.318 66.4239 215.644 65.2807 217.632 65.1002C219.62 64.9197 221.127 65.8222 221.368 65.5214C221.488 65.401 221.187 64.9799 220.524 64.5587C219.861 64.1375 218.777 63.7765 217.512 63.8969C216.307 64.0172 215.282 64.5587 214.74 65.04C214.137 65.6417 213.957 66.123 214.077 66.1832Z" fill="#263238"/>
<path d="M208.113 81.4655C208.113 81.3452 206.847 81.2248 204.859 81.1647C204.377 81.1647 203.835 81.1045 203.774 80.7435C203.654 80.3825 203.774 79.841 204.015 79.2393C204.377 77.9759 204.799 76.6522 205.22 75.2684C206.847 69.6127 207.992 64.9799 207.751 64.9197C207.51 64.8596 206.004 69.372 204.377 75.0277C204.015 76.4115 203.594 77.7352 203.292 78.9987C203.172 79.6003 202.871 80.2622 203.172 80.9842C203.353 81.3452 203.714 81.5858 204.076 81.646C204.437 81.7062 204.678 81.7062 204.919 81.7062C206.847 81.7062 208.113 81.5858 208.113 81.4655Z" fill="#263238"/>
<path d="M214.078 82.368C213.776 82.368 213.957 84.534 212.21 86.2186C210.523 87.9033 208.173 87.8431 208.173 88.144C208.173 88.2643 208.715 88.505 209.679 88.4448C210.643 88.3846 211.969 87.9635 213.053 86.9406C214.078 85.9178 214.499 84.6543 214.499 83.7518C214.499 82.8493 214.198 82.368 214.078 82.368Z" fill="#263238"/>
<path d="M212.932 58.4819C213.173 59.0234 215.102 58.6022 217.451 58.6624C219.801 58.7226 221.729 59.2039 221.97 58.7226C222.091 58.4819 221.729 58.0006 220.946 57.5192C220.163 57.0379 218.897 56.6769 217.512 56.6167C216.126 56.5566 214.861 56.9176 214.017 57.3387C213.234 57.8201 212.812 58.2412 212.932 58.4819Z" fill="#263238"/>
<path d="M194.857 61.6707C195.218 62.0919 196.544 61.4902 198.231 61.3699C199.858 61.1292 201.304 61.43 201.545 60.9487C201.665 60.708 201.424 60.2869 200.762 59.9259C200.099 59.5649 199.074 59.264 197.99 59.4445C196.845 59.5649 195.941 60.0462 195.399 60.5877C194.797 61.0089 194.676 61.4902 194.857 61.6707Z" fill="#263238"/>
<path d="M224.02 48.2536L224.08 48.3138C226.249 49.7578 227.815 51.9839 228.418 54.5711C228.418 54.6312 228.478 54.7516 228.478 54.8117C229.262 58.4217 229.503 62.2122 230.346 65.8222C231.19 69.4322 231.009 72.1999 234.684 73.0422C236.974 73.5837 238.902 72.26 239.745 70.9965C240.047 70.5152 240.047 69.8534 240.047 69.2517C239.986 60.3471 241.794 56.8574 241.011 47.5918C240.77 45.0648 239.384 42.7784 237.215 41.5149C235.166 40.3116 232.636 39.0481 230.587 40.2514C228.478 41.4548 226.068 45.7266 224.502 47.5918" fill="#263238"/>
<path d="M235.287 67.3865C235.528 67.2662 243.903 64.0172 244.385 72.8617C244.807 81.7062 235.889 80.3223 235.829 80.0817C235.829 79.841 235.287 67.3865 235.287 67.3865Z" fill="#FEBEA0"/>
<path d="M238.359 76.592C238.42 76.5318 238.54 76.7123 238.781 76.7725C239.022 76.8928 239.504 76.953 239.926 76.7123C240.83 76.3513 241.553 74.787 241.493 73.2227C241.493 72.4405 241.252 71.6583 240.95 71.0567C240.649 70.3948 240.227 69.9737 239.745 69.9135C239.263 69.8533 238.962 70.1542 238.841 70.3948C238.721 70.6355 238.781 70.816 238.781 70.816C238.781 70.816 238.6 70.6957 238.661 70.3347C238.661 70.1542 238.781 69.9737 238.962 69.7932C239.143 69.6127 239.444 69.4923 239.805 69.5525C240.468 69.5525 241.131 70.1542 241.493 70.816C241.854 71.4778 242.155 72.3202 242.155 73.2227C242.216 75.0277 241.372 76.7123 240.107 77.1335C239.504 77.314 238.962 77.1937 238.661 76.953C238.42 76.8327 238.359 76.6522 238.359 76.592Z" fill="#E99972"/>
<path d="M231.009 41.5751C232.876 37.9049 226.55 33.3323 222.031 32.3094C217.512 31.2866 212.029 33.8738 207.811 35.6788C205.16 36.8219 202.509 38.2659 199.677 38.3863C197.749 38.4464 195.821 37.9049 193.953 37.4236C192.085 36.9423 190.157 36.4609 188.229 36.7618C186.301 37.0626 184.433 38.2659 183.831 40.0709C183.228 41.9361 184.494 44.2826 186.422 44.4029C183.891 43.2598 180.517 45.3054 180.336 48.0731C180.155 50.8407 183.288 53.3076 185.94 52.4652C184.614 51.6229 182.806 53.3677 183.108 54.8719C183.409 56.3761 184.915 57.4591 186.422 57.9404C190.218 59.2641 194.495 58.3616 198.171 56.7972C201.846 55.2329 205.22 52.9466 208.896 51.2619C212.571 49.5772 218.657 46.5689 222.573 47.5917C225.465 48.3137 227.634 51.5627 229.201 50.6602C230.647 49.8179 231.491 48.1332 231.671 46.4486C231.732 44.8842 231.37 43.1996 231.009 41.5751Z" fill="#263238"/>
<path d="M185.337 44.2826C185.397 44.2224 185.819 44.8843 186.903 45.8469C187.928 46.7494 189.615 47.9528 192.085 48.6146C194.435 49.2162 197.628 49.2162 200.46 47.5918C203.352 46.0274 205.702 43.0793 208.414 40.3116C211.125 37.5439 214.439 35.3178 217.934 34.7161C221.368 34.1144 224.682 35.0771 226.61 36.9423C228.538 38.8074 229.08 41.0336 229.08 42.4776C229.08 43.1996 228.96 43.7411 228.839 44.1021C228.719 44.4631 228.598 44.6436 228.598 44.6436C228.538 44.6436 228.839 43.8614 228.719 42.4776C228.659 41.0938 227.996 39.0481 226.188 37.4236C224.381 35.7991 221.308 34.8966 218.054 35.5584C214.861 36.1601 211.667 38.2058 209.016 40.9734C206.305 43.6809 203.895 46.6291 200.822 48.3138C197.749 50.0586 194.375 49.9382 191.904 49.2162C189.374 48.4943 187.687 47.1706 186.662 46.1478C186.18 45.6063 185.819 45.1851 185.638 44.8241C185.397 44.4631 185.337 44.2826 185.337 44.2826Z" fill="#465A63"/>
<path d="M237.516 66.845C237.516 66.9052 237.094 66.6044 236.732 65.9425C236.311 65.2807 236.009 64.1977 236.009 62.8139C235.949 59.986 238.239 56.7371 238.239 52.7661C238.299 50.8407 237.757 48.9756 236.853 47.5917C235.889 46.2079 234.563 45.4257 233.358 45.0647C232.153 44.7037 231.069 44.7639 230.406 44.8842C229.683 45.0647 229.321 45.2452 229.321 45.1851C229.321 45.1249 229.623 44.8241 230.346 44.5834C231.069 44.3427 232.213 44.1021 233.599 44.4631C234.925 44.8241 236.491 45.6062 237.576 47.1706C238.66 48.6747 239.263 50.7204 239.203 52.8262C239.203 54.9321 238.6 56.8574 237.937 58.542C237.335 60.1665 236.793 61.6707 236.732 62.9342C236.371 65.4612 237.636 66.7849 237.516 66.845Z" fill="#465A63"/>
<path d="M292.346 148.371C292.346 148.371 292.346 148.491 292.406 148.732C292.406 148.972 292.466 149.333 292.466 149.755C292.526 150.657 292.647 152.041 292.768 153.786C293.009 157.336 293.37 162.51 293.792 169.068C294.214 175.626 294.756 183.568 295.358 192.653C295.479 194.94 295.66 197.286 295.84 199.633C295.901 200.836 295.961 202.039 296.021 203.303C296.081 203.904 296.021 204.566 296.021 205.168C295.961 205.77 296.021 206.431 295.901 207.093C295.84 207.755 295.72 208.357 295.66 209.019C295.539 209.68 295.358 210.282 295.238 210.944C295.057 211.546 294.816 212.207 294.635 212.809C294.334 213.411 294.153 214.012 293.792 214.614C292.527 216.961 290.538 219.127 287.827 220.029C270.233 220.029 250.169 220.029 228.9 220.029C222.573 220.029 216.307 220.029 210.221 220.029H210.041L210.101 219.849C210.643 217.803 211.246 215.817 211.788 213.832C212.089 212.809 212.33 211.846 212.631 210.824C212.933 209.861 213.174 208.838 213.354 207.875C213.656 205.89 213.475 203.844 212.812 201.979C212.511 201.077 212.029 200.174 211.426 199.452C210.824 198.73 209.92 198.189 209.016 198.068L207.751 197.888L208.956 197.767C216.729 197.106 224.2 196.504 231.189 195.902H231.129C232.515 194.879 234.262 194.338 235.949 194.458C237.636 194.518 239.203 195.06 240.589 195.962H240.468C247.277 194.699 253.603 193.496 259.327 192.413L259.267 192.533C259.026 191.811 258.966 191.029 258.966 190.307C258.966 189.585 258.966 188.863 259.026 188.141C259.147 186.757 259.327 185.373 259.568 184.049V184.11C258.062 181.282 256.676 178.695 255.411 176.348C255.11 169.429 254.989 163.954 255.049 160.223C255.049 158.358 255.17 156.914 255.23 155.952C255.29 155.47 255.351 155.109 255.411 154.869C255.471 154.628 255.471 154.508 255.471 154.508C255.471 154.508 255.471 154.628 255.411 154.869C255.351 155.109 255.29 155.47 255.29 155.952C255.23 156.914 255.17 158.358 255.17 160.223C255.17 163.954 255.29 169.429 255.592 176.348V176.288C256.857 178.695 258.303 181.222 259.809 184.049V184.11V184.17C259.568 185.433 259.388 186.817 259.267 188.201C259.207 188.923 259.207 189.585 259.207 190.307C259.207 191.029 259.267 191.751 259.508 192.473L259.568 192.593H259.448C253.664 193.676 247.397 194.879 240.589 196.203H240.528H240.468C239.143 195.361 237.576 194.819 235.949 194.759C234.322 194.699 232.696 195.18 231.31 196.203H231.25H231.189C224.14 196.805 216.729 197.406 208.956 198.068V197.767C209.98 197.948 210.884 198.489 211.547 199.272C212.21 200.054 212.692 200.956 212.993 201.919C213.656 203.844 213.837 205.95 213.535 207.996C213.415 209.019 213.113 210.041 212.812 211.004C212.511 211.967 212.27 212.99 211.969 214.012C211.426 215.998 210.824 218.044 210.282 220.029L210.161 219.849C216.247 219.849 222.513 219.849 228.839 219.849C250.109 219.849 270.233 219.909 287.767 219.909H287.706C288.972 219.488 290.177 218.705 291.141 217.803C292.105 216.84 292.888 215.757 293.551 214.614C293.852 214.012 294.093 213.411 294.394 212.809C294.575 212.207 294.816 211.546 294.997 210.944C295.117 210.282 295.298 209.68 295.419 209.079C295.479 208.417 295.599 207.815 295.66 207.214C295.78 206.612 295.72 205.95 295.78 205.348C295.78 204.747 295.84 204.085 295.78 203.483C295.72 202.28 295.66 201.016 295.599 199.813C295.419 197.406 295.298 195.06 295.178 192.774C294.575 183.688 294.093 175.746 293.671 169.188C293.25 162.63 292.948 157.456 292.707 153.906C292.587 152.161 292.526 150.777 292.466 149.875C292.466 149.394 292.406 149.093 292.406 148.852C292.346 148.491 292.346 148.371 292.346 148.371Z" fill="#263238"/>
<path d="M275.234 115.58C275.234 115.58 274.873 115.821 274.15 116.242C273.487 116.663 272.463 117.325 271.378 118.227C269.149 120.032 266.377 123.041 264.148 126.831C261.918 130.622 260.412 134.352 259.327 137.059C258.785 138.383 258.363 139.466 258.062 140.248C257.942 140.609 257.821 140.91 257.701 141.091C257.64 141.271 257.58 141.391 257.58 141.391C257.58 141.391 257.58 141.271 257.64 141.091C257.701 140.85 257.821 140.549 257.942 140.188C258.183 139.406 258.604 138.323 259.086 136.939C260.111 134.232 261.557 130.441 263.846 126.59C266.136 122.74 268.908 119.731 271.197 117.926C272.342 117.024 273.366 116.362 274.089 116.001C274.451 115.821 274.752 115.64 274.933 115.58C275.174 115.64 275.234 115.58 275.234 115.58Z" fill="#263238"/>
<g opacity="0.3">
<g opacity="0.3">
<path opacity="0.3" d="M251.676 138.564C249.085 144.099 248.061 150.416 248.302 156.553C248.543 162.69 249.266 168.827 248.663 174.904C248.061 180.981 245.952 187.238 241.372 191.33C240.83 191.811 240.228 192.292 239.926 192.954C239.625 193.616 239.625 194.518 240.228 195C240.77 195.421 241.493 195.301 242.095 195.18C246.434 194.398 250.892 193.857 255.231 193.135C256.195 192.954 259.328 192.352 259.328 192.352C259.328 192.352 258.906 189.946 259.087 188.803C259.207 187.72 259.629 183.989 259.629 183.989C259.508 183.448 259.087 182.966 258.785 182.425C255.893 177.13 255.17 173.159 255.17 173.159C253.664 170.091 253.001 167.082 252.338 164.194C250.41 156.313 250.471 148.551 251.676 138.564Z" fill="black"/>
</g>
</g>
<g opacity="0.3">
<g opacity="0.3">
<path opacity="0.3" d="M203.895 129.599C204.257 130.501 204.618 131.404 204.98 132.306C205.1 132.607 205.221 132.908 205.522 132.968C206.064 133.149 206.486 132.487 206.727 132.005C207.751 129.96 209.8 128.516 212.09 128.275C213.897 128.095 215.825 128.576 217.633 128.215C216.066 127.252 214.439 126.29 212.632 125.748C210.885 125.207 208.896 125.026 207.149 125.688C205.402 126.35 203.955 127.974 203.835 129.779" fill="black"/>
</g>
</g>
<g opacity="0.3">
<g opacity="0.3">
<path opacity="0.3" d="M218.838 127.312C221.007 127.373 223.116 127.373 225.225 127.854C227.333 128.335 229.322 129.358 230.708 130.983C232.154 132.727 232.696 135.074 233.299 137.3C233.419 137.721 233.6 138.263 234.082 138.263C234.323 138.263 234.564 138.142 234.805 137.962C238.42 135.315 240.77 131.283 242.095 127.012C243.421 122.74 243.722 118.227 243.782 113.775C242.035 116.843 241.312 120.333 240.167 123.702C239.023 127.012 237.335 130.381 234.383 132.306C234.504 131.524 234.202 130.802 233.72 130.2C233.238 129.599 232.636 129.178 231.973 128.756C227.996 126.35 222.995 125.748 218.537 127.132" fill="black"/>
</g>
</g>
<path d="M209.438 198.189H202.088C202.088 198.189 185.458 192.172 182.023 192.774C178.951 193.315 167.683 200.776 165.454 202.28C165.213 202.46 165.032 202.701 164.912 202.942C164.49 204.145 165.032 205.529 166.237 206.01L166.478 206.131L166.358 206.492C166.237 206.913 166.177 207.394 166.177 207.815C166.237 209.38 168.406 209.861 169.19 208.537L168.768 209.319C168.587 209.62 168.527 209.981 168.527 210.342L168.587 211.004C168.647 211.786 169.129 212.448 169.852 212.689C170.515 212.929 171.299 212.689 171.781 212.207C173.227 210.643 176.299 207.514 178.408 207.153C180.276 206.853 183.349 206.792 185.217 206.792C186.181 206.792 187.024 207.394 187.386 208.297C186.121 208.357 177.505 212.869 174.432 214.494C173.468 214.975 172.805 215.878 172.624 216.961C172.504 217.923 172.986 218.946 174.914 218.465C178.951 217.502 186.301 214.133 186.301 214.133C186.301 214.133 190.097 213.05 192.507 214.795C195.942 217.201 197.508 218.104 200.461 217.141C203.413 216.178 205.582 214.734 205.582 214.734L211.427 214.133C211.487 214.012 216.97 200.294 209.438 198.189Z" fill="#FEBEA0"/>
<path d="M187.446 201.016C187.446 201.077 186.241 200.716 184.313 200.595C182.385 200.475 179.613 200.716 176.902 201.859C174.191 203.002 172.082 204.867 170.877 206.311C169.611 207.815 169.069 208.898 169.009 208.838C169.009 208.838 169.129 208.537 169.37 208.056C169.611 207.575 170.093 206.913 170.696 206.131C171.901 204.566 174.01 202.701 176.781 201.498C179.553 200.294 182.385 200.114 184.313 200.294C185.277 200.415 186.06 200.535 186.603 200.655C187.205 200.896 187.446 200.956 187.446 201.016Z" fill="#E99972"/>
<path d="M185.699 196.985C185.699 197.045 184.494 196.504 182.445 196.444C180.397 196.384 177.565 196.985 174.853 198.61C172.202 200.234 170.154 202.28 168.768 203.784C168.105 204.506 167.503 205.108 167.081 205.529C166.659 205.95 166.478 206.191 166.418 206.131C166.418 206.131 166.599 205.89 166.96 205.409C167.322 204.987 167.864 204.326 168.587 203.543C169.973 202.039 171.961 199.933 174.673 198.249C177.384 196.624 180.336 196.023 182.385 196.143C183.409 196.203 184.253 196.384 184.795 196.564C185.096 196.624 185.277 196.745 185.398 196.805C185.639 196.925 185.699 196.925 185.699 196.985Z" fill="#E99972"/>
<path d="M287.345 42.2369C273.728 42.2369 262.702 53.2474 262.702 66.845C262.702 72.0795 264.328 76.953 267.16 80.924L264.208 90.0693L273.246 87.0008C277.223 89.7685 282.103 91.4531 287.345 91.4531C300.962 91.4531 311.988 80.4427 311.988 66.845C311.988 53.2474 300.962 42.2369 287.345 42.2369Z" fill="white"/>
<path d="M288.128 42.0564C288.128 42.0564 288.249 42.0564 288.55 42.0564C288.851 42.0564 289.273 42.1166 289.815 42.1166C290.117 42.1166 290.418 42.1767 290.719 42.1767C291.081 42.2369 291.442 42.2971 291.804 42.3572C292.225 42.4174 292.647 42.4776 293.069 42.5979C293.551 42.7182 293.973 42.8386 294.515 43.0191C296.564 43.6207 298.974 44.5834 301.444 46.2681C303.915 47.9527 306.445 50.3594 308.494 53.5482C310.482 56.737 311.988 60.7682 312.29 65.2205C312.29 66.3637 312.41 67.4467 312.229 68.65C312.169 69.2517 312.169 69.7932 312.049 70.3948C311.928 70.9965 311.868 71.538 311.747 72.1397C311.205 74.426 310.422 76.8327 309.157 78.9987C307.891 81.1647 306.325 83.2705 304.457 85.0755C302.529 86.8805 300.299 88.3846 297.829 89.5278C295.359 90.671 292.647 91.4531 289.815 91.6938C289.092 91.8141 288.43 91.8141 287.707 91.8141C286.984 91.8141 286.26 91.8141 285.537 91.8141C284.091 91.6938 282.645 91.5133 281.26 91.1523C278.187 90.4303 275.355 89.0465 272.824 87.3016L273.065 87.3618C270.053 88.4448 267.16 89.5278 264.268 90.6108L263.726 90.7913L263.907 90.2498C264.871 87.061 265.835 83.9925 266.739 81.0443L266.799 81.285C264.449 77.9758 263.003 74.2455 262.461 70.5152C262.22 68.65 262.099 66.845 262.28 65.04C262.34 64.1375 262.4 63.2952 262.581 62.4529C262.641 62.0317 262.762 61.6105 262.822 61.1894C262.882 60.7682 263.063 60.347 263.184 59.986C265.052 53.4881 269.209 48.7951 273.306 46.1477C275.355 44.8241 277.343 43.8614 279.151 43.2597C279.633 43.1394 280.054 42.9589 280.476 42.8386C280.898 42.7182 281.32 42.6581 281.742 42.5377C282.163 42.4776 282.525 42.3572 282.886 42.2971C283.248 42.2369 283.609 42.2369 283.911 42.1767C284.573 42.1166 285.176 41.9962 285.658 41.9962C286.14 41.9962 286.562 41.9962 286.923 41.9962C287.225 41.9962 287.526 41.9962 287.707 41.9962C288.008 42.0564 288.128 42.0564 288.128 42.0564C288.128 42.0564 288.068 42.0564 287.887 42.0564C287.707 42.0564 287.405 42.0564 287.104 42.1166C286.743 42.1166 286.321 42.1166 285.839 42.1767C285.357 42.1767 284.754 42.2971 284.091 42.3572C281.501 42.7784 277.644 43.6809 273.668 46.3884C269.691 49.0357 265.594 53.7287 263.786 60.0462C263.666 60.4674 263.545 60.8284 263.485 61.2495C263.425 61.6707 263.364 62.0919 263.244 62.513C263.063 63.3554 263.003 64.1977 262.943 65.04C262.762 66.7849 262.882 68.5899 263.123 70.3948C263.666 74.0048 265.112 77.675 267.401 80.924L267.462 81.0443L267.401 81.1647C266.498 84.1128 265.534 87.2415 264.57 90.3701L264.208 90.0091C267.1 88.9261 269.992 87.9033 273.005 86.7601L273.125 86.7L273.246 86.7601C275.716 88.4448 278.488 89.7685 281.501 90.4905C282.886 90.8515 284.272 91.032 285.658 91.1523C286.381 91.2125 287.044 91.2125 287.767 91.1523C288.49 91.1523 289.153 91.1523 289.815 91.032C292.587 90.7913 295.238 90.0091 297.648 88.866C300.058 87.7228 302.288 86.2186 304.156 84.4738C306.023 82.6688 307.59 80.6833 308.795 78.5173C310.06 76.4115 310.783 74.065 311.326 71.8388C311.446 71.2372 311.567 70.6957 311.627 70.1542C311.747 69.6127 311.747 69.011 311.808 68.4695C311.928 67.3264 311.868 66.2434 311.868 65.1604C311.627 60.7682 310.181 56.8574 308.192 53.6685C306.204 50.4797 303.734 48.1332 301.263 46.4486C298.853 44.7037 296.443 43.7411 294.455 43.1394C293.973 43.0191 293.491 42.8386 293.009 42.7182C292.527 42.6581 292.105 42.5377 291.743 42.4776C291.322 42.4174 290.96 42.3572 290.659 42.2369C290.297 42.1767 289.996 42.1767 289.755 42.1166C289.213 42.0564 288.791 41.9962 288.49 41.9962C288.249 42.1166 288.128 42.0564 288.128 42.0564Z" fill="#263238"/>
<path d="M105.322 224L85.3779 173.881C83.6305 169.549 86.7637 164.856 91.4634 164.856H153.765C156.597 164.856 159.067 166.661 159.971 169.309L177.143 219.849L197.207 219.969C198.834 219.969 200.159 222.376 200.159 224L178.107 223.759L105.322 224Z" fill="#E0E0E0"/>
<path d="M134.122 196.504C134.122 198.73 132.315 200.535 130.085 200.535C127.856 200.535 126.048 198.73 126.048 196.504C126.048 194.278 127.856 192.473 130.085 192.473C132.315 192.413 134.122 194.218 134.122 196.504Z" fill="#F5F5F5"/>
<path d="M372 223.699C372 223.759 289.153 223.88 187.024 223.88C84.8357 223.88 2.04858 223.819 2.04858 223.699C2.04858 223.639 84.8357 223.519 187.024 223.519C289.153 223.519 372 223.579 372 223.699Z" fill="#263238"/>
<path d="M57.1194 203.002C51.2146 199.572 48.0815 191.63 47.8405 185.132C47.5994 178.634 50.3108 171.836 55.6733 168.165C61.2768 164.255 69.2904 164.315 75.0747 167.985C80.8589 171.655 84.2331 178.634 83.9921 185.493C83.7511 192.352 80.0154 198.85 74.4721 202.942" fill="#514F7E"/>
<path d="M66.5192 203.664C66.4589 203.664 66.4589 203.122 66.3987 202.16C66.3987 201.077 66.3384 199.753 66.2782 198.128C66.2179 194.699 66.0372 190.006 65.8564 184.771C65.6154 179.537 65.3744 174.844 65.1334 171.414C65.0129 169.79 64.9526 168.406 64.8924 167.383C64.8321 166.421 64.8321 165.879 64.8924 165.879C64.9526 165.879 65.0129 166.421 65.1334 167.323C65.2539 168.286 65.3744 169.67 65.5551 171.354C65.8564 174.784 66.2179 179.477 66.4589 184.711C66.6999 189.946 66.7602 194.639 66.7602 198.068C66.7602 199.753 66.7602 201.137 66.6999 202.099C66.5794 203.122 66.5192 203.664 66.5192 203.664Z" fill="#263238"/>
<path d="M49.5881 183.688C49.5881 183.869 48.6241 183.869 47.4793 183.809C46.3345 183.688 45.4307 183.508 45.4307 183.388C45.4307 183.207 46.3947 183.207 47.5395 183.267C48.6241 183.388 49.5881 183.568 49.5881 183.688Z" fill="#263238"/>
<path d="M49.8892 177.912C49.8289 178.033 49.0456 177.852 48.0816 177.431C47.1176 177.01 46.4548 176.589 46.515 176.408C46.5753 176.288 47.3586 176.468 48.3226 176.89C49.2264 177.311 49.9494 177.732 49.8892 177.912Z" fill="#263238"/>
<path d="M52.9016 173.58C52.8414 173.701 51.9376 173.28 50.9736 172.497C50.0095 171.715 49.407 170.873 49.5275 170.813C49.648 170.692 50.371 171.354 51.3351 172.076C52.2389 172.798 52.9619 173.4 52.9016 173.58Z" fill="#263238"/>
<path d="M55.9144 169.489C55.7939 169.549 55.3118 168.887 54.9503 167.985C54.5285 167.082 54.3478 166.3 54.4683 166.24C54.5888 166.18 55.0708 166.842 55.4323 167.744C55.8541 168.647 56.0349 169.429 55.9144 169.489Z" fill="#263238"/>
<path d="M60.614 166.601C60.4935 166.661 60.0114 165.939 59.7102 164.916C59.4089 163.894 59.3487 163.051 59.5294 163.051C59.7102 163.051 59.9512 163.833 60.2524 164.796C60.5537 165.699 60.7947 166.541 60.614 166.601Z" fill="#263238"/>
<path d="M68.5675 163.292C68.6881 163.352 68.6278 163.954 68.3868 164.676C68.1458 165.398 67.7843 165.939 67.6638 165.879C67.5433 165.819 67.6035 165.217 67.8445 164.495C68.0855 163.833 68.3868 163.292 68.5675 163.292Z" fill="#263238"/>
<path d="M74.4121 165.819C74.5326 165.939 74.1108 166.421 73.5685 166.962C73.0263 167.504 72.484 167.804 72.3635 167.684C72.243 167.564 72.6647 167.082 73.207 166.541C73.7493 166.06 74.2916 165.699 74.4121 165.819Z" fill="#263238"/>
<path d="M79.5939 169.188C79.6541 169.309 79.2323 169.79 78.5695 170.211C77.9068 170.632 77.3042 170.933 77.244 170.753C77.1837 170.632 77.6055 170.151 78.2683 169.73C78.8708 169.309 79.4733 169.008 79.5939 169.188Z" fill="#263238"/>
<path d="M83.269 174.122C83.3292 174.242 82.6062 174.724 81.6421 175.085C80.6781 175.506 79.8948 175.686 79.8346 175.566C79.7743 175.446 80.4973 174.964 81.4614 174.603C82.3652 174.182 83.2087 174.002 83.269 174.122Z" fill="#263238"/>
<path d="M84.6552 179.537C84.6552 179.717 83.9322 179.898 83.0284 180.018C82.1246 180.139 81.3413 180.078 81.3413 179.958C81.3413 179.778 82.0643 179.597 82.9681 179.477C83.8719 179.356 84.6552 179.417 84.6552 179.537Z" fill="#263238"/>
<path d="M85.4381 186.215C85.3779 186.336 84.5946 186.155 83.6908 185.734C82.787 185.313 82.1242 184.892 82.1845 184.771C82.2447 184.651 83.028 184.832 83.9318 185.253C84.8356 185.614 85.4984 186.035 85.4381 186.215Z" fill="#263238"/>
<path d="M84.7755 191.931C84.7153 192.052 83.7513 191.811 82.727 191.149C81.7027 190.487 81.1001 189.645 81.1604 189.585C81.2809 189.464 82.0039 190.066 83.0282 190.728C83.9923 191.33 84.8358 191.751 84.7755 191.931Z" fill="#263238"/>
<path d="M81.7627 197.106C81.6422 197.226 80.8589 196.745 80.1359 195.962C79.3526 195.12 78.9911 194.338 79.1116 194.218C79.2321 194.157 79.8346 194.759 80.5576 195.541C81.2807 196.384 81.8832 196.985 81.7627 197.106Z" fill="#263238"/>
<path d="M53.5041 197.707C53.5644 197.828 52.7208 198.429 51.6363 198.971C50.5517 199.512 49.5877 199.873 49.5275 199.753C49.4672 199.633 50.3107 199.031 51.3953 198.489C52.4798 197.948 53.3836 197.587 53.5041 197.707Z" fill="#263238"/>
<path d="M50.9135 193.014C50.9738 193.135 50.311 193.616 49.4072 193.977C48.5034 194.398 47.7804 194.579 47.7201 194.458C47.6599 194.338 48.3226 193.857 49.2264 193.496C50.07 193.074 50.8533 192.894 50.9135 193.014Z" fill="#263238"/>
<path d="M48.9857 188.863C48.9857 189.043 48.2024 189.284 47.1781 189.404C46.1538 189.525 45.3103 189.525 45.25 189.404C45.25 189.224 46.0333 188.983 47.0576 188.863C48.1421 188.682 48.9857 188.682 48.9857 188.863Z" fill="#263238"/>
<path d="M55.2518 186.576C55.312 186.697 54.5287 187.118 53.4442 187.178C52.3596 187.298 51.5161 187.118 51.5161 186.937C51.5161 186.757 52.3597 186.697 53.3839 186.576C54.348 186.516 55.1915 186.396 55.2518 186.576Z" fill="#263238"/>
<path d="M60.4334 181.402C60.4937 181.522 59.8309 181.883 58.9874 181.944C58.1438 182.004 57.4208 181.823 57.4811 181.703C57.4811 181.522 58.1438 181.462 58.9271 181.402C59.7104 181.342 60.3732 181.282 60.4334 181.402Z" fill="#263238"/>
<path d="M61.3976 177.311C61.3373 177.431 60.6745 177.371 59.8912 177.07C59.108 176.769 58.5054 176.468 58.5657 176.288C58.6259 176.168 59.2887 176.228 60.072 176.529C60.8553 176.829 61.4578 177.13 61.3976 177.311Z" fill="#263238"/>
<path d="M63.3258 173.099C63.2053 173.219 62.7232 172.919 62.422 172.317C62.0605 171.715 62.0605 171.174 62.181 171.114C62.3015 171.053 62.6027 171.535 62.904 172.016C63.145 172.558 63.386 173.039 63.3258 173.099Z" fill="#263238"/>
<path d="M61.0362 190.186C61.0964 190.307 60.4939 190.608 59.7106 190.788C59.2889 190.908 58.8671 190.969 58.5658 190.969L58.4453 190.668C58.6261 190.608 58.7466 190.668 58.8068 190.728C58.8068 190.788 58.7466 190.908 58.5658 191.029L58.4453 190.728C58.6863 190.608 59.0478 190.487 59.5299 190.367C60.3132 190.066 60.9759 190.066 61.0362 190.186Z" fill="#263238"/>
<path d="M62.0601 197.527C62.1204 197.647 61.3371 198.128 60.373 198.489C59.409 198.85 58.5052 199.091 58.5052 198.911C58.445 198.79 59.2282 198.309 60.1923 197.948C61.1563 197.587 61.9999 197.346 62.0601 197.527Z" fill="#263238"/>
<path d="M56.2157 194.278C56.2759 194.398 55.7336 194.699 55.0709 194.94C54.4081 195.18 53.8056 195.24 53.7453 195.12C53.6851 195 54.2273 194.699 54.8901 194.458C55.6131 194.157 56.1554 194.097 56.2157 194.278Z" fill="#263238"/>
<path d="M56.6978 179.356C56.6375 179.477 55.794 179.417 54.7697 179.056C53.7454 178.695 53.0224 178.213 53.0826 178.093C53.1429 177.973 53.9864 178.213 54.9504 178.574C55.9145 178.875 56.6978 179.236 56.6978 179.356Z" fill="#263238"/>
<path d="M70.8573 177.732C70.9175 177.852 70.4355 178.334 69.7727 178.815C69.0497 179.296 68.4472 179.537 68.3869 179.417C68.3267 179.296 68.8087 178.815 69.4715 178.334C70.1342 177.912 70.7368 177.612 70.8573 177.732Z" fill="#263238"/>
<path d="M71.5802 185.072C71.6405 185.193 71.0982 185.433 70.4354 185.614C69.7726 185.734 69.1701 185.734 69.1701 185.614C69.1099 185.493 69.6521 185.253 70.3149 185.072C70.9777 184.952 71.5802 184.952 71.5802 185.072Z" fill="#263238"/>
<path d="M72.4841 193.375C72.4239 193.496 71.6406 193.315 70.797 192.894C69.9535 192.473 69.2907 192.052 69.351 191.931C69.4112 191.811 70.1945 191.991 71.0381 192.413C71.9418 192.774 72.5444 193.195 72.4841 193.375Z" fill="#263238"/>
<path d="M70.6162 201.377C70.4957 201.498 70.0137 201.077 69.5316 200.475C69.0496 199.873 68.7484 199.332 68.8689 199.211C68.9894 199.091 69.4714 199.512 69.9534 200.114C70.4354 200.716 70.7367 201.317 70.6162 201.377Z" fill="#263238"/>
<path d="M70.1944 172.377C70.3149 172.497 69.9534 172.919 69.4111 173.159C68.8688 173.46 68.3266 173.46 68.3266 173.28C68.2663 173.159 68.6881 172.919 69.1701 172.618C69.7124 172.437 70.1341 172.257 70.1944 172.377Z" fill="#263238"/>
<path d="M77.1835 179.778C77.2438 179.898 76.581 180.259 75.7375 180.379C74.8337 180.5 74.1709 180.319 74.1709 180.199C74.1709 180.018 74.8337 179.958 75.6772 179.838C76.4003 179.717 77.1233 179.597 77.1835 179.778Z" fill="#263238"/>
<path d="M75.7977 173.099C75.8579 173.219 75.2554 173.701 74.3516 174.002C73.4478 174.302 72.6646 174.302 72.6646 174.122C72.6646 173.941 73.3273 173.761 74.2311 173.46C75.0144 173.159 75.6772 172.979 75.7977 173.099Z" fill="#263238"/>
<path d="M78.69 190.066C78.69 190.186 77.6054 190.307 76.2799 190.066C74.9543 189.825 73.9903 189.344 74.0505 189.224C74.1108 189.103 75.1351 189.284 76.4004 189.525C77.6054 189.765 78.69 189.886 78.69 190.066Z" fill="#263238"/>
<path d="M76.0993 199.693C75.9788 199.813 75.1955 199.332 74.4122 198.55C73.6289 197.767 73.1469 196.925 73.2674 196.865C73.3879 196.745 74.0507 197.406 74.834 198.189C75.557 198.911 76.1595 199.572 76.0993 199.693Z" fill="#263238"/>
<path d="M64.7714 165.277C64.8317 165.398 62.5421 166.3 59.9512 169.068C57.3001 171.775 54.5887 176.589 53.9259 182.365C53.6247 185.253 53.8657 188.02 54.2874 190.547C54.7092 193.014 55.3117 195.24 55.7938 197.106C56.336 198.971 56.8181 200.415 57.1193 201.438C57.4206 202.46 57.6013 203.002 57.6013 203.062C57.5411 203.062 57.3001 202.521 56.9386 201.558C56.577 200.535 55.9745 199.091 55.4322 197.286C54.8297 195.421 54.2272 193.255 53.8054 190.728C53.3837 188.201 53.0824 185.373 53.3837 182.425C54.0464 176.468 56.9386 171.595 59.7102 168.887C61.096 167.504 62.3613 166.601 63.3253 166.06C63.8074 165.759 64.1689 165.638 64.4099 165.458C64.5907 165.277 64.7714 165.217 64.7714 165.277Z" fill="#263238"/>
<path d="M72.3035 203.363C72.1829 203.303 73.5688 201.197 74.7738 197.467C76.0391 193.736 77.1237 188.201 76.2801 182.244C75.8584 179.236 75.0148 176.468 73.9303 174.122C72.7855 171.775 71.3394 169.85 69.8933 168.526C68.4473 167.203 67.0012 166.481 65.9769 166.06C64.9526 165.638 64.3501 165.518 64.3501 165.518C64.3501 165.518 64.5309 165.518 64.7719 165.578C65.0731 165.638 65.4949 165.699 66.0372 165.939C67.1217 166.3 68.5678 167.022 70.1344 168.346C71.6407 169.67 73.147 171.595 74.352 174.002C75.4968 176.408 76.4006 179.236 76.7622 182.244C77.6057 188.321 76.4609 193.917 75.0751 197.647C74.7738 198.61 74.352 199.392 74.0508 200.174C73.6893 200.896 73.388 201.498 73.147 201.979C72.665 202.882 72.3035 203.423 72.3035 203.363Z" fill="#263238"/>
<path d="M50.9136 202.099H81.3412L81.5219 208.176H50.9136V202.099Z" fill="#263238"/>
<path d="M53.5044 205.108L55.2517 223.699H77.485L79.2925 205.348L53.5044 205.108Z" fill="#263238"/>
<path d="M81.5219 208.236C81.5219 208.417 74.6531 208.537 66.2178 208.537C57.7824 208.537 50.9136 208.417 50.9136 208.236C50.9136 208.056 57.7824 207.936 66.2178 207.936C74.6531 207.936 81.5219 208.056 81.5219 208.236Z" fill="#465A63"/>
<path d="M78.449 213.892C78.449 213.892 78.2683 214.313 77.7863 215.035C77.3042 215.757 76.5209 216.72 75.4364 217.803L75.3159 217.923L75.1954 217.803C73.7493 216.239 71.7007 214.373 69.2304 212.568H69.5919C68.7484 213.29 67.8446 214.073 66.9408 214.915C65.8562 215.878 64.8319 216.78 63.8076 217.622L63.6269 217.743L63.4461 217.622C61.5783 216.058 59.831 214.614 58.3849 213.351L58.6862 213.29C57.6619 214.554 56.7581 215.637 56.035 216.479C55.3723 217.201 55.0107 217.622 55.0107 217.622C55.0107 217.622 55.312 217.141 55.8543 216.359C56.5171 215.456 57.3606 214.373 58.3246 213.05L58.4451 212.869L58.6259 212.99C60.1322 214.193 61.8795 215.637 63.8076 217.141H63.4461C64.4704 216.299 65.4947 215.336 66.5793 214.434C67.483 213.651 68.3868 212.869 69.2304 212.147L69.4111 212.027L69.5919 212.147C72.1225 214.012 74.1108 215.938 75.5569 217.502H75.2556C77.4247 215.517 78.3285 213.832 78.449 213.892Z" fill="#465A63"/>
<path d="M273.728 78.6377L281.922 75.9302L298.672 61.1292L293.852 56.1354L277.523 70.7558L273.728 78.6377Z" fill="#514F7E"/>
<g opacity="0.7">
<path opacity="0.7" d="M277.523 70.6355C277.885 70.6957 278.066 71.1168 277.885 71.4778C278.427 71.177 279.211 71.2973 279.693 71.7185C280.175 72.1397 280.295 72.9218 280.054 73.4633C280.657 73.4032 281.319 73.704 281.681 74.1853C282.042 74.6667 282.103 75.3887 281.862 75.9903L273.728 78.6376L277.523 70.6355Z" fill="white"/>
</g>
<path d="M276.981 77.5547C276.981 77.5547 277.524 75.9903 275.234 75.3887L273.667 78.6377L276.981 77.5547Z" fill="#514F7E"/>
<path d="M296.563 59.3242C296.563 59.3242 292.888 62.513 288.309 66.4239C283.73 70.3347 280.054 73.4633 280.054 73.4633C280.054 73.4633 283.73 70.2745 288.309 66.3637C292.828 62.4529 296.563 59.264 296.563 59.3242Z" fill="white"/>
<path d="M294.515 57.2785C294.515 57.2785 290.84 60.4673 286.26 64.3782C281.681 68.289 278.006 71.4177 278.006 71.4177C278.006 71.4177 281.681 68.2288 286.26 64.318C290.779 60.4072 294.515 57.2184 294.515 57.2785Z" fill="white"/>
<path d="M143.703 0.1203C133.641 0.1203 125.446 8.30295 125.446 18.3508C125.446 22.2014 126.651 25.8114 128.7 28.7596L126.531 35.5584L133.219 33.2721C136.171 35.3177 139.786 36.5812 143.643 36.5812C153.705 36.5812 161.899 28.3986 161.899 18.3508C161.959 8.30295 153.765 0.1203 143.703 0.1203Z" fill="white"/>
<path d="M143.16 0C143.16 0 143.04 0 142.859 0C142.618 0 142.317 0.0601665 141.955 0.0601665C141.774 0.0601665 141.533 0.0601665 141.292 0.120333C141.051 0.1805 140.75 0.1805 140.449 0.240666C140.147 0.300833 139.846 0.360999 139.485 0.421166C139.123 0.541499 138.822 0.601665 138.4 0.721998C136.894 1.14316 135.086 1.86516 133.279 3.12866C131.471 4.39216 129.543 6.13699 128.037 8.54365C126.53 10.9503 125.446 13.8985 125.265 17.2076C125.265 18.05 125.205 18.8923 125.265 19.7346C125.325 20.1558 125.325 20.577 125.386 20.9981C125.446 21.4193 125.566 21.8405 125.627 22.2616C126.048 23.9463 126.591 25.6911 127.555 27.3156C128.458 28.9401 129.664 30.4443 131.049 31.8281C132.495 33.1518 134.122 34.2949 135.99 35.1373C137.798 35.9796 139.846 36.5812 141.895 36.7617C142.437 36.8219 142.919 36.8219 143.461 36.8219C144.004 36.8219 144.546 36.8219 145.028 36.8219C146.112 36.7618 147.137 36.5813 148.161 36.3406C150.451 35.7991 152.56 34.7763 154.427 33.5128H154.247C156.476 34.2949 158.645 35.1373 160.754 35.9194L161.115 36.0398L160.995 35.6186C160.272 33.2721 159.549 30.9858 158.886 28.8198V29.0003C160.633 26.5334 161.718 23.7658 162.079 21.0583C162.26 19.6745 162.32 18.3508 162.2 17.0271C162.14 16.3653 162.079 15.7035 161.959 15.1018C161.899 14.801 161.838 14.5001 161.778 14.1391C161.718 13.8383 161.597 13.5375 161.537 13.2366C160.151 8.42331 157.078 4.93366 154.066 3.00833C152.56 1.9855 151.053 1.32366 149.728 0.902498C149.366 0.782165 149.065 0.661832 148.764 0.601665C148.462 0.541499 148.161 0.481332 147.86 0.421166C147.559 0.360999 147.257 0.300833 147.016 0.240666C146.775 0.1805 146.474 0.1805 146.233 0.120333C145.751 0.0601665 145.329 0 144.968 0C144.606 0 144.305 0 144.004 0C143.763 0 143.582 0 143.401 0C143.22 0 143.16 0 143.16 0C143.16 0 143.22 0 143.341 0C143.461 0 143.702 0 143.943 0C144.184 0 144.546 0 144.907 0.0601665C145.269 0.0601665 145.691 0.1805 146.173 0.240666C148.101 0.541499 150.933 1.20333 153.885 3.24899C156.837 5.23449 159.85 8.66398 161.176 13.357C161.236 13.6578 161.356 13.9586 161.417 14.2595C161.477 14.5603 161.537 14.8611 161.597 15.162C161.718 15.7636 161.778 16.4255 161.838 17.0271C161.959 18.2906 161.899 19.6143 161.718 20.9981C161.296 23.6454 160.272 26.4131 158.585 28.7596L158.464 28.8799V29.0003C159.127 31.2264 159.85 33.4526 160.573 35.7991L160.814 35.5584C158.705 34.7763 156.536 33.9941 154.307 33.1518L154.186 33.0916L154.126 33.1518C152.319 34.4153 150.27 35.3779 148.041 35.9194C147.016 36.1601 145.992 36.3406 144.968 36.4008C144.425 36.4609 143.943 36.4609 143.401 36.4008C142.859 36.4008 142.377 36.4008 141.835 36.3406C139.786 36.1601 137.798 35.6186 136.05 34.7763C134.243 33.9339 132.616 32.8509 131.23 31.5273C129.844 30.2036 128.699 28.6994 127.796 27.1351C126.892 25.5708 126.289 23.8259 125.928 22.2015C125.868 21.7803 125.747 21.3591 125.687 20.938C125.627 20.5168 125.627 20.0956 125.566 19.6745C125.446 18.8321 125.506 17.9898 125.506 17.2076C125.687 13.9586 126.771 11.0706 128.217 8.72415C129.664 6.37765 131.531 4.63282 133.339 3.36933C135.147 2.10583 136.894 1.38383 138.4 0.902498C138.762 0.782165 139.123 0.661832 139.424 0.601665C139.786 0.541499 140.087 0.481332 140.388 0.421166C140.69 0.360999 140.931 0.300833 141.172 0.240666C141.413 0.1805 141.654 0.1805 141.835 0.1805C142.196 0.120333 142.558 0.120333 142.738 0.0601665C143.04 0.0601665 143.16 0 143.16 0Z" fill="#263238"/>
<path d="M146.896 10.5292C146.896 10.5292 150.812 7.70133 156.295 9.50633C156.295 9.50633 156.717 14.0188 152.379 17.5686" fill="#2AB2DA"/>
<path d="M134.484 18.8923C134.665 19.133 138.943 25.992 138.943 25.992L151.777 18.1101C154.006 16.7263 154.609 13.718 153.042 11.6122C151.596 9.68682 148.945 9.20549 146.896 10.5292L134.484 18.8923Z" fill="#2AB2DA"/>
<path d="M138.943 25.9919L138.642 30.8053C138.642 30.8053 146.956 26.7741 144.908 22.3218L138.943 25.9919Z" fill="#263238"/>
<path d="M140.449 14.8612C140.449 14.8612 134.785 12.3943 130.146 16.0043L134.484 18.8322L140.449 14.8612Z" fill="#263238"/>
<path d="M140.389 18.8923L132.375 23.8861C132.375 23.8861 132.677 24.7285 132.858 24.6683C133.038 24.6081 139.064 21.0583 141.052 19.9151C141.353 19.7346 141.474 19.3135 141.233 19.0126C140.992 18.772 140.63 18.7118 140.389 18.8923Z" fill="#263238"/>
<path d="M150.332 15.6661C150.659 14.2753 149.796 12.8826 148.403 12.5553C147.01 12.2281 145.615 13.0904 145.288 14.4812C144.96 15.8721 145.823 17.2648 147.216 17.592C148.609 17.9192 150.004 17.057 150.332 15.6661Z" fill="#FAFAFA"/>
<path d="M150.33 15.1018C150.33 15.1018 150.33 14.8611 150.21 14.5001C150.089 14.1391 149.848 13.5375 149.246 13.1163C148.945 12.9358 148.583 12.7553 148.161 12.635C147.739 12.5748 147.318 12.5748 146.836 12.7553C146.414 12.9358 145.992 13.2366 145.691 13.5976C145.39 14.0188 145.209 14.5001 145.209 15.0416C145.209 15.5831 145.39 16.1246 145.691 16.4856C145.992 16.9068 146.414 17.2076 146.836 17.3279C147.257 17.5084 147.739 17.5084 148.161 17.4483C148.583 17.3881 148.945 17.2076 149.246 16.9669C149.848 16.5458 150.089 16.0043 150.21 15.5831C150.33 15.2823 150.33 15.1018 150.33 15.1018C150.33 15.1018 150.33 15.1619 150.33 15.2823C150.33 15.4026 150.33 15.5229 150.27 15.7636C150.21 16.1848 149.909 16.7263 149.366 17.2076C149.065 17.4483 148.704 17.6288 148.282 17.6889C147.86 17.7491 147.378 17.7491 146.896 17.5686C146.414 17.3881 145.992 17.0873 145.631 16.6661C145.329 16.2449 145.088 15.7034 145.088 15.1018C145.088 14.5001 145.269 13.9586 145.631 13.5375C145.932 13.1163 146.414 12.7553 146.896 12.635C147.378 12.4545 147.86 12.4545 148.282 12.5146C148.704 12.5748 149.065 12.8155 149.366 12.996C149.969 13.4773 150.21 14.079 150.27 14.44C150.33 14.6205 150.33 14.8009 150.33 14.9213C150.391 15.0416 150.391 15.1018 150.33 15.1018Z" fill="#263238"/>
<path d="M153.464 16.7865C153.403 16.7865 153.403 16.3051 153.223 15.523C153.102 15.162 152.982 14.6806 152.801 14.1993C152.62 13.718 152.319 13.1765 152.018 12.6951C151.656 12.1536 151.295 11.7325 150.933 11.3113C150.572 10.9503 150.21 10.5893 149.909 10.3486C149.306 9.8673 148.824 9.62663 148.824 9.56647C148.824 9.56647 148.945 9.62663 149.125 9.74697C149.246 9.80713 149.366 9.8673 149.487 9.98763C149.608 10.0478 149.788 10.1681 149.969 10.2885C150.27 10.5291 150.692 10.83 151.054 11.2511C151.415 11.6723 151.777 12.0935 152.138 12.635C152.5 13.1765 152.741 13.718 152.921 14.1993C153.102 14.6806 153.283 15.162 153.343 15.5831C153.403 15.7636 153.403 15.9441 153.464 16.1246C153.464 16.3051 153.524 16.4255 153.524 16.5458C153.524 16.6661 153.524 16.7865 153.464 16.7865Z" fill="#263238"/>
<path d="M152.801 17.1475C152.741 17.1475 152.741 16.6662 152.5 15.8238C152.379 15.4027 152.259 14.9815 152.018 14.44C151.777 13.9587 151.536 13.4172 151.174 12.8757C150.813 12.3342 150.451 11.913 150.09 11.4918C149.728 11.0707 149.367 10.7698 149.065 10.5292C148.403 9.98768 147.981 9.74701 147.981 9.74701C147.981 9.74701 148.101 9.80718 148.282 9.92751C148.403 9.98767 148.523 10.0478 148.644 10.1682C148.764 10.2885 148.945 10.3487 149.126 10.469C149.487 10.7097 149.849 11.0707 150.21 11.4317C150.572 11.8528 150.994 12.274 151.295 12.8155C151.656 13.357 151.897 13.8985 152.138 14.3798C152.319 14.9213 152.5 15.3425 152.56 15.7637C152.62 15.9442 152.62 16.1247 152.681 16.3052C152.681 16.4857 152.741 16.606 152.741 16.7263C152.801 17.0272 152.801 17.1475 152.801 17.1475Z" fill="#263238"/>
</svg>
