<svg xmlns="http://www.w3.org/2000/svg" viewBox="0 0 1301.37 876.03"><defs><style>.cls-1{fill:#dfdfdf;}.cls-2{fill:#f4f4f4;}.cls-3{opacity:0.8;}.cls-4{fill:#ebebeb;}.cls-13,.cls-14,.cls-4{fill-rule:evenodd;}.cls-5{fill:#263238;}.cls-6{fill:#fff;}.cls-7{fill:#514f7e;}.cls-8{opacity:0.3;}.cls-13,.cls-9{fill:#c5e3f4;}.cls-10{fill:#e5525e;}.cls-11{fill:#2ab0d8;}.cls-12{fill:#f9f9f9;}.cls-14{fill:#bba5d1;}.cls-15{fill:#fdbd9f;}.cls-16{fill:#e89872;}.cls-17{fill:#465a63;}.cls-18{opacity:0.2;}.cls-19,.cls-20{opacity:0.4;}.cls-21{fill:#bf9684;}.cls-22{fill:#a86552;}.cls-23{fill:none;stroke:#263238;stroke-miterlimit:10;stroke-width:0.5px;stroke-dasharray:12;}</style></defs><title>1-main</title><g id="Слой_2" data-name="Слой 2"><g id="Layer_1" data-name="Layer 1"><path class="cls-1" d="M1192.83,256.84a9.13,9.13,0,0,1,2.92.91,12.28,12.28,0,0,1,5.82,5.89,12.42,12.42,0,0,1,1.18,5.68,12.72,12.72,0,0,1-2,6.38,12.75,12.75,0,0,1-5.59,4.8,12.61,12.61,0,0,1-14.64-3.29,12.69,12.69,0,0,1-3-6.72,12.5,12.5,0,0,1,4.46-11.24,12.3,12.3,0,0,1,7.77-2.84,9.29,9.29,0,0,1,3,.43,27.44,27.44,0,0,0-3-.15,12.24,12.24,0,0,0-7.46,2.95,12,12,0,0,0-3.29,4.48,12.16,12.16,0,0,0-.84,6.29,11.17,11.17,0,0,0,.94,3.32,11.61,11.61,0,0,0,1.93,3,12,12,0,0,0,13.84,3.1,12.05,12.05,0,0,0,5.32-4.51,12.2,12.2,0,0,0-4.63-17.36A27.37,27.37,0,0,0,1192.83,256.84Z"/><path class="cls-1" d="M1202.73,243.62a2.17,2.17,0,0,1,0-.43c0-.33,0-.76,0-1.32,0-1.21,0-3-.07-5.2l.09.11-11.24-2.46.2-.09c-.9,1.9-1.89,4-3,6.29l0,.11h-.13a28.11,28.11,0,0,0-7.33,1.3l-.13,0-.1-.1-5-4.89.32,0-9.71,6.18.11-.33,2.35,6.55.06.17-.12.13a28.26,28.26,0,0,0-4.27,6.08l-.08.16h-.19l-7,0,.31-.24L1155.32,267l-.18-.37,6.28,3,.19.09v.2a28.36,28.36,0,0,0,1.27,7.3l.07.2-.15.15-4.91,4.93,0-.43,6.16,9.72-.41-.15,6.55-2.33.2-.07.16.14a28.54,28.54,0,0,0,6.05,4.27h0l.19.31h0v6.94l-.27-.35,11.23,2.52-.4.19,3-6.27.09-.2h.21a27.79,27.79,0,0,0,7.3-1.27l.2-.06.15.15,4.92,4.91-.42-.05,9.73-6.15-.13.39c-.79-2.23-1.57-4.41-2.33-6.56l-.06-.18.13-.14a27.69,27.69,0,0,0,4.28-6.06l.09-.17h7.14l-.29.23c.89-3.95,1.74-7.68,2.54-11.22l.15.3-6.27-3-.14-.07v-.15a28.43,28.43,0,0,0-1.25-7.33l0-.14.1-.09,4.93-4.92,0,.26-6.12-9.75.19.07-6.57,2.29-.06,0,0,0a30,30,0,0,0-4.47-3.44l-1.2-.72a2.69,2.69,0,0,1-.39-.24l.42.19c.28.14.69.36,1.23.67a27.55,27.55,0,0,1,4.56,3.38l-.11,0,6.53-2.37.12,0,.07.1,6.2,9.7.09.14-.12.12-4.89,4.94.06-.23a28.34,28.34,0,0,1,1.32,7.45l-.14-.22,6.28,3,.2.09,0,.21c-.79,3.56-1.62,7.29-2.49,11.24l-.06.23h-.23l-7,0,.27-.17a29.3,29.3,0,0,1-4.36,6.21l.06-.32q1.15,3.21,2.34,6.55l.09.24-.22.14-9.71,6.17-.23.15-.19-.19-4.94-4.91.35.09a28.82,28.82,0,0,1-7.48,1.3l.3-.2-3,6.29-.12.25-.28-.06-11.23-2.52-.27-.06v-.28c0-1.15,0-2.31,0-3.47v-3.48h0c.38.63.11.18.19.32h0a28.53,28.53,0,0,1-6.21-4.37l.36.08-6.55,2.33-.27.09-.15-.24-6.16-9.72-.14-.24.19-.19c1.7-1.7,3.38-3.38,4.91-4.93l-.08.35a29,29,0,0,1-1.3-7.48l.2.29-6.28-3-.24-.12.06-.25c.88-3.9,1.73-7.7,2.53-11.23l.06-.25h7.2l-.27.16a28.78,28.78,0,0,1,4.38-6.19l-.06.3-2.32-6.56-.08-.21.19-.12,9.74-6.14.17-.1.14.14,4.91,4.92-.23-.06a29,29,0,0,1,7.45-1.27l-.17.12,3-6.27.07-.13.13,0,11.22,2.59.09,0v.09c0,2.23,0,4,0,5.15,0,.57,0,1,0,1.34A2.77,2.77,0,0,1,1202.73,243.62Z"/><path class="cls-1" d="M1270.81,804.88s0-.73,0-2.12,0-3.46,0-6.15c0-5.4,0-13.33-.08-23.5,0-20.33-.1-49.64-.17-85.62l.32.32-202.89.09h0l.41-.41c0,41.55,0,81.24,0,117.39l-.38-.39,145.93.19,41.91.11,11.18,0,2.89,0,1,0s-.31,0-1,0l-2.84,0-11.1,0-41.82.11-146.19.19h-.39v-.39c0-36.15,0-75.84,0-117.39v-.42h.43l202.89.1h.32v.32c-.07,36.06-.13,65.44-.17,85.82,0,10.14-.06,18-.08,23.43,0,2.66,0,4.69,0,6.09S1270.81,804.88,1270.81,804.88Z"/><path class="cls-1" d="M1270.89,701.7c0,.23-45.39.42-101.36.42s-101.36-.19-101.36-.42,45.37-.41,101.36-.41S1270.89,701.47,1270.89,701.7Z"/><rect class="cls-2" x="1085.48" y="721.06" width="62.68" height="62.68"/><path class="cls-1" d="M1256.1,731.4a4.2,4.2,0,0,1-.92.08l-2.65.08-9.72.13-32.07.12-32.08-.12-9.72-.13-2.64-.08a4.09,4.09,0,0,1-.92-.08,3.65,3.65,0,0,1,.92-.09l2.64-.07,9.72-.14,32.08-.12,32.07.12,9.72.14,2.65.07A3.75,3.75,0,0,1,1256.1,731.4Z"/><path class="cls-1" d="M1258.12,745.4a4.46,4.46,0,0,1-.95.08l-2.7.08-9.94.13-32.78.12-32.79-.12-9.94-.13-2.7-.08a4.3,4.3,0,0,1-.94-.08,3.84,3.84,0,0,1,.94-.09l2.7-.07,9.94-.14,32.79-.12,32.78.12,9.94.14,2.7.07A4,4,0,0,1,1258.12,745.4Z"/><path class="cls-1" d="M1258.12,759.4a4.46,4.46,0,0,1-.95.08l-2.7.08-9.94.13-32.78.12-32.79-.12-9.94-.13-2.7-.08a4.3,4.3,0,0,1-.94-.08,3.84,3.84,0,0,1,.94-.09l2.7-.07,9.94-.14,32.79-.12,32.78.12,9.94.14,2.7.07A4,4,0,0,1,1258.12,759.4Z"/><path class="cls-1" d="M1258.12,773.4a4.46,4.46,0,0,1-.95.08l-2.7.08-9.94.13-32.78.12-32.79-.12-9.94-.13-2.7-.08a4.3,4.3,0,0,1-.94-.08,3.84,3.84,0,0,1,.94-.09l2.7-.07,9.94-.14,32.79-.12,32.78.12,9.94.14,2.7.07A4,4,0,0,1,1258.12,773.4Z"/><circle class="cls-2" cx="683.41" cy="84.33" r="84.33" transform="translate(140.54 507.94) rotate(-45)"/><path class="cls-1" d="M721.7,86.92a16.54,16.54,0,0,1-3,.2l-8.2.16c-6.95.1-16.64.17-27.58.18h-.54v-6c0-12.21.06-23.27.16-31.27.07-3.86.13-7,.17-9.48a23.12,23.12,0,0,1,.21-3.48,20.64,20.64,0,0,1,.22,3.48c0,2.43.1,5.62.17,9.48.1,8,.16,19.06.16,31.27,0,1.88,0,3.72,0,5.47l-.54-.54c10.94,0,20.63.08,27.58.18l8.2.17A17.33,17.33,0,0,1,721.7,86.92Z"/><path class="cls-1" d="M683.2,13.85c.3,0,.55,3.18.55,7.09S683.5,28,683.2,28s-.54-3.17-.54-7.08S682.9,13.85,683.2,13.85Z"/><path class="cls-1" d="M721.62,25.23c.22.21-1.82,2.6-4.55,5.32s-5.11,4.77-5.32,4.55,1.82-2.59,4.55-5.32S721.41,25,721.62,25.23Z"/><path class="cls-1" d="M744.09,49.77c.14.28-2.54,1.89-5.81,3.88s-5.94,3.62-6.12,3.37,2.23-2.29,5.55-4.3S744,49.51,744.09,49.77Z"/><path class="cls-1" d="M757.26,86.19c0,.3-4.33.55-9.66.55s-9.66-.25-9.66-.55,4.32-.54,9.66-.54S757.26,85.89,757.26,86.19Z"/><path class="cls-1" d="M623.31,84.9c0,.3-4.08.55-9.12.55s-9.12-.25-9.12-.55,4.08-.54,9.12-.54S623.31,84.6,623.31,84.9Z"/><path class="cls-1" d="M632.79,112c.2.22-2.89,3-6.9,6.25s-7.39,5.64-7.57,5.4,2.9-3,6.89-6.25S632.59,111.79,632.79,112Z"/><path class="cls-1" d="M656.16,133c.25.18-2,3.7-4.69,8.13s-4.7,8.09-5,8,1.34-4.05,4-8.52S655.92,132.81,656.16,133Z"/><path class="cls-1" d="M683.2,160c-.3,0-.54-4.32-.54-9.66s.24-9.66.54-9.66.55,4.33.55,9.66S683.5,160,683.2,160Z"/><path class="cls-1" d="M724.84,147.16c-.15.24-3.93-1.93-8-5.46s-6.71-7-6.49-7.14,3.23,2.86,7.21,6.32S725,146.9,724.84,147.16Z"/><path class="cls-1" d="M744.38,126.12c-.22.21-3.08-2.31-6.4-5.63s-5.84-6.18-5.62-6.39,3.07,2.3,6.39,5.62S744.59,125.9,744.38,126.12Z"/><path class="cls-1" d="M631.9,58.93c-.21.21-2.74-2-5.64-4.87s-5.09-5.43-4.88-5.65,2.74,2,5.65,4.88S632.11,58.72,631.9,58.93Z"/><path class="cls-1" d="M656,33.53c-.22.21-2.7-1.92-5.55-4.76s-5-5.31-4.78-5.52,2.7,1.91,5.55,4.75S656.23,33.31,656,33.53Z"/><g class="cls-3"><path class="cls-4" d="M518.22,530.34a55.92,55.92,0,0,1,12.13,8.54l13-4.61,12.18,19.23-9.7,9.75a55.81,55.81,0,0,1,2.54,14.62l12.43,5.9-5,22.21L542,606a55.48,55.48,0,0,1-8.55,12.13l4.62,13-19.23,12.19-9.75-9.71a55.54,55.54,0,0,1-14.62,2.54l-5.9,12.43-22.22-5,0-13.76a55.72,55.72,0,0,1-12.13-8.55l-13,4.62-12.19-19.23,9.71-9.75a56.3,56.3,0,0,1-2.54-14.62l-12.42-5.9,5-22.21,13.75,0A55.78,55.78,0,0,1,451.09,542l-4.62-13,19.23-12.18,9.75,9.71A56,56,0,0,1,490.07,524L496,511.6l22.21,5,0,13.76Zm-19.59,26.13a24.42,24.42,0,1,0,18.49,29.17A24.42,24.42,0,0,0,498.63,556.47Z"/></g><path class="cls-2" d="M392.73,189H594.55s-17.85-32.48-69.8-27.75c-49.61,4.51-52.13-16-77.36-18.5S401.14,159.56,392.73,189Z"/><path class="cls-2" d="M801.89,578.14H918.56s-10.32-18.78-40.35-16c-28.68,2.61-30.14-9.24-44.72-10.7S806.75,561.12,801.89,578.14Z"/><path class="cls-5" d="M1301.37,866c0,.28-286.36.51-639.51.51S22.28,866.29,22.28,866s286.3-.51,639.58-.51S1301.37,865.73,1301.37,866Z"/><rect class="cls-6" x="969.68" y="282.07" width="283.08" height="189.54"/><path class="cls-7" d="M1252.75,471.61s0-1.19,0-3.45,0-5.63,0-10c0-8.77-.06-21.64-.1-38.12,0-32.93-.13-80.26-.21-138l.4.41-283,.1h0l.5-.51c0,67.52,0,131.73,0,189.54l-.46-.47,203.93.23,58.27.13,15.5.05,4,0,1.37,0s-.43,0-1.32,0l-4,0-15.4.06-58.16.12-204.24.23h-.47v-.46c0-57.81,0-122,0-189.54v-.51h.53l283,.11h.41v.4c-.09,57.81-.17,105.23-.22,138.22,0,16.44-.08,29.28-.1,38,0,4.34,0,7.67,0,9.93S1252.75,471.61,1252.75,471.61Z"/><path class="cls-7" d="M969.68,299c0-.28,63.32-.51,141.41-.51s141.43.23,141.43.51-63.31.5-141.43.5S969.68,299.27,969.68,299Z"/><g class="cls-8"><path class="cls-9" d="M980.84,290.45a2.27,2.27,0,1,1-2.27-2.27A2.26,2.26,0,0,1,980.84,290.45Z"/></g><g class="cls-8"><path class="cls-9" d="M988.62,290.45a2.27,2.27,0,1,1-2.27-2.27A2.27,2.27,0,0,1,988.62,290.45Z"/></g><g class="cls-8"><path class="cls-9" d="M996.28,290.45a2.27,2.27,0,1,1-2.27-2.27A2.27,2.27,0,0,1,996.28,290.45Z"/></g><rect class="cls-9" x="994.01" y="318.75" width="75.51" height="75.51"/><path class="cls-7" d="M1213.93,340.09c0,.29-29.45.51-65.77.51s-65.77-.22-65.77-.51,29.44-.5,65.77-.5S1213.93,339.81,1213.93,340.09Z"/><path class="cls-7" d="M1213.93,354.13c0,.28-29.45.5-65.77.5s-65.77-.22-65.77-.5,29.44-.51,65.77-.51S1213.93,353.85,1213.93,354.13Z"/><path class="cls-7" d="M1213.93,368.16c0,.28-29.45.51-65.77.51s-65.77-.23-65.77-.51,29.44-.51,65.77-.51S1213.93,367.88,1213.93,368.16Z"/><path class="cls-7" d="M1160.13,382.19a17.39,17.39,0,0,1-3.05.2l-8.33.16c-7,.09-16.76.15-27.49.15s-20.46-.06-27.49-.15l-8.33-.16a17.25,17.25,0,0,1-3-.2,17.25,17.25,0,0,1,3-.2l8.33-.16c7-.09,16.75-.15,27.49-.15s20.45.06,27.49.15l8.33.16A17.39,17.39,0,0,1,1160.13,382.19Z"/><g class="cls-8"><rect class="cls-10" x="998.74" y="419.72" width="35.49" height="35.49"/></g><rect class="cls-9" x="1063.09" y="419.72" width="35.49" height="35.49"/><rect class="cls-9" x="1127.45" y="419.72" width="35.49" height="35.49"/><rect class="cls-9" x="1191.8" y="419.72" width="35.49" height="35.49"/><path class="cls-2" d="M889.44,221.64c-4.22-2.82-10-1.11-14.25,1.71s-7.84,6.68-12.58,8.52c-8.89,3.46-20.55-.64-27.46,5.94-4.39,4.17-4.83,11-8.19,16.07-5.64,8.5-19.19,11.69-20.35,21.82-.68,5.91,4,11.58,9.71,13.24s12-.09,17-3.39c5.78-3.84,10.33-9.78,16.93-12s15-.36,20.37-5.07,4.52-13.36,8.33-19.36c2-3.2,5.23-5.43,8.1-7.91s5.6-5.53,6.08-9.29-1.06-10.17-3.65-10.31"/><path class="cls-11" d="M947.21,161.66s22.88-16.32,54.55-5.78c0,0,2.61,26.22-22.79,47.07"/><path class="cls-11" d="M875.06,210.11c1,1.46,25.81,41.39,25.81,41.39l74.58-45.95a26.1,26.1,0,0,0,7.28-37.76h0a26.11,26.11,0,0,0-35.52-6.13Z"/><path class="cls-5" d="M900.87,251.5l-1.67,28.09s48.33-23.41,36.27-49.41Z"/><path class="cls-5" d="M909.61,186.91s-32.77-14.46-59.75,6.75l25.2,16.45Z"/><path class="cls-5" d="M909.38,210.13,862.74,239.3s1.6,5,2.85,4.6c1-.35,36.1-21.05,47.46-27.76a3.51,3.51,0,0,0,.92-5.26h0A3.52,3.52,0,0,0,909.38,210.13Z"/><circle class="cls-12" cx="952.33" cy="188.02" r="14.93" transform="translate(551.23 1071.99) rotate(-76.76)"/><path class="cls-5" d="M967.26,188c-.11,0,0-1.33-.66-3.6a14.86,14.86,0,0,0-5.45-8,14.54,14.54,0,0,0-13.75-2,14.31,14.31,0,0,0-6.69,5.06,14.39,14.39,0,0,0,0,17.06,14.29,14.29,0,0,0,6.69,5,14.54,14.54,0,0,0,13.75-2,14.82,14.82,0,0,0,5.45-8c.61-2.26.55-3.6.66-3.59a2.89,2.89,0,0,1,.06.95,12.22,12.22,0,0,1-.33,2.74,14.89,14.89,0,0,1-5.41,8.46,15.1,15.1,0,0,1-6.41,2.93,15.35,15.35,0,0,1-8.08-.62,15.15,15.15,0,0,1-7.18-5.34,15.28,15.28,0,0,1,0-18.24,15.11,15.11,0,0,1,7.18-5.35,15.32,15.32,0,0,1,8.07-.61,15.08,15.08,0,0,1,6.42,2.92,14.89,14.89,0,0,1,5.41,8.46,12.22,12.22,0,0,1,.33,2.74A3,3,0,0,1,967.26,188Z"/><path class="cls-5" d="M985.44,198c-.19,0-.42-2.9-1.56-7.44a56.92,56.92,0,0,0-2.59-7.78A56.47,56.47,0,0,0,970.45,166a57.06,57.06,0,0,0-6-5.56c-3.67-2.91-6.23-4.32-6.14-4.49a8.09,8.09,0,0,1,1.86.88,20.87,20.87,0,0,1,2.08,1.23c.78.52,1.71,1.07,2.64,1.81a49.87,49.87,0,0,1,6.26,5.49,56.69,56.69,0,0,1,6.34,8,57.28,57.28,0,0,1,4.68,9.07,49.52,49.52,0,0,1,2.43,8c.29,1.15.41,2.22.56,3.14a21.68,21.68,0,0,1,.27,2.4A7.79,7.79,0,0,1,985.44,198Z"/><path class="cls-5" d="M981.42,200.12c-.19,0-.43-3-1.59-7.57a59.43,59.43,0,0,0-2.64-7.91,63,63,0,0,0-4.72-9,63.9,63.9,0,0,0-6.25-8.07,58.78,58.78,0,0,0-6.09-5.7c-3.71-3-6.31-4.43-6.21-4.6a8.7,8.7,0,0,1,1.88.91,23.52,23.52,0,0,1,2.1,1.27c.79.53,1.73,1.1,2.67,1.86a51.24,51.24,0,0,1,6.33,5.62,54.09,54.09,0,0,1,11.16,17.39,52.65,52.65,0,0,1,2.47,8.11c.29,1.17.42,2.26.57,3.2a20.08,20.08,0,0,1,.28,2.44A8.39,8.39,0,0,1,981.42,200.12Z"/><path class="cls-10" d="M233.73,817.74c-1.67-6.63,2.71-13.24,7.6-18s10.72-9,13.29-15.37c4.16-10.25-1.28-23.6,5.77-32.13,4.14-5,11.52-6.67,15.21-12,1.93-2.82,2.57-6.29,3.34-9.62a97.86,97.86,0,0,1,24.59-45.4,84.82,84.82,0,0,1-9.8,43.84c-2.86,5.37-6.37,10.61-7.34,16.62-1.58,9.77,3.82,19.87,1.37,29.45-2.81,11-15.18,18.24-15.83,29.53-.55,9.55,7.73,18,7.05,27.52-.29,4.06-2.19,7.83-4.31,11.3-7.46,12.24-18.35,20.63-34.8,20.27l-20.14.59Z"/><path class="cls-7" d="M233.73,817.74c-1.67-6.63,2.71-13.24,7.6-18s10.72-9,13.29-15.37c4.16-10.25-1.28-23.6,5.77-32.13,4.14-5,11.52-6.67,15.21-12,1.93-2.82,2.57-6.29,3.34-9.62a97.86,97.86,0,0,1,24.59-45.4,84.82,84.82,0,0,1-9.8,43.84c-2.86,5.37-6.37,10.61-7.34,16.62-1.58,9.77,3.82,19.87,1.37,29.45-2.81,11-15.18,18.24-15.83,29.53-.55,9.55,7.73,18,7.05,27.52-.29,4.06-2.19,7.83-4.31,11.3-7.46,12.24-18.35,20.63-34.8,20.27l-20.14.59Z"/><path class="cls-5" d="M215.65,864.78a16,16,0,0,1-5.55-.15,34,34,0,0,1-6.53-1.68,27.84,27.84,0,0,1-8.06-4.48,11.13,11.13,0,0,1-3.3-4.45,21.12,21.12,0,0,1-.92-6,56.47,56.47,0,0,0-.43-6.52,18,18,0,0,0-2.42-6.49c-2.35-4.19-6.27-8.16-7.52-13.83s-.32-11.6.65-17.65,1.91-12.62-.36-18.92-6.51-12-8.68-19.14S171.44,750.56,171,743a29.89,29.89,0,0,0-2.56-11.2c-1.61-3.58-3.85-7-5.59-10.72-3.54-7.6-4.12-16.21-5.05-24.64q-.67-6.37-1.37-12.88c-.46-4.36-.82-8.69-2.17-12.89a113.16,113.16,0,0,0-4.74-12.49,41.28,41.28,0,0,1-2.3-6.53,65.75,65.75,0,0,1-.61-6.93,81.44,81.44,0,0,1,.61-13.94c.58-4.64,1.44-9.25,2-13.9,0-.28.06-.55.09-.8l.11-.93.82.42A31,31,0,0,1,161,624.73a49.28,49.28,0,0,1,6.6,12.31c3.31,8.68,4.47,17.75,6.12,26.41s3.74,17.19,8.14,24.41c2.18,3.6,4.83,6.89,7.15,10.4s4.34,7.32,4.93,11.51c1.15,8.53-3.59,16-2.66,23.53a26.16,26.16,0,0,0,3.62,10.48c1.81,3.23,3.94,6.22,6,9.23a58.41,58.41,0,0,1,5.36,9.33,29.77,29.77,0,0,1,2.42,10.11c.45,6.79-.55,13.23-.09,19.32s2.48,11.63,4.88,16.58,5.09,9.46,7.34,13.82a68.56,68.56,0,0,1,3,6.44,31.19,31.19,0,0,1,1.73,6.37,40,40,0,0,1,.09,11.5c-.92,6.9-3.52,11.85-5.85,14.63a13.63,13.63,0,0,1-1.64,1.76A7.94,7.94,0,0,1,216.8,864c-.75.55-1.15.8-1.15.8a25.81,25.81,0,0,0,3.92-3.83,29.26,29.26,0,0,0,5.55-14.53,40.19,40.19,0,0,0-.19-11.33,31.48,31.48,0,0,0-1.75-6.23,70,70,0,0,0-3-6.35c-2.27-4.32-5-8.8-7.44-13.8s-4.64-10.62-5.05-16.88.48-12.67,0-19.31a28.32,28.32,0,0,0-2.37-9.77,58.28,58.28,0,0,0-5.29-9.14c-2-3-4.18-6-6-9.29a27.16,27.16,0,0,1-3.79-10.9c-.92-8,3.78-15.55,2.61-23.48-.55-3.92-2.48-7.58-4.76-11s-5-6.74-7.2-10.43c-4.54-7.42-6.7-16.11-8.33-24.81s-2.82-17.7-6.08-26.19a48,48,0,0,0-6.42-12,29.83,29.83,0,0,0-10.33-8.83l.93-.51c0,.25-.07.53-.1.81-.53,4.71-1.4,9.32-2,13.91a81.13,81.13,0,0,0-.61,13.73,66.11,66.11,0,0,0,.58,6.72,39.67,39.67,0,0,0,2.23,6.29,116,116,0,0,1,4.78,12.63c1.38,4.3,1.75,8.81,2.19,13.11s.91,8.64,1.36,12.89c.91,8.47,1.5,16.93,4.9,24.28,1.68,3.65,3.92,7,5.57,10.73a31,31,0,0,1,2.64,11.61c.39,7.78-.66,15.37,1.4,22.27s6.41,12.6,8.59,19.11c2.34,6.58,1.32,13.38.32,19.4s-2,12-.75,17.31,4.95,9.36,7.34,13.66a18.51,18.51,0,0,1,2.46,6.75,59,59,0,0,1,.39,6.6,20.12,20.12,0,0,0,.83,5.85,10.65,10.65,0,0,0,3.1,4.26,27.89,27.89,0,0,0,7.86,4.5,34.92,34.92,0,0,0,6.44,1.78,25,25,0,0,0,4.1.42C215.17,864.76,215.65,864.78,215.65,864.78Z"/><path class="cls-5" d="M153.35,627.14a2,2,0,0,1,.2.61c.11.48.25,1.08.43,1.82.39,1.58.85,4,1.59,7s2.58,6.37,4.12,10.54,3.22,8.93,4.71,14.32,2.83,11.35,4.22,17.75,2.85,13.23,6.33,19.7c1.64,3.28,3.48,6.61,4.93,10.24a47.67,47.67,0,0,1,2.84,11.57,234.24,234.24,0,0,0,4.2,24.39c3.94,16.53,7.7,32.27,11.12,46.61s6.67,27.16,9.33,38,4.7,19.49,6.18,25.65q1,4.44,1.62,7c.16.74.28,1.34.39,1.83a2.5,2.5,0,0,1,.09.63,2.2,2.2,0,0,1-.22-.6c-.14-.48-.31-1.07-.51-1.79q-.67-2.53-1.86-6.94l-6.58-25.55c-2.74-10.83-6-23.68-9.59-37.94s-7.25-30.09-11.24-46.62a232,232,0,0,1-4.19-24.49,46.34,46.34,0,0,0-2.73-11.3c-1.4-3.54-3.21-6.84-4.85-10.16-3.5-6.59-4.94-13.65-6.31-20S165,667,163.51,661.65s-3-10.16-4.5-14.3-3.2-7.58-3.93-10.67-1.05-5.44-1.36-7.06c-.12-.75-.22-1.35-.3-1.84A2.39,2.39,0,0,1,153.35,627.14Z"/><path class="cls-11" d="M212.09,864.82c-13.11-7.89-16.75-31.65-11.18-45.9s15.25-27.26,16.81-42.48c1.21-11.71-2.56-23.74.24-35.17,3.76-15.43,18.91-27.31,18.83-43.18,0-8.91-5.07-17.32-4.62-26.22.56-10.91,9-19.53,14.23-29.11,8-14.68,8.65-32.08,11.46-48.56s9.2-34.13,23.87-42.16c2.08,14,5.72,23.64,4.45,42.62-.45,6.81-8.45,19.82-9.61,34.75-.69,8.93-1.19,17.87-1.79,26.8-.58,8.69-1.19,17.54-4.36,25.66-2.42,6.22-6.29,11.86-8.1,18.29-3.4,12.09.9,25.23-1.86,37.48-2.34,10.38-9.58,19.29-11.11,29.82-2.15,14.8,7.34,30.24,2.36,44.33-2.48,7-8.27,12.6-10,19.82-1.3,5.61.05,11.56-1.13,17.2-1.91,9.08-19.28,16-28.54,15.42"/><path class="cls-5" d="M278,565.93a3.92,3.92,0,0,1-.06.79c-.08.59-.19,1.35-.31,2.3-.32,2-.67,5-1.38,8.83s-2.77,8.2-4.39,13.43-3.41,11.25-4.93,18-2.84,14.21-4.2,22.24-2.85,16.79-6.89,25.13c-1.87,4.2-4,8.4-5.54,12.87a57.91,57.91,0,0,0-2.86,14.2,284.58,284.58,0,0,1-4,30.63c-4.15,20.73-8.1,40.49-11.69,58.46-3.79,17.91-7.19,34-10.06,47.62l-6.9,32.09c-.82,3.71-1.47,6.63-1.94,8.7-.22.94-.4,1.69-.53,2.26a3.49,3.49,0,0,1-.23.76,3.53,3.53,0,0,1,.1-.78c.1-.59.24-1.34.41-2.29.4-2.09,1-5,1.7-8.76,1.55-7.68,3.76-18.65,6.49-32.16s6.11-29.75,9.79-47.68,7.48-37.72,11.59-58.45a291.88,291.88,0,0,0,4-30.53,59.21,59.21,0,0,1,2.95-14.48c1.63-4.57,3.75-8.78,5.62-12.94,4-8.23,5.46-16.83,6.92-24.84s2.77-15.5,4.37-22.25,3.35-12.8,5.13-18,3.78-9.56,4.59-13.32S277,571,277.4,569l.43-2.28A3.93,3.93,0,0,1,278,565.93Z"/><rect class="cls-7" x="1150.02" y="559.99" width="13.58" height="43.87"/><rect class="cls-7" x="1175.02" y="541.93" width="13.58" height="61.93"/><rect class="cls-7" x="1201.62" y="533.5" width="13.58" height="70.36"/><rect class="cls-7" x="1228.23" y="524.6" width="13.58" height="79.26"/><path class="cls-5" d="M418.39,740.14a9.37,9.37,0,0,1,2.92.92,12.3,12.3,0,0,1,5.82,5.88,12.46,12.46,0,0,1,1.18,5.69,12.65,12.65,0,0,1-1.95,6.38,11.91,11.91,0,0,1-2.38,2.76,11.7,11.7,0,0,1-3.21,2,12.61,12.61,0,0,1-14.64-3.29,12.69,12.69,0,0,1-3-6.72,12.56,12.56,0,0,1,1-6.6,12.45,12.45,0,0,1,11.27-7.48,9.5,9.5,0,0,1,3,.42c0,.09-1.08-.21-3-.14a12.24,12.24,0,0,0-10.75,7.43,12.13,12.13,0,0,0-.84,6.28,11.23,11.23,0,0,0,.94,3.33,11.39,11.39,0,0,0,1.94,3,12,12,0,0,0,13.83,3.1,12,12,0,0,0,5.32-4.52,12,12,0,0,0,.86-11.5,12.31,12.31,0,0,0-5.48-5.85C419.46,740.41,418.37,740.23,418.39,740.14Z"/><path class="cls-5" d="M428.29,726.93a3.42,3.42,0,0,1,0-.43c0-.33,0-.76,0-1.32,0-1.21-.05-2.95-.08-5.2l.09.11L417,717.63l.2-.1-3,6.3-.05.11h-.13a28.21,28.21,0,0,0-7.33,1.31l-.13,0-.1-.1-4.95-4.9.32,0-9.71,6.18.11-.33,2.35,6.55.06.17-.12.13a28.19,28.19,0,0,0-4.27,6.07l-.08.17H390l-6.95,0,.31-.24c-.79,3.52-1.64,7.33-2.51,11.23l-.18-.37,6.29,3,.18.08v.21a28,28,0,0,0,1.28,7.3l.06.2-.15.14-4.9,4.94,0-.43,6.17,9.71-.42-.14,6.55-2.33.21-.07.15.14a28.15,28.15,0,0,0,6.05,4.26h0l.19.31h0v6.93l-.27-.34,11.23,2.52-.39.19c1-2.11,2-4.2,3-6.28l.09-.19h.21a27.78,27.78,0,0,0,7.3-1.26l.2-.06.15.14,4.92,4.91-.41,0,9.72-6.15L438,778c-.79-2.22-1.56-4.41-2.32-6.55l-.07-.18.13-.15a27.4,27.4,0,0,0,4.28-6.05l.09-.17h7.14l-.29.23c.9-4,1.74-7.68,2.54-11.23l.15.31-6.27-3-.14-.07V751a28,28,0,0,0-1.25-7.33l0-.14.1-.1,4.92-4.91,0,.26L440.84,729l.19.07-6.57,2.29-.06,0,0,0a30,30,0,0,0-4.47-3.44l-1.19-.72-.4-.24a2.51,2.51,0,0,1,.43.19c.27.14.68.35,1.22.67a27.11,27.11,0,0,1,4.56,3.37l-.11,0,6.54-2.37.11,0,.07.11c1.76,2.74,3.8,5.94,6.2,9.7l.09.14-.11.12c-1.52,1.53-3.12,3.14-4.89,4.94l.05-.23a28.34,28.34,0,0,1,1.32,7.45l-.14-.22,6.29,3,.19.09-.05.21c-.79,3.55-1.61,7.28-2.49,11.24l-.05.23h-.24l-6.95,0,.27-.16a28.59,28.59,0,0,1-4.36,6.21l.06-.33c.77,2.15,1.55,4.33,2.34,6.56l.09.24-.22.14-9.71,6.17-.23.14-.19-.19c-1.62-1.61-3.27-3.24-4.93-4.9l.34.08a28.35,28.35,0,0,1-7.48,1.31l.3-.2-3,6.28-.12.26-.27-.06L402,784.52l-.27-.06v-.28c0-1.16,0-2.31,0-3.47v-3.47h0a3.58,3.58,0,1,0,.19.31h0a28.53,28.53,0,0,1-6.21-4.37l.36.07-6.55,2.33-.27.1-.15-.24c-2.12-3.34-4.21-6.64-6.15-9.72l-.15-.24.19-.19,4.92-4.93-.09.34a28.45,28.45,0,0,1-1.29-7.48l.19.29c-2.18-1-4.33-2-6.28-3l-.24-.11.06-.26c.88-3.89,1.74-7.7,2.53-11.22l.06-.25H390l-.27.16a28.54,28.54,0,0,1,4.38-6.19l-.06.3-2.32-6.56-.08-.21.19-.12,9.74-6.14.17-.11.14.15c1.73,1.72,3.38,3.38,4.92,4.92l-.24-.06a28.19,28.19,0,0,1,7.46-1.27l-.18.12,3-6.27.07-.13.14,0,11.21,2.58.09,0V720c0,2.24,0,4-.05,5.16,0,.57,0,1,0,1.34A2.93,2.93,0,0,1,428.29,726.93Z"/><path class="cls-13" d="M501.64,762.64a31.38,31.38,0,0,1,6.78,4.78l7.24-2.58,6.81,10.75L517.05,781a31.45,31.45,0,0,1,1.42,8.17l6.95,3.3-2.79,12.41-7.69,0a31,31,0,0,1-4.77,6.78l2.57,7.25L502,825.78l-5.45-5.43a31.11,31.11,0,0,1-8.17,1.42l-3.3,7-12.42-2.79v-7.69a30.76,30.76,0,0,1-6.78-4.77l-7.25,2.58-6.81-10.75,5.43-5.45a31.46,31.46,0,0,1-1.43-8.17l-6.94-3.3L451.66,776h7.68a31,31,0,0,1,4.78-6.78l-2.58-7.25,10.75-6.81,5.45,5.43a31,31,0,0,1,8.17-1.42l3.3-7L501.62,755l0,7.68Zm-10.95,14.61A13.65,13.65,0,1,0,501,793.56,13.65,13.65,0,0,0,490.69,777.25Z"/><g class="cls-3"><path class="cls-13" d="M501.64,762.64a31.38,31.38,0,0,1,6.78,4.78l7.24-2.58,6.81,10.75L517.05,781a31.45,31.45,0,0,1,1.42,8.17l6.95,3.3-2.79,12.41-7.69,0a31,31,0,0,1-4.77,6.78l2.57,7.25L502,825.78l-5.45-5.43a31.11,31.11,0,0,1-8.17,1.42l-3.3,7-12.42-2.79v-7.69a30.76,30.76,0,0,1-6.78-4.77l-7.25,2.58-6.81-10.75,5.43-5.45a31.46,31.46,0,0,1-1.43-8.17l-6.94-3.3L451.66,776h7.68a31,31,0,0,1,4.78-6.78l-2.58-7.25,10.75-6.81,5.45,5.43a31,31,0,0,1,8.17-1.42l3.3-7L501.62,755l0,7.68Zm-10.95,14.61A13.65,13.65,0,1,0,501,793.56,13.65,13.65,0,0,0,490.69,777.25Z"/></g><path class="cls-14" d="M30.72,732.12a18.41,18.41,0,0,1,3.94,2.78l4.22-1.5,4,6.26-3.16,3.17a18.41,18.41,0,0,1,.83,4.76l4,1.92-1.62,7.22H38.46a17.56,17.56,0,0,1-2.78,4l1.5,4.22-6.25,4-3.18-3.16a17.6,17.6,0,0,1-4.75.83l-1.92,4L13.85,769v-4.47a18.72,18.72,0,0,1-3.95-2.78l-4.22,1.5-4-6.26,3.16-3.17A18.41,18.41,0,0,1,4,749L0,747.1l1.62-7.22H6.1a17.79,17.79,0,0,1,2.78-4l-1.5-4.22,6.25-4,3.17,3.16a18.14,18.14,0,0,1,4.76-.83l1.92-4,7.23,1.62v4.47Zm-6.37,8.51a7.94,7.94,0,1,0,6,9.49A7.95,7.95,0,0,0,24.35,740.63Z"/><path class="cls-5" d="M1066.37,517.72a19,19,0,0,0,13.76-19c-.24-3.81-1.66-7.52-1.49-11.34.25-5.93,4.18-10.93,7.14-16.07s4.94-11.92,1.5-16.74c-2.24-3.13-6.19-4.54-8.9-7.27s-3.91-6.38-5.33-9.87-3.26-7.08-6.53-8.94-8.29-1-9.62,2.48"/><path class="cls-5" d="M1031,421.6c5.84-3.7,7.25-12.3,4.08-18.45s-9.87-9.88-16.7-11a31.82,31.82,0,0,0-27.41,9.09c-3.77,3.88-6.82,8.94-11.93,10.71-4.49,1.57-9.45.16-14.17.77-6.32.81-11.73,5.31-15,10.79s-4.58,11.89-5.33,18.22c-.69,5.8-1.14,12.18-5.17,16.42s-10.14,5-15,7.95c-9.2,5.53-12.18,19.23-6.11,28.08,1.93,2.82,4.71,5.41,4.94,8.83.2,3.11-1.81,5.89-2.76,8.86-2.43,7.67,3.85,16.78,11.88,17.24,4.05.23,8.39-1.35,12,.46s4.95,6.16,7.26,9.46a17.35,17.35,0,0,0,21.16,5.47c3-1.46,5.79-3.88,9.11-3.65s5.9,3,9.16,3.67c4.26.82,8.3-2.31,10.83-5.83s4.3-7.68,7.54-10.56c4.24-3.77,10.21-4.7,15.58-6.55a43.95,43.95,0,0,0,24.81-61.55"/><path class="cls-15" d="M1043.79,429.27a9.34,9.34,0,0,1,8.33,9.48h0l-5.57,126c-.23,14.88-22,23.24-37.92,22.87h0c-16.09-.37-16.61-8.26-16.81-22.42-.34-23.66-.31-32.54-.32-32.4s-20.32-3.42-24.48-30c-2.06-13.2-1.35-34.83-.2-52.51,1-15.91,11.63-35.41,27.48-33.7Z"/><path class="cls-5" d="M972.66,467.52a3.4,3.4,0,0,0,3.27,3.44,3.26,3.26,0,0,0,3.52-3.06,3.4,3.4,0,0,0-3.27-3.44A3.25,3.25,0,0,0,972.66,467.52Z"/><path class="cls-5" d="M971.49,461.61c.42.44,3-1.46,6.66-1.44s6.34,1.85,6.74,1.41c.2-.2-.23-1-1.4-1.86a9.29,9.29,0,0,0-5.39-1.67,8.92,8.92,0,0,0-5.31,1.7C971.67,460.61,971.28,461.41,971.49,461.61Z"/><path class="cls-5" d="M1009.15,467.52a3.41,3.41,0,0,0,3.28,3.44,3.25,3.25,0,0,0,3.51-3.06,3.4,3.4,0,0,0-3.27-3.44A3.26,3.26,0,0,0,1009.15,467.52Z"/><path class="cls-5" d="M1007.47,462.37c.43.45,3-1.46,6.67-1.44s6.34,1.86,6.74,1.41c.19-.2-.23-1-1.4-1.86a9.33,9.33,0,0,0-5.4-1.67,8.93,8.93,0,0,0-5.3,1.7C1007.65,461.37,1007.27,462.17,1007.47,462.37Z"/><path class="cls-5" d="M994.13,489.49c0-.21-2.26-.6-6-1.08-.93-.1-1.81-.29-2-.93a4.71,4.71,0,0,1,.63-2.77l2.78-7.11c3.86-10.13,6.66-18.46,6.25-18.61s-3.87,7.94-7.73,18.06l-2.67,7.16c-.35,1.06-1,2.26-.49,3.67a2.38,2.38,0,0,0,1.53,1.37,6.63,6.63,0,0,0,1.59.22C991.81,489.68,994.11,489.7,994.13,489.49Z"/><path class="cls-16" d="M991.5,532.81a67.48,67.48,0,0,0,35.55-9.4s-9,18.7-35.55,16.16Z"/><path class="cls-10" d="M995.66,498.32a6.6,6.6,0,0,1,5.92-2.44,6.07,6.07,0,0,1,4.15,2.24,3.83,3.83,0,0,1,.28,4.37c-1,1.38-3.06,1.7-4.8,1.2a13.89,13.89,0,0,1-4.67-2.8,4,4,0,0,1-1-1.09,1.24,1.24,0,0,1,0-1.36"/><path class="cls-5" d="M1004.9,492.05c-.6,0-.61,3.94-4,6.75s-7.64,2.36-7.67,2.92c-.06.25.94.77,2.73.83a9.94,9.94,0,0,0,6.4-2.22,8.55,8.55,0,0,0,3.11-5.66C1005.61,493,1005.17,492,1004.9,492.05Z"/><path class="cls-5" d="M1005.84,456c.36,1,4,.53,8.31,1.06s7.77,1.7,8.34.81c.25-.43-.35-1.36-1.75-2.33a14.54,14.54,0,0,0-12.68-1.43C1006.48,454.7,1005.69,455.48,1005.84,456Z"/><path class="cls-5" d="M972.86,451c.64.83,3.17,0,6.2-.06s5.6.57,6.19-.3c.26-.42-.14-1.26-1.26-2.05a9,9,0,0,0-10,.29C972.93,449.75,972.58,450.61,972.86,451Z"/><path class="cls-5" d="M1026.38,420.64c6.07-4.09,13.95-6,21-3.94s12.95,8.41,13.19,15.62c.15,4.69-1.87,9.67.21,13.89,2,4,6.85,5.66,10.31,8.58a15.83,15.83,0,0,1,3.67,19.14c-2.9,5.32-9,9.21-9.5,15.22-.48,5.64,4.28,10.41,5.44,16,1.28,6.12-2.11,12.46-7,16.52s-11,6.31-17,8.47c-4.68,1.68-9.7,3.39-14.56,2.29-5.79-1.31-10.11-6.68-10.91-12.44s1.58-11.67,5.52-16c3.41-3.76,8.19-6.95,9-11.9,1.27-7.71-7.92-14.05-7.35-21.85.29-4,3.13-7.34,5.49-10.65s4.41-7.46,3-11.24c-1.89-4.9-8.33-6.18-12.23-9.77a11.92,11.92,0,0,1-3.25-12.07,12.27,12.27,0,0,1,9.62-8.2"/><path class="cls-5" d="M1029.23,414.66a18.15,18.15,0,0,1-21.41,17.92c-4.06-.74-8.5-2.79-12-.63-3.69,2.27-3.84,7.83-7.11,10.67-4.68,4.06-12.11.25-18.05,2-4.59,1.36-7.45,5.75-10.49,9.43s-7.61,7.19-12.2,5.83a53.55,53.55,0,0,1,1.82-12.23c1.23-3.94,3.49-7.71,7-10,1.9-1.24,4.1-2,5.86-3.42,3.81-3.07,4.69-8.42,7-12.71a19.91,19.91,0,0,1,15.15-10.05c5.22-.53,10.6,1,15.68-.25,3.77-.95,7-3.39,10.86-4.11,7.42-1.41,14.31,3.91,19.69,9.21"/><path class="cls-17" d="M1077.69,478.07a5.88,5.88,0,0,0,.58-3.06,7.69,7.69,0,0,0-5.34-6.1,40.05,40.05,0,0,0-5.83-1.57,17,17,0,0,1-6.6-2.72,9.31,9.31,0,0,1-3.44-7.1,75.66,75.66,0,0,1,.41-8.35,19,19,0,0,0-.21-4.08,8.75,8.75,0,0,0-1.56-3.48c-1.6-2-4.1-2.88-6.39-3.67a29.25,29.25,0,0,1-6.51-2.8,22.92,22.92,0,0,1-9.47-11.48,17.14,17.14,0,0,1-.69-2.32,2.32,2.32,0,0,1-.11-.84c.09,0,.35,1.11,1.16,3a23.62,23.62,0,0,0,4.84,7.2,24,24,0,0,0,11.08,6.34c2.3.78,5,1.65,6.86,3.92a9.81,9.81,0,0,1,1.78,3.91,19.61,19.61,0,0,1,.23,4.33,79.48,79.48,0,0,0-.43,8.24,8.38,8.38,0,0,0,3,6.42,16.46,16.46,0,0,0,6.23,2.64,38.15,38.15,0,0,1,5.91,1.73,9.31,9.31,0,0,1,4.11,3.09,7,7,0,0,1,1.35,3.64,4.76,4.76,0,0,1-.48,2.41C1077.93,477.89,1077.7,478.09,1077.69,478.07Z"/><path class="cls-17" d="M921.43,494.63a1.77,1.77,0,0,1-.44-.2,3,3,0,0,1-1-1c-.67-1.09-.7-3.19.54-5.24a7.05,7.05,0,0,1,2.84-2.72,37.91,37.91,0,0,1,4.26-1.8,13.1,13.1,0,0,0,4.47-2.53,9.56,9.56,0,0,0,2.55-5c.44-2,.57-4.16.93-6.43a14.07,14.07,0,0,1,2.64-6.69c3.09-4.07,8.15-6.23,11.93-10.05a18.48,18.48,0,0,0,4.14-7,49.13,49.13,0,0,0,1.88-8.5c.82-5.83,1.64-12.36,5.57-17.69a12.9,12.9,0,0,1,8-5.17c3.17-.63,6.29-.16,9.24.23a33.44,33.44,0,0,0,8.63.5,11.17,11.17,0,0,0,7-3.64c3.63-3.9,5.71-9.16,10.16-11.85a17,17,0,0,1,13.4-1.85,14.87,14.87,0,0,1,8.82,6.86,16.68,16.68,0,0,1,2.29,8.18,14.27,14.27,0,0,1-.85,5.31,9.09,9.09,0,0,1-.78,1.7s.24-.61.59-1.77A15.22,15.22,0,0,0,1029,413a16.52,16.52,0,0,0-2.39-7.9,14.28,14.28,0,0,0-8.53-6.46,16.24,16.24,0,0,0-12.75,1.87,18.58,18.58,0,0,0-5.12,5.28,58.79,58.79,0,0,1-4.81,6.51,13.23,13.23,0,0,1-3.39,2.65,12.6,12.6,0,0,1-4.21,1.31,34.46,34.46,0,0,1-8.89-.49c-3-.38-6-.81-8.91-.22a11.89,11.89,0,0,0-7.39,4.79,24.52,24.52,0,0,0-3.79,8.32,80.88,80.88,0,0,0-1.61,8.91,49.68,49.68,0,0,1-1.94,8.66,19.34,19.34,0,0,1-4.4,7.37c-4,4-9,6.08-11.92,9.9a13.33,13.33,0,0,0-2.53,6.31c-.38,2.21-.53,4.4-1,6.46a10.12,10.12,0,0,1-2.8,5.34,13.44,13.44,0,0,1-4.71,2.59,38.53,38.53,0,0,0-4.24,1.7,6.66,6.66,0,0,0-2.73,2.5,5.16,5.16,0,0,0-.69,4.93A4.16,4.16,0,0,0,921.43,494.63Z"/><path class="cls-10" d="M856.33,677.27,903.39,673s29-76.27,64.66-94.77l23.12,40.4-49.5,93H845Z"/><path class="cls-11" d="M856.33,677.27,903.39,673s29-76.27,64.66-94.77l23.12,40.4-49.5,93H845Z"/><path class="cls-12" d="M874.92,698.81c-.24-.15,1.54-3.56,4-7.62s4.59-7.25,4.83-7.11-1.53,3.56-4,7.63S875.16,699,874.92,698.81Z"/><path class="cls-12" d="M908.26,697.88c-.22.18-2.79-2.66-5.75-6.34s-5.18-6.8-5-7,2.79,2.67,5.75,6.35S908.48,697.71,908.26,697.88Z"/><path class="cls-12" d="M914.05,680.39c-.28,0-.51-2.76-.51-6.17s.23-6.17.51-6.17.51,2.76.51,6.17S914.33,680.39,914.05,680.39Z"/><path class="cls-12" d="M897.49,707.67c-.16.24-2.17-.81-4.5-2.34s-4.1-3-4-3.18,2.17.81,4.5,2.34S897.64,707.44,897.49,707.67Z"/><path class="cls-12" d="M924.51,637.56c.25.11-1.2,3.92-3.25,8.49s-3.92,8.2-4.18,8.09,1.2-3.92,3.25-8.5S924.25,637.44,924.51,637.56Z"/><path class="cls-12" d="M943.58,606.65c.17.22-1.51,1.78-3.76,3.48s-4.2,2.9-4.37,2.68,1.52-1.79,3.76-3.49S943.41,606.43,943.58,606.65Z"/><path class="cls-11" d="M1014,705.55l24.27-98a33.34,33.34,0,0,1,38.28-24.8h0a33.34,33.34,0,0,1,27,37.93l-14.86,95.8a47.94,47.94,0,0,1-39.77,38.78l-19.29,3Z"/><path class="cls-5" d="M1090.45,576.4c-.12.23-2.71-2.94-8.66-4.35a23,23,0,0,0-10.44.07A28.43,28.43,0,0,0,1060,578c-7.12,6-11,13.71-13.62,19.14-1.3,2.75-2.29,5-3,6.58a13.62,13.62,0,0,1-1.18,2.38,13.59,13.59,0,0,1,.82-2.53c.59-1.61,1.48-3.92,2.71-6.73a73.22,73.22,0,0,1,5-9.57,42.48,42.48,0,0,1,8.63-10,28.47,28.47,0,0,1,11.79-6,23,23,0,0,1,10.83.14,18.37,18.37,0,0,1,6.57,3.18,12.25,12.25,0,0,1,1.48,1.33C1090.33,576.19,1090.48,576.37,1090.45,576.4Z"/><path class="cls-5" d="M953,598.46a5.72,5.72,0,0,1-.68.91l-2.08,2.48c-1.79,2.16-4.36,5.32-7.28,9.41-5.8,8.11-13.11,20.23-16.57,35.17s-3.55,28.94-4.12,39c-.25,5-.48,9.1-.7,11.9-.11,1.32-.21,2.38-.28,3.23a5.51,5.51,0,0,1-.17,1.13,4.45,4.45,0,0,1,0-1.14c0-.85.06-1.92.1-3.24.09-2.95.22-7,.37-11.91.39-10,.44-24.07,3.85-39.17s11-27.32,17-35.37c3-4.05,5.67-7.15,7.57-9.24.93-1.05,1.71-1.83,2.22-2.36S952.93,598.43,953,598.46Z"/><path class="cls-11" d="M1108.49,598.24c-2.67-17.52-12.35-21.73-22.37-27.19-3.28-1.78-19.09-5.84-31.61-8.89-1.2-7.6-3.34-21.18-3.81-24-.67-4-63.83,6-64.63,7.55-.53,1-2,16.75-2.9,27.24l-15.12,5.28-19.74,25.1L938,617.86a78.55,78.55,0,0,0-12.73,28c-2.49,11.17-2.83,22.07-2.83,33.94l-3.05,64.35,132.15,37.37,10.24-65.18,34.09-46.41C1098.82,651.17,1111.76,619.8,1108.49,598.24Z"/><path class="cls-5" d="M995.7,574.92c-.14,0-.47-1.69-.88-4.46s-.92-6.62-1.41-10.86c-.23-2.1-.45-4.11-.66-6a44.81,44.81,0,0,1-.35-5,5.93,5.93,0,0,1,1-3.29c.51-.67.94-.85,1-.8s-.28.35-.64,1a6.3,6.3,0,0,0-.56,3.09c0,1.35.34,3,.56,4.85s.48,3.88.74,6c.49,4.25.88,8.1,1.11,10.89A21.35,21.35,0,0,1,995.7,574.92Z"/><path class="cls-5" d="M1012.55,570.94c-.13,0-.73-1.51-1.41-4.09a65.56,65.56,0,0,1-1.91-20.69,16,16,0,0,1,.63-4.28c.32,0-.26,6.58.51,14.61S1012.85,570.86,1012.55,570.94Z"/><path class="cls-5" d="M1043.91,566.38c-.34,0,1.06-6.58-.36-14.53s-4.86-13.67-4.56-13.81c.1-.06,1.11,1.26,2.32,3.67a36.78,36.78,0,0,1,3.24,10,37.2,37.2,0,0,1,.3,10.48A13.34,13.34,0,0,1,1043.91,566.38Z"/><path class="cls-12" d="M954.17,623.7c-.23-.15,2-3.91,5.17-8.19s6.21-7.44,6.41-7.27-2.41,3.62-5.6,7.88S954.41,623.85,954.17,623.7Z"/><path class="cls-12" d="M983.93,599.48c-.22.17-2.57-2.53-5.25-6s-4.67-6.48-4.45-6.65,2.57,2.53,5.25,6S984.15,599.31,983.93,599.48Z"/><path class="cls-12" d="M1015,584.27c.19.22-2.73,2.89-6.21,6.29s-6.23,6.24-6.45,6.05,2.21-3.35,5.74-6.78S1014.87,584.06,1015,584.27Z"/><path class="cls-12" d="M1006.31,565.73c-.19.2-2.37-1.46-4.86-3.72s-4.37-4.26-4.18-4.47,2.36,1.46,4.86,3.72S1006.49,565.52,1006.31,565.73Z"/><path class="cls-12" d="M1033.56,551.19c.06.27-2.87,1.13-6.55,1.92s-6.72,1.21-6.78.93,2.88-1.13,6.56-1.92S1033.5,550.91,1033.56,551.19Z"/><path class="cls-12" d="M1039,594.34c-.28,0-.66-3-.85-6.79s-.12-6.83.16-6.85.66,3,.85,6.8S1039.3,594.32,1039,594.34Z"/><path class="cls-12" d="M1029.08,615.09c-.27.1-1.79-3.43-3.42-7.88s-2.72-8.13-2.46-8.22,1.8,3.43,3.42,7.88S1029.34,615,1029.08,615.09Z"/><path class="cls-12" d="M1002.08,629.72c-.26.1-1.94-3.59-3.75-8.25s-3.06-8.51-2.8-8.61,1.94,3.59,3.75,8.25S1002.34,629.62,1002.08,629.72Z"/><path class="cls-12" d="M976.66,646.31c-.27.05-1.25-3.6-2.18-8.17s-1.47-8.31-1.2-8.37,1.25,3.6,2.19,8.17S976.94,646.25,976.66,646.31Z"/><path class="cls-12" d="M946.47,647c-.25.12-2.08-3.11-4.08-7.22s-3.42-7.54-3.17-7.67,2.08,3.11,4.08,7.22S946.73,646.85,946.47,647Z"/><path class="cls-12" d="M945.82,666.32c.13.26-3.42,2.26-7.91,4.48s-8.24,3.82-8.36,3.56,3.42-2.25,7.91-4.47S945.7,666.07,945.82,666.32Z"/><path class="cls-12" d="M946.2,697c-.25.1-1.67-3-2.75-7.09s-1.42-7.48-1.15-7.52,1.05,3.25,2.13,7.26S946.47,696.85,946.2,697Z"/><path class="cls-12" d="M940,718.47c-.19.21-3-2.09-6.36-5.13s-5.86-5.68-5.67-5.89,3,2.09,6.36,5.14S940.14,718.26,940,718.47Z"/><path class="cls-12" d="M979.74,703.79c.07.29-4.4,1.57-9.63,3.87s-9.2,4.7-9.37,4.45,3.64-3.06,9-5.38S979.68,703.53,979.74,703.79Z"/><path class="cls-12" d="M968.1,693.12c-.26.09-1.55-2.89-2.86-6.67s-2.17-6.91-1.9-7,1.54,2.9,2.86,6.68S968.37,693,968.1,693.12Z"/><path class="cls-12" d="M991.7,666.78c.24.15-2.15,4.36-5.33,9.41s-6,9-6.19,8.88,2.15-4.37,5.33-9.42S991.47,666.63,991.7,666.78Z"/><path class="cls-12" d="M1017.05,669.31c-.21.16-3.35-3.64-6.47-8.85s-5-9.77-4.76-9.88,2.53,4.2,5.63,9.36S1017.29,669.13,1017.05,669.31Z"/><path class="cls-12" d="M1032.24,644.28c.06.27-3.24,1.12-7.41,1.32s-7.54-.31-7.51-.58,3.36-.22,7.46-.43S1032.19,644,1032.24,644.28Z"/><path class="cls-12" d="M1068.31,615.78c.12.25-4.16,2.54-9.55,5.11s-9.87,4.45-10,4.2,4.15-2.55,9.55-5.12S1068.18,615.52,1068.31,615.78Z"/><path class="cls-12" d="M1070.7,597.65c-.25-.13,1.28-3.72,3.42-8s4.07-7.71,4.33-7.59-1.28,3.72-3.42,8S1071,597.77,1070.7,597.65Z"/><path class="cls-12" d="M1093.63,611.87c-.29.07-1.42-4-3-8.86s-2.88-8.87-2.62-9,2,3.71,3.59,8.67S1093.89,611.82,1093.63,611.87Z"/><path class="cls-12" d="M1097.21,630.74c.1.25-3.66,1.88-8.55,3.12s-9,1.64-9,1.37,3.93-1.11,8.75-2.35S1097.11,630.46,1097.21,630.74Z"/><path class="cls-12" d="M1058,653.77c-.3-.06.54-4.8.78-10.7s-.17-10.7.13-10.74,1.15,4.77.88,10.78S1058.2,653.84,1058,653.77Z"/><path class="cls-12" d="M1050.12,677.47c-.18.2-3.61-2.71-7.13-7s-5.77-8.15-5.54-8.29,2.83,3.45,6.32,7.64S1050.32,677.26,1050.12,677.47Z"/><path class="cls-12" d="M1089.5,672.48c.1.26-3.53,2-8.13,3.94s-8.41,3.27-8.52,3,3.53-2,8.13-3.94S1089.39,672.22,1089.5,672.48Z"/><path class="cls-12" d="M1075.39,717.09c-.28,0-.46-4.81-.4-10.72s.33-10.72.61-10.72.46,4.81.4,10.73S1075.67,717.09,1075.39,717.09Z"/><path class="cls-12" d="M1045.16,714.53c-.27,0,.22-5,1.73-11s3.42-10.62,3.67-10.53-1.21,4.85-2.69,10.78S1045.44,714.57,1045.16,714.53Z"/><path class="cls-12" d="M1046.55,726.23c0,.29-4.84.76-10.77,1.75s-10.67,2.09-10.75,1.8,4.6-1.83,10.59-2.81S1046.54,726,1046.55,726.23Z"/><path class="cls-12" d="M1013.11,718.73c-.2-.2,2.39-3.2,5.78-6.71s6.3-6.21,6.51-6-2.39,3.2-5.78,6.71S1013.31,718.92,1013.11,718.73Z"/><path class="cls-12" d="M991.46,739.8c-.29.05-1.16-3.45-2.64-7.63s-3-7.45-2.72-7.59,2.19,3,3.68,7.26S991.72,739.75,991.46,739.8Z"/><path class="cls-12" d="M1026.41,751.84c-.11.25-4.49-1.44-9.77-3.79s-9.48-4.45-9.37-4.71,4.49,1.44,9.78,3.79S1026.52,751.58,1026.41,751.84Z"/><path class="cls-12" d="M965.48,748.3c-.26-.08.56-3.28,1.83-7.12s2.53-6.9,2.8-6.81-.56,3.28-1.83,7.13S965.75,748.39,965.48,748.3Z"/><path class="cls-12" d="M1005.62,755.1c0,.29-5.59-.6-12.48-1s-12.5-.07-12.52-.37,5.6-1,12.57-.64S1005.68,754.84,1005.62,755.1Z"/><path class="cls-5" d="M1014,697.64s-.05-.26-.05-.77a6.93,6.93,0,0,1,.31-2.21,4.88,4.88,0,0,1,2.12-2.9,6.79,6.79,0,0,1,4.75-.78l-.4.23c2.14-7.47,5.55-18.39,9-30.62,3.19-11.45,5.34-22,6.85-29.65.73-3.7,1.33-6.76,1.79-9.06a21,21,0,0,1,.77-3.3,21.57,21.57,0,0,1-.38,3.37c-.31,2.16-.81,5.28-1.47,9.12a302.81,302.81,0,0,1-6.59,29.79c-3.42,12.26-6.94,23.14-9.28,30.55l-.09.29-.3-.06a6.32,6.32,0,0,0-4.34.58,4.54,4.54,0,0,0-2,2.56A26.19,26.19,0,0,0,1014,697.64Z"/><path class="cls-5" d="M1057.66,724.74c-.17.08-1.37-2.56-3.84-6.49a67.07,67.07,0,0,0-26.51-24.09c-4.15-2.09-6.89-3-6.83-3.21a8.17,8.17,0,0,1,2,.52,44.75,44.75,0,0,1,5.17,2,60.67,60.67,0,0,1,26.81,24.37,44.37,44.37,0,0,1,2.53,5A8.07,8.07,0,0,1,1057.66,724.74Z"/><g class="cls-18"><path d="M1021.58,689.52c7.45.53,13.55,1.09,20.54,3.72s13.46,7.64,16,14.65c.62,1.68.91,3.8-.36,5.06a3.58,3.58,0,0,1-3.69.59,9.69,9.69,0,0,1-3.23-2.21c-4.29-4-8.75-7.49-13.18-11.3s-10.88-7.84-16.66-8.72"/></g><path class="cls-5" d="M1007.53,677.09a9.29,9.29,0,0,1-2,1.17,35.77,35.77,0,0,1-6,2.27,40.07,40.07,0,0,1-39.23-10.19,35,35,0,0,1-4.14-4.9,9.26,9.26,0,0,1-1.2-2c.16-.12,1.94,2.74,5.84,6.39a41.3,41.3,0,0,0,38.55,10C1004.5,678.54,1007.45,676.9,1007.53,677.09Z"/><g class="cls-18"><path d="M956,664.93c3.27,7.14,7.13,14.32,13.35,19.11,3.59,2.76,7.78,5.08,12.31,5.16,6.5.1,12.09-4.33,17.05-8.54-16.08,2.52-34.2-4.77-42.71-15.73"/></g><path class="cls-5" d="M1028,569.45c-.31,0,.07-6.69-.73-14.85s-2.4-14.66-2.1-14.73c.13,0,.7,1.55,1.35,4.18a73.38,73.38,0,0,1,1.76,10.45,74.86,74.86,0,0,1,.26,10.59C1028.41,567.8,1028.15,569.46,1028,569.45Z"/><path class="cls-7" d="M796.9,830.2s-21.17,4.58-40.08,1.74c-17.73-2.66-57.41.09-57.4,23.45,0,26.06,52.94,19.62,73.59,15.49S814.22,863,814.22,863Z"/><path class="cls-5" d="M749.37,863.58c-.27.06-1.41-4-2.55-9.07s-1.84-9.23-1.57-9.29,1.42,4,2.56,9.07S749.65,863.52,749.37,863.58Z"/><path class="cls-5" d="M756.6,863.92c-.28,0-1.08-4.12-1.79-9.3s-1.06-9.39-.78-9.43,1.08,4.12,1.79,9.3S756.88,863.88,756.6,863.92Z"/><path class="cls-5" d="M763.57,861.2c-.28,0-.94-3.61-1.49-8.13s-.76-8.21-.48-8.24.94,3.6,1.49,8.12S763.85,861.16,763.57,861.2Z"/><path class="cls-5" d="M774.53,858.46c-.25.11-1.75-2.93-2.73-7s-1-7.43-.77-7.45.79,3.25,1.76,7.21S774.8,858.35,774.53,858.46Z"/><path class="cls-5" d="M776.87,848.94a9.21,9.21,0,0,1,2.77-.18,23.58,23.58,0,0,1,7.44,1.45,8.54,8.54,0,0,1,2.29,1.23A3.49,3.49,0,0,1,790.8,854c0,2.3-2.51,4-4.79,3.48s-4.08-2.13-5.53-3.94a17.24,17.24,0,0,1-.8-20,2.71,2.71,0,0,1,1.57-1,2.12,2.12,0,0,1,1.76.55,4.73,4.73,0,0,1,1.33,2.85,14.33,14.33,0,0,1-.28,5.29,14.74,14.74,0,0,1-3.57,6.69,11.8,11.8,0,0,1-1.55,1.37c-.39.27-.6.4-.62.37s.74-.67,1.87-2a15.26,15.26,0,0,0,3.17-6.57,14.16,14.16,0,0,0,.15-5,4,4,0,0,0-1.08-2.3,1.37,1.37,0,0,0-2,.35,16.54,16.54,0,0,0,.88,18.77c1.35,1.72,3,3.27,4.91,3.63s3.83-1,3.79-2.55a2.66,2.66,0,0,0-1.09-2,7.64,7.64,0,0,0-2-1.17,25.7,25.7,0,0,0-7.2-1.73C777.86,849,776.88,849,776.87,848.94Z"/><path class="cls-5" d="M812.12,859.56a1.68,1.68,0,0,1-.53.17l-1.59.4-6.14,1.4c-5.34,1.17-13.09,2.82-22.71,4.68s-21.13,4-34,5.71c-6.43.86-13.31,1.65-20.44,1a43.59,43.59,0,0,1-10.7-2.05,29.39,29.39,0,0,1-5.14-2.28,15.86,15.86,0,0,1-4.51-3.63l.07.08a10.55,10.55,0,0,1-1.84-2.21,13.81,13.81,0,0,1-1.08-11.4,18.21,18.21,0,0,1,6.79-8.87,34.52,34.52,0,0,1,9.65-4.79c1.69-.47,3.34-1.06,5-1.43s3.33-.79,5-1c13.28-2.1,25.35-1,35.38-1,5,.09,9.57-.05,13.55-.29A90.78,90.78,0,0,0,789,832.75l3.65-.77,2.63-.75,1.62-.45a3.68,3.68,0,0,1,.57-.12,2.05,2.05,0,0,1-.53.22l-1.6.55-2.61.84-3.65.87a86.74,86.74,0,0,1-10.18,1.46c-4,.3-8.56.48-13.6.44-10,.08-22.11-.9-35.21,1.23-1.64.23-3.25.68-4.91,1s-3.26,1-4.93,1.43a33.68,33.68,0,0,0-9.37,4.67,17.22,17.22,0,0,0-6.41,8.38,12.79,12.79,0,0,0,1,10.55,9.6,9.6,0,0,0,1.66,2l0,0,0,.06a15.25,15.25,0,0,0,4.18,3.33,28.54,28.54,0,0,0,5,2.21,43.26,43.26,0,0,0,10.46,2c7,.64,13.81-.11,20.24-1,12.87-1.7,24.37-3.74,34-5.49s17.4-3.31,22.76-4.37l6.18-1.21,1.61-.3A3.23,3.23,0,0,1,812.12,859.56Z"/><path class="cls-5" d="M734.69,872.11c-.15,0-.27-2.07-.51-5.41s-.64-8-1.32-13-1.51-9.61-2.15-12.89-1.08-5.32-.93-5.36a25.51,25.51,0,0,1,1.63,5.2,119.09,119.09,0,0,1,3.48,26C735,870,734.82,872.11,734.69,872.11Z"/><polygon class="cls-19" points="790.39 831.33 803.8 864.94 814.22 863.01 794.27 830.2 790.39 831.33"/><path class="cls-5" d="M965.28,739.2c-2.16.72-140.84-38.14-196.92-53.91A53.29,53.29,0,0,0,725,691.85l-.68.44a53.26,53.26,0,0,0-22.94,56.8h0a53.25,53.25,0,0,0,24,33.35c37,22.65,115.25,70.32,117.64,69.39,3.14-1.21,100.89-3.75,100.89-3.75l-117.6-84.57,55.95,36.16,83-60.47Z"/><path class="cls-15" d="M849.5,697,879,681.75l28.91,18.12,108.24,3.54,15.66,52.69L875.13,719.78s-28.51,2.52-30.65-3.88S849.5,697,849.5,697Z"/><path class="cls-5" d="M938.17,781.44,923.6,829.29l1.81,14.58h0a74.87,74.87,0,0,0,98.75,6.65h0A73.37,73.37,0,0,0,1052.84,792l-.22-50Z"/><path class="cls-17" d="M851.4,781.75c-.17.23-17.09-12.11-37.78-27.54s-37.34-28.13-37.17-28.36S793.53,738,814.23,753.4,851.56,781.53,851.4,781.75Z"/><path class="cls-16" d="M877,691.3c.08.27-6.37,2.57-14.42,5.15s-14.65,4.46-14.73,4.19,6.37-2.57,14.42-5.15S876.9,691,877,691.3Z"/><path class="cls-16" d="M879.19,700.28c0,.15-1.91.44-5,1s-7.38,1.27-12,2.34-8.85,2.25-11.86,3.16-4.88,1.48-4.93,1.34,1.73-1,4.7-2a106.19,106.19,0,0,1,24.05-5.52C877.22,700.19,879.18,700.15,879.19,700.28Z"/><path class="cls-16" d="M876.72,708.53c.06.27-7.21,2-16.24,3.74s-16.38,3-16.44,2.74,7.22-2,16.25-3.74S876.67,708.25,876.72,708.53Z"/><path class="cls-17" d="M838.48,626.31l27.19,89.47a2.58,2.58,0,0,0,2.29,1.83l74.1,5.57a2.59,2.59,0,0,1,2.4,2.58v4.63a2.6,2.6,0,0,1-2.64,2.59l-202.57-3.81a2.6,2.6,0,0,1-2.37-1.67l-35.62-93.32a2.6,2.6,0,0,1,2.3-3.52l132.32-6.19A2.6,2.6,0,0,1,838.48,626.31Z"/><path class="cls-1" d="M781.4,664.86a6.38,6.38,0,0,0-4,4.55A6.14,6.14,0,0,0,780,675a6.67,6.67,0,0,0,7.41.27c2.18-1.46,3.14-4.36,2-7.47-.9-2.48-5.42-4.2-8-2.93"/><path class="cls-5" d="M814.22,863l-21.41-35.22L950.25,704.4a63.22,63.22,0,0,1,34.38-14.1h0a63.28,63.28,0,0,1,68.79,68.27l-2.52,30.11L946.4,822.26Z"/><path class="cls-17" d="M1016.12,779.38a2.34,2.34,0,0,1-.42.39l-1.29,1.06-5,4-3.64,2.87c-1.33,1.06-2.89,2-4.51,3.18L996,794.46c-.93.63-1.87,1.3-2.87,1.95L990,798.29c-4.28,2.55-8.9,5.48-14.13,8.12-2.6,1.36-5.25,2.84-8,4.22s-5.73,2.71-8.7,4.13c-12,5.46-25.41,11-39.8,15.85-28.76,9.91-55.35,17-74.39,22.81-4.77,1.41-9.08,2.72-12.85,3.92s-7,2.17-9.66,3.06l-6.09,2-1.6.49a2.17,2.17,0,0,1-.55.14,1.83,1.83,0,0,1,.52-.23l1.56-.59,6-2.16c2.61-1,5.85-2,9.61-3.24s8-2.6,12.81-4c19-6,45.56-13.2,74.26-23.09,14.37-4.89,27.77-10.34,39.75-15.74l8.69-4.08c2.8-1.36,5.44-2.82,8-4.16,5.24-2.61,9.86-5.49,14.15-8l3.14-1.84c1-.63,1.94-1.29,2.88-1.91l5.26-3.51c1.62-1.12,3.2-2.07,4.54-3.1s2.58-1.95,3.69-2.79l5.12-3.85,1.35-1A2.53,2.53,0,0,1,1016.12,779.38Z"/><path class="cls-17" d="M1019.94,795.85a6.34,6.34,0,0,1-1.59.83c-1.05.48-2.59,1.11-4.52,1.83a115.31,115.31,0,0,1-31.35,6.73c-2.05.14-3.72.2-4.87.19a6.26,6.26,0,0,1-1.79-.1c0-.16,2.53-.35,6.59-.8s9.67-1.24,15.77-2.55,11.52-2.9,15.42-4.15S1019.88,795.7,1019.94,795.85Z"/><path class="cls-17" d="M944,710.32c.17.22-33.53,26.7-75.26,59.13S793,828,792.81,827.79s33.52-26.7,75.26-59.14S943.78,710.1,944,710.32Z"/><path class="cls-7" d="M934.85,841.25c-7.55-4-16-1.64-23.26.79-4.81,1.62-9.81,4.19-14.69,2.81-3.53-1-6.16-3.85-8.86-6.34a55.63,55.63,0,0,0-40.69-14.58A16.55,16.55,0,0,0,836.17,829c-7.42,8-1.82,18.49,4.81,25.25a73.22,73.22,0,0,0,44.25,21.34c13.81,1.45,32.81-.46,46.82-6.46,8.63-3.7,13.06-13.89,8.53-22.11A14.22,14.22,0,0,0,934.85,841.25Z"/><g class="cls-20"><path class="cls-7" d="M934.83,847.68c-7.55-4-16-1.64-23.25.79-4.81,1.62-9.81,4.19-14.7,2.81-3.53-1-6.16-3.85-8.85-6.34a55.67,55.67,0,0,0-40.7-14.58,16.55,16.55,0,0,0-11.18,5A12.94,12.94,0,0,0,833,841c1.1,4.83,4.35,9.55,7.92,13.19a73.24,73.24,0,0,0,44.25,21.34C899,877,918,875.11,932,869.11a17.09,17.09,0,0,0,10-11.87,14.5,14.5,0,0,0-7.16-9.56Z"/></g><path class="cls-5" d="M942,857.24a13,13,0,0,0-1.85-4.48,14.64,14.64,0,0,0-4-4,16.17,16.17,0,0,0-6.94-2.66c-5.61-.66-12.11,1.7-19.32,3.66-3.57.94-7.47,2.39-11.73,1.85a15.5,15.5,0,0,1-6-2.09,37.54,37.54,0,0,1-5.18-3.9,54.17,54.17,0,0,0-20.66-12.27A53.37,53.37,0,0,0,856,831a32.22,32.22,0,0,0-9.14,0,20,20,0,0,0-7.07,2.46,18.12,18.12,0,0,0-4.33,3.67,42.66,42.66,0,0,0-2.79,4,15.59,15.59,0,0,1,2.48-4.28,18,18,0,0,1,4.34-3.9,20.29,20.29,0,0,1,7.25-2.69,32.42,32.42,0,0,1,9.36-.08,54.54,54.54,0,0,1,10.47,2.34,61,61,0,0,1,10.84,4.78,46.23,46.23,0,0,1,5.28,3.44c1.68,1.32,3.27,2.76,4.9,4.17a37.19,37.19,0,0,0,5,3.8,14.6,14.6,0,0,0,5.64,2c3.95.52,7.74-.83,11.36-1.78,7.19-1.88,13.8-4.23,19.66-3.46a16.23,16.23,0,0,1,11.22,7.11,10.51,10.51,0,0,1,1.4,3.41A4.57,4.57,0,0,1,942,857.24Z"/><path class="cls-5" d="M942,857.24a13,13,0,0,0-1.85-4.48,14.64,14.64,0,0,0-4-4,16.17,16.17,0,0,0-6.94-2.66c-5.61-.66-12.11,1.7-19.32,3.66-3.57.94-7.47,2.39-11.73,1.85a15.5,15.5,0,0,1-6-2.09,37.54,37.54,0,0,1-5.18-3.9,54.17,54.17,0,0,0-20.66-12.27A53.37,53.37,0,0,0,856,831a32.22,32.22,0,0,0-9.14,0,20,20,0,0,0-7.07,2.46,18.12,18.12,0,0,0-4.33,3.67,42.66,42.66,0,0,0-2.79,4,15.59,15.59,0,0,1,2.48-4.28,18,18,0,0,1,4.34-3.9,20.29,20.29,0,0,1,7.25-2.69,32.42,32.42,0,0,1,9.36-.08,54.54,54.54,0,0,1,10.47,2.34,61,61,0,0,1,10.84,4.78,46.23,46.23,0,0,1,5.28,3.44c1.68,1.32,3.27,2.76,4.9,4.17a37.19,37.19,0,0,0,5,3.8,14.6,14.6,0,0,0,5.64,2c3.95.52,7.74-.83,11.36-1.78,7.19-1.88,13.8-4.23,19.66-3.46a16.23,16.23,0,0,1,11.22,7.11,10.51,10.51,0,0,1,1.4,3.41A4.57,4.57,0,0,1,942,857.24Z"/><path class="cls-5" d="M848.33,855.42c-.07-.12,1.39-1.17,3.87-2.68a110.06,110.06,0,0,1,10-5.34,107.84,107.84,0,0,1,10.5-4.3,19.51,19.51,0,0,1,4.53-1.27c0,.14-1.61.83-4.27,1.94s-6.34,2.67-10.33,4.55-7.52,3.7-10.08,5S848.41,855.54,848.33,855.42Z"/><path class="cls-5" d="M850.93,863c-.13-.25,6.48-3.7,14.74-7.69s15.07-7,15.2-6.78-6.48,3.69-14.75,7.69S851.05,863.22,850.93,863Z"/><path class="cls-5" d="M882.21,866.25c-.15.23-8.2-4.57-18-10.73s-17.58-11.34-17.43-11.58,8.19,4.56,18,10.72S882.36,866,882.21,866.25Z"/><path class="cls-5" d="M886.74,858.41c-.09.11-1.57-.93-3.94-2.63s-5.63-4.07-9.29-6.6-7-4.77-9.44-6.39-3.92-2.64-3.85-2.76,1.7.69,4.23,2.15,6,3.62,9.64,6.16,6.88,5,9.15,6.87S886.83,858.3,886.74,858.41Z"/><rect class="cls-7" x="365.27" y="117.91" width="347.73" height="302.93" rx="38.79" transform="translate(1078.28 538.76) rotate(-180)"/><polygon class="cls-7" points="672.54 419.19 672.54 471.26 619.28 418 672.54 419.19"/><g class="cls-20"><polygon class="cls-7" points="672.54 419.19 672.54 471.26 619.28 418 672.54 419.19"/></g><path class="cls-21" d="M721.33,256.27l21.83-24.76c5.91-5.91,7.93-8.75,6.75-9.79-1.57-1.38-.9-.92-13.16,8.28,0,0,17.38-13.28,11.35-13.37-1.06,0-4,1.71-7.17,3.79,4.3-3.66,5.49-6.12,4.68-7.3-1.41-2-12,5.34-16.93,8.89,4-3,11.63-8.77,13-10.58,1.84-2.48-1.89-2.28-4.92-1.25-3.41,1.17-22.23,10.77-27.81,13.26-3.83,1.71-5.18-1.76-5.18-1.76-2-8.62-8.25-14.24-10.65-15s-4.2,2.31-2.51,4.5c1.37,1.78,2.75,5.42,3.67,8.19a21.35,21.35,0,0,1,1.12,7.07c0,2.79-.2,5.14-.38,7.14L675.05,261l33.36,19.35Z"/><path class="cls-22" d="M733.81,233.87c.23.32,4.11-2.35,8.67-6s8-6.77,7.79-7.06-4.13,2.38-8.66,6S733.59,233.56,733.81,233.87Z"/><path class="cls-22" d="M729.56,229.52c.22.31,4.51-2.3,9.59-5.83s9-6.66,8.79-7-4.52,2.29-9.59,5.83S729.34,229.2,729.56,229.52Z"/><path class="cls-22" d="M726.47,224.89c.22.32,4.32-2.09,9.17-5.37s8.6-6.19,8.38-6.51-4.32,2.08-9.16,5.36S726.26,224.57,726.47,224.89Z"/><path class="cls-21" d="M693.13,237.38,613.6,338.24l18.21,42.41s21.82-4.83,28.43-14,61.09-110.36,61.09-110.36Z"/><path class="cls-5" d="M491.22,96.24c-5.72,5-5.7,13.71-5,21.25s1.16,16.14-4.06,21.62c-4.31,4.52-12.13,6.5-13.13,12.66a7.1,7.1,0,0,0,11.74,6.44c-1.69,4.86-.52,10.95,3.7,13.9s11.28,1.13,12.59-3.85a6.25,6.25,0,1,0,12.27,2.23"/><path class="cls-5" d="M573.18,147.15a7.52,7.52,0,1,0,13.87-5.8c-1.31-2.87-4.42-4.94-4.71-8.08-.36-3.8,3.51-6.51,7-8.17s7.46-3.81,7.83-7.61-2.92-6.53-5.67-9S586,102.26,587.7,99c.87-1.68,2.67-2.64,3.84-4.13,2.58-3.28,1.23-8.5-2.06-11.08s-7.84-2.93-12-2.19-8,2.44-12,3.63A49.92,49.92,0,0,1,525.78,80"/><path class="cls-21" d="M548.76,236.08a27.69,27.69,0,0,1-32.54-21.24l-19.56-89.71A39.82,39.82,0,0,1,527.36,77l2-.3a40.08,40.08,0,0,1,44.88,30.68c4.35,18.94,8.92,39.92,10.3,50.22,2.85,21.32-18,27.75-18,27.75l3.73,18a27.68,27.68,0,0,1-21.61,32.77Z"/><path class="cls-5" d="M570.46,121.44a3.08,3.08,0,0,1-2.48,3.5,3,3,0,0,1-3.54-2.28,3.07,3.07,0,0,1,2.48-3.5A2.94,2.94,0,0,1,570.46,121.44Z"/><path class="cls-5" d="M571.24,118.47c-.32.45-2.87-.92-6.14-.43s-5.43,2.48-5.84,2.13c-.2-.15.08-.93,1-1.84a8.44,8.44,0,0,1,4.61-2.19,8.1,8.1,0,0,1,5,.83C571,117.6,571.4,118.26,571.24,118.47Z"/><path class="cls-5" d="M538.48,126.75a3.06,3.06,0,0,1-2.48,3.49,2.93,2.93,0,0,1-3.53-2.28,3.08,3.08,0,0,1,2.48-3.5A2.94,2.94,0,0,1,538.48,126.75Z"/><path class="cls-5" d="M539.18,123.79c-.32.45-2.88-.92-6.14-.43s-5.43,2.47-5.85,2.13c-.2-.16.08-.93,1-1.84a8.41,8.41,0,0,1,4.6-2.19,8.1,8.1,0,0,1,5,.83C538.89,122.92,539.34,123.58,539.18,123.79Z"/><path class="cls-5" d="M554.6,146.31c0-.18,1.94-.83,5.17-1.74.83-.21,1.59-.49,1.65-1.08a4.25,4.25,0,0,0-.92-2.39l-3.4-6c-4.76-8.56-8.33-15.64-8-15.83s4.49,6.59,9.24,15.15c1.16,2.11,2.26,4.12,3.31,6.05a4.93,4.93,0,0,1,.91,3.22,2.12,2.12,0,0,1-1.19,1.42,5.77,5.77,0,0,1-1.39.4C556.7,146.18,554.64,146.49,554.6,146.31Z"/><path class="cls-5" d="M538.14,110.84c-.19.94-3.52,1-7.29,2s-6.72,2.53-7.34,1.81c-.29-.35.13-1.27,1.26-2.31a13.08,13.08,0,0,1,11.15-2.91C537.41,109.81,538.22,110.4,538.14,110.84Z"/><path class="cls-5" d="M568.65,109.18c-.46.83-2.83.38-5.55.74s-4.93,1.24-5.57.54c-.28-.35,0-1.14.87-2a8.09,8.09,0,0,1,9-1C568.43,108.06,568.85,108.78,568.65,109.18Z"/><path class="cls-5" d="M516.36,98.4l-.11.11a17,17,0,0,0-4.64,11.74c0,.15,0,.3,0,.44.05,6.19,1.11,12.34,1.11,18.54s-1.21,12.67-5.08,17.5c-1.59,2-4.68,3.65-6.49,1.86a5.18,5.18,0,0,1-1.16-2.67c-3.29-14.5-9.19-26.92-11.41-42.25a13,13,0,0,1,3.82-11.3c2.87-2.77,6.44-5.73,10.26-4.57s9.41,7.17,12.59,9.59"/><path class="cls-21" d="M505.25,133.71c-.39-.11-15.26-2.19-12.66,12.3s16.6,8.89,16.55,8.47S505.25,133.71,505.25,133.71Z"/><path class="cls-22" d="M503.73,149.78c-.07,0-.22.22-.61.5a2.57,2.57,0,0,1-1.88.37c-1.63-.28-3.36-2.48-3.89-5.08a8.24,8.24,0,0,1,.06-3.74,3,3,0,0,1,1.55-2.28,1.3,1.3,0,0,1,1.61.43c.27.37.23.67.31.68s.26-.29,0-.87a1.63,1.63,0,0,0-.73-.81,2,2,0,0,0-1.46-.12,3.61,3.61,0,0,0-2.24,2.72,8.8,8.8,0,0,0-.15,4.2c.62,2.9,2.6,5.36,4.8,5.59a2.71,2.71,0,0,0,2.24-.79C503.77,150.14,503.79,149.8,503.73,149.78Z"/><path class="cls-5" d="M502.51,90.13c-4.44-5.3,4.15-15.1,11-18.41s16.83-1.21,24.32.12c4.73.83,9.53,2.26,14.25,1.37,3.17-.6,6-2.2,8.88-3.7s5.83-3,9-3.2,6.74,1,8.37,3.73.5,7.07-2.59,8c3.71-2.8,10-.75,11.28,3.71s-2.8,9.58-7.43,9.26c1.84-1.87,5.39.25,5.51,2.87s-1.94,4.85-4.17,6.24c-5.67,3.55-12.88,3.74-19.47,2.54S548.6,99,542,97.64s-17.58-3.9-23.51-.78c-4.36,2.29-6.76,8.31-9.53,7.46a9,9,0,0,1-5.57-5.87,25.81,25.81,0,0,1-.92-8.32"/><path class="cls-17" d="M474.14,157.38a2.13,2.13,0,0,1-.76-.33,4.19,4.19,0,0,1-1.57-1.79,6.23,6.23,0,0,1-.48-3.74,7.55,7.55,0,0,1,2.61-4.26,18.53,18.53,0,0,1,5.22-3,34.45,34.45,0,0,0,6.1-2.95,12.28,12.28,0,0,0,4.44-5.76,20.11,20.11,0,0,0,1.28-7.83c-.15-5.53-1.68-10.69-2.05-15.55s.26-9.44,2.32-12.59a11.72,11.72,0,0,1,6.88-5.18,8.24,8.24,0,0,1,2.36-.23,3.61,3.61,0,0,1,.82.12,12.48,12.48,0,0,0-3.11.39,11.66,11.66,0,0,0-6.51,5.17c-1.92,3.06-2.57,7.51-2.09,12.26s2,9.93,2.12,15.59a20.74,20.74,0,0,1-1.36,8.12,12.78,12.78,0,0,1-4.72,6.05,34.07,34.07,0,0,1-6.25,2.95,18.77,18.77,0,0,0-5.11,2.87,7.24,7.24,0,0,0-2.54,3.94,6,6,0,0,0,.33,3.55A4.72,4.72,0,0,0,474.14,157.38Z"/><path class="cls-17" d="M576.25,77.7a2.85,2.85,0,0,1,.63-.33,4.7,4.7,0,0,1,.81-.32,6,6,0,0,1,1.17-.3,8.72,8.72,0,0,1,7.3,2.24h0a11.7,11.7,0,0,1,2.61,8.64,14.4,14.4,0,0,1-5.33,9.82,22.12,22.12,0,0,1-12.05,4.85,48.78,48.78,0,0,1-14.31-.88A64.6,64.6,0,0,1,536,93.28a65.43,65.43,0,0,0-8.7-4.52A23.49,23.49,0,0,0,519,87.07a24.6,24.6,0,0,0-11.89,2.81,39,39,0,0,0-3.84,2.43,16.91,16.91,0,0,1,3.7-2.68,24.34,24.34,0,0,1,12-3.08,23.67,23.67,0,0,1,8.49,1.64,64.06,64.06,0,0,1,8.82,4.51,65,65,0,0,0,20.91,8,48.81,48.81,0,0,0,14.09.89A21.67,21.67,0,0,0,583,97a13.89,13.89,0,0,0,5.19-9.38,11.3,11.3,0,0,0-2.38-8.32v0a8.55,8.55,0,0,0-7-2.31A16.33,16.33,0,0,0,576.25,77.7Z"/><path class="cls-17" d="M568.18,65.64a8.4,8.4,0,0,1-.51,3.26A13.67,13.67,0,0,1,562,75.77a17.29,17.29,0,0,1-5.78,2.4,24.76,24.76,0,0,1-7.16.37C544,78.16,538.65,76.43,533.1,75S522,72.8,517.19,74.08a20.86,20.86,0,0,0-10.81,7,21.67,21.67,0,0,0-4.14,7.78c-.56,2-.62,3.2-.71,3.19a4.19,4.19,0,0,1,0-.85A16.37,16.37,0,0,1,502,88.8a20.93,20.93,0,0,1,4-8,21.16,21.16,0,0,1,11-7.35c5-1.36,10.68-.6,16.26.85s10.84,3.19,15.8,3.59a24,24,0,0,0,7-.29,16.88,16.88,0,0,0,5.62-2.24,13.7,13.7,0,0,0,5.72-6.53A19.63,19.63,0,0,0,568.18,65.64Z"/><path class="cls-22" d="M561.14,157.15a15,15,0,0,1-1.12,4.13,5,5,0,0,1-3.1,2.78,4.52,4.52,0,0,1-4.18-1.26,7.22,7.22,0,0,1-2-4.05c-.22-1.37.06-3.1,1.37-3.54a3.27,3.27,0,0,1,1.7,0l7.64,1.38"/><path class="cls-5" d="M559.8,162.94c-.11-.2-1.42.89-3.8.72a5.48,5.48,0,0,1-3.57-1.62,5.8,5.8,0,0,1-1.52-4.46,4.74,4.74,0,0,1,.27-1.21c.18-.37.13-.35.44-.4s.82.06,1.24.08l1.27.1c1.65.12,3.15.22,4.4.28,2.52.12,4.08.1,4.09-.07s-1.51-.48-4-.84c-1.25-.17-2.73-.36-4.38-.55l-1.27-.14a12.87,12.87,0,0,0-1.42-.11,1.69,1.69,0,0,0-1,.35,2,2,0,0,0-.57.84,6.33,6.33,0,0,0-.35,1.55,6.72,6.72,0,0,0,2,5.41,6.15,6.15,0,0,0,4.38,1.7,5.88,5.88,0,0,0,3-.84C559.6,163.34,559.84,163,559.8,162.94Z"/><path class="cls-22" d="M566.64,185.35s-13.9,5.27-27.43,1.44c0,0,10.2,8.56,28.82,5.27Z"/><path class="cls-12" d="M545.43,383.05a15.19,15.19,0,0,0,1.91-1.45c.59-.49,1.32-1.08,2.22-1.71s1.86-1.42,3-2.14,2.4-1.59,3.81-2.38,2.92-1.61,4.54-2.44a71.12,71.12,0,0,1,22.5-6.73c1.81-.19,3.52-.41,5.14-.45s3.11-.12,4.48-.11,2.62.09,3.71.13,2,.13,2.79.22a15.06,15.06,0,0,0,2.39.16,15.44,15.44,0,0,0-2.36-.44c-.76-.13-1.7-.26-2.79-.34s-2.34-.23-3.73-.23-2.9-.08-4.52,0-3.36.22-5.19.39a74.05,74.05,0,0,0-11.66,2.4,75,75,0,0,0-11.06,4.39c-1.62.86-3.17,1.65-4.54,2.53s-2.66,1.67-3.79,2.47-2.12,1.57-3,2.24a27.78,27.78,0,0,0-2.15,1.82A14.38,14.38,0,0,0,545.43,383.05Z"/><path class="cls-11" d="M626.48,312.23l-11.32-49c-4.32-18.42-9.45-36.13-18.07-38.23v5.71l3.69,140s23.05,26.25,52.45,11.66c9.18-4.56,25.94-36.62,25.94-36.62s38.92-69.57,37.31-72.72S691,239.15,688.61,237.63Z"/><path class="cls-11" d="M510.12,211.2c-22.48,4.3-47.79,17.41-59.43,51-4.25,12.27-35.2,102.74-35.2,102.74l52.78-1.1,8.59-18.65-4.19,30.25-3.58,43.17,133.26,2.24-.93-65-1.28-129.34s-1.5-2-24.48-14.64C561.39,204,510.12,211.2,510.12,211.2Z"/><g class="cls-18"><path d="M496.82,297.66c-2.19,27.3-4.71,35.74-6.89,63a24.32,24.32,0,0,1-1.44,7.59,8.2,8.2,0,0,1-5.52,5c-3.88.79-8.92,3.59-10-.21l3.69-26.3a51.54,51.54,0,0,1,3.63-11.1c8.18-18.15,11.21-19.22,16.55-38"/></g><path class="cls-11" d="M575.66,225.83l-.44-2.84L571,195.75a3.17,3.17,0,0,0-3.4-2.67l-52.47,4.38a6,6,0,0,0-5.51,6.45l1.17,15.83,16.38,21.38,23.59,3.68"/><path class="cls-5" d="M602,277.06c-.2,0-.36,21.35-.36,47.67s.16,47.68.36,47.68.35-21.34.35-47.68S602.2,277.06,602,277.06Z"/><path class="cls-5" d="M467.15,368.19a1.71,1.71,0,0,0,.17-.31c.11-.25.25-.55.43-.93.39-.88.92-2.1,1.6-3.63l5.75-13.39,18.75-44.28,10.24-24.42a45.58,45.58,0,0,0,3.39-11.08,61.53,61.53,0,0,0,.92-10.06,41,41,0,0,0-2.1-14.41c-.16-.4-.29-.79-.44-1.14s-.33-.67-.47-1a8.5,8.5,0,0,0-.83-1.46c-.24-.35-.43-.63-.59-.85s-.21-.29-.22-.28a25.55,25.55,0,0,1,2.28,4.8,41.69,41.69,0,0,1,1.86,14.31A52.64,52.64,0,0,1,503.48,281l-10.29,24.39c-7.24,17.3-13.79,33-18.55,44.36l-5.55,13.48c-.62,1.56-1.12,2.79-1.48,3.68-.14.39-.26.71-.36,1S467.13,368.19,467.15,368.19Z"/><path class="cls-12" d="M493.76,216a16.59,16.59,0,0,0,1.53,1.33,23.9,23.9,0,0,0,5,2.93,38.33,38.33,0,0,0,8.86,2.48,109.07,109.07,0,0,0,12.14,1.2c4.51.2,9.46.11,14.75.22a68.1,68.1,0,0,1,16.68,2c5.68,1.52,11.52,4.35,15.69,9.25A21.43,21.43,0,0,1,572.8,244a18.25,18.25,0,0,1-.16,9.86,15.23,15.23,0,0,1-2.31,4.41,11.43,11.43,0,0,1-3.72,3.14,8.07,8.07,0,0,1-4.61,1,6.3,6.3,0,0,1-4-2.07c-2.07-2.36-2.46-5.76-2-8.73a14.47,14.47,0,0,1,1.31-4.31,22.38,22.38,0,0,1,2.45-3.7,25.94,25.94,0,0,1,14.14-8.37,30.11,30.11,0,0,1,14.47.16,39.27,39.27,0,0,1,11.08,4.74,51.39,51.39,0,0,1,7.34,5.46c1.89,1.65,3.23,3.08,4.16,4l1,1.1a2.56,2.56,0,0,0,.37.36,46,46,0,0,0-5.37-5.7,49.93,49.93,0,0,0-7.32-5.59,39.38,39.38,0,0,0-11.16-4.89,30.53,30.53,0,0,0-14.74-.25,26.52,26.52,0,0,0-14.51,8.53,22.3,22.3,0,0,0-2.55,3.82,15.33,15.33,0,0,0-1.38,4.51,14.46,14.46,0,0,0,.08,4.82,9.43,9.43,0,0,0,2.11,4.48,7,7,0,0,0,4.49,2.31,8.71,8.71,0,0,0,5-1,12.08,12.08,0,0,0,4-3.33,16.52,16.52,0,0,0,2.43-4.63,19,19,0,0,0,.16-10.25,22.12,22.12,0,0,0-4.51-8.89c-4.31-5.05-10.3-7.91-16.05-9.44a68.26,68.26,0,0,0-16.85-2c-5.31-.08-10.25,0-14.74-.13a112.63,112.63,0,0,1-12.09-1.08,38.56,38.56,0,0,1-8.82-2.35,25,25,0,0,1-5.05-2.79c-.55-.37-.92-.71-1.2-.91A2.42,2.42,0,0,0,493.76,216Z"/><path class="cls-12" d="M448.16,273.34a2,2,0,0,0,.59.1c.38,0,.95.1,1.69.12a52.78,52.78,0,0,0,6.25-.15c2.64-.19,5.75-.59,9.2-1.07s7.23-1,11.22-1.21a44,44,0,0,1,11.17.84,28.37,28.37,0,0,1,8.51,3.24c4.51,2.7,6.14,5.73,6.29,5.58a2,2,0,0,0-.29-.52,12.51,12.51,0,0,0-1-1.38,19.23,19.23,0,0,0-4.72-4.11,27.77,27.77,0,0,0-8.64-3.45,42.64,42.64,0,0,0-11.35-.92c-4,.22-7.83.77-11.27,1.28s-6.54,1-9.15,1.21-4.74.37-6.2.38A15.23,15.23,0,0,0,448.16,273.34Z"/><path class="cls-12" d="M481.3,335.16a28,28,0,0,1,7.92-.67,42.46,42.46,0,0,1,9.18,1.64c3.53.95,7.45,2.35,11.86,3.7a48.75,48.75,0,0,0,14.87,2.59,42.78,42.78,0,0,0,16.93-3.52,42,42,0,0,0,15.45-11.22A32.5,32.5,0,0,0,563,319.1a19.74,19.74,0,0,0,1.57-10.36,14.93,14.93,0,0,0-4.89-9.22,10.77,10.77,0,0,0-4.64-2.38,11,11,0,0,0-9.56,2.58A8.41,8.41,0,0,0,543,304a8.6,8.6,0,0,0,.38,4.85,11.86,11.86,0,0,0,2.58,3.95,20.74,20.74,0,0,0,7.57,4.81,21.81,21.81,0,0,0,4.16,1.14c.69.13,1.37.28,2.06.38l2,.24a44.6,44.6,0,0,0,15.05-1.05,47.27,47.27,0,0,0,11.62-4.47,42.67,42.67,0,0,0,7.73-5.35l1.38-1.21,1.13-1.14a19.87,19.87,0,0,0,1.7-1.84l1-1.19a2.78,2.78,0,0,0,.32-.42,2.58,2.58,0,0,0-.38.38l-1,1.13a21.43,21.43,0,0,1-1.74,1.79l-1.15,1.11L596,308.3a43.63,43.63,0,0,1-7.74,5.2,46.65,46.65,0,0,1-11.55,4.33,44.44,44.44,0,0,1-14.87,1l-2-.24c-.67-.11-1.35-.26-2-.39a21.6,21.6,0,0,1-4-1.13,20,20,0,0,1-7.32-4.68,11.19,11.19,0,0,1-2.43-3.73,7.78,7.78,0,0,1-.33-4.46,8.61,8.61,0,0,1,6.42-6.18,10,10,0,0,1,4.79-.15,10.12,10.12,0,0,1,4.34,2.23,14.29,14.29,0,0,1,4.64,8.78,19,19,0,0,1-1.52,10,31.61,31.61,0,0,1-5.35,8.4,41.36,41.36,0,0,1-15.17,11.07,42.28,42.28,0,0,1-16.67,3.53,48.5,48.5,0,0,1-14.72-2.47c-4.4-1.32-8.35-2.69-11.9-3.61a42.4,42.4,0,0,0-9.28-1.53,29.13,29.13,0,0,0-3.44.06c-1,.14-1.82.21-2.49.36l-1.5.38A3.81,3.81,0,0,0,481.3,335.16Z"/><path class="cls-12" d="M602.47,320.46c.12,0,.75-1.46,2.09-3.71A36,36,0,0,1,619.28,303c2.34-1.18,3.88-1.71,3.84-1.83a4,4,0,0,0-1.12.26,20.94,20.94,0,0,0-2.94,1.11,32,32,0,0,0-14.94,13.93,21.92,21.92,0,0,0-1.32,2.85A3.36,3.36,0,0,0,602.47,320.46Z"/><path class="cls-12" d="M656,379.47a1.67,1.67,0,0,0,.21-.34c.15-.27.34-.61.57-1,.49-.92,1.21-2.28,2.09-4a93.45,93.45,0,0,0,6.31-15.53,49.83,49.83,0,0,0,2-11.43,35.57,35.57,0,0,0-.26-6.48,37.29,37.29,0,0,0-1.64-6.69,29.09,29.09,0,0,0-8.09-12.25c-3.84-3.37-9.16-5.72-14.72-5.17a11,11,0,0,0-7.25,3.53,8.94,8.94,0,0,0-2,7.54,6.7,6.7,0,0,0,2,3.41,8,8,0,0,0,3.37,1.83,9.83,9.83,0,0,0,7.2-.87,16.54,16.54,0,0,0,5.27-4.48,24.39,24.39,0,0,0,3.31-5.61,24.71,24.71,0,0,0,1.84-11.44,23.28,23.28,0,0,0-2.73-9.16,24.14,24.14,0,0,0-4.33-5.8,22.22,22.22,0,0,0-3.55-2.87c-.43-.29-.79-.47-1-.61a1.55,1.55,0,0,0-.36-.18s.45.31,1.3.91a24.54,24.54,0,0,1,7.6,8.73,22.92,22.92,0,0,1,2.58,9,23.93,23.93,0,0,1-5.13,16.61,15.89,15.89,0,0,1-5.08,4.29,9.19,9.19,0,0,1-6.72.8,6.46,6.46,0,0,1-4.81-4.74,8.21,8.21,0,0,1,1.9-6.92,10.23,10.23,0,0,1,6.78-3.27c5.29-.54,10.45,1.72,14.18,5a28.69,28.69,0,0,1,7.93,11.94,36.89,36.89,0,0,1,1.63,6.55,35.37,35.37,0,0,1,.3,6.37,51.07,51.07,0,0,1-1.87,11.32,100.52,100.52,0,0,1-6.08,15.55l-2,4.11-.5,1.07A1.89,1.89,0,0,0,656,379.47Z"/><path class="cls-12" d="M673,257.73s-.07.19-.13.57-.15.94-.2,1.67a36.16,36.16,0,0,0,0,6.2,39.43,39.43,0,0,0,22.23,32.31,36.39,36.39,0,0,0,5.77,2.23c.7.21,1.26.32,1.64.41s.57.11.58.08a19.31,19.31,0,0,0-2.13-.76,44.87,44.87,0,0,1-5.64-2.41,40.34,40.34,0,0,1-21.94-31.91A43.13,43.13,0,0,1,673,260,16.81,16.81,0,0,0,673,257.73Z"/><path class="cls-12" d="M436.09,317.52a19.8,19.8,0,0,1,5.32,4.86c1.37,1.78,2.75,4.08,4.32,6.62a51.3,51.3,0,0,0,5.9,7.8,49.73,49.73,0,0,0,14.13,10.62,41.82,41.82,0,0,0,4.94,2.11,10.76,10.76,0,0,0,1.89.55,10.51,10.51,0,0,0-1.79-.81c-1.16-.51-2.83-1.22-4.81-2.3a53.3,53.3,0,0,1-13.84-10.66,54.84,54.84,0,0,1-5.86-7.66,68.7,68.7,0,0,0-4.48-6.58,17.48,17.48,0,0,0-3.95-3.67,11.43,11.43,0,0,0-1.29-.7A1.5,1.5,0,0,0,436.09,317.52Z"/><path class="cls-5" d="M510.61,212.8a2.57,2.57,0,0,0,.64.16l1.83.32c1.6.27,3.91.62,6.78,1,5.73.77,13.67,1.67,22.48,2.32a110.06,110.06,0,0,0,12.46.44,35.36,35.36,0,0,0,10.05-1.72,22.42,22.42,0,0,0,6.14-3.1,15.46,15.46,0,0,0,1.45-1.18,2.39,2.39,0,0,0,.45-.47c0-.05-.72.54-2.06,1.42a24.41,24.41,0,0,1-6.14,2.85,36.31,36.31,0,0,1-9.92,1.54,120.2,120.2,0,0,1-12.38-.5c-8.79-.64-16.73-1.46-22.47-2.11l-6.8-.77A17,17,0,0,0,510.61,212.8Z"/><path class="cls-21" d="M416.16,374.67a37.06,37.06,0,0,0,36,44.05l104.45-1.16-2.75-33.82-89.55-13.35"/><path class="cls-21" d="M547.42,385.28c.48.16,6.51-2.54,11.92-5a38.89,38.89,0,0,1,18.34-3.56l24.9,1.27s-1.54,4.11-4.18,5.57-18.12,1.77-18.12,1.77l.79.82a18,18,0,0,0,12.4,5.42l2.37.06a23,23,0,0,0,5.2-1l6.14-2.48c1.86-.84,3.82-.7,4.63,1.17.73,1.69.2,4-4.87,6.58-2.84,1.43-13.34,5.06-13.34,5.06a25.59,25.59,0,0,1-.62,4.44c-.46,1.52-4.58,3.05-4.58,3.05s-2.6,5.36-3.67,6.58c-.48.55-4.22,1.71-8.2,2.83a35.28,35.28,0,0,1-19.62-.15l-9.49-2.83V385.91"/><path class="cls-22" d="M581.48,404.17c0,.16,3,0,6.47-.93s6.16-2.23,6.09-2.38-2.78.88-6.25,1.78S581.46,404,581.48,404.17Z"/><path class="cls-22" d="M582.35,410a6.5,6.5,0,0,0,3.51-.26,6.42,6.42,0,0,0,3.15-1.55c-.09-.16-1.5.46-3.32.95S582.35,409.82,582.35,410Z"/><path class="cls-22" d="M577.81,383a10.33,10.33,0,0,0,1.92,2.06,31.05,31.05,0,0,0,5.42,4.11,21.88,21.88,0,0,0,6.36,2.45,8.93,8.93,0,0,0,2.81.3c0-.22-4.32-.63-8.85-3.29a43.63,43.63,0,0,1-5.45-3.9A15.92,15.92,0,0,0,577.81,383Z"/><path class="cls-11" d="M544.88,380.72,547.42,419,449,419a36.83,36.83,0,0,1-19-5.26h0a36.79,36.79,0,0,1-17.16-38.64c1-6.22,3.38-13.48,6.35-21.21L468.73,362l-1.58,6.16Z"/><path class="cls-5" d="M444.36,365a6.19,6.19,0,0,0,1,.23l2.87.51,10.59,1.77,35,5.57,35,5.35L539.41,380l2.89.39a4.57,4.57,0,0,0,1,.08,6.57,6.57,0,0,0-1-.23l-2.87-.51-10.59-1.77-35-5.56-35-5.36-10.62-1.54-2.89-.39A4.61,4.61,0,0,0,444.36,365Z"/><path class="cls-12" d="M494.7,419c.17,0-.59-2.77-.68-7.27a27.57,27.57,0,0,1,.14-3.67,35.19,35.19,0,0,1,.6-4.17,39.49,39.49,0,0,1,3.2-9.07,42,42,0,0,1,5.38-8l1.45-1.62c.47-.52,1-1,1.46-1.44a36.09,36.09,0,0,1,2.75-2.44c3.52-2.82,6-4.13,5.93-4.26a9.76,9.76,0,0,0-1.76.89,19.78,19.78,0,0,0-2,1.2c-.73.53-1.64,1-2.5,1.78a33.68,33.68,0,0,0-2.85,2.4c-.49.46-1,.92-1.51,1.43l-1.49,1.63a40.37,40.37,0,0,0-5.52,8.1,38.63,38.63,0,0,0-3.21,9.27,32.3,32.3,0,0,0-.54,4.25,32.83,32.83,0,0,0,.21,6.8,15,15,0,0,0,.41,2.28A10,10,0,0,0,494.7,419Z"/><path class="cls-12" d="M434.81,416.15a20.56,20.56,0,0,0,4.57-.54,23.52,23.52,0,0,0,5.1-1.8,20.06,20.06,0,0,0,5.75-4.29,18.23,18.23,0,0,0,4.23-7.58,20.39,20.39,0,0,0,.73-4.82,18.9,18.9,0,0,0-.41-5.15,15.3,15.3,0,0,0-2-5.06,11.49,11.49,0,0,0-4.13-3.94,10.3,10.3,0,0,0-5.77-1.32,7.74,7.74,0,0,0-5.4,2.79,7.62,7.62,0,0,0-1.81,5.82A6.89,6.89,0,0,0,439,395.1c3.44,2,7.43,2,10.88,1.49a22.67,22.67,0,0,0,19.17-21.73,15.86,15.86,0,0,0-.39-4.58,33.44,33.44,0,0,1,.11,4.57,23.17,23.17,0,0,1-3.92,11.61,22.56,22.56,0,0,1-15.08,9.48c-3.35.51-7.21.48-10.4-1.44a6.23,6.23,0,0,1-3.05-4.34A6.94,6.94,0,0,1,438,384.9a7,7,0,0,1,4.91-2.54,9.54,9.54,0,0,1,5.37,1.23c3.29,1.77,5.14,5.22,5.86,8.52a18.11,18.11,0,0,1,.43,5,20.32,20.32,0,0,1-.67,4.68,17.88,17.88,0,0,1-4,7.4,20.12,20.12,0,0,1-5.56,4.27,23.37,23.37,0,0,1-5,1.88C436.45,416,434.8,416.06,434.81,416.15Z"/><path class="cls-23" d="M777.35,621.05c-5.57-8.33-8.69-26.38-8.41-36.4.47-16.79,1.85-34.12,9.66-49,12.91-24.55,40.86-37.91,55.4-61.52,14.68-23.83,11.31-58.95-11.14-75.67A32.5,32.5,0,0,0,808,391.92c-14.3-1.93-27.58,9.36-33.45,22.54s-6.27,28-7.93,42.35a232.48,232.48,0,0,1-30.78,91.45c-5.55,9.37-12,18.59-21.19,24.44-14.83,9.44-40.46,15.2-57.83,12.47-31.35-4.94-58.79-23.87-72.72-52.39-6.87-14.07-7.78-30.31-7-45.95A231.81,231.81,0,0,1,586,434.22"/></g></g></svg>