<svg xmlns="http://www.w3.org/2000/svg" viewBox="0 0 519.05 363.54"><defs><style>.cls-1{fill:#dfdfdf;}.cls-2{fill:#eaeaea;}.cls-3{fill:#f4f4f4;}.cls-4{fill:#263238;}.cls-5{fill:#2ab0d8;}.cls-6{fill:#f9f9f9;}.cls-7{fill:#bf9684;}.cls-8{fill:#80483a;}.cls-9{fill:#f3bb97;}.cls-10{fill:#514f7e;}.cls-11,.cls-12,.cls-13{opacity:0.2;}.cls-13,.cls-15{fill:#fff;}.cls-14{fill:#f7c16e;}.cls-16{fill:#b36958;}.cls-17{fill:#b58778;}.cls-18{fill:#465a63;}.cls-19{fill:#e89872;}.cls-20{fill:#683400;}.cls-21{fill:#fdbd9f;}.cls-22,.cls-23,.cls-24{fill:none;stroke:#f4f4f4;stroke-miterlimit:10;}.cls-23{stroke-dasharray:11.27 11.27;}.cls-24{stroke-dasharray:6.93 6.93;}</style></defs><title>3-block</title><g id="Слой_2" data-name="Слой 2"><g id="Layer_1" data-name="Layer 1"><path class="cls-1" d="M517.47,67.11a8.91,8.91,0,0,0-6.8,1.53A15.74,15.74,0,0,0,506,74c-2.27,4-2.88,9.32-2.75,13.94,5.11-.47,9.29-4.72,11.27-7,3.13-3.62,6.59-12.06,2.92-13.84"/><path class="cls-1" d="M495.2,91.47a7.62,7.62,0,0,0,2.24-7.29,10.07,10.07,0,0,0-4.67-6.24,4.22,4.22,0,0,0-3.5-.73,3.24,3.24,0,0,0-2,2.64,6.56,6.56,0,0,0,.56,3.37c1.49,3.67,3.6,7,7.34,8.25"/><path class="cls-2" d="M491.21,106.29a4,4,0,0,1,.3-.92c.25-.67.57-1.49.94-2.46a37,37,0,0,0,2.3-8.31,17.12,17.12,0,0,0-.92-8.45A20.45,20.45,0,0,0,492.12,83a4,4,0,0,1,.65.72A10.42,10.42,0,0,1,494.12,86a16.38,16.38,0,0,1,1.08,8.63,32.86,32.86,0,0,1-2.46,8.37c-.43,1-.81,1.85-1.07,2.41A4.67,4.67,0,0,1,491.21,106.29Z"/><path class="cls-2" d="M514.27,73.31a1.86,1.86,0,0,1-.22.35l-.69,1-2.6,3.51c-2.19,3-5.21,7-8.48,11.61s-6.18,8.74-8.27,11.77c-1,1.47-1.85,2.68-2.48,3.58-.27.39-.5.7-.69,1a1.5,1.5,0,0,1-.26.32s.05-.14.19-.37l.62-1c.54-.88,1.35-2.13,2.36-3.67,2-3.08,4.89-7.28,8.16-11.85s6.34-8.64,8.6-11.54c1.13-1.46,2.06-2.63,2.71-3.42l.76-.92C514.16,73.4,514.25,73.3,514.27,73.31Z"/><path class="cls-1" d="M498.92,97a17.77,17.77,0,0,1,15.77-3.81c1.39.35,2.95,1.12,3.15,2.54s-1.08,2.6-2.34,3.29a15.18,15.18,0,0,1-16.76-1.67"/><path class="cls-2" d="M511.41,96c0,.09-1.32-.16-3.43-.11a20.43,20.43,0,0,0-3.67.43,22.84,22.84,0,0,0-4.3,1.4,23.69,23.69,0,0,0-3.9,2.28,20.53,20.53,0,0,0-2.76,2.46c-1.44,1.55-2.11,2.69-2.19,2.64a3.3,3.3,0,0,1,.44-.82,7.57,7.57,0,0,1,.61-.9,12.89,12.89,0,0,1,.91-1.13,18.76,18.76,0,0,1,2.74-2.58,20.09,20.09,0,0,1,8.37-3.75,19,19,0,0,1,3.75-.35,12.35,12.35,0,0,1,1.44.08,6.81,6.81,0,0,1,1.08.14A4.13,4.13,0,0,1,511.41,96Z"/><path class="cls-1" d="M4.05,33.3a8.91,8.91,0,0,0-1.52,6.81A15.63,15.63,0,0,0,5.41,46.6C8.08,50.38,12.6,53.18,16.83,55c1.76-4.82-.3-10.41-1.52-13.18C13.38,37.48,7.22,30.75,4.05,33.3"/><path class="cls-1" d="M16.55,63.85a7.59,7.59,0,0,0-5.63-5.14,10.06,10.06,0,0,0-7.64,1.55,4.23,4.23,0,0,0-2.15,2.86A3.25,3.25,0,0,0,2.67,66,6.59,6.59,0,0,0,6,67c4,.23,7.82-.28,10.59-3.1"/><path class="cls-2" d="M28.25,73.8a3.69,3.69,0,0,1-.71-.67c-.5-.52-1.1-1.16-1.82-1.9a37.27,37.27,0,0,0-6.53-5.64,17.2,17.2,0,0,0-8-2.78A19.29,19.29,0,0,0,7.6,63a3.08,3.08,0,0,1,.93-.29,10.23,10.23,0,0,1,2.64-.24,16.29,16.29,0,0,1,8.26,2.72A32.61,32.61,0,0,1,26,71c.75.83,1.33,1.52,1.72,2A4.75,4.75,0,0,1,28.25,73.8Z"/><path class="cls-2" d="M8.28,38.85s.09.11.23.35l.58,1c.51,1,1.21,2.27,2.05,3.85,1.74,3.24,4.14,7.72,6.87,12.63s5.27,9.32,7.11,12.5L27.3,73l.58,1c.13.24.19.37.17.38a1.3,1.3,0,0,1-.25-.33l-.65-1c-.56-.87-1.34-2.13-2.3-3.71-1.92-3.14-4.5-7.53-7.23-12.44s-5.1-9.42-6.76-12.71c-.83-1.64-1.49-3-1.93-3.91l-.5-1.07A2,2,0,0,1,8.28,38.85Z"/><path class="cls-1" d="M23.14,62.86A17.79,17.79,0,0,1,26.44,47c.91-1.1,2.27-2.18,3.64-1.76s1.89,2.09,2,3.52a15.18,15.18,0,0,1-8.67,14.44"/><path class="cls-2" d="M27.54,51.11c.07,0-.71,1.12-1.57,3a19.82,19.82,0,0,0-1.18,3.5,20.87,20.87,0,0,0-.18,9,21.42,21.42,0,0,0,1,3.55c.79,2,1.53,3.06,1.45,3.1a3.53,3.53,0,0,1-.55-.74,8.12,8.12,0,0,1-.55-.94,11.27,11.27,0,0,1-.64-1.3,19,19,0,0,1-1.15-3.59,20.74,20.74,0,0,1-.44-4.59,21.38,21.38,0,0,1,.62-4.57A18.4,18.4,0,0,1,25.68,54c.21-.49.48-.9.68-1.27a7.78,7.78,0,0,1,.6-.92A3.73,3.73,0,0,1,27.54,51.11Z"/><path class="cls-1" d="M246.9,363.06a8.87,8.87,0,0,0,6.95-.52,15.78,15.78,0,0,0,5.39-4.63c2.83-3.65,4.21-8.79,4.77-13.38-5.13-.29-9.88,3.3-12.18,5.27-3.63,3.12-8.3,11-4.93,13.26"/><path class="cls-1" d="M272.52,342.25a7.58,7.58,0,0,0-3.29,6.88,10.08,10.08,0,0,0,3.69,6.86,4.24,4.24,0,0,0,3.36,1.23,3.22,3.22,0,0,0,2.34-2.31,6.62,6.62,0,0,0-.06-3.42c-.93-3.85-2.53-7.4-6-9.24"/><path class="cls-2" d="M278.65,328.18a4.07,4.07,0,0,1-.43.86c-.35.63-.79,1.39-1.29,2.3a36.91,36.91,0,0,0-3.51,7.87,17.13,17.13,0,0,0-.33,8.5,20.94,20.94,0,0,0,1.23,3.35,3.51,3.51,0,0,1-.54-.81,10.43,10.43,0,0,1-1-2.46,16.39,16.39,0,0,1,.21-8.7,33.1,33.1,0,0,1,3.66-7.91c.58-1,1.07-1.71,1.42-2.23A4.31,4.31,0,0,1,278.65,328.18Z"/><path class="cls-2" d="M251,357.4a1.47,1.47,0,0,1,.27-.32l.82-.85,3.09-3.08c2.6-2.6,6.19-6.2,10.1-10.23s7.4-7.74,9.91-10.43l3-3.18.82-.85a1.62,1.62,0,0,1,.31-.28s-.07.13-.24.34l-.77.91c-.66.79-1.65,1.91-2.87,3.28-2.46,2.74-5.91,6.48-9.83,10.52s-7.54,7.6-10.2,10.15c-1.33,1.27-2.42,2.28-3.19,3l-.88.79A1.93,1.93,0,0,1,251,357.4Z"/><path class="cls-1" d="M269.66,336.23a17.8,17.8,0,0,1-16.17,1.44c-1.32-.55-2.75-1.54-2.74-3s1.46-2.41,2.8-2.92a15.19,15.19,0,0,1,16.33,4.13"/><path class="cls-2" d="M257.15,335.42c0-.09,1.27.36,3.37.62a21.48,21.48,0,0,0,3.69.12,21,21,0,0,0,8.66-2.44,20.7,20.7,0,0,0,3.09-2c1.65-1.32,2.49-2.35,2.55-2.29a3.42,3.42,0,0,1-.55.75,8.31,8.31,0,0,1-.74.8c-.31.29-.64.65-1.06,1a19.31,19.31,0,0,1-3.1,2.15,20.11,20.11,0,0,1-8.82,2.48,18.78,18.78,0,0,1-3.76-.22,12.75,12.75,0,0,1-1.42-.28,6.75,6.75,0,0,1-1.05-.31A3.4,3.4,0,0,1,257.15,335.42Z"/><circle class="cls-2" cx="110.31" cy="317.94" r="8.6" transform="translate(-214.71 230.66) rotate(-55.83)"/><path class="cls-2" d="M143,300.7a8.6,8.6,0,1,1-8.61-8.59A8.6,8.6,0,0,1,143,300.7Z"/><path class="cls-2" d="M143,337.15c0,5.17-3.84,9.37-8.59,9.37s-8.6-4.18-8.61-9.34,3.84-9.37,8.59-9.37S143,332,143,337.15Z"/><path class="cls-2" d="M131.89,336.06c-.37.54-6.09-2.71-12.77-7.25s-11.82-8.68-11.45-9.22,6.09,2.71,12.78,7.26S132.26,335.52,131.89,336.06Z"/><path class="cls-2" d="M132.58,300.11c.4.51-4,4.61-9.87,9.14S111.8,317,111.4,316.52s4-4.61,9.86-9.15S132.18,299.59,132.58,300.11Z"/><path class="cls-1" d="M395.88,150.7a30.63,30.63,0,0,1,.22,5.16,30.71,30.71,0,0,1-.22,5.17,28.87,28.87,0,0,1-.23-5.17A28.8,28.8,0,0,1,395.88,150.7Z"/><path class="cls-1" d="M395.88,130.05a30.63,30.63,0,0,1,.22,5.16,30.63,30.63,0,0,1-.22,5.16,28.8,28.8,0,0,1-.23-5.16A28.8,28.8,0,0,1,395.88,130.05Z"/><path class="cls-1" d="M395.88,109.39a30.63,30.63,0,0,1,.22,5.16,30.71,30.71,0,0,1-.22,5.17,28.87,28.87,0,0,1-.23-5.17A28.8,28.8,0,0,1,395.88,109.39Z"/><path class="cls-1" d="M395.88,88.73a30.81,30.81,0,0,1,.22,5.17,30.63,30.63,0,0,1-.22,5.16,28.8,28.8,0,0,1-.23-5.16A29,29,0,0,1,395.88,88.73Z"/><path class="cls-1" d="M395.88,68.08a30.63,30.63,0,0,1,.22,5.16,30.71,30.71,0,0,1-.22,5.17,28.87,28.87,0,0,1-.23-5.17A28.8,28.8,0,0,1,395.88,68.08Z"/><path class="cls-1" d="M390,53.3a30.63,30.63,0,0,1,5.16-.22h.94v.22a25.41,25.41,0,0,1-.22,4.45,23.7,23.7,0,0,1-.23-4.45l.23.22h-.72A28.8,28.8,0,0,1,390,53.3Z"/><path class="cls-1" d="M369.34,53.3a60.74,60.74,0,0,1,10.33,0,58.11,58.11,0,0,1-10.33,0Z"/><path class="cls-1" d="M360.36,41.63a28.8,28.8,0,0,1,.23,5.16,29,29,0,0,1-.23,5.17,30.81,30.81,0,0,1-.22-5.17A30.63,30.63,0,0,1,360.36,41.63Z"/><path class="cls-1" d="M360.36,25.05a10.72,10.72,0,0,1,.23,3.13,10.68,10.68,0,0,1-.23,3.12,11.34,11.34,0,0,1-.22-3.12A11.39,11.39,0,0,1,360.36,25.05Z"/><path class="cls-1" d="M235.79,259.33a15.24,15.24,0,0,1,5.16,0,15.24,15.24,0,0,1-5.16,0Z"/><path class="cls-1" d="M213.27,259.33a36.43,36.43,0,0,1,5.63-.22,36.43,36.43,0,0,1,5.63.22,36.43,36.43,0,0,1-5.63.22A36.43,36.43,0,0,1,213.27,259.33Z"/><path class="cls-3" d="M64,226.33a9,9,0,0,0-2.88-9.66,8.77,8.77,0,0,0-5-1.79,7.23,7.23,0,0,1-6.35-4.32,15.66,15.66,0,0,0-9.86-8.76,15.69,15.69,0,0,0-17,6.52c-1,1.52-1.75,3.3-3.32,4.18-2,1.12-4.46.36-6.75.22C6.09,212.29-.34,219.54,0,226.33Z"/><path class="cls-3" d="M388.77,25.05a9,9,0,0,0-2.88-9.66,8.77,8.77,0,0,0-5-1.79,7.22,7.22,0,0,1-6.35-4.32A15.66,15.66,0,0,0,364.68.52a15.68,15.68,0,0,0-17,6.53c-1,1.52-1.75,3.3-3.32,4.18-2,1.12-4.47.36-6.75.21-6.79-.42-13.22,6.82-12.87,13.61Z"/><circle class="cls-1" cx="448.13" cy="138.99" r="57.49" transform="translate(187.1 528.86) rotate(-73.43)"/><path class="cls-1" d="M377.09,291.05c-1.37,34.58-26.83,63.19-61.43,63.86a62.65,62.65,0,0,1-63.86-61.42c-.67-34.6,26.93-66.51,61.43-63.86C350,232.46,378.33,259.51,377.09,291.05Z"/><circle class="cls-1" cx="71.2" cy="102.74" r="58.62" transform="translate(-51.79 80.44) rotate(-45)"/><path class="cls-1" d="M440.7,152.54c.91.84-21.3,26.4-49.61,57.09s-52,54.9-52.9,54.06,21.3-26.4,49.61-57.1S439.79,151.7,440.7,152.54Z"/><path class="cls-1" d="M395.87,129.91c-.43,1.23-65.22-6.38-144.68-17S107.64,92.7,108.08,91.47s65.2,6.38,144.69,17S396.31,128.69,395.87,129.91Z"/><path class="cls-1" d="M261.78,309.41c-1.18.4-13.3-13.38-34.56-31.23s-47.89-43.72-77.78-71.79S92.8,152.51,72.32,137.45c-17.85-18.9-27.95-30.84-26.71-31.19S59.29,117.2,78.76,135.6l76,71.93,76.8,71.65C251.18,297.53,263,309,261.78,309.41Z"/><path class="cls-4" d="M469.7,59.74c.3,4.91.64,6.4,2.46,10.32,1.08,2.32,2.6,4.47,3.2,7s.27,4.87.7,7.26c.71,3.91,3.31,7.16,5.25,10.62s3.26,7.85,1.33,11.32l-19.91-2.35-1.41-24.72Z"/><path class="cls-4" d="M430.12,51.36c-2.58,5.46,1,10.93-1.57,16.4a42.33,42.33,0,0,0-3.25,8.36c-.61,2.63-.74,5.4-1.81,7.88-1.71,4-5.58,6.62-7.38,10.53-2.66,5.79.17,13,5.25,16.88s11.84,4.8,18.2,4.36a24.91,24.91,0,0,0,11.08-3c3.31-2,6-5.33,6.39-9.17"/><path class="cls-4" d="M459.64,41.62C472.46,47.3,475,68.35,475.07,71.18c.07,3.38,1.87,4.08,4.12,5.85s4.42,3.9,5,6.65c.49,2.16,0,4.54,1,6.51,1.24,2.35,4.16,3.23,6.42,4.68,4.29,2.74,6.4,7.9,6.64,12.89s-1.13,9.88-2.49,14.69c-.54,1.91-1.21,4-2.94,5a8.4,8.4,0,0,1-4.57.75L464,127.7c-6.21-.14-12.58-.31-18.31-2.62a22.93,22.93,0,0,1-11.25-9.44,18.59,18.59,0,0,1-2-14.2c1-3.65,3.23-7,3.87-10.68.8-4.62-3.08-6.59-4.48-11.07s-2.56-15.22-.64-19.52"/><path class="cls-5" d="M474.29,157.65l-4-12.82-.59,19.58,9.15,23.6a60,60,0,0,1-60.73.43l6.17-22.15-2.94-25-8.13,11.63-17.34-16.77s12.69-23.46,14.26-25.6c10-13.64,27.38-13.32,27.38-13.32l24.54,1.36s13.79-.77,22.85,10.15c0,0,8.86,13.52,16.13,46.88Z"/><path class="cls-6" d="M486.56,112.37l-.36,0c-.23,0-.59,0-1,.14a16.72,16.72,0,0,0-3.89,1.13,17.78,17.78,0,0,0-5.35,3.51,16.57,16.57,0,0,0-2.56,3.09,12,12,0,0,0-1.78,4.1,5.1,5.1,0,0,0,.08,2.36,3.77,3.77,0,0,0,1.41,2,2.52,2.52,0,0,0,2.38.37,2.94,2.94,0,0,0,1.66-1.92,3.64,3.64,0,0,0-.19-2.67,5.72,5.72,0,0,0-1.87-2.17,11.84,11.84,0,0,0-5.68-2.12,17.31,17.31,0,0,0-6.44.58,23.35,23.35,0,0,0-6.26,2.61,17.72,17.72,0,0,0-5.19,4.73,6.27,6.27,0,0,0-1.24,3.26,3,3,0,0,0,.44,1.65,3.94,3.94,0,0,0,1.25,1.22l0,0a2.37,2.37,0,0,0,1.75.08A2.64,2.64,0,0,0,454.9,133a9.23,9.23,0,0,0,.72-3.93,11.2,11.2,0,0,0-.64-3.92,8.92,8.92,0,0,0-2.18-3.23,11.8,11.8,0,0,0-6.92-3.12,18.83,18.83,0,0,0-7.41.84c-2.33.72-4.66,1.67-6.16,3.45a4,4,0,0,0,.4,5.87,2.74,2.74,0,0,0,1.41.61,2.26,2.26,0,0,0,1.45-.35,3.3,3.3,0,0,0,1.37-2.59,7.75,7.75,0,0,0-.33-3c-.16-.48-.36-.93-.54-1.39-.09-.23-.17-.47-.28-.69l-.35-.64a17.22,17.22,0,0,0-3.33-4.44,20.76,20.76,0,0,0-8.17-4.89,19.82,19.82,0,0,0-7.16-1,18,18,0,0,0-4.51.84l-1.13.4-.39.13a3.09,3.09,0,0,1,.37-.17l1.12-.45a17.5,17.5,0,0,1,4.52-.92,20,20,0,0,1,7.26.88,20.93,20.93,0,0,1,8.31,4.91,17.31,17.31,0,0,1,3.42,4.5l.36.65c.11.23.19.47.29.7.18.47.39.93.55,1.42a8.05,8.05,0,0,1,.36,3.14,3.7,3.7,0,0,1-1.54,2.89,2.7,2.7,0,0,1-1.69.41,3.15,3.15,0,0,1-1.61-.69,4.61,4.61,0,0,1-1.66-3.07,3.69,3.69,0,0,1,.25-1.8,5.66,5.66,0,0,1,.93-1.57c1.6-1.9,4-2.86,6.36-3.6a19,19,0,0,1,7.58-.86,12.17,12.17,0,0,1,7.18,3.23A9.3,9.3,0,0,1,455.4,125a11.8,11.8,0,0,1,.67,4.08,9.66,9.66,0,0,1-.77,4.12,3,3,0,0,1-1.49,1.53,2.81,2.81,0,0,1-2.08-.07h0a4.43,4.43,0,0,1-1.39-1.37,3.34,3.34,0,0,1-.5-1.89,6.58,6.58,0,0,1,1.32-3.5,18,18,0,0,1,5.32-4.84,24.26,24.26,0,0,1,6.39-2.66,17.84,17.84,0,0,1,6.59-.56,12.19,12.19,0,0,1,5.86,2.2,6.29,6.29,0,0,1,2,2.32,4,4,0,0,1,.2,2.94,3.27,3.27,0,0,1-1.87,2.13,2.88,2.88,0,0,1-2.7-.42,4.11,4.11,0,0,1-1.52-2.14,5.48,5.48,0,0,1-.07-2.51,12,12,0,0,1,1.85-4.19,17.37,17.37,0,0,1,2.62-3.12,18,18,0,0,1,5.44-3.49,16.32,16.32,0,0,1,3.95-1A10.53,10.53,0,0,1,486.56,112.37Z"/><path class="cls-6" d="M497,140.41a16.2,16.2,0,0,0-2.23,1.07,11.37,11.37,0,0,0-4.4,4.93,10.49,10.49,0,0,0-.71,2.09,4.22,4.22,0,0,0,0,2.31,1.75,1.75,0,0,0,.62.95,1.17,1.17,0,0,0,1.09.12,2.49,2.49,0,0,0,1.31-2,4.74,4.74,0,0,0-2.62-4.65,6,6,0,0,0-5.85.55,8.44,8.44,0,0,0-3.31,5.09,3.85,3.85,0,0,0,.23,2.79,1.78,1.78,0,0,0,2.21.87,2.25,2.25,0,0,0,1.26-2,4.5,4.5,0,0,0-.74-2.35,6.94,6.94,0,0,0-3.49-2.82,6.5,6.5,0,0,0-3.72-.22,7.09,7.09,0,0,0-2.59,1.2A9,9,0,0,0,472.3,150s0-.05.07-.15.13-.23.26-.4a6.55,6.55,0,0,1,1.28-1.35,7.07,7.07,0,0,1,2.64-1.3,6.59,6.59,0,0,1,3.88.17,7.13,7.13,0,0,1,3.7,2.91,4.71,4.71,0,0,1,.82,2.55,2.63,2.63,0,0,1-1.48,2.42,1.89,1.89,0,0,1-1.56,0,2.59,2.59,0,0,1-1.18-1,4.2,4.2,0,0,1-.29-3.11,8.78,8.78,0,0,1,3.48-5.36,6.41,6.41,0,0,1,6.29-.57,5.13,5.13,0,0,1,2.84,5.09,2.84,2.84,0,0,1-1.58,2.37,1.58,1.58,0,0,1-1.45-.17,2.21,2.21,0,0,1-.76-1.16,4.61,4.61,0,0,1,0-2.5,10.59,10.59,0,0,1,.76-2.14,11.28,11.28,0,0,1,4.6-4.95A7.6,7.6,0,0,1,497,140.41Z"/><path class="cls-6" d="M469.8,152.79l-.21,0-.61-.15a19.93,19.93,0,0,0-2.39-.41,18.2,18.2,0,0,0-8.7,1.22,16.48,16.48,0,0,0-2.61,1.33,7.3,7.3,0,0,0-2.28,2.12,3.45,3.45,0,0,0-.43,3.11,2.7,2.7,0,0,0,1,1.34,2,2,0,0,0,1.59.34,3,3,0,0,0,2.22-2.53,5.6,5.6,0,0,0-1-3.64,11,11,0,0,0-6.56-4.65,10.77,10.77,0,0,0-7.95,1.19,9.85,9.85,0,0,0-2.92,2.54,5,5,0,0,0-.76,1.68,2.4,2.4,0,0,0,.14,1.7,1.65,1.65,0,0,0,1.31.88,2.48,2.48,0,0,0,1.56-.45,3,3,0,0,0,1.16-2.86,7.24,7.24,0,0,0-1-2.94,10.82,10.82,0,0,0-1.79-2.28,11.72,11.72,0,0,0-4.29-2.56,10.92,10.92,0,0,0-3.74-.59,12.63,12.63,0,0,0-3.21.52s.06,0,.2-.09l.6-.21a9.49,9.49,0,0,1,2.4-.39,10.74,10.74,0,0,1,3.83.52,11.65,11.65,0,0,1,4.42,2.57,10.44,10.44,0,0,1,1.88,2.34,7.49,7.49,0,0,1,1.07,3.08,4,4,0,0,1-.19,1.75,2.87,2.87,0,0,1-1.11,1.46,2.83,2.83,0,0,1-1.82.53,2.06,2.06,0,0,1-1.65-1.08,2.8,2.8,0,0,1-.18-2,5.37,5.37,0,0,1,.81-1.83,10.24,10.24,0,0,1,3.06-2.68,11.18,11.18,0,0,1,8.28-1.25,11.4,11.4,0,0,1,6.82,4.86,6,6,0,0,1,1.05,3.93,3.45,3.45,0,0,1-2.55,2.88,2.49,2.49,0,0,1-1.92-.42,3.2,3.2,0,0,1-1.09-1.54,3.66,3.66,0,0,1-.17-1.82,4.25,4.25,0,0,1,.66-1.63,7.85,7.85,0,0,1,2.4-2.21,16.61,16.61,0,0,1,2.68-1.32,17.88,17.88,0,0,1,8.84-1.1A12.4,12.4,0,0,1,469.8,152.79Z"/><path class="cls-7" d="M373.67,81.05c1.78.09,1.27,9.82,2.59,7.77s-.76-11.94,1.11-11.77c2.42.23,1.7,10.41,1.7,11.28s1.25.85,1.21.07c-.06-1.12-.44-12.9,2-12.7,1.32.11.84,2.47.84,2.47s-.47,11.08.66,11.13,1.64-6.44,1.65-8.64,1.05-3.08,2-2.3c.65.53.78,7.26.72,9.44s-.34,8.15,2.19,5.25,5.53-4.19,6.58-4,1.09,1.75,0,2.25a14.47,14.47,0,0,0-3,2.39A14.17,14.17,0,0,0,392,96.19a11,11,0,0,0-1.33,3.09l3.39,40.57,2.48-3.1,14.18,13.7-7.4,8.52c-5.42,6.23-15.22,6.64-20.73.48-.2-.23-.4-.46-.58-.7a11.47,11.47,0,0,1-2.3-6.15L375,100h0c-.11-5.84-1.69-10.28-2-13.3C372.5,81.08,373,81,373.67,81.05Z"/><path class="cls-7" d="M439.21,102.73c.05-6.11,0-12.56,0-12.56s-7.86-1.4-9.38-11.7c-1.44-9.82,1-31,1-31h0C442.22,43,455.06,44.76,463,53.93h0l-1.24,49.69c-.14,5.77-5.22,10.24-11.39,10h0C444.17,113.45,439.16,108.56,439.21,102.73Z"/><path class="cls-4" d="M433,63.74a1.32,1.32,0,0,0,1.25,1.35,1.27,1.27,0,0,0,1.38-1.18,1.32,1.32,0,0,0-1.26-1.34A1.25,1.25,0,0,0,433,63.74Z"/><path class="cls-4" d="M430.85,62.24c.16.17,1.17-.55,2.59-.53s2.45.74,2.6.57-.08-.39-.53-.73a3.7,3.7,0,0,0-2.09-.67,3.5,3.5,0,0,0-2.06.64C430.92,61.85,430.77,62.16,430.85,62.24Z"/><path class="cls-4" d="M447.49,64.16a1.31,1.31,0,0,0,1.26,1.34,1.25,1.25,0,0,0,1.37-1.17A1.31,1.31,0,0,0,448.87,63,1.26,1.26,0,0,0,447.49,64.16Z"/><path class="cls-4" d="M445.65,62.93c.16.17,1.17-.56,2.59-.54s2.45.74,2.6.57-.08-.39-.53-.72a3.6,3.6,0,0,0-2.09-.67,3.43,3.43,0,0,0-2.06.64C445.72,62.54,445.57,62.85,445.65,62.93Z"/><path class="cls-4" d="M440.38,73.39a9.79,9.79,0,0,0-2.3-.44c-.37,0-.71-.12-.77-.37a1.88,1.88,0,0,1,.26-1.07c.35-.87.72-1.79,1.1-2.75,1.54-3.91,2.65-7.12,2.49-7.19s-1.53,3.07-3.06,7L437,71.31a2.11,2.11,0,0,0-.2,1.42.9.9,0,0,0,.59.54,2.43,2.43,0,0,0,.61.09A9.55,9.55,0,0,0,440.38,73.39Z"/><path class="cls-8" d="M439.2,90.17A26.15,26.15,0,0,0,453,86.66s-3.43,7-13.71,5.94Z"/><path class="cls-8" d="M440.94,76.82a2.53,2.53,0,0,1,2.3-.92,2.29,2.29,0,0,1,1.6.88,1.48,1.48,0,0,1,.1,1.69,1.71,1.71,0,0,1-1.87.45,5.33,5.33,0,0,1-1.8-1.1,1.63,1.63,0,0,1-.4-.43.47.47,0,0,1,0-.53"/><path class="cls-4" d="M444.54,74.42c-.23,0-.25,1.53-1.58,2.6s-3,.89-3,1.11.36.3,1,.33a3.84,3.84,0,0,0,2.49-.84,3.35,3.35,0,0,0,1.23-2.18C444.82,74.8,444.65,74.41,444.54,74.42Z"/><path class="cls-4" d="M458.57,46.59c-3.76,5.37-13.72,10.89-20.85,12.17.83-1.1,5.21-3.8,6-4.9-3.23,2.42-7.86,5.65-12.15,5.87a2.7,2.7,0,0,1-1.47-.23,2,2,0,0,1-.75-1.62,42.75,42.75,0,0,1,.29-9.32,10.34,10.34,0,0,1,3.72-6.65c2.74-2.12,6.68-2.64,10.38-2.73a23.47,23.47,0,0,1,9.16,1.23c2.84,1.12,5.27,3.34,5.68,6"/><path class="cls-4" d="M469.36,70.63a58.57,58.57,0,0,0,1-6.87c.3-5.31-1.23-24.9-19.53-23.32l4.41,5.62s-3.62,11.87,4.08,20.06c0,0,.44,4.79,5.8,10.32,0,0,3.1-.09,4.21-5.81"/><path class="cls-7" d="M459.13,65.23a6.11,6.11,0,0,1,3.31.25,4.31,4.31,0,0,1,2.4,2.23,4.48,4.48,0,0,1,0,3.28,7.5,7.5,0,0,1-1.91,2.75,5.09,5.09,0,0,1-2,1.3,2.46,2.46,0,0,1-2.29-.38"/><path class="cls-8" d="M459.66,71.9c-.12,0,.35.71,1.36.45a2.15,2.15,0,0,0,1.25-1.07,4.87,4.87,0,0,0,.57-1.81,2.9,2.9,0,0,0-.44-2,1.94,1.94,0,0,0-1.44-.87c-1,0-1.36.68-1.24.7s.48-.28,1.16-.11A1.86,1.86,0,0,1,462,69.38c-.14,1.13-.58,2.16-1.19,2.41S459.73,71.81,459.66,71.9Z"/><polygon class="cls-4" points="472.03 170.44 472.03 165.74 438.96 165.74 429.25 123.23 379.75 123.63 391.76 170.44 472.03 170.44"/><path class="cls-6" d="M403.21,146.86c.73,2.25,2.72,3.62,4.44,3.06s2.53-2.84,1.8-5.09-2.72-3.62-4.45-3.06S402.47,144.61,403.21,146.86Z"/><path class="cls-7" d="M427,170.15a30.22,30.22,0,0,1-2.06-5,3,3,0,0,1-.2-1.25,1.08,1.08,0,0,1,.76-.94c.77-.15,1.25.78,1.55,1.51a9.4,9.4,0,0,0,6.49,5.45l2-.06v-.08L478.8,166l-2.07-8.58,22.91-1.7,2.08,8.45a17.41,17.41,0,0,1-18,19.25H434.11c-15.79,1-18.76-12.92-18.76-12.92Z"/><path class="cls-9" d="M369.47,308.85l-19.56,12.07,7.17,17.26A62.92,62.92,0,0,0,372.44,316Z"/><path class="cls-10" d="M374.77,309.25c-2.53-6.05-11.2-26-18.46-33.5-10.87-11.17-30-9.67-30-9.67l-24.85.88a58.36,58.36,0,0,0-18.31,5.67l-.61.19v.12c-7,3.78-16.81,12.84-26.19,21.63L267.59,305,280,316a.31.31,0,0,0,0,.22c.13.67-2,14-3.93,25.55a62.71,62.71,0,0,0,66,6.71l.93-10.66c.84-9.66,1.49-21.63,1.49-21.63l3.57,9L374,311.79C374.27,311,374.53,310.1,374.77,309.25Z"/><path class="cls-4" d="M327,265.14a2.41,2.41,0,0,1,.11.44,10.33,10.33,0,0,1,.16,1.3,12.89,12.89,0,0,1-.64,4.78,13.58,13.58,0,0,1-3.93,5.94,13.63,13.63,0,0,1-16.46.78,13.56,13.56,0,0,1-4.48-5.55,13,13,0,0,1-1.09-4.69,9.61,9.61,0,0,1,0-1.31,2.4,2.4,0,0,1,.06-.45c.05,0,0,.63.07,1.75a13.79,13.79,0,0,0,1.21,4.57,13.5,13.5,0,0,0,4.42,5.34,13.37,13.37,0,0,0,16-.75,13.56,13.56,0,0,0,3.9-5.74,13.73,13.73,0,0,0,.77-4.66C327.08,265.76,327,265.15,327,265.14Z"/><path class="cls-4" d="M350.66,270.53a11.51,11.51,0,0,0-1.76.42,8.47,8.47,0,0,0-3.85,2.92,13.52,13.52,0,0,0-2.44,6.76c-.18,1.37-.25,2.82-.3,4.32s-.09,3.07-.11,4.67a158.39,158.39,0,0,0,.74,16.37c.19,2.08.4,3.77.53,4.94.06.54.12,1,.16,1.34a1.52,1.52,0,0,1,0,.47,2.4,2.4,0,0,1-.11-.46c-.07-.35-.14-.79-.24-1.33-.18-1.16-.44-2.84-.68-4.93a139.62,139.62,0,0,1-.87-16.4c0-1.61.05-3.17.12-4.68s.14-3,.33-4.36a13.79,13.79,0,0,1,2.6-6.91,8.49,8.49,0,0,1,4.05-2.89A4.53,4.53,0,0,1,350.66,270.53Z"/><path class="cls-4" d="M291.51,268.91a1.72,1.72,0,0,1-.1.49l-.39,1.36c-.36,1.24-.85,2.93-1.46,5-1.21,4.21-2.82,10.06-4.4,16.56s-2.8,12.45-3.64,16.76c-.41,2.1-.74,3.83-1,5.1-.11.56-.21,1-.28,1.39a1.62,1.62,0,0,1-.13.47,2.57,2.57,0,0,1,0-.49c.05-.37.12-.83.2-1.4.17-1.22.46-3,.84-5.13.76-4.33,2-10.28,3.52-16.8s3.23-12.36,4.53-16.55c.65-2.1,1.2-3.79,1.59-5l.47-1.34A2.9,2.9,0,0,1,291.51,268.91Z"/><path class="cls-4" d="M374.28,305.09a5.77,5.77,0,0,1-1,.76c-.67.46-1.65,1.12-2.87,1.9-2.44,1.58-5.86,3.69-9.71,5.9s-7.4,4.09-10,5.39c-1.3.66-2.36,1.17-3.09,1.52a6.58,6.58,0,0,1-1.17.49,7,7,0,0,1,1.09-.65l3-1.64c2.56-1.38,6.08-3.3,9.92-5.5s7.28-4.27,9.76-5.77l2.94-1.79A8.4,8.4,0,0,1,374.28,305.09Z"/><path class="cls-4" d="M281.3,308.87c-.08.1-5-3.75-10.91-8.6s-10.71-8.85-10.63-8.95,5,3.76,10.91,8.6S281.38,308.78,281.3,308.87Z"/><path class="cls-11" d="M342,291.38l9.73,32-3.62,1.88-3.57-9S340.83,297.2,342,291.38Z"/><g class="cls-12"><path d="M292.57,268.93c-5.25,2.77,7.9,9.42,13.83,9.24l-4.31-11.37S294.33,268,292.57,268.93Z"/></g><polygon class="cls-13" points="326.04 315.34 294.9 315.46 296.94 304 328.34 303.39 326.04 315.34"/><path class="cls-14" d="M323.05,228.21a2.3,2.3,0,0,0,3.3,2.66c1.5-.8,1.65-2.89,1.32-4.56s-.93-3.45-.26-5c.51-1.2,1.66-2,2.55-2.92a7.34,7.34,0,0,0,1.92-6.27,6.17,6.17,0,0,0-4.34-4.77c-2.24-.58-5,.16-6.66-1.43-1.23-1.14-1.34-3.06-2.3-4.43-1.49-2.14-4.55-2.43-7.12-2s-5.19,1.29-7.73.71c-2.12-.49-3.88-1.93-5.88-2.79a11.4,11.4,0,0,0-14.54,15.94,7.38,7.38,0,0,0,3.61,3.43"/><path class="cls-9" d="M314,280.5h0a12.77,12.77,0,0,1-12.83-12.07c-.28-5.64-.51-11.07-.51-11.07s-10.47-.76-11.44-11-1.1-33.91-1.1-33.91h0A36.33,36.33,0,0,1,324.62,214l1,.64,1.21,53A12.77,12.77,0,0,1,314,280.5Z"/><path class="cls-4" d="M308,228.2a1.49,1.49,0,1,0,1.9,1A1.5,1.5,0,0,0,308,228.2Z"/><path class="cls-4" d="M305.15,228.73c.17.17,1.14-.66,2.57-.76s2.5.58,2.65.39-.11-.4-.58-.71a3.57,3.57,0,0,0-2.14-.53,3.43,3.43,0,0,0-2,.83C305.2,228.33,305.06,228.66,305.15,228.73Z"/><path class="cls-4" d="M292.39,228.2a1.5,1.5,0,0,0-1,1.89,1.52,1.52,0,0,0,1.91.94,1.47,1.47,0,0,0,1-1.88A1.5,1.5,0,0,0,292.39,228.2Z"/><path class="cls-4" d="M289.33,228.76c.17.17,1.14-.66,2.57-.75s2.5.57,2.65.38-.11-.39-.58-.71a3.53,3.53,0,0,0-2.13-.53,3.6,3.6,0,0,0-2,.83C289.38,228.36,289.25,228.69,289.33,228.76Z"/><path class="cls-4" d="M300.08,239.83a7,7,0,0,0-2.34-.29c-.37,0-.67-.08-.72-.27a2.09,2.09,0,0,1,.18-1.08l.9-3c1.22-4.21,2-7.67,1.82-7.73s-1.38,3.3-2.61,7.51c-.28,1-.55,2-.82,3a2.24,2.24,0,0,0-.08,1.55,1,1,0,0,0,.69.53,2.05,2.05,0,0,0,.64,0A6.84,6.84,0,0,0,300.08,239.83Z"/><path class="cls-15" d="M304.84,241a35.26,35.26,0,0,1-6.82,2.57,4,4,0,0,0,4.77,1.18C305.79,243.4,304.84,241,304.84,241Z"/><path class="cls-16" d="M300.66,257.21a24.31,24.31,0,0,0,13.17-4.88s-2.59,7.63-13,7.54Z"/><path class="cls-17" d="M325.87,225a1.55,1.55,0,0,1,1.46-1.58c1.93-.09,5.11.61,5.51,5.88.57,7.54-6.79,5.8-6.82,5.59S325.91,228,325.87,225Z"/><path class="cls-16" d="M327.64,231.92s.14.08.37.16a1.28,1.28,0,0,0,1-.05c.78-.35,1.36-1.67,1.3-3a4.34,4.34,0,0,0-.51-1.85,1.55,1.55,0,0,0-1.08-.93.66.66,0,0,0-.75.41c-.09.22,0,.37-.07.39s-.17-.12-.13-.43a.81.81,0,0,1,.26-.5,1,1,0,0,1,.72-.25,1.88,1.88,0,0,1,1.47,1.07,4.42,4.42,0,0,1,.62,2.07c.07,1.52-.61,3-1.69,3.4a1.45,1.45,0,0,1-1.22-.11C327.67,232.1,327.61,231.93,327.64,231.92Z"/><path class="cls-4" d="M310.23,224.53c-.32.42-1.45.22-2.91.16s-2.59-.06-2.86-.51,1.11-1.55,3-1.39S310.59,224.1,310.23,224.53Z"/><path class="cls-4" d="M293.78,224.27c-.11.52-1.06.77-2.12.87s-2.05,0-2.24-.49.69-1.29,2.07-1.41S293.89,223.76,293.78,224.27Z"/><path class="cls-14" d="M286.7,215.7s6.21,3,14.29-1c5.31-2.65,11.49-3.94,12.85-2.88s1.65,6.54,6.91,8.13c0,0-.36,10.43,3.79,10.06s1.56-16.53,1.56-16.53l-10.17-5-11.1-2.1-10.46,1.47-8.09,2.22Z"/><path class="cls-18" d="M249.54,233.55c.37.59,12.33,42.05,12.33,42.05l-23.74,3.23L227.22,245Z"/><polygon class="cls-4" points="261.87 275.6 264 274.46 251.58 232.46 249.28 233.68 261.87 275.6"/><path class="cls-4" d="M239.6,244.56a1,1,0,1,1-1.2-.78A1,1,0,0,1,239.6,244.56Z"/><path class="cls-9" d="M257.39,294.52l-15.57,10.14L239,268.37h0l.24-1.82,10.55-4-3-7.77a6.7,6.7,0,0,0-9.24-3.43l-3.38,1.72a9.53,9.53,0,0,0-4.88,6c-1.2,4.49-2.26,9.35-2.15,8.93h0l-6.67,46.72s-3.18,13.47,6,19.87c7,4.85,18.69-.3,24.91-3.81l27-16.26Z"/><path class="cls-19" d="M126.36,122.45l-10.57-16.07L98,117.57l16.15,24.89S123,132.83,126.36,122.45Z"/><path class="cls-20" d="M60.17,42.07c.87-1-.31-2.46-1.53-2.9s-2.73-.64-3.32-1.8c-.7-1.41.55-3,.77-4.53s-.72-3.25-1-4.91A6.18,6.18,0,0,1,63.21,21,8.06,8.06,0,0,1,77.5,16.26a22.63,22.63,0,0,1,5.1-3.2,7.63,7.63,0,0,1,5.89-.17,4.66,4.66,0,0,1,2.85,4.82,5.11,5.11,0,0,1,6-1.05,7.65,7.65,0,0,1,3.86,5,8.13,8.13,0,0,1-2.23,8.3c-2.33,1.93-6.31,1.75-8-.74"/><path class="cls-21" d="M71.6,91.54h0a11.94,11.94,0,0,0,12-11.3c.27-5.28.49-10.36.49-10.36s9.79-.71,10.7-10.28,1-31.73,1-31.73h0a34,34,0,0,0-34.12,1.48l-.93.6L59.62,79.51A12,12,0,0,0,71.6,91.54Z"/><path class="cls-4" d="M77.22,42.6a1.4,1.4,0,1,1-.89,2.65,1.38,1.38,0,0,1-.89-1.76A1.41,1.41,0,0,1,77.22,42.6Z"/><path class="cls-4" d="M79.9,43.1c-.16.16-1.07-.62-2.4-.71s-2.34.54-2.48.36.1-.37.54-.66a3.31,3.31,0,0,1,2-.5,3.28,3.28,0,0,1,1.9.78C79.85,42.72,80,43,79.9,43.1Z"/><path class="cls-4" d="M91.84,42.6A1.4,1.4,0,1,1,91,45.25a1.38,1.38,0,0,1-.89-1.76A1.41,1.41,0,0,1,91.84,42.6Z"/><path class="cls-4" d="M94.7,43.13c-.16.16-1.07-.62-2.4-.71s-2.34.54-2.48.36.1-.37.54-.66a3.31,3.31,0,0,1,2-.5,3.28,3.28,0,0,1,1.9.78C94.65,42.75,94.78,43.06,94.7,43.13Z"/><path class="cls-4" d="M84.64,53.49a6.18,6.18,0,0,1,2.19-.28c.35,0,.63-.07.67-.25a1.81,1.81,0,0,0-.17-1l-.83-2.77C85.36,45.24,84.59,42,84.8,42s1.29,3.08,2.43,7c.27,1,.52,1.88.78,2.79a2.2,2.2,0,0,1,.07,1.45.9.9,0,0,1-.65.5,2.11,2.11,0,0,1-.6,0A6.72,6.72,0,0,1,84.64,53.49Z"/><path class="cls-15" d="M80.19,54.6A32.81,32.81,0,0,0,86.57,57a3.72,3.72,0,0,1-4.46,1.11C79.3,56.82,80.19,54.6,80.19,54.6Z"/><path class="cls-19" d="M84.1,69.75a22.71,22.71,0,0,1-12.32-4.57s2.42,7.14,12.14,7Z"/><path class="cls-21" d="M60.51,44a1.45,1.45,0,0,0-1.37-1.48c-1.8-.09-4.77.57-5.14,5.5-.54,7.06,6.35,5.43,6.38,5.23S60.48,46.76,60.51,44Z"/><path class="cls-19" d="M58.86,50.46s-.13.08-.35.16a1.27,1.27,0,0,1-.93,0,3,3,0,0,1-1.21-2.84A4,4,0,0,1,56.85,46a1.43,1.43,0,0,1,1-.87.62.62,0,0,1,.7.39c.08.2,0,.34.06.36s.16-.11.13-.41A.79.79,0,0,0,58.5,45a.93.93,0,0,0-.67-.23,1.76,1.76,0,0,0-1.38,1,4.25,4.25,0,0,0-.58,1.93c-.06,1.43.58,2.81,1.58,3.18a1.34,1.34,0,0,0,1.15-.1C58.83,50.63,58.88,50.48,58.86,50.46Z"/><path class="cls-4" d="M75.15,39.17c.3.39,1.35.21,2.72.15s2.43-.06,2.68-.48-1-1.45-2.8-1.3S74.81,38.77,75.15,39.17Z"/><path class="cls-4" d="M90.54,38.93c.1.48,1,.72,2,.81s1.92,0,2.1-.46S94,38.08,92.68,38,90.44,38.45,90.54,38.93Z"/><path class="cls-20" d="M97.16,30.9s-5.81,2.82-13.37-1c-5-2.47-10.75-3.68-12-2.69s-1.55,6.11-6.46,7.61c0,0,.33,9.75-3.56,9.41S60.3,28.81,60.3,28.81l9.51-4.65,10.39-2L90,23.58l7.57,2.07Z"/><path class="cls-5" d="M32,87.36C42.21,76.9,60.11,78,60.11,78l23.25.83a54.48,54.48,0,0,1,17.12,5.3l.57.18v.12c6.5,3.53,15.72,12,24.5,20.23L115,114.45l-11.63,10.32a.29.29,0,0,1,0,.21c-.12.63,1.89,13.11,3.67,23.9a58.62,58.62,0,0,1-61.75,6.29l-.87-10c-.79-9-1.4-20.24-1.4-20.24"/><path class="cls-4" d="M92.66,80.7a1.68,1.68,0,0,1,.18.42c.12.33.26.75.44,1.25.38,1.09.89,2.67,1.5,4.63C96,90.93,97.55,96.39,99,102.49s2.58,11.67,3.29,15.71c.36,2,.62,3.67.78,4.81l.18,1.31a1.34,1.34,0,0,1,0,.46,2.84,2.84,0,0,1-.12-.45c-.07-.34-.15-.77-.26-1.29l-.92-4.78c-.79-4-2-9.58-3.41-15.67s-3-11.55-4.12-15.5l-1.36-4.67c-.14-.51-.26-.93-.36-1.27A1.7,1.7,0,0,1,92.66,80.7Z"/><path class="cls-4" d="M102.21,118.08c-.08-.1,4.37-3.85,9.94-8.38s10.14-8.14,10.22-8-4.37,3.85-9.94,8.38S102.29,118.18,102.21,118.08Z"/><path class="cls-11" d="M45.46,101.72l-9.1,29.94,3.38,1.76L43.08,125S46.52,107.16,45.46,101.72Z"/><g class="cls-12"><path d="M91.67,80.71c4.91,2.59-7.39,8.81-12.94,8.65l4-10.64S90,79.85,91.67,80.71Z"/></g><path class="cls-5" d="M58.64,78.72V70.79s15.49,4,16,13.25c0,0,2-10.24,10-10.74l1.13,14.41-9.29,8.08H67.07l-7.45-6.43-1-10"/><path class="cls-4" d="M78.18,128.48a1.25,1.25,0,0,1,0-.44c0-.34,0-.76,0-1.26,0-1.1,0-2.68.06-4.64,0-3.92-.1-9.33-.59-15.28S76.37,95.54,75.7,91.69c-.33-1.93-.62-3.49-.83-4.57l-.22-1.24a1.34,1.34,0,0,1-.05-.44,2.26,2.26,0,0,1,.14.42l.3,1.22c.26,1.07.6,2.62,1,4.55a145,145,0,0,1,2.08,15.19,146.83,146.83,0,0,1,.46,15.32c0,2-.13,3.55-.21,4.65,0,.5-.07.92-.1,1.26A2.55,2.55,0,0,1,78.18,128.48Z"/><path class="cls-4" d="M74,81.37a1.82,1.82,0,0,0-.93.07,2,2,0,0,0-.85.67,6.58,6.58,0,0,0-.72,1.31,44.08,44.08,0,0,0-3,8.57l-.07.3-.26-.16c-.93-.56-1.88-1.16-2.83-1.81a57.13,57.13,0,0,1-5-3.81,6.29,6.29,0,0,1-1.7-2.22,7,7,0,0,1-.53-2.38,14.42,14.42,0,0,1,.33-3.46,5.58,5.58,0,0,1,.33-1.23,9.5,9.5,0,0,1-.15,1.26,15.64,15.64,0,0,0-.19,3.41A6.91,6.91,0,0,0,59,84.14a6,6,0,0,0,1.63,2.06c1.47,1.23,3.17,2.5,5,3.75,1,.64,1.89,1.24,2.81,1.81l-.33.13a39.83,39.83,0,0,1,3.13-8.59A6.42,6.42,0,0,1,72,82a2.06,2.06,0,0,1,1-.67A1.09,1.09,0,0,1,74,81.37Z"/><path class="cls-4" d="M84.64,73.3a7.45,7.45,0,0,1,.13,1.24c.06.88.14,2,.23,3.38s.28,3.11.57,5a8.34,8.34,0,0,1,.18,3,5.19,5.19,0,0,1-2,2.58,23.56,23.56,0,0,0-3.41,2.59l-.34.39,0-.52a18.59,18.59,0,0,0-2.3-7.73c-1-1.76-1.82-2.67-1.76-2.71a3.49,3.49,0,0,1,.6.62,16,16,0,0,1,1.39,2,17.72,17.72,0,0,1,2.5,7.84L80,90.81a21.62,21.62,0,0,1,3.46-2.67,4.85,4.85,0,0,0,1.87-2.33A8.38,8.38,0,0,0,85.16,83c-.27-1.87-.4-3.58-.48-5s-.09-2.59-.09-3.39A6.6,6.6,0,0,1,84.64,73.3Z"/><path class="cls-4" d="M134.49,75.29c-.63.75-23.43,31.23-23.43,31.23l3.21,1.82,23.39-30.1Z"/><path class="cls-21" d="M42.9,99.4s24,34.52,25.43,35.2c2.84,1.34,35.66-27,38.78-29.73.44-.58,1.33-1.79,3.07-4.21,0,0,2.59-11.85,5.35-10.94s-1.51,6,.29,10.52,10-6.23,10.37-7.2l2.12-2.77s2.23,6.32,2.08,9c-.48,8.46-8.48,18.51-8.48,18.51S86,162.21,61.4,163.59c-7.08.4-19.67-19.7-28.09-34.78a20.63,20.63,0,0,1,5.88-26.71Z"/><path class="cls-19" d="M126.36,100.73c-.07,0,.71-1.4,1.56-3.12s1.45-3.16,1.53-3.13a15.12,15.12,0,0,1-1.29,3.25A15.69,15.69,0,0,1,126.36,100.73Z"/><path class="cls-5" d="M38.84,82.55S13.09,91.7,32.23,135L62,117.06l-4.23-10.13Z"/><path class="cls-5" d="M36.86,83.3s.07,0,.21,0h.6a11,11,0,0,1,2.29.3A13.09,13.09,0,0,1,43.33,85a18.67,18.67,0,0,1,3.74,3.08,44.94,44.94,0,0,1,7,10.45c2.18,4.2,4.21,9,6.29,14,.63,1.5,1.24,3,1.83,4.4l.07.19-.17.09c-8.6,4.69-16.09,9.08-21.37,12.38-2.65,1.64-4.76,3-6.2,3.93l-1.67,1.08a4.57,4.57,0,0,1-.59.35,5,5,0,0,1,.55-.42c.37-.26.91-.66,1.62-1.14,1.42-1,3.5-2.38,6.13-4.06,5.25-3.36,12.71-7.8,21.31-12.51l-.09.28-1.83-4.4c-2.08-5-4.1-9.83-6.24-14A46,46,0,0,0,46.84,88.3a18.06,18.06,0,0,0-3.65-3.08,13.06,13.06,0,0,0-3.28-1.48A17.31,17.31,0,0,0,36.86,83.3Z"/><line class="cls-22" x1="213.27" y1="259.33" x2="207.27" y2="259.32"/><line class="cls-23" x1="196" y1="259.31" x2="43.87" y2="259.12"/><line class="cls-22" x1="38.23" y1="259.11" x2="32.23" y2="259.11"/><line class="cls-22" x1="32.23" y1="226.33" x2="32.23" y2="232.33"/><line class="cls-24" x1="32.23" y1="239.25" x2="32.23" y2="249.64"/><line class="cls-22" x1="32.23" y1="253.11" x2="32.23" y2="259.11"/></g></g></svg>